G04 ================== begin FILE IDENTIFICATION RECORD ==================*
G04 Layout Name:  c:/users/joser/onedrive/escritorio/allegro/artix-7_ja.brd*
G04 Film Name:    BOTTOM*
G04 File Format:  Gerber RS274X*
G04 File Origin:  Cadence Allegro 25.1-S010*
G04 Origin Date:  Mon May 11 22:28:26 2026*
G04 *
G04 Layer:  ETCH/BOTTOM*
G04 Layer:  PIN/BOTTOM*
G04 Layer:  VIA CLASS/BOTTOM*
G04 *
G04 Offset:    (0.0000 0.0000)*
G04 Mirror:    No*
G04 Mode:      Positive*
G04 Rotation:  0*
G04 FullContactRelief:  No*
G04 UndefLineWidth:     0.1000*
G04 ================== end FILE IDENTIFICATION RECORD ====================*
%FSLAX25Y25*MOMM*%
%IR0*IPPOS*OFA0.00000B0.00000*MIA0B0*SFA1.00000B1.00000*%
%ADD11C,.3*%
%ADD17R,.3X.3*%
%ADD27C,1.5*%
%ADD20R,.35X.25*%
%ADD18R,.25X.35*%
%ADD13C,1.016*%
%ADD12C,1.6002*%
%ADD21C,1.5301*%
%ADD16C,1.308*%
%ADD26R,1.5X1.5*%
%ADD25C,1.651*%
%ADD15C,1.3208*%
%ADD10R,.6401X.65*%
%ADD24C,1.446*%
%ADD19C,2.3551*%
%ADD28C,1.397*%
%ADD23R,1.446X1.446*%
%ADD14C,1.5748*%
%ADD22C,3.2499*%
%ADD29C,.15*%
%ADD30C,.08*%
G75*
%LPD*%
G75*
G54D10*
X193000Y2351000D03*
Y2441000D03*
G54D20*
X4460000Y8283500D03*
Y8228500D03*
X4620000Y8308500D03*
Y8363500D03*
X4780000Y8447500D03*
Y8392500D03*
X4852000Y7809500D03*
Y7754500D03*
X4865000Y8676500D03*
Y8621500D03*
X5019000Y7494500D03*
Y7439500D03*
X5024000Y7594500D03*
Y7649500D03*
X4938000Y7762500D03*
Y7817500D03*
X4931000Y7992500D03*
Y8047500D03*
X5179000Y8068500D03*
X5262000Y8067500D03*
X5179000Y8123500D03*
X5262000Y8122500D03*
X5336000Y7276500D03*
Y7331500D03*
X5347000Y7731500D03*
Y7676500D03*
X5346000Y8150500D03*
Y8205500D03*
X5495000Y7356500D03*
Y7411500D03*
X5655000Y7439500D03*
Y7494500D03*
X5744000Y8678500D03*
Y8623500D03*
G54D11*
G01X193000Y2441000D02*
Y2497000D01*
X198000Y2502000D01*
G01X1425000Y2843000D02*
Y2790000D01*
X1482040Y2732960D01*
X1865000D01*
G01D02*
X1793000Y2660960D01*
Y2236000D01*
X1842960Y2186040D01*
X1941960D01*
G01X1865000Y2732960D02*
X1941960D01*
G01X4957000Y564000D02*
X4375700D01*
X4352700Y587000D01*
X4310000D01*
G01X4600000Y3160000D02*
X4617000Y3177000D01*
Y3502000D01*
X4916000Y3801000D01*
Y3818000D01*
X5159000Y4061000D01*
X5169000D01*
G01X5293000Y3699000D02*
Y3492000D01*
G01X5331090Y7747910D02*
Y7747410D01*
X5347000Y7731500D01*
G01X7141000Y9845000D02*
Y10065000D01*
X7143000Y10067000D01*
X210000Y2286000D03*
X198000Y2502000D03*
X195000Y6140000D03*
X182000Y6503000D03*
Y6789000D03*
X185000Y7050000D03*
Y7332000D03*
X183000Y7594000D03*
X178000Y7859000D03*
X186000Y8151000D03*
X180000Y8442000D03*
X338000Y1775000D03*
X283000Y3909000D03*
X476000Y2076000D03*
X470000Y2798000D03*
X482000Y3598000D03*
X478000Y4482000D03*
X448000Y5708000D03*
Y5772000D03*
X451000Y8822000D03*
X469000Y13859000D03*
X477000Y14147000D03*
X540000Y1431000D03*
X558000Y2794000D03*
X595000Y5273000D03*
X539000Y5879000D03*
X738000Y2036000D03*
X671000Y2382000D03*
X704000Y2442000D03*
X739000Y3588000D03*
X745000Y3824000D03*
X722000Y5428000D03*
X693000Y8656000D03*
X744000Y13877000D03*
X746000Y14160000D03*
X815410Y1417590D03*
X762000Y2109000D03*
X760000Y2493000D03*
X869000Y3828000D03*
X846000Y4062000D03*
X814000Y5241000D03*
X824000Y5391000D03*
X827000Y5725000D03*
X815000Y6509000D03*
X811000Y6786000D03*
X808000Y7035000D03*
X807000Y7331000D03*
X805000Y7594000D03*
X800000Y7880000D03*
X798000Y8162000D03*
X784000Y8451000D03*
X818000Y8878000D03*
X860000Y12992000D03*
X976000Y1630000D03*
X970000Y1790000D03*
X989000Y1936000D03*
X894000Y2471000D03*
X973930Y2685070D03*
X967220Y5003780D03*
X964000Y5662000D03*
X925000Y7417000D03*
Y8619000D03*
X1017000Y1420000D03*
X1105000Y3882000D03*
X1088000Y3993000D03*
X1017000Y4780000D03*
X1044000Y5091000D03*
X1052780Y5442220D03*
X1009000Y5734000D03*
X1037000Y7514000D03*
X1108000Y9209000D03*
X1175000Y1061000D03*
X1134000Y1527000D03*
X1174920Y2930080D03*
X1218000Y4045000D03*
X1112780Y5011780D03*
Y5630220D03*
X1190000Y6342000D03*
X1169000Y7527000D03*
X1112000Y8782000D03*
X1267000Y1302000D03*
X1324960Y1892960D03*
X1247000Y2410000D03*
X1304000Y3027000D03*
X1324000Y3197000D03*
X1304000Y3762000D03*
X1253790Y4094000D03*
X1281000Y5250000D03*
X1317000Y8722000D03*
X1360000Y1576000D03*
X1425000Y2843000D03*
X1407000Y3384000D03*
X1465000Y4069000D03*
X1374970Y4898970D03*
X1424980Y4902000D03*
X1374970Y5545910D03*
X1420000Y6335000D03*
X1353000Y6971000D03*
X1360000Y7144000D03*
X1382000Y7046000D03*
X1368000Y7245000D03*
X1374000Y7348000D03*
X1365000Y7449000D03*
X1366000Y7562000D03*
X1372000Y7655000D03*
X1389000Y12247000D03*
Y13093000D03*
X1519000Y1476000D03*
X1575020Y1887980D03*
X1500000Y2162590D03*
Y2410000D03*
Y2657410D03*
X1575000Y3083000D03*
X1525010Y4888010D03*
X1474990Y4902990D03*
X1502000Y5032000D03*
Y5252000D03*
X1499000Y5459000D03*
X1474990Y5545910D03*
X1562000Y5637000D03*
X1580000Y5931000D03*
X1563000Y7793000D03*
X1553000Y13023000D03*
X1697000Y717000D03*
X1702000Y1444000D03*
X1625030Y1888030D03*
X1614000Y2962000D03*
X1651000Y3852000D03*
X1673500Y4103500D03*
X1643000Y4401000D03*
X1599000Y4498000D03*
X1600000Y4722780D03*
X1700000Y5932000D03*
X1587000Y6205000D03*
X1650000Y6755000D03*
X1662000Y12737000D03*
X1807000Y1322000D03*
X1713000Y1691000D03*
X1724000Y1893000D03*
X1747410Y2410000D03*
X1803810Y2939000D03*
X1727000Y4176000D03*
X1710000Y4493000D03*
X1787000Y4660000D03*
X1716000Y5251000D03*
X1745000Y5647000D03*
X1712000Y6029000D03*
X1724000Y8355000D03*
X1762000Y12232000D03*
X1824000Y1559210D03*
X1825000Y2030000D03*
X1941960Y2186040D03*
Y2732960D03*
X1878000Y4353000D03*
X1853000Y4554000D03*
X1898000Y5090000D03*
X1928000Y5228000D03*
X1904980Y5174980D03*
X1923980Y5325020D03*
X1933000Y6064000D03*
X1901000Y6300000D03*
X1905000Y6369000D03*
X1994000Y1640000D03*
X2024000Y2480000D03*
X1963000Y3109000D03*
X1972000Y3207000D03*
Y3330000D03*
X1976000Y4044000D03*
X2056000Y4132000D03*
X1957500Y4938500D03*
X2009000Y5225000D03*
X2035000Y5327000D03*
Y5588000D03*
X2027000Y8396000D03*
X2089000Y1723000D03*
X2143000Y3048000D03*
X2148000Y5109000D03*
X2159000Y5538000D03*
X2063000Y8193000D03*
X2095000Y8300000D03*
X2193000Y670000D03*
X2296000Y654000D03*
X2204000Y1759000D03*
X2202000Y3530000D03*
X2256000Y4185000D03*
X2206000Y4426000D03*
X2221000Y5201000D03*
X2232000Y6072000D03*
X2242000Y11918000D03*
X2327000Y2095000D03*
X2321000Y3530000D03*
X2381000Y4509000D03*
X2376000Y5945000D03*
X2329000Y5878000D03*
X2327000Y6531000D03*
X2415000Y8165000D03*
X2532000Y1905000D03*
X2424000Y2135000D03*
X2493000Y4742000D03*
X2498000Y4977000D03*
X2497000Y5088000D03*
X2482000Y5457300D03*
X2480000Y5571000D03*
X2432000Y5728000D03*
X2494000Y5860000D03*
X2498840Y6742840D03*
Y6822840D03*
Y6902840D03*
Y7367160D03*
Y7287160D03*
Y7447160D03*
X2568000Y3076000D03*
X2561000Y3305000D03*
X2639000Y4194000D03*
Y4777000D03*
X2587000Y5185000D03*
X2573000Y5242000D03*
X2579000Y5295000D03*
X2588500Y5850500D03*
X2578840Y6742840D03*
Y6902840D03*
Y6822840D03*
Y7367160D03*
Y7287160D03*
Y7447160D03*
X2547000Y7973000D03*
X2596000Y13869000D03*
X2617000Y14161000D03*
X2734000Y2538000D03*
X2752000Y3740000D03*
X2699000Y5859000D03*
X2738840Y6742840D03*
X2658840D03*
X2738840Y6822840D03*
Y6902840D03*
X2658840D03*
Y6822840D03*
X2738840Y7367160D03*
X2658840D03*
Y7287160D03*
X2738840D03*
Y7447160D03*
X2658840D03*
X2702000Y7566000D03*
X2882000Y3907000D03*
X2867000Y5415000D03*
X2818840Y6742840D03*
Y6822840D03*
Y6902840D03*
Y7367160D03*
Y7287160D03*
Y7447160D03*
X2780000Y7573000D03*
X2838000Y13888000D03*
X2885000Y14125000D03*
X2965000Y3929000D03*
X2921000Y5886000D03*
X2978840Y6742840D03*
X2898840D03*
Y6822840D03*
Y6902840D03*
X2978840D03*
Y6822840D03*
Y7367160D03*
Y7287160D03*
X2898840D03*
Y7367160D03*
Y7447160D03*
X2978840D03*
X2978000Y7572000D03*
X2908000Y9327000D03*
X2942670Y12969000D03*
X3013400D03*
X3089000Y4449000D03*
X3060000Y5440000D03*
X3058840Y6742840D03*
Y6822840D03*
Y6902840D03*
Y7367160D03*
Y7287160D03*
Y7447160D03*
X3232000Y5096000D03*
X3203160Y6822840D03*
Y6902840D03*
Y7367160D03*
Y7287160D03*
X3148060Y13575000D03*
X3363000Y3388000D03*
X3368000Y3524000D03*
X3362000Y3695000D03*
Y4108000D03*
X3339000Y4498000D03*
X3340000Y5428000D03*
X3283160Y6742840D03*
Y6902840D03*
Y6822840D03*
X3363160D03*
Y6902840D03*
X3283160Y7367160D03*
Y7287160D03*
X3363160Y7367160D03*
Y7287160D03*
X3283160Y7447160D03*
X3257320Y12836000D03*
X3328050D03*
X3463000Y4195000D03*
X3484000Y5094000D03*
X3443160Y6742840D03*
X3490000Y6728000D03*
X3443160Y6902840D03*
Y6822840D03*
X3471000Y7025000D03*
X3443160Y7367160D03*
Y7447160D03*
X3381000Y7527000D03*
X3451000Y9189000D03*
X3454000Y10501000D03*
X3464000Y13575000D03*
X3509000Y3158000D03*
X3570000Y4307000D03*
X3526000Y5161000D03*
X3603160Y6742840D03*
X3523160Y6902840D03*
X3603160D03*
Y6822840D03*
X3523160D03*
X3538000Y7134000D03*
X3603160Y7367160D03*
Y7287160D03*
X3523160Y7367160D03*
Y7287160D03*
X3603160Y7447160D03*
X3523160D03*
X3603000Y8614000D03*
X3572330Y12567000D03*
X3683160Y6742840D03*
Y6822840D03*
Y6902840D03*
Y7367160D03*
Y7287160D03*
Y7447160D03*
X3656000Y7983000D03*
X3728000Y8402000D03*
X3643060Y12567000D03*
X3831000Y3387000D03*
X3763160Y6742840D03*
Y6822840D03*
Y6902840D03*
Y7367160D03*
Y7447160D03*
X3777000Y8446000D03*
X3832000Y8776000D03*
X3758000Y10864000D03*
Y11818000D03*
X3901000Y3811200D03*
X3926000Y4209000D03*
X3873640Y12598000D03*
X3944370D03*
X4017000Y3999000D03*
X4086000Y5332000D03*
X3994000Y7197000D03*
X3970500Y7386500D03*
X4035000Y7540000D03*
X4080000Y7731000D03*
Y7777000D03*
X4006000Y7835000D03*
X4025000Y8465000D03*
X3971000Y9242000D03*
X4203000Y997000D03*
X4114000Y3758000D03*
X4108000Y4060000D03*
X4198000Y4004000D03*
X4103000Y4577000D03*
X4180000Y5566000D03*
X4169000Y7375000D03*
X4158000Y7758000D03*
X4185000Y7683000D03*
X4184000Y8129000D03*
X4142000Y8428000D03*
X4310000Y587000D03*
X4220000Y1141000D03*
X4228000Y3199000D03*
X4299000Y3834000D03*
X4214000Y4064000D03*
X4310000Y4058000D03*
X4207000Y4568000D03*
X4295000Y4562000D03*
X4296000Y4632000D03*
X4263000Y5632080D03*
X4294000Y7518000D03*
X4309000Y7975000D03*
X4286000Y7899000D03*
X4291000Y8066000D03*
X4253000Y8171000D03*
X4230000Y8817000D03*
X4210000Y12422000D03*
X4382000Y721000D03*
X4440000Y4057000D03*
X4331000Y4803000D03*
X4395000Y5323000D03*
X4362000Y5257000D03*
X4416000Y5801000D03*
X4382910Y7267910D03*
Y7187910D03*
Y7347910D03*
Y7507910D03*
X4362000Y7460000D03*
X4382910Y7587910D03*
Y7667910D03*
Y7747910D03*
Y7827910D03*
Y7976090D03*
Y8296090D03*
X4342000Y8909000D03*
X4366000Y9020000D03*
X4371000Y9724000D03*
X4450000Y3748000D03*
X4484000Y4101000D03*
X4516000Y4559000D03*
X4452000Y4734000D03*
X4542910Y7187910D03*
Y7267910D03*
X4462910D03*
Y7187910D03*
Y7347910D03*
X4542910D03*
X4462910Y7507910D03*
Y7427910D03*
X4542910Y7507910D03*
Y7427910D03*
Y7587910D03*
X4462910D03*
Y7747910D03*
X4542910D03*
Y7667910D03*
X4462910D03*
Y7827910D03*
X4542910D03*
Y7976090D03*
X4462910D03*
X4542910Y8056090D03*
X4462910Y8216090D03*
X4542910Y8136090D03*
X4458000Y8295000D03*
X4542910Y8296090D03*
X4462910Y8456090D03*
Y8616090D03*
X4530000Y9828000D03*
X4478000Y12282000D03*
X4607000Y2818000D03*
X4600000Y3160000D03*
X4653000Y3985000D03*
X4657000Y4177000D03*
X4626000Y4563000D03*
X4567000Y4558000D03*
X4604000Y5879000D03*
X4622910Y7267910D03*
Y7187910D03*
Y7427910D03*
Y7507910D03*
Y7587910D03*
Y7667910D03*
Y7747910D03*
Y7827910D03*
Y7976090D03*
Y8056090D03*
Y8136090D03*
Y8296090D03*
X4616000Y8377000D03*
X4655000Y13385000D03*
X4687000Y4031000D03*
X4766000Y4184000D03*
X4775000Y4078000D03*
X4730000Y4654000D03*
X4710000Y6509000D03*
X4787000Y7125000D03*
X4702910Y7267910D03*
X4782910Y7187910D03*
X4702910D03*
X4782910Y7267910D03*
X4702910Y7347910D03*
X4782910D03*
Y7507910D03*
X4702910Y7427910D03*
Y7507910D03*
X4782910Y7427910D03*
Y7587910D03*
X4702910D03*
Y7667910D03*
X4782910Y7747910D03*
Y7667910D03*
Y7827910D03*
X4702910D03*
X4782910Y7976090D03*
X4702910D03*
Y8056090D03*
X4782910D03*
Y8216090D03*
Y8136090D03*
X4702910D03*
X4780000Y8460000D03*
X4782910Y8376090D03*
X4720000Y9406000D03*
X4840000Y4538000D03*
X4883000Y4609000D03*
X4854000Y5864000D03*
X4862910Y7267910D03*
Y7187910D03*
Y7347910D03*
Y7507910D03*
Y7427910D03*
Y7587910D03*
Y7667910D03*
Y7747910D03*
Y7827910D03*
Y7976090D03*
Y8056090D03*
Y8216090D03*
Y8136090D03*
Y8616090D03*
X4878000Y9377000D03*
X4916000Y9482000D03*
X4896000Y10322000D03*
X4837000Y14391000D03*
X5013000Y1938000D03*
X4939000Y2349000D03*
Y3643000D03*
X5013000Y3642000D03*
X4934000Y4397000D03*
X4962350Y4478350D03*
X5012000Y4501000D03*
X5005000Y4576000D03*
X5039000Y4776000D03*
X4980000Y4744000D03*
X4939000Y4662000D03*
X4984000Y6203000D03*
X5004000Y6335000D03*
X5032000Y7109000D03*
X4934000Y7077000D03*
X4942910Y7187910D03*
X5022910Y7267910D03*
Y7187910D03*
X4942910Y7267910D03*
X5022910Y7347910D03*
X4942910D03*
X5022910Y7507910D03*
X4942910D03*
X5022910Y7427910D03*
X4942910D03*
Y7587910D03*
X5022910D03*
X4942910Y7747910D03*
X5022910D03*
Y7667910D03*
X4942910D03*
Y7827910D03*
Y7976090D03*
X5022000Y7977000D03*
X5022910Y8056090D03*
X4942910D03*
Y8136090D03*
X5022910Y8216090D03*
Y8136090D03*
X4942910Y8216090D03*
X5022910Y8296090D03*
X4942910D03*
Y8456090D03*
X5022910Y8376090D03*
Y8456090D03*
Y8536090D03*
X4942910D03*
Y8616090D03*
X5022910D03*
X4936000Y9264000D03*
X4986000Y9304000D03*
X4985000Y11979000D03*
X5145000Y1066000D03*
X5097000Y3633000D03*
X5043000Y3716000D03*
X5139000Y6457000D03*
X5092000Y8671000D03*
X5118000Y8792000D03*
X5052000Y9530000D03*
X5158000Y14076000D03*
X5161000Y3642000D03*
X5243000Y3714000D03*
X5169000Y4061000D03*
X5188000Y4461000D03*
X5215000Y5931000D03*
X5176000Y6078000D03*
X5237000Y6036000D03*
X5238000Y6317000D03*
X5191000Y6806000D03*
X5252000Y7063000D03*
X5171090Y7267910D03*
X5251090D03*
Y7347910D03*
X5171090D03*
Y7507910D03*
X5251090D03*
X5171090Y7427910D03*
X5251090D03*
X5171090Y7587910D03*
X5251090D03*
X5171090Y7747910D03*
X5251090Y7667910D03*
X5171090D03*
X5251090Y7747910D03*
Y7827910D03*
X5171090D03*
X5251090Y7976090D03*
Y8056090D03*
X5172000Y8057000D03*
X5171090Y8136090D03*
X5251090Y8216090D03*
Y8136090D03*
X5171090Y8216090D03*
X5251090Y8296090D03*
X5171090D03*
X5251090Y8376090D03*
Y8456090D03*
X5171090D03*
Y8376090D03*
Y8536090D03*
X5251090D03*
X5268000Y8689000D03*
X5180000Y8682000D03*
X5171090Y8616090D03*
X5251090D03*
X5166000Y8731000D03*
X5275500Y8782500D03*
X5181000Y12395000D03*
X5277000Y12458000D03*
X5361000Y933000D03*
X5321000Y2726000D03*
X5391000Y3499000D03*
X5293000Y3492000D03*
Y3699000D03*
X5342000Y3788000D03*
X5397000Y4509000D03*
X5378000Y4605800D03*
X5316000Y4748200D03*
X5340000Y4678000D03*
X5369000Y6150000D03*
X5331000Y6479000D03*
X5323000Y7061000D03*
X5340000Y7263000D03*
X5331090Y7347910D03*
Y7507910D03*
Y7587910D03*
Y7747910D03*
Y7667910D03*
Y7827910D03*
Y7976090D03*
Y8056090D03*
Y8136090D03*
Y8216090D03*
Y8296090D03*
Y8456090D03*
Y8376090D03*
Y8536090D03*
Y8616090D03*
X5370000Y8772000D03*
X5363000Y9205000D03*
X5325000Y12506000D03*
X5319000Y12764000D03*
X5511000Y4086000D03*
X5439000Y4286000D03*
X5465000Y4454000D03*
X5417000Y4711000D03*
X5408000Y6256000D03*
X5415000Y7056000D03*
X5501000Y7346000D03*
X5491090Y7427910D03*
X5411090Y7507910D03*
Y7427910D03*
X5491090Y7507910D03*
X5411090Y7587910D03*
X5491090D03*
X5411090Y7667910D03*
Y7747910D03*
X5491090D03*
Y7667910D03*
Y7827910D03*
X5411090D03*
X5491090Y7976090D03*
X5411090D03*
Y8056090D03*
X5491090D03*
Y8136090D03*
X5411090D03*
X5491090Y8296090D03*
X5411090D03*
Y8456090D03*
Y8376090D03*
X5504000Y10187000D03*
X5420000Y12610000D03*
X5487000Y13402000D03*
X5533000Y900000D03*
X5528000Y4263000D03*
X5628000Y4615000D03*
X5602000Y5731000D03*
X5544000Y5693000D03*
X5552000Y6203000D03*
Y6112000D03*
X5569000Y6390000D03*
X5532000Y6415000D03*
X5544000Y7029000D03*
X5549000Y6942000D03*
X5518000Y7113000D03*
X5632000Y7100000D03*
X5571090Y7427910D03*
Y7507910D03*
Y7667910D03*
Y7747910D03*
Y7827910D03*
Y7976090D03*
Y8056090D03*
Y8136090D03*
Y8216090D03*
Y8296090D03*
Y8376090D03*
Y8456090D03*
Y8536090D03*
X5571000Y11786000D03*
X5604000Y12236000D03*
X5524000Y12208000D03*
X5707000Y3680000D03*
X5736000Y3817000D03*
X5642000Y3924000D03*
X5691000Y5307000D03*
X5663000Y5869000D03*
X5683000Y5910000D03*
X5654000Y6116000D03*
X5711000Y6290000D03*
X5651090Y7267910D03*
X5731090D03*
X5651090Y7187910D03*
X5657000Y7428000D03*
X5651090Y7507910D03*
X5731090Y7587910D03*
X5651090D03*
X5731090Y7747910D03*
X5651090D03*
X5731090Y7827910D03*
X5651090D03*
X5652000Y7978000D03*
X5731090Y7976090D03*
X5651090Y8056090D03*
X5731090D03*
Y8216090D03*
Y8136090D03*
X5651090D03*
Y8216090D03*
X5731090Y8296090D03*
X5651090D03*
X5676920Y8461720D03*
X5675900Y8381190D03*
X5731090Y8456090D03*
Y8376090D03*
X5654000Y8638000D03*
X5731090Y8616090D03*
X5749000Y11140000D03*
X5677000Y13834000D03*
X5680000Y13996000D03*
X5757500Y896500D03*
X5768000Y4475000D03*
X5858000D03*
X5837000Y4524000D03*
X5773000Y5822000D03*
X5764000Y6197000D03*
X5811090Y7187910D03*
Y7347910D03*
Y7507910D03*
Y7587910D03*
Y7827910D03*
Y7976090D03*
X5868000Y7999000D03*
X5811090Y8056090D03*
Y8136090D03*
Y8296090D03*
Y8456090D03*
Y8376090D03*
Y8536090D03*
Y8616090D03*
X5797000Y8687000D03*
X5799000Y10402000D03*
X5836000Y13585800D03*
X5925000Y3873000D03*
X5941500Y4041500D03*
X5930000Y4470000D03*
X5897000Y6067000D03*
X5980000Y6064000D03*
X5976000Y6331000D03*
X5984000Y6843000D03*
X5959000Y7217000D03*
X5894000Y7232000D03*
X5926000Y7642000D03*
X5956000Y7813000D03*
X5890000Y7906000D03*
X5962000Y7990000D03*
X5942000Y7917000D03*
X5924000Y8190000D03*
X5901000Y8264000D03*
X5886000Y8451000D03*
X5902000Y8603000D03*
X5990000Y9378000D03*
X5921000Y12984000D03*
X5907000Y13028000D03*
X5925000Y13979000D03*
X5999000Y3472000D03*
X6079000Y3699000D03*
X6011000Y3945000D03*
X6090000Y4468000D03*
X6081000Y5470000D03*
X6017000Y5487000D03*
X6104000Y5529000D03*
X6075000Y5901000D03*
X6039000Y7230000D03*
X6110000Y7381000D03*
X6038000Y7466000D03*
X6030000Y7543000D03*
X6050000Y7923000D03*
X6033000Y8262000D03*
X6044000Y8364000D03*
X6108000Y10406000D03*
X6023000Y11114000D03*
X6106000Y11388000D03*
X6067000Y13592000D03*
X6168000Y5552000D03*
X6133000Y7760000D03*
X6148000Y7990000D03*
X6182000Y8177000D03*
X6187000Y8568000D03*
X6149000Y10559000D03*
X6177000Y12155000D03*
X6287000Y2518000D03*
X6281000Y4436000D03*
X6277000Y6117000D03*
X6304000Y7334000D03*
X6317000Y7697000D03*
X6345000Y8069000D03*
X6233000Y8414000D03*
X6270000Y8538000D03*
X6297000Y8695000D03*
X6243000Y13221000D03*
X6350000Y13866000D03*
X6366000Y4520000D03*
X6451000Y4605000D03*
X6408000Y7301000D03*
X6371000Y7392000D03*
X6374000Y7466000D03*
X6403000Y8286000D03*
X6364000Y8700000D03*
X6419000Y9420000D03*
X6425000Y9664000D03*
X6430000Y10112000D03*
X6354000Y12538000D03*
X6583000Y1804000D03*
X6561000Y4724000D03*
X6556000Y4783000D03*
X6513000Y5645000D03*
X6557000Y6106000D03*
X6532000Y6707000D03*
X6527000Y6842000D03*
X6528000Y7301000D03*
X6556000Y7461000D03*
X6495000Y8377000D03*
X6557000Y8754000D03*
X6561000Y13497000D03*
X6544000Y14361000D03*
X6678000Y2523000D03*
X6636000Y7174000D03*
X6669000Y7704000D03*
X6644000Y8297000D03*
X6634000Y8394000D03*
X6612000Y8542000D03*
X6650000Y8867000D03*
X6637000Y9096000D03*
X6634000Y9312000D03*
X6594000Y11483000D03*
X6657000Y13991000D03*
X6748000Y1639000D03*
X6813000Y7162000D03*
X6761000Y8174000D03*
X6792000Y8573000D03*
X6766000Y13438000D03*
X6864000Y3915000D03*
X6878000Y4049000D03*
X6883000Y6996000D03*
X6927000Y7935000D03*
X6946000Y9703000D03*
X6901000Y11228000D03*
X6927000Y12322000D03*
X6986000Y6190000D03*
X6981000Y6471000D03*
X7045000Y6654000D03*
X7018000Y7098000D03*
X6981000Y7659000D03*
X6969000Y10305000D03*
X7043000Y13004000D03*
X7002790Y13929000D03*
X7165000Y7606000D03*
X7074000Y8034000D03*
X7144000Y8052000D03*
X7141000Y9712000D03*
X7143000Y10067000D03*
X7121000Y13810380D03*
X7198000Y3802000D03*
X7284000Y7912000D03*
X7297000Y8375000D03*
X7240000Y9155000D03*
X7215000Y10914000D03*
X7347000Y2891000D03*
X7323000Y7561000D03*
X7531000Y3135000D03*
X7482000Y11973000D03*
X7483000Y13887000D03*
X7649000Y5568000D03*
X7554000Y6111000D03*
X7644000Y6246000D03*
X7654000Y9127000D03*
Y9844000D03*
X7638000Y10524000D03*
X7593000Y13668000D03*
X7701000Y2731000D03*
X7737000Y3229000D03*
X7674000Y4854000D03*
X7764000Y6114000D03*
X7664000Y7006000D03*
X7670000Y7706000D03*
X7664000Y8428000D03*
X7688000Y9485000D03*
X7775000Y10676000D03*
X7688000Y10641000D03*
X7848000Y13770000D03*
X7946000Y3318000D03*
X8102000Y13943000D03*
X8324000Y11238000D03*
X8333000Y11988000D03*
X8342000Y12538000D03*
X8313000Y13158000D03*
X8449000Y13559000D03*
X8830000Y13054000D03*
X8758000Y13638000D03*
X9036000Y2813000D03*
X9123000Y3502000D03*
X9169000Y13678000D03*
X9232000Y13057000D03*
X9360000Y6128000D03*
X9348000Y7318000D03*
X9434000Y8458000D03*
X9447500Y9649500D03*
X9403000Y13318000D03*
X9398000Y13444000D03*
X9585000Y9929000D03*
X9647000Y10495000D03*
X9657000Y10665000D03*
X9659000Y11388000D03*
X9681000Y11614000D03*
X9650000Y12187000D03*
X9627000Y12530000D03*
X9647000Y13086000D03*
X9759000Y5258000D03*
X9749000Y6413000D03*
Y7560000D03*
Y8755000D03*
X10009000Y5808000D03*
X9999000Y6995000D03*
Y9369000D03*
X10727270Y10476000D03*
X10705270Y11354000D03*
X10733000Y12163000D03*
X10679000Y13072000D03*
G54D30*
G01X1575000Y3083000D02*
X1566000Y3092000D01*
Y3315000D01*
X1364000Y3517000D01*
X1232000D01*
X1058000Y3343000D01*
Y2969000D01*
X924000Y2835000D01*
X498000D01*
X146000Y3187000D01*
Y8715000D01*
X310000Y8879000D01*
X580000D01*
X1104000Y8355000D01*
X1724000D01*
G01X3603000Y8614000D02*
X3036000Y8047000D01*
X2329000D01*
X1861000Y7579000D01*
Y6952160D01*
X2313860Y6499300D01*
X2341700D01*
X2588500Y6252500D01*
Y5850500D01*
G01X2898840Y6822840D02*
X2936000Y6785680D01*
Y6717000D01*
X2883000Y6664000D01*
X2485000D01*
X2118000Y7031000D01*
Y7494000D01*
X2492000Y7868000D01*
X4060600D01*
Y7910000D01*
X4081300D01*
Y7868000D01*
X4272160D01*
X4272860Y7867300D01*
X4299140D01*
X4299840Y7868000D01*
X4502820D01*
X4542910Y7827910D01*
G01X4622910Y7747910D02*
X4665000Y7790000D01*
Y7840000D01*
X4573000Y7932000D01*
X2543000D01*
X2533660Y7941340D01*
X2522340D01*
X2074000Y7493000D01*
Y7001000D01*
X2450000Y6625000D01*
X2874000D01*
X2960140Y6711140D01*
X2991980D01*
X3018000Y6737160D01*
Y6783680D01*
X2978840Y6822840D01*
G01X2738840Y7287160D02*
Y7175160D01*
X2836000Y7078000D01*
X3777800D01*
Y7146000D01*
X3798500D01*
Y7078000D01*
X3819200D01*
Y7146000D01*
X3839900D01*
Y7078000D01*
X3860600D01*
Y7146000D01*
X3881300D01*
Y7078000D01*
X3902000D01*
Y7146000D01*
X3922700D01*
Y7078000D01*
X3943400D01*
Y7146000D01*
X3964100D01*
Y7078000D01*
X3984800D01*
Y7146000D01*
X4005500D01*
Y7078000D01*
X4026200D01*
Y7146000D01*
X4046900D01*
Y7078000D01*
X4067600D01*
Y7146000D01*
X4088300D01*
Y7078000D01*
X4109000D01*
Y7146000D01*
X4129700D01*
Y7078000D01*
X4150400D01*
Y7146000D01*
X4171100D01*
Y7078000D01*
X4191800D01*
Y7146000D01*
X4212500D01*
Y7078000D01*
X4233200D01*
Y7146000D01*
X4253900D01*
Y7078000D01*
X4274600D01*
Y7146000D01*
X4295300D01*
Y7078000D01*
X4316000D01*
Y7146000D01*
X4336700D01*
Y7078000D01*
X4357400D01*
Y7146000D01*
X4378100D01*
Y7078000D01*
X4398800D01*
Y7146000D01*
X4419500D01*
Y7078000D01*
X4567000D01*
X4575000Y7086000D01*
Y7140000D01*
X4622910Y7187910D01*
G01X2687000Y7270480D02*
X2690540Y7274020D01*
G01X2687000Y7350480D02*
X2690540Y7354020D01*
G01X2687000Y7430480D02*
X2690540Y7434020D01*
G01X2898840Y7367160D02*
Y7402320D01*
X2867140Y7434020D01*
Y7485860D01*
X2780000Y7573000D01*
G01X2978000Y7572000D02*
X2930000Y7524000D01*
Y7460840D01*
X2930540Y7460300D01*
Y7354020D01*
X2930000Y7353480D01*
Y7318320D01*
X2898840Y7287160D01*
G01X3058840Y6902840D02*
X3091160D01*
X3139000Y6855000D01*
Y6655000D01*
X3194000Y6600000D01*
X4750000D01*
X4971140Y6821140D01*
X5060140Y6732140D01*
X5074780Y6746780D01*
X4985780Y6835780D01*
X5000420Y6850420D01*
X5089420Y6761420D01*
X5104060Y6776060D01*
X5015060Y6865060D01*
X5029700Y6879700D01*
X5118700Y6790700D01*
X5133340Y6805340D01*
X5044340Y6894340D01*
X5137000Y6987000D01*
Y7614000D01*
X5051000Y7700000D01*
X4575000D01*
X4542910Y7667910D01*
G01X3203160Y7287160D02*
X3209000Y7293000D01*
G01X3283160Y7287160D02*
X3264840D01*
X3259000Y7293000D01*
G01X3832000Y8776000D02*
X3818000Y8790000D01*
X3562000D01*
X3339000Y9013000D01*
Y9830000D01*
X3515000Y10006000D01*
X3810000D01*
X4060000Y10256000D01*
Y12343000D01*
X5158000Y13441000D01*
Y14076000D01*
G01X3471000Y7025000D02*
X3481000D01*
X3603160Y6902840D01*
G01X3443160Y7367160D02*
X3411460Y7398860D01*
Y7460300D01*
X3414000Y7462840D01*
Y7494000D01*
X3381000Y7527000D01*
G01X4622910Y7587910D02*
X4585820Y7625000D01*
X3964020D01*
Y7644000D01*
X3943320D01*
Y7625000D01*
X3922620D01*
Y7644000D01*
X3901920D01*
Y7625000D01*
X3881220D01*
Y7644000D01*
X3860520D01*
Y7625000D01*
X3839820D01*
Y7644000D01*
X3819120D01*
Y7625000D01*
X3798420D01*
Y7644000D01*
X3777720D01*
Y7625000D01*
X3757020D01*
Y7644000D01*
X3736320D01*
Y7625000D01*
X3715620D01*
Y7644000D01*
X3694920D01*
Y7625000D01*
X3672000D01*
X3612000Y7565000D01*
Y7538000D01*
X3571000Y7497000D01*
Y7167000D01*
X3538000Y7134000D01*
G01X4862910Y7427910D02*
X4894610Y7396210D01*
X5040790D01*
X5074000Y7363000D01*
Y7024000D01*
X4841140Y6791140D01*
X3634860D01*
X3603160Y6822840D01*
G01X3683160D02*
X3649000Y6857000D01*
Y6930000D01*
X3737000Y7018000D01*
X4249090D01*
Y7057000D01*
X4269790D01*
Y7018000D01*
X4290490D01*
Y7057000D01*
X4311190D01*
Y7018000D01*
X4331890D01*
Y7057000D01*
X4352590D01*
Y7018000D01*
X4373290D01*
Y7057000D01*
X4393990D01*
Y7018000D01*
X4414690D01*
Y7057000D01*
X4435390D01*
Y7018000D01*
X4456090D01*
Y7057000D01*
X4476790D01*
Y7018000D01*
X4497490D01*
Y7057000D01*
X4518190D01*
Y7018000D01*
X4538890D01*
Y7057000D01*
X4559590D01*
Y7018000D01*
X4766840D01*
X4826000Y7077160D01*
Y7231000D01*
X4862910Y7267910D01*
G01Y7187910D02*
Y7023910D01*
X4804000Y6965000D01*
X4693590D01*
Y6937000D01*
X4672890D01*
Y6965000D01*
X4652190D01*
Y6937000D01*
X4610790D01*
Y6965000D01*
X4590090D01*
Y6937000D01*
X4569390D01*
Y6965000D01*
X4548690D01*
Y6937000D01*
X4527990D01*
Y6965000D01*
X4507290D01*
Y6937000D01*
X4486590D01*
Y6965000D01*
X4465890D01*
Y6937000D01*
X4445190D01*
Y6965000D01*
X4424490D01*
Y6937000D01*
X4403790D01*
Y6965000D01*
X4383090D01*
Y6937000D01*
X4362390D01*
Y6965000D01*
X4341690D01*
Y6937000D01*
X4320990D01*
Y6965000D01*
X4300290D01*
Y6937000D01*
X4279590D01*
Y6965000D01*
X4258890D01*
Y6937000D01*
X4238190D01*
Y6965000D01*
X4217490D01*
Y6937000D01*
X4196790D01*
Y6965000D01*
X3745320D01*
X3683160Y6902840D01*
G01X4782910Y7187910D02*
X4742120Y7228700D01*
X4294570D01*
Y7262000D01*
X4273870D01*
Y7228700D01*
X4253170D01*
Y7262000D01*
X4232470D01*
Y7228700D01*
X4211770D01*
Y7262000D01*
X4191070D01*
Y7228700D01*
X4170370D01*
Y7262000D01*
X4149670D01*
Y7228700D01*
X4128970D01*
Y7262000D01*
X4108270D01*
Y7228700D01*
X4087570D01*
Y7262000D01*
X4066870D01*
Y7228700D01*
X4046170D01*
Y7262000D01*
X4025470D01*
Y7228700D01*
X4004770D01*
Y7262000D01*
X3984070D01*
Y7228700D01*
X3963370D01*
Y7262000D01*
X3942670D01*
Y7228700D01*
X3921970D01*
Y7262000D01*
X3901270D01*
Y7228700D01*
X3880570D01*
Y7262000D01*
X3859870D01*
Y7228700D01*
X3839170D01*
Y7262000D01*
X3818470D01*
Y7228700D01*
X3797770D01*
Y7262000D01*
X3777070D01*
Y7228700D01*
X3696780D01*
X3651460Y7274020D01*
Y7335460D01*
X3683160Y7367160D01*
G01X4782910Y7587910D02*
X4751000Y7556000D01*
X4261000D01*
X4240000Y7535000D01*
X4074840D01*
X4048140Y7508300D01*
X4021860D01*
X3995160Y7535000D01*
X3968500D01*
Y7596000D01*
X3947800D01*
Y7535000D01*
X3927100D01*
Y7596000D01*
X3906400D01*
Y7535000D01*
X3885700D01*
Y7596000D01*
X3865000D01*
Y7535000D01*
X3844300D01*
Y7596000D01*
X3823600D01*
Y7535000D01*
X3802900D01*
Y7596000D01*
X3782200D01*
Y7535000D01*
X3761500D01*
Y7596000D01*
X3740800D01*
Y7535000D01*
X3726160D01*
X3651460Y7460300D01*
Y7415460D01*
X3603160Y7367160D01*
G01X3683160Y7287160D02*
X3740710D01*
Y7322000D01*
X3761410D01*
Y7287160D01*
X3782110D01*
Y7322000D01*
X3802810D01*
Y7287160D01*
X3823510D01*
Y7322000D01*
X3844210D01*
Y7287160D01*
X3864910D01*
Y7322000D01*
X3885610D01*
Y7287160D01*
X3906310D01*
Y7322000D01*
X3927010D01*
Y7287160D01*
X3947710D01*
Y7322000D01*
X3968410D01*
Y7287160D01*
X3989110D01*
Y7322000D01*
X4009810D01*
Y7287160D01*
X4030510D01*
Y7322000D01*
X4051210D01*
Y7287160D01*
X4071910D01*
Y7322000D01*
X4092610D01*
Y7287160D01*
X4113310D01*
Y7322000D01*
X4134010D01*
Y7287160D01*
X4154710D01*
Y7322000D01*
X4175410D01*
Y7287160D01*
X4196110D01*
Y7322000D01*
X4216810D01*
Y7287160D01*
X4237510D01*
Y7322000D01*
X4258210D01*
Y7287160D01*
X4278910D01*
Y7322000D01*
X4299610D01*
Y7287160D01*
X4335160D01*
X4360000Y7312000D01*
X4738820D01*
X4782910Y7267910D01*
G01X3656000Y7983000D02*
X4272000D01*
X4296000Y8007000D01*
X4304110D01*
X4304900Y8007790D01*
X4476050D01*
X4507750Y7976090D01*
X4542910D01*
G01X4622910Y8056090D02*
X4591210Y8024390D01*
X4488730D01*
X4478820Y8034300D01*
X4299290D01*
X4292990Y8028000D01*
X4287000D01*
X4283390Y8024390D01*
X3821610D01*
X3682660Y8163340D01*
Y8527660D01*
X6069000Y10914000D01*
X7215000D01*
G01X3763160Y6902840D02*
X3795000Y6871000D01*
X4024100D01*
Y6889000D01*
X4044800D01*
Y6871000D01*
X4065500D01*
Y6889000D01*
X4086200D01*
Y6871000D01*
X4106900D01*
Y6889000D01*
X4127600D01*
Y6871000D01*
X4148300D01*
Y6889000D01*
X4169000D01*
Y6871000D01*
X4189700D01*
Y6889000D01*
X4210400D01*
Y6871000D01*
X4231100D01*
Y6889000D01*
X4251800D01*
Y6871000D01*
X4272500D01*
Y6889000D01*
X4293200D01*
Y6871000D01*
X4313900D01*
Y6889000D01*
X4334600D01*
Y6871000D01*
X4355300D01*
Y6889000D01*
X4376000D01*
Y6871000D01*
X4396700D01*
Y6889000D01*
X4417400D01*
Y6871000D01*
X4438100D01*
Y6889000D01*
X4458800D01*
Y6871000D01*
X4479500D01*
Y6889000D01*
X4500200D01*
Y6871000D01*
X4520900D01*
Y6889000D01*
X4541600D01*
Y6871000D01*
X4562300D01*
Y6889000D01*
X4583000D01*
Y6871000D01*
X4603700D01*
Y6889000D01*
X4624400D01*
Y6871000D01*
X4645100D01*
Y6889000D01*
X4665800D01*
Y6871000D01*
X4686500D01*
Y6889000D01*
X4707200D01*
Y6871000D01*
X4819000D01*
X4985000Y7037000D01*
Y7305820D01*
X4942910Y7347910D01*
G01Y7427910D02*
X4899820Y7471000D01*
X4417840D01*
X4370840Y7424000D01*
X4313000D01*
X4239000Y7350000D01*
X4188840D01*
X4182140Y7343300D01*
X4155860D01*
X4149160Y7350000D01*
X3912880D01*
Y7502000D01*
X3892180D01*
Y7350000D01*
X3871480D01*
Y7502000D01*
X3850780D01*
Y7350000D01*
X3830080D01*
Y7502000D01*
X3809380D01*
Y7350000D01*
X3780320D01*
X3763160Y7367160D01*
G01X7688000Y9485000D02*
X7572000D01*
X7389000Y9668000D01*
Y10154000D01*
X6683000Y10860000D01*
X6083000D01*
X3777000Y8554000D01*
Y8446000D01*
G01X3728000Y8402000D02*
X4028000D01*
X4209000Y8583000D01*
X4946000D01*
X4982000Y8547000D01*
Y8519000D01*
X4997000Y8504000D01*
X5021000D01*
X5088000Y8437000D01*
X5132000D01*
X5171090Y8397910D01*
Y8376090D01*
G01X4362000Y7460000D02*
X4284000D01*
X4252000Y7428000D01*
X4157000D01*
X4115500Y7386500D01*
X3970500D01*
G01X4180000Y5566000D02*
X4145000Y5531000D01*
Y5241000D01*
X4542000Y4844000D01*
X5627000D01*
X6168000Y5385000D01*
Y5552000D01*
G01X4462910Y7667910D02*
X4415820Y7715000D01*
X4333400D01*
Y7759000D01*
X4312700D01*
Y7716210D01*
X4292000D01*
Y7759000D01*
X4271300D01*
Y7716210D01*
X4250600D01*
Y7759000D01*
X4229900D01*
Y7716210D01*
X4218210D01*
X4185000Y7683000D01*
G01X4080000Y7777000D02*
X4111700D01*
X4125700Y7791000D01*
X4141910D01*
Y7845000D01*
X4162610D01*
Y7791000D01*
X4183310D01*
Y7845000D01*
X4204010D01*
Y7791000D01*
X4224710D01*
Y7845000D01*
X4245410D01*
Y7791000D01*
X4266110D01*
Y7845000D01*
X4286810D01*
Y7791000D01*
X4307510D01*
Y7845000D01*
X4328210D01*
Y7791000D01*
X4499820D01*
X4542910Y7747910D01*
G01X4462910Y8456090D02*
X4455000Y8464000D01*
X4413000D01*
X4377000Y8428000D01*
X4142000D01*
G01X4263000Y5632080D02*
X4240580Y5609660D01*
Y5269420D01*
X4546000Y4964000D01*
X5363000D01*
X5548000Y5149000D01*
Y5219000D01*
X5735000Y5406000D01*
Y5695000D01*
X5863000Y5823000D01*
Y7218000D01*
X5862000Y7219000D01*
Y7245000D01*
X5863000Y7246000D01*
Y7485700D01*
X5890000Y7512700D01*
Y7573000D01*
X5863490Y7599510D01*
Y7651510D01*
X5820000Y7695000D01*
X5629000D01*
X5619390Y7704610D01*
Y7744450D01*
X5576840Y7787000D01*
X5450180D01*
X5411090Y7747910D01*
G01X4622910Y7976090D02*
X4666000Y8019180D01*
Y8065000D01*
X4636000Y8095000D01*
X4418000D01*
X4342000Y8171000D01*
X4253000D01*
G01X4362000Y5257000D02*
X4613000Y5006000D01*
X5302000D01*
X5456000Y5160000D01*
Y7712820D01*
X5491090Y7747910D01*
G01X4320500Y7975000D02*
X4309000D01*
G01X4607000Y2818000D02*
X4481700Y2943300D01*
Y3813700D01*
X4653000Y3985000D01*
G01X4542910Y7347910D02*
X4631910D01*
X4663000Y7379000D01*
X4689160D01*
X4689770Y7379610D01*
X4796050D01*
X4796660Y7379000D01*
X4826000D01*
X4831210Y7373790D01*
Y7334770D01*
X4849770Y7316210D01*
X4889790D01*
X4904000Y7302000D01*
Y7179000D01*
X4934000Y7149000D01*
Y7077000D01*
G01X4862910Y7667910D02*
X4872590D01*
X4878500Y7662000D01*
G01X9447500Y9649500D02*
X9416500D01*
X9280000Y9513000D01*
Y9383000D01*
X9021000Y9124000D01*
X8378000D01*
X8287000Y9215000D01*
X7787000D01*
X7525000Y9477000D01*
X7031000D01*
X6966000Y9542000D01*
X6072000D01*
X5956000Y9658000D01*
X5398000D01*
X5015000Y9275000D01*
Y9151000D01*
X4991000Y9127000D01*
X4942000D01*
X4904000Y9089000D01*
Y8704000D01*
X4942910Y8665090D01*
Y8616090D01*
G01X4962350Y4478350D02*
Y4590350D01*
X5083000Y4711000D01*
X5417000D01*
G01X5837000Y4524000D02*
X5527000D01*
X5447000Y4604000D01*
Y4618000D01*
X5418000Y4647000D01*
X5354000D01*
X5353000Y4646000D01*
X5327000D01*
X5326000Y4647000D01*
X5074000D01*
X5037000Y4610000D01*
Y4526000D01*
X5012000Y4501000D01*
G01X4980000Y4744000D02*
X4983000Y4747000D01*
Y4778000D01*
X5013000Y4808000D01*
X5396000D01*
X5493000Y4711000D01*
X5847000D01*
X6090000Y4468000D01*
G01X5408000Y6256000D02*
X5383000Y6281000D01*
Y7363000D01*
X5282790Y7463210D01*
Y7681050D01*
X5255340Y7708500D01*
X5155500D01*
X5096000Y7768000D01*
Y8274000D01*
X5073910Y8296090D01*
X5022910D01*
G01X5171090Y8456090D02*
X5137000Y8490180D01*
Y8690840D01*
X5118000Y8709840D01*
Y8792000D01*
G01X5369000Y6150000D02*
X5282000Y6237000D01*
Y7048160D01*
X5283700Y7049860D01*
Y7084300D01*
X5214000Y7154000D01*
Y7465000D01*
X5171090Y7507910D01*
G01X5267500Y7811000D02*
X5251090Y7827410D01*
Y7827910D01*
G01X5962000Y7990000D02*
X5911000Y7939000D01*
X5448000D01*
X5375000Y7866000D01*
Y7801000D01*
X5354000Y7780000D01*
X5219000D01*
X5171090Y7827910D01*
G01X5251090Y8296090D02*
X5299390Y8344390D01*
X5366390D01*
X5379390Y8357390D01*
Y8564390D01*
X5390000Y8575000D01*
X5834000D01*
X5862000Y8603000D01*
X5902000D01*
G01X5171090Y8296090D02*
X5219390Y8344390D01*
X5264230D01*
X5282790Y8362950D01*
Y8407790D01*
X5299000Y8424000D01*
Y8651000D01*
X5307000Y8659000D01*
X5544000D01*
X5603700Y8718700D01*
X5823300D01*
X5880000Y8662000D01*
X6326000D01*
X6364000Y8700000D01*
G01X5251090Y8456090D02*
X5211700Y8495480D01*
Y8823700D01*
X5391000Y9003000D01*
X6374000D01*
X6610000Y9239000D01*
X6915000D01*
X6952000Y9202000D01*
X7355000D01*
X7887000Y8670000D01*
X8146000D01*
X8407000Y8409000D01*
X8980000D01*
X9029000Y8458000D01*
X9434000D01*
G01X5180000Y8682000D02*
Y8625000D01*
X5171090Y8616090D01*
G01X5321000Y2726000D02*
X5323000Y2728000D01*
X5386000D01*
X5567000Y2909000D01*
Y3439000D01*
X5870000Y3742000D01*
Y4064000D01*
X5964000Y4158000D01*
X5997000D01*
X6092000Y4253000D01*
Y4418000D01*
X6192000Y4518000D01*
X6201000D01*
X6273000Y4590000D01*
Y5602000D01*
X6014000Y5861000D01*
Y6828000D01*
X6016000Y6830000D01*
Y6856000D01*
X6014000Y6858000D01*
Y7210000D01*
X6007000Y7217000D01*
Y7218000D01*
X5970000Y7255000D01*
Y7573000D01*
X6088000Y7691000D01*
Y8008000D01*
X6039910Y8056090D01*
X5924910D01*
X5896000Y8085000D01*
X5861000D01*
X5853000Y8077000D01*
Y8035000D01*
X5841000Y8023000D01*
X5764180D01*
X5731090Y8056090D01*
G01X5439000Y4286000D02*
Y3885000D01*
X5342000Y3788000D01*
G01X5322500Y7811000D02*
X5331090Y7819590D01*
Y7827910D01*
G01X5901000Y8264000D02*
X5363180D01*
X5331090Y8296090D01*
G01X9360000Y6128000D02*
X9319000D01*
X9249000Y6198000D01*
Y6503000D01*
X8759000Y6993000D01*
X8374000D01*
X8084000Y7283000D01*
X7783000D01*
X7563000Y7503000D01*
Y7773000D01*
X7002000Y8334000D01*
Y8421000D01*
X6945000Y8478000D01*
X6731000D01*
X6666000Y8543000D01*
Y8721000D01*
X6574000Y8813000D01*
X6515000D01*
X6438000Y8736000D01*
X6290000D01*
X6250000Y8696000D01*
X5913000D01*
X5859000Y8750000D01*
X5605720D01*
X5592720Y8737000D01*
X5316000D01*
X5268000Y8689000D01*
G01X5370000Y8772000D02*
X6375000D01*
X6383000Y8780000D01*
Y8794840D01*
X6566160Y8978000D01*
X7255000D01*
X7525000Y8708000D01*
Y8098000D01*
X7818000Y7805000D01*
X8053000D01*
X8153000Y7705000D01*
X8596000D01*
X8653000Y7648000D01*
X8966000D01*
X9296000Y7318000D01*
X9348000D01*
G01X5602000Y5731000D02*
Y7012000D01*
X5709000Y7119000D01*
X5785420D01*
X5802000Y7135580D01*
Y7152160D01*
X5779390Y7174770D01*
Y7201050D01*
X5797950Y7219610D01*
X5824240D01*
X5841000Y7236370D01*
Y7254000D01*
X5842000Y7255000D01*
Y7298450D01*
X5824240Y7316210D01*
X5797950D01*
X5779390Y7334770D01*
Y7361050D01*
X5797950Y7379610D01*
X5824240D01*
X5842000Y7397370D01*
Y7494000D01*
X5842790Y7494790D01*
Y7601050D01*
X5824230Y7619610D01*
X5795390D01*
X5794000Y7621000D01*
X5538000D01*
X5491090Y7667910D01*
G01X6557000Y8754000D02*
Y8712000D01*
X6342000Y8497000D01*
X5487000D01*
X5456000Y8466000D01*
Y8341000D01*
X5411090Y8296090D01*
G01X5552000Y6203000D02*
Y6112000D01*
G01X5651090Y7747910D02*
X5614000Y7785000D01*
Y7860000D01*
X5660000Y7906000D01*
X5890000D01*
G01X6148000Y7990000D02*
X6075000Y8063000D01*
X6071000D01*
X6057000Y8077000D01*
X5953000D01*
X5852000Y8178000D01*
X5768000D01*
X5763000Y8173000D01*
Y8123000D01*
X5744000Y8104000D01*
X5718000D01*
X5699000Y8123000D01*
Y8173000D01*
X5694000Y8178000D01*
X5609180D01*
X5571090Y8216090D01*
G01X5691000Y5307000D02*
X5933000Y5549000D01*
Y7198000D01*
X5927000Y7204000D01*
Y7230000D01*
X5933000Y7236000D01*
Y7590160D01*
X5894300Y7628860D01*
Y7664700D01*
X5731090Y7827910D01*
G01X5654000Y6116000D02*
Y5939000D01*
X5683000Y5910000D01*
G01X5651090Y8216090D02*
X5685910D01*
X5718000Y8184000D01*
X5744000D01*
X5776090Y8216090D01*
X5857910D01*
X5892000Y8182000D01*
Y8177000D01*
X5911000Y8158000D01*
X6071000D01*
X6195000Y8034000D01*
Y7633000D01*
X6078000Y7516000D01*
Y7335000D01*
X6241000Y7172000D01*
X6291000D01*
X6462000Y7001000D01*
Y4730000D01*
X6158000Y4426000D01*
Y4258000D01*
X5941500Y4041500D01*
G01X5731090Y8296090D02*
X5776000Y8341000D01*
X5840000D01*
X5861000Y8362000D01*
X5962000D01*
X6011000Y8411000D01*
X6159000D01*
X6194000Y8376000D01*
X6403000D01*
X6554000Y8225000D01*
Y8005000D01*
X6687000Y7872000D01*
X6995000D01*
X7077000Y7790000D01*
Y4831000D01*
X6759000Y4513000D01*
X6373000D01*
X6366000Y4520000D01*
G01X6281000Y4436000D02*
X6289000Y4444000D01*
X6878000D01*
X7231000Y4797000D01*
Y7830000D01*
X6930000Y8131000D01*
X6678000D01*
X6358000Y8451000D01*
X5886000D01*
G01X6451000Y4605000D02*
X6537000Y4691000D01*
X6744000D01*
X6883000Y4830000D01*
Y6996000D01*
G01X6556000Y4783000D02*
X6606000Y4833000D01*
Y7041000D01*
X6500000Y7147000D01*
X6446000D01*
X6372000Y7221000D01*
Y7329000D01*
X6420000Y7377000D01*
Y7465000D01*
X6403000Y7482000D01*
Y8286000D01*
G01X6408000Y7301000D02*
X6528000D01*
G01X6513000Y5645000D02*
Y4772000D01*
X6561000Y4724000D01*
G01X9123000Y3502000D02*
X9183000Y3442000D01*
Y2836000D01*
X9160000Y2813000D01*
X9036000D01*
G54D21*
X4742000Y317000D03*
X4996000D03*
X5933000D03*
X6187000D03*
G54D12*
X296000Y4228000D03*
Y4482000D03*
Y4736000D03*
Y4990000D03*
Y5244000D03*
Y5498000D03*
X7141000Y8575000D03*
Y8829000D03*
Y9083000D03*
Y9337000D03*
Y9591000D03*
Y9845000D03*
G54D22*
X4830000Y1681000D03*
X6100000D03*
G54D13*
X223000Y14119000D03*
X2373000D03*
G54D14*
X351000Y13721000D03*
Y14021000D03*
X651000Y13721000D03*
Y14021000D03*
X951000Y13721000D03*
Y14021000D03*
X1251000Y13721000D03*
Y14021000D03*
X1551000Y13721000D03*
Y14021000D03*
X1851000Y13721000D03*
Y14021000D03*
X2501000Y13721000D03*
Y14021000D03*
X2801000Y13721000D03*
Y14021000D03*
X3101000Y13721000D03*
Y14021000D03*
X3401000Y13721000D03*
Y14021000D03*
X3701000Y13721000D03*
Y14021000D03*
X4001000Y13721000D03*
Y14021000D03*
G54D23*
X4957000Y564000D03*
G54D24*
X5160000D03*
X5363000D03*
X5566000D03*
X5769000D03*
X5972000D03*
G54D15*
X1108000Y9359000D03*
Y9619000D03*
Y9879000D03*
X1494000Y9362000D03*
X1754000D03*
X2014000D03*
X2217000Y9364000D03*
X2477000D03*
X2737000D03*
X2897000Y11553000D03*
Y11813000D03*
Y12073000D03*
X3663000Y9756000D03*
X3923000D03*
X4183000D03*
X4318000Y11713000D03*
X4578000D03*
X4838000D03*
X8507000Y2078000D03*
Y2338000D03*
Y2598000D03*
Y2798000D03*
Y3058000D03*
Y3318000D03*
X8502000Y3517000D03*
Y3777000D03*
Y4037000D03*
X8509000Y4248000D03*
Y4508000D03*
Y4768000D03*
Y4958000D03*
Y5218000D03*
Y5478000D03*
Y5668000D03*
Y5928000D03*
Y6188000D03*
Y6378000D03*
Y6638000D03*
Y6898000D03*
Y7088000D03*
Y7348000D03*
Y7608000D03*
Y7798000D03*
Y8058000D03*
Y8318000D03*
Y8508000D03*
Y8768000D03*
Y9028000D03*
Y9218000D03*
Y9478000D03*
Y9738000D03*
Y9928000D03*
Y10188000D03*
Y10448000D03*
G54D25*
X6776000Y7384000D03*
Y7638000D03*
G54D16*
X1104000Y10197000D03*
X1359000D03*
X1612000D03*
X1866000D03*
Y11223000D03*
X2120000Y10197000D03*
X2375000D03*
X2629000Y11222000D03*
X2882000Y10197000D03*
X2883000Y11223000D03*
X3136000Y10197000D03*
X3137000Y11223000D03*
X3644000Y10197000D03*
Y11223000D03*
G54D26*
X6821000Y14292000D03*
G54D17*
X3209000Y7293000D03*
X3259000D03*
G54D18*
X4320500Y7975000D03*
X4375500D03*
X4877500Y7579000D03*
X4878500Y7662000D03*
X4794500Y7983000D03*
X4849500D03*
X4932500Y7579000D03*
X4933500Y7662000D03*
X5185500Y7582000D03*
X5240500D03*
X5238500Y7660000D03*
X5183500D03*
Y7739000D03*
X5238500D03*
X5265500Y7988000D03*
X5240500Y8224000D03*
X5185500D03*
X5346500Y7580000D03*
X5320500Y7988000D03*
X5401500Y7580000D03*
X5823500Y8054000D03*
X5878500D03*
G54D27*
X7075000Y14292000D03*
X7329000D03*
X7583000D03*
X7837000D03*
X8091000D03*
X8345000D03*
X8599000D03*
X8853000D03*
X9107000D03*
X9361000D03*
X9615000D03*
X9869000D03*
X10123000D03*
X10377000D03*
X10631000D03*
G54D28*
X9759000Y5528000D03*
X9749000Y6708000D03*
Y7868000D03*
Y9068000D03*
X10009000Y5528000D03*
X9999000Y6708000D03*
Y7868000D03*
Y9068000D03*
X10259000Y5528000D03*
X10249000Y6708000D03*
Y7868000D03*
Y9068000D03*
G54D19*
X4658000Y1998000D03*
X6271000D03*
G54D29*
G01X193000Y2351000D02*
Y2303000D01*
X210000Y2286000D01*
G01X745000Y3824000D02*
X368000D01*
X283000Y3909000D01*
G01X296000Y4482000D02*
X478000D01*
G01X351000Y13721000D02*
X469000Y13839000D01*
Y13859000D01*
G01X671000Y2382000D02*
Y2127000D01*
X689000Y2109000D01*
X762000D01*
G01X1175000Y1061000D02*
X911000Y1325000D01*
Y2108000D01*
X870000Y2149000D01*
X796000D01*
X722000Y2223000D01*
Y2380790D01*
X704000Y2398790D01*
Y2442000D01*
G01X651000Y13721000D02*
X744000Y13814000D01*
Y13877000D01*
G01X1088000Y3993000D02*
X1215790D01*
X1342000Y4119210D01*
Y4811000D01*
X1374970Y4843970D01*
Y4898970D01*
G01X1105000Y3882000D02*
X1216000D01*
X1382000Y4048000D01*
Y4083000D01*
X1421000Y4122000D01*
X1548000D01*
X1598000Y4172000D01*
Y4279000D01*
X1424980Y4452020D01*
Y4902000D01*
G01X1108000Y9359000D02*
Y9209000D01*
G01X1218000Y4045000D02*
Y5485000D01*
X1278910Y5545910D01*
X1374970D01*
G01X1673500Y4103500D02*
Y4276500D01*
X1474990Y4475010D01*
Y4902990D01*
G01X1727000Y4176000D02*
Y4267210D01*
X1525010Y4469200D01*
Y4888010D01*
G01X1587000Y6205000D02*
Y6124000D01*
X1474990Y6011990D01*
Y5545910D01*
G01X1643000Y4401000D02*
X1779000D01*
X2025000Y4647000D01*
Y5107000D01*
X1957020Y5174980D01*
X1904980D01*
G01X1727000Y4176000D02*
Y4107000D01*
X1702000Y4082000D01*
Y3999000D01*
X1737000Y3964000D01*
X1756000D01*
X1809000Y3911000D01*
X2039000D01*
X2206000Y4078000D01*
Y4426000D01*
G01X1712000Y6029000D02*
X1967000Y5774000D01*
Y5346000D01*
X1946020Y5325020D01*
X1923980D01*
G01X1957500Y4938500D02*
Y4658500D01*
X1853000Y4554000D01*
G01X2148000Y5109000D02*
Y5171000D01*
X2027000Y5292000D01*
X1950000D01*
X1928000Y5270000D01*
Y5228000D01*
G01X2035000Y5327000D02*
Y5588000D01*
G01X2573000Y5242000D02*
X2572000Y5243000D01*
X2453000D01*
X2327000Y5369000D01*
X2218000D01*
X2159000Y5428000D01*
Y5538000D01*
G01X2221000Y5201000D02*
X2334000Y5088000D01*
X2497000D01*
G01X2501000Y13721000D02*
X2596000Y13816000D01*
Y13869000D01*
G01X2737000Y9364000D02*
X2871000D01*
X2908000Y9327000D01*
G01X3463000Y4195000D02*
X3447000Y4179000D01*
X3040000D01*
X2882000Y4021000D01*
Y3907000D01*
G01X2801000Y13721000D02*
Y13851000D01*
X2838000Y13888000D01*
G01X3148060Y13575000D02*
X3464000D01*
G01X4865000Y8676500D02*
X4236500D01*
X4025000Y8465000D01*
G01X4183000Y9756000D02*
X4339000D01*
X4371000Y9724000D01*
G01X4382000Y721000D02*
X4310000Y649000D01*
Y587000D01*
G01X4780000Y8447500D02*
Y8460000D01*
G01Y8392500D02*
Y8379000D01*
X4782910Y8376090D01*
G01X4877500Y7579000D02*
X4871820D01*
X4862910Y7587910D01*
G01Y7827910D02*
Y7820410D01*
X4852000Y7809500D01*
G01X4862910Y7976090D02*
X4856410D01*
X4849500Y7983000D01*
G01X5013000Y3642000D02*
Y1938000D01*
G01X4939000Y3643000D02*
Y2349000D01*
G01X5022910Y7507910D02*
Y7498410D01*
X5019000Y7494500D01*
G01X5022910Y7427910D02*
Y7435590D01*
X5019000Y7439500D01*
G01X4932500Y7579000D02*
X4934000D01*
X4942910Y7587910D01*
G01X5022910D02*
Y7593410D01*
X5024000Y7594500D01*
G01X5022910Y7667910D02*
Y7650590D01*
X5024000Y7649500D01*
G01X4942910Y7667910D02*
X4939410D01*
X4933500Y7662000D01*
G01X4942910Y7747910D02*
Y7757590D01*
X4938000Y7762500D01*
G01X4942910Y7827910D02*
Y7822410D01*
X4938000Y7817500D01*
G01X4942910Y7976090D02*
Y7980590D01*
X4931000Y7992500D01*
G01X4942910Y8056090D02*
X4939590D01*
X4931000Y8047500D01*
G01X5097000Y3633000D02*
Y1114000D01*
X5145000Y1066000D01*
G01X5160000Y564000D02*
X5238000Y642000D01*
Y3598000D01*
X5223000Y3613000D01*
X5190000D01*
X5161000Y3642000D01*
G01X5171090Y7587910D02*
X5179590D01*
X5185500Y7582000D01*
G01X5238500Y7660000D02*
X5243180D01*
X5251090Y7667910D01*
G01X5171090Y7747910D02*
X5174590D01*
X5183500Y7739000D01*
G01X5251090Y7747910D02*
X5247410D01*
X5238500Y7739000D01*
G01X5251090Y7976090D02*
X5253590D01*
X5265500Y7988000D01*
G01X5262000Y8067500D02*
X5262500D01*
X5251090Y8056090D01*
G01X5179000Y8068500D02*
Y8064000D01*
X5172000Y8057000D01*
G01X5171090Y8136090D02*
Y8131410D01*
X5179000Y8123500D01*
G01X5262000Y8122500D02*
Y8125180D01*
X5251090Y8136090D01*
G01X5171090Y8216090D02*
X5177590D01*
X5185500Y8224000D01*
G01X5361000Y933000D02*
X5437000Y857000D01*
Y638000D01*
X5363000Y564000D01*
G01X5340000Y7263000D02*
Y7272500D01*
X5336000Y7276500D01*
G01X5331090Y7347910D02*
Y7336410D01*
X5336000Y7331500D01*
G01X5331090Y7587910D02*
X5338590D01*
X5346500Y7580000D01*
G01X5331090Y7667910D02*
X5338410D01*
X5347000Y7676500D01*
G01X5320500Y7988000D02*
Y7986680D01*
X5331090Y7976090D01*
G01Y8136090D02*
X5331590D01*
X5346000Y8150500D01*
G01Y8205500D02*
X5341680D01*
X5331090Y8216090D01*
G01X5501000Y7346000D02*
Y7350500D01*
X5495000Y7356500D01*
G01X5491090Y7427910D02*
Y7415410D01*
X5495000Y7411500D01*
G01X5401500Y7580000D02*
X5403180D01*
X5411090Y7587910D01*
G01X5533000Y900000D02*
X5631410Y801590D01*
Y629410D01*
X5566000Y564000D01*
G01X5655000Y7439500D02*
Y7430000D01*
X5657000Y7428000D01*
G01X5651090Y7507910D02*
Y7498410D01*
X5655000Y7494500D01*
G01X5744000Y8678500D02*
X5694500D01*
X5654000Y8638000D01*
G01X5757500Y896500D02*
X5834410Y819590D01*
Y629410D01*
X5769000Y564000D01*
G01X5878500Y8054000D02*
Y8009500D01*
X5868000Y7999000D01*
G01X6821000Y14292000D02*
X6613000D01*
X6544000Y14361000D01*
G01X6776000Y7638000D02*
X6735000D01*
X6669000Y7704000D01*
G01X7946000Y3318000D02*
X7826000D01*
X7737000Y3229000D01*
G01X9759000Y5528000D02*
Y5258000D01*
G01X9749000Y7868000D02*
Y7560000D01*
G01X10009000Y5528000D02*
Y5808000D01*
G01X9999000Y9068000D02*
Y9369000D01*
M02*
