G04 ================== begin FILE IDENTIFICATION RECORD ==================*
G04 Layout Name:  c:/users/joser/onedrive/escritorio/allegro/artix-7_ja.brd*
G04 Film Name:    GND0*
G04 File Format:  Gerber RS274X*
G04 File Origin:  Cadence Allegro 25.1-S010*
G04 Origin Date:  Mon May 11 22:28:25 2026*
G04 *
G04 Layer:  ETCH/GND0*
G04 Layer:  PIN/GND0*
G04 Layer:  VIA CLASS/GND0*
G04 *
G04 Offset:    (0.0000 0.0000)*
G04 Mirror:    No*
G04 Mode:      Positive*
G04 Rotation:  0*
G04 FullContactRelief:  No*
G04 UndefLineWidth:     0.1000*
G04 ================== end FILE IDENTIFICATION RECORD ====================*
%FSLAX25Y25*MOMM*%
%IR0*IPPOS*OFA0.00000B0.00000*MIA0B0*SFA1.00000B1.00000*%
%ADD10C,.3*%
%ADD21C,1.5*%
%ADD12C,1.016*%
%ADD11C,1.6002*%
%ADD17C,1.5301*%
%ADD15C,1.308*%
%ADD20C,1.651*%
%ADD14C,1.3208*%
%ADD19C,1.446*%
%ADD16C,2.3551*%
%ADD22C,1.397*%
%ADD13C,1.5748*%
%ADD18C,3.2499*%
%ADD23C,.127*%
%ADD24C,.08*%
%ADD26C,.5544*%
%ADD27C,1.7004*%
%ADD32C,1.6514*%
%ADD34C,1.5624*%
%ADD33C,1.9054*%
%ADD30C,1.5752*%
%ADD36C,1.7544*%
%ADD35C,1.8292*%
%ADD29C,2.6096*%
%ADD31C,1.8546*%
%ADD25C,1.7846*%
%ADD28C,3.6568*%
G75*
%LPD*%
G75*
G36*
G01X100010Y14499990D02*
X10899990D01*
Y100010D01*
X100010D01*
Y14499990D01*
G37*
%LPC*%
G75*
G36*
G01X4972540Y4504130D02*
G03X4985850Y4510210I3727J9449D01*
G02X5012000Y4528720I26150J-9217D01*
G02Y4473280I0J-27720D01*
G02X5001810Y4475220I0J27732D01*
G03X4988500Y4469140I-3727J-9449D01*
G02X4962350Y4450630I-26150J9217D01*
G02Y4506070I0J27720D01*
G02X4972540Y4504130I0J-27732D01*
G37*
G36*
G01X1392010Y4920830D02*
G03X1405420Y4921650I6240J8017D01*
G02X1424980Y4929720I19553J-19653D01*
G02X1442870Y4923180I6J-27722D01*
G03X1456280Y4923440I6557J7760D01*
G02X1474990Y4930710I18710J-20441D01*
G02X1499050Y4916750I0J-27714D01*
G03X1512470Y4912730I8822J5041D01*
G02X1525010Y4915730I12540J-24709D01*
G02Y4860290I0J-27720D01*
G02X1500950Y4874250I0J27714D01*
G03X1487530Y4878270I-8822J-5041D01*
G02X1474990Y4875270I-12540J24709D01*
G02X1457100Y4881810I-6J27722D01*
G03X1443690Y4881550I-6557J-7760D01*
G02X1424980Y4874280I-18710J20441D01*
G02X1407940Y4880140I5J27718D01*
G03X1394530Y4879320I-6240J-8017D01*
G02X1374970Y4871250I-19553J19653D01*
G02Y4926690I0J27720D01*
G02X1392010Y4920830I-5J-27718D01*
G37*
G36*
G01X5542000Y6383740D02*
G03X5536270Y6387610I-4949J-1150D01*
G02X5532000Y6387280I-4265J27390D01*
G02Y6442720I0J27720D01*
G02X5559000Y6421260I0J-27715D01*
G03X5564730Y6417390I4949J1150D01*
G02X5569000Y6417720I4265J-27390D01*
G02Y6362280I0J-27720D01*
G02X5542000Y6383740I0J27715D01*
G37*
G36*
G01X4060240Y7750440D02*
G03Y7757560I-3624J3560D01*
G02X4052280Y7777000I19758J19440D01*
G02X4107720I27720J0D01*
G02X4099760Y7757560I-27718J0D01*
G03Y7750440I3624J-3560D01*
G02X4107720Y7731000I-19758J-19440D01*
G02X4052280I-27720J0D01*
G02X4060240Y7750440I27718J0D01*
G37*
G36*
G01X5927060Y7893650D02*
G03X5913110Y7890700I-5477J-8558D01*
G02X5890000Y7878280I-23110J15290D01*
G02Y7933720I0J27720D01*
G02X5904940Y7929350I0J-27723D01*
G03X5918890Y7932300I5477J8558D01*
G02X5942000Y7944720I23110J-15290D01*
G02Y7889280I0J-27720D01*
G02X5927060Y7893650I0J27723D01*
G37*
G36*
G01X5709160Y8359140D02*
G03X5694350Y8360510I-8043J-6212D01*
G02X5675900Y8353470I-18458J20677D01*
G02Y8408910I0J27720D01*
G02X5697830Y8398140I0J-27712D01*
G03X5712640Y8396770I8043J6212D01*
G02X5731090Y8403810I18458J-20677D01*
G02Y8348370I0J-27720D01*
G02X5709160Y8359140I0J27712D01*
G37*
G36*
G01X5709280Y8438980D02*
G03X5694750Y8440490I-7995J-6267D01*
G02X5676920Y8434000I-17824J21232D01*
G02Y8489440I0J27720D01*
G02X5698730Y8478830I0J-27721D01*
G03X5713260Y8477320I7995J6267D01*
G02X5731090Y8483810I17824J-21232D01*
G02Y8428370I0J-27720D01*
G02X5709280Y8438980I0J27721D01*
G37*
G36*
G01X5155160Y8694290D02*
G03X5151400Y8707440I-9108J4508D01*
G02X5138280Y8731000I14594J23560D01*
G02X5193720I27720J0D01*
G02X5190840Y8718710I-27717J13D01*
G03X5194600Y8705560I9108J-4508D01*
G02X5207720Y8682000I-14594J-23560D01*
G02X5152280I-27720J0D01*
G02X5155160Y8694290I27717J-13D01*
G37*
G36*
G01X5896320Y12996620D02*
G03X5894150Y13003440I-4522J2317D01*
G02X5879280Y13028000I12847J24560D01*
G02X5934720I27720J0D01*
G02X5931680Y13015380I-27715J0D01*
G03X5933850Y13008560I4522J-2317D01*
G02X5948720Y12984000I-12847J-24560D01*
G02X5893280I-27720J0D01*
G02X5896320Y12996620I27715J0D01*
G37*
G36*
G01X261700Y14040770D02*
G03X248190Y14052470I-9919J2197D01*
G02X223000Y14047860I-25190J66517D01*
G02X294140Y14119000I0J71140D01*
G02X293800Y14112040I-71141J-13D01*
G03X308620Y14102050I10111J-989D01*
G02X351000Y14112460I42380J-81061D01*
G02X259540Y14021000I0J-91460D01*
G02X261700Y14040770I91461J10D01*
G37*
G36*
G01X2411700D02*
G03X2398190Y14052470I-9919J2197D01*
G02X2373000Y14047860I-25190J66517D01*
G02X2444140Y14119000I0J71140D01*
G02X2443800Y14112040I-71141J-13D01*
G03X2458620Y14102050I10111J-989D01*
G02X2501000Y14112460I42380J-81061D01*
G02X2409540Y14021000I0J-91460D01*
G02X2411700Y14040770I91461J10D01*
G37*
G36*
G01X5122430Y3621970D02*
G02X5097000Y3605280I-25430J11028D01*
G02Y3660720I0J27720D01*
G02X5118400Y3650620I0J-27721D01*
G03X5135570Y3653030I7849J6452D01*
G02X5161000Y3669720I25430J-11028D01*
G02Y3614280I0J-27720D01*
G02X5139600Y3624380I0J27721D01*
G03X5122430Y3621970I-7849J-6452D01*
G37*
G36*
G01X4659940Y4024970D02*
G02X4659280Y4031000I27062J6013D01*
G02X4714720I27720J0D01*
G02X4689180Y4003370I-27716J0D01*
G03X4680060Y3991030I796J-10129D01*
G02X4680720Y3985000I-27062J-6013D01*
G02X4625280I-27720J0D01*
G02X4650820Y4012630I27716J0D01*
G03X4659940Y4024970I-796J10129D01*
G37*
G36*
G01X4456720Y4096080D02*
G02X4456280Y4101000I27287J4920D01*
G02X4484000Y4073280I27720J0D01*
G02X4479080Y4073720I0J27727D01*
G03X4467280Y4061920I-1801J-9999D01*
G02X4467720Y4057000I-27287J-4920D01*
G02X4440000Y4084720I-27720J0D01*
G02X4444920Y4084280I0J-27727D01*
G03X4456720Y4096080I1801J9999D01*
G37*
G36*
G01X6540600Y4759950D02*
G02X6528280Y4783000I15403J23050D01*
G02X6583720I27720J0D01*
G02X6575060Y4762870I-27726J0D01*
G03X6576400Y4747050I6986J-7375D01*
G02X6588720Y4724000I-15403J-23050D01*
G02X6533280I-27720J0D01*
G02X6541940Y4744130I27726J0D01*
G03X6540600Y4759950I-6986J7375D01*
G37*
G36*
G01X1903140Y5215740D02*
G02X1900280Y5228000I24848J12260D01*
G02X1955720I27720J0D01*
G02X1936010Y5201460I-27723J0D01*
G03X1929840Y5187240I2941J-9724D01*
G02X1932700Y5174980I-24848J-12260D01*
G02X1877260I-27720J0D01*
G02X1896970Y5201520I27723J0D01*
G03X1903140Y5215740I-2941J9724D01*
G37*
G36*
G01X6081410Y5512940D02*
G02X6076280Y5529000I22588J16065D01*
G02X6131720I27720J0D01*
G02X6109760Y5501890I-27714J0D01*
G03X6103590Y5486060I2112J-9940D01*
G02X6108720Y5470000I-22588J-16065D01*
G02X6053280I-27720J0D01*
G02X6075240Y5497110I27714J0D01*
G03X6081410Y5512940I-2112J9940D01*
G37*
G36*
G01X433170Y5748580D02*
G02X420280Y5772000I14831J23420D01*
G02X475720I27720J0D01*
G02X462830Y5748580I-27721J0D01*
G03Y5731420I5440J-8580D01*
G02X475720Y5708000I-14831J-23420D01*
G02X420280I-27720J0D01*
G02X433170Y5731420I27721J0D01*
G03Y5748580I-5440J8580D01*
G37*
G36*
G01X4769070Y7163890D02*
G02X4755190Y7187910I13844J24020D01*
G02X4810630I27720J0D01*
G02X4799750Y7165890I-27723J0D01*
G03X4800840Y7149020I6168J-8072D01*
G02X4814720Y7125000I-13844J-24020D01*
G02X4759280I-27720J0D01*
G02X4770160Y7147020I27723J0D01*
G03X4769070Y7163890I-6168J8072D01*
G37*
G36*
G01X7228470Y9113800D02*
G02X7233730Y9083000I-87472J-30788D01*
G02X7141000Y9175730I-92730J0D01*
G02X7197250Y9156720I0J-92726D01*
G03X7213220Y9162170I6157J8080D01*
G02X7240000Y9182720I26780J-7174D01*
G02Y9127280I0J-27720D01*
G02X7238570Y9127320I60J27718D01*
G03X7228470Y9113800I-517J-10146D01*
G37*
G54D26*
X4310000Y587000D03*
X4382000Y721000D03*
X5361000Y933000D03*
X5533000Y900000D03*
X5757500Y896500D03*
X1175000Y1061000D03*
X4203000Y997000D03*
X5145000Y1066000D03*
X4220000Y1141000D03*
X1267000Y1302000D03*
X1807000Y1322000D03*
X540000Y1431000D03*
X1017000Y1420000D03*
X1519000Y1476000D03*
X1994000Y1640000D03*
X2089000Y1723000D03*
X2204000Y1759000D03*
X2532000Y1905000D03*
X738000Y2036000D03*
X5013000Y1938000D03*
X762000Y2109000D03*
X2327000Y2095000D03*
X2424000Y2135000D03*
X1941960Y2186040D03*
X671000Y2382000D03*
X4939000Y2349000D03*
X198000Y2502000D03*
X704000Y2442000D03*
X760000Y2493000D03*
X2734000Y2538000D03*
X6287000Y2518000D03*
X6678000Y2523000D03*
X1941960Y2732960D03*
X5321000Y2726000D03*
X7701000Y2731000D03*
X470000Y2798000D03*
X558000Y2794000D03*
X1425000Y2843000D03*
X4607000Y2818000D03*
X9036000Y2813000D03*
X1614000Y2962000D03*
X7347000Y2891000D03*
X1304000Y3027000D03*
X1575000Y3083000D03*
X2143000Y3048000D03*
X1324000Y3197000D03*
X4600000Y3160000D03*
X7531000Y3135000D03*
X7737000Y3229000D03*
X7946000Y3318000D03*
X1407000Y3384000D03*
X3831000Y3387000D03*
X739000Y3588000D03*
X5293000Y3492000D03*
X5999000Y3472000D03*
X9123000Y3502000D03*
X482000Y3598000D03*
X4939000Y3643000D03*
X5013000Y3642000D03*
X5293000Y3699000D03*
X5707000Y3680000D03*
X6079000Y3699000D03*
X745000Y3824000D03*
X1304000Y3762000D03*
X2752000Y3740000D03*
X4114000Y3758000D03*
X4450000Y3748000D03*
X5342000Y3788000D03*
X5736000Y3817000D03*
X7198000Y3802000D03*
X283000Y3909000D03*
X869000Y3828000D03*
X1105000Y3882000D03*
X1651000Y3852000D03*
X2882000Y3907000D03*
X4299000Y3834000D03*
X5642000Y3924000D03*
X5925000Y3873000D03*
X6011000Y3945000D03*
X846000Y4062000D03*
X1088000Y3993000D03*
X1218000Y4045000D03*
X1976000Y4044000D03*
X4017000Y3999000D03*
X4198000Y4004000D03*
X5169000Y4061000D03*
X5941500Y4041500D03*
X1673500Y4103500D03*
X1727000Y4176000D03*
X2056000Y4132000D03*
X4657000Y4177000D03*
X4766000Y4184000D03*
X4775000Y4078000D03*
X5511000Y4086000D03*
X3463000Y4195000D03*
X5439000Y4286000D03*
X1643000Y4401000D03*
X2206000Y4426000D03*
X3089000Y4449000D03*
X4840000Y4538000D03*
X5188000Y4461000D03*
X5397000Y4509000D03*
X5465000Y4454000D03*
X5837000Y4524000D03*
X6090000Y4468000D03*
X6281000Y4436000D03*
X6366000Y4520000D03*
X1787000Y4660000D03*
X1853000Y4554000D03*
X4296000Y4632000D03*
X4883000Y4609000D03*
X5005000Y4576000D03*
X6451000Y4605000D03*
X1600000Y4722780D03*
X4452000Y4734000D03*
X5039000Y4776000D03*
X4980000Y4744000D03*
X4939000Y4662000D03*
X5340000Y4678000D03*
X5417000Y4711000D03*
X4331000Y4803000D03*
X7674000Y4854000D03*
X1112780Y5011780D03*
X1957500Y4938500D03*
X2498000Y4977000D03*
X1898000Y5090000D03*
X2148000Y5109000D03*
X2497000Y5088000D03*
X2221000Y5201000D03*
X2573000Y5242000D03*
X1923980Y5325020D03*
X2035000Y5327000D03*
X4086000Y5332000D03*
X4362000Y5257000D03*
X5691000Y5307000D03*
X722000Y5428000D03*
X1052780Y5442220D03*
X2482000Y5457300D03*
X3060000Y5440000D03*
X3340000Y5428000D03*
X6017000Y5487000D03*
X1374970Y5545910D03*
X1474990D03*
X2035000Y5588000D03*
X2159000Y5538000D03*
X2480000Y5571000D03*
X4180000Y5566000D03*
X6168000Y5552000D03*
X7649000Y5568000D03*
X1112780Y5630220D03*
X1562000Y5637000D03*
X1745000Y5647000D03*
X2432000Y5728000D03*
X4263000Y5632080D03*
X5602000Y5731000D03*
X5544000Y5693000D03*
X6513000Y5645000D03*
X2588500Y5850500D03*
X4416000Y5801000D03*
X5773000Y5822000D03*
X10009000Y5808000D03*
X2376000Y5945000D03*
X2329000Y5878000D03*
X2494000Y5860000D03*
X2699000Y5859000D03*
X2921000Y5886000D03*
X5215000Y5931000D03*
X5683000Y5910000D03*
X6075000Y5901000D03*
X1712000Y6029000D03*
X5176000Y6078000D03*
X5237000Y6036000D03*
X1587000Y6205000D03*
X4984000Y6203000D03*
X5369000Y6150000D03*
X5552000Y6203000D03*
Y6112000D03*
X5654000Y6116000D03*
X5764000Y6197000D03*
X6557000Y6106000D03*
X6986000Y6190000D03*
X7554000Y6111000D03*
X9360000Y6128000D03*
X5238000Y6317000D03*
X5408000Y6256000D03*
X7644000Y6246000D03*
X5004000Y6335000D03*
X5976000Y6331000D03*
X2327000Y6531000D03*
X4710000Y6509000D03*
X5139000Y6457000D03*
X5331000Y6479000D03*
X6981000Y6471000D03*
X7045000Y6654000D03*
X1650000Y6755000D03*
X2498840Y6742840D03*
X2658840D03*
X2898840D03*
X3058840D03*
X3283160D03*
X3490000Y6728000D03*
X3683160Y6742840D03*
X5191000Y6806000D03*
X6532000Y6707000D03*
X2498840Y6822840D03*
Y6902840D03*
X2578840Y6822840D03*
X2738840D03*
Y6902840D03*
X2658840D03*
Y6822840D03*
X2818840Y6902840D03*
X2898840Y6822840D03*
Y6902840D03*
X2978840D03*
Y6822840D03*
X3058840D03*
Y6902840D03*
X3203160D03*
X3283160D03*
Y6822840D03*
X3363160D03*
Y6902840D03*
X3443160D03*
Y6822840D03*
X3523160Y6902840D03*
X3603160D03*
Y6822840D03*
X3523160D03*
X3683160D03*
Y6902840D03*
X3763160Y6822840D03*
Y6902840D03*
X5984000Y6843000D03*
X6527000Y6842000D03*
X3471000Y7025000D03*
X5544000Y7029000D03*
X5549000Y6942000D03*
X6883000Y6996000D03*
X7664000Y7006000D03*
X9999000Y6995000D03*
X3538000Y7134000D03*
X5032000Y7109000D03*
X4934000Y7077000D03*
X5252000Y7063000D03*
X5323000Y7061000D03*
X5415000Y7056000D03*
X5518000Y7113000D03*
X5632000Y7100000D03*
X6813000Y7162000D03*
X7018000Y7098000D03*
X3994000Y7197000D03*
X4382910Y7267910D03*
Y7187910D03*
X4542910Y7267910D03*
X4462910D03*
Y7187910D03*
X4622910Y7267910D03*
Y7187910D03*
X4702910Y7267910D03*
Y7187910D03*
X4782910Y7267910D03*
X4862910D03*
Y7187910D03*
X4942910D03*
X5022910Y7267910D03*
Y7187910D03*
X4942910Y7267910D03*
X5251090D03*
X5651090D03*
X5731090D03*
X5651090Y7187910D03*
X5811090D03*
X6636000Y7174000D03*
X2498840Y7367160D03*
Y7287160D03*
X2578840Y7367160D03*
Y7287160D03*
X2658840Y7367160D03*
Y7287160D03*
X2738840D03*
X2818840D03*
X2978840D03*
X2898840D03*
Y7367160D03*
X3058840D03*
Y7287160D03*
X3203160D03*
X3283160Y7367160D03*
Y7287160D03*
X3363160Y7367160D03*
Y7287160D03*
X3443160Y7367160D03*
X3603160D03*
Y7287160D03*
X3523160Y7367160D03*
Y7287160D03*
X3683160Y7367160D03*
Y7287160D03*
X3763160Y7367160D03*
X3970500Y7386500D03*
X4169000Y7375000D03*
X4382910Y7347910D03*
X4462910D03*
X4542910D03*
X4702910D03*
X4782910D03*
X5022910D03*
X4942910D03*
X5251090D03*
X5171090D03*
X5331090D03*
X5501000Y7346000D03*
X5811090Y7347910D03*
X6110000Y7381000D03*
X6304000Y7334000D03*
X6408000Y7301000D03*
X6371000Y7392000D03*
X6528000Y7301000D03*
X9348000Y7318000D03*
X925000Y7417000D03*
X1037000Y7514000D03*
X2738840Y7447160D03*
X2658840D03*
X2818840D03*
X3058840D03*
X3283160D03*
X3523160D03*
X3683160D03*
X4294000Y7518000D03*
X4362000Y7460000D03*
X4462910Y7507910D03*
Y7427910D03*
X4542910Y7507910D03*
Y7427910D03*
X4622910Y7507910D03*
X4782910D03*
X4702910Y7427910D03*
Y7507910D03*
X4782910Y7427910D03*
X4862910Y7507910D03*
Y7427910D03*
X4942910Y7507910D03*
X5022910Y7427910D03*
X4942910D03*
X5171090Y7507910D03*
X5251090D03*
X5171090Y7427910D03*
X5251090D03*
X5331090Y7507910D03*
X5411090D03*
Y7427910D03*
X5491090Y7507910D03*
X5571090Y7427910D03*
Y7507910D03*
X5651090D03*
X5811090D03*
X6038000Y7466000D03*
X6556000Y7461000D03*
X1169000Y7527000D03*
X2702000Y7566000D03*
X2780000Y7573000D03*
X2978000Y7572000D03*
X3381000Y7527000D03*
X4035000Y7540000D03*
X4382910Y7587910D03*
X4542910D03*
X4462910D03*
X4622910D03*
X4782910D03*
X4702910D03*
X4862910D03*
X5022910D03*
X5251090D03*
X5411090D03*
X5491090D03*
X5731090D03*
X5651090D03*
X6030000Y7543000D03*
X7165000Y7606000D03*
X7323000Y7561000D03*
X4158000Y7758000D03*
X4185000Y7683000D03*
X4382910Y7667910D03*
Y7747910D03*
X4542910D03*
Y7667910D03*
X4462910D03*
X4622910D03*
Y7747910D03*
X4782910D03*
Y7667910D03*
X4862910Y7747910D03*
X4942910Y7667910D03*
X5171090D03*
X5251090Y7747910D03*
X5331090Y7667910D03*
X5411090D03*
Y7747910D03*
X5491090D03*
Y7667910D03*
X5571090Y7747910D03*
X5731090D03*
X5651090D03*
X5926000Y7642000D03*
X6317000Y7697000D03*
X6981000Y7659000D03*
X7670000Y7706000D03*
X4006000Y7835000D03*
X4382910Y7827910D03*
X4462910D03*
X4542910D03*
X4622910D03*
X4782910D03*
X4702910D03*
X4942910D03*
X5171090D03*
X5331090D03*
X5491090D03*
X5411090D03*
X5571090D03*
X5731090D03*
X5651090D03*
X5811090D03*
X5956000Y7813000D03*
X6133000Y7760000D03*
X2547000Y7973000D03*
X3656000Y7983000D03*
X4286000Y7899000D03*
X4382910Y7976090D03*
X4542910D03*
X4462910D03*
X4622910D03*
X4702910D03*
X4862910D03*
X5251090D03*
X5491090D03*
X5411090D03*
X5571090D03*
X5731090D03*
X5811090D03*
X5962000Y7990000D03*
X6050000Y7923000D03*
X6148000Y7990000D03*
X6927000Y7935000D03*
X7284000Y7912000D03*
X4291000Y8066000D03*
X4622910Y8056090D03*
X4702910D03*
X4782910D03*
X4942910D03*
X5172000Y8057000D03*
X5331090Y8056090D03*
X5491090D03*
X5571090D03*
X5651090D03*
X5731090D03*
X5811090D03*
X6345000Y8069000D03*
X7074000Y8034000D03*
X7144000Y8052000D03*
X2415000Y8165000D03*
X4184000Y8129000D03*
X4253000Y8171000D03*
X4462910Y8216090D03*
X4542910Y8136090D03*
X4622910D03*
X4782910Y8216090D03*
Y8136090D03*
X4702910D03*
X4862910D03*
X5022910D03*
X4942910Y8216090D03*
X5251090Y8136090D03*
X5171090Y8216090D03*
X5331090D03*
X5491090Y8136090D03*
X5411090D03*
X5571090D03*
Y8216090D03*
X5731090Y8136090D03*
X5651090D03*
Y8216090D03*
X5811090Y8136090D03*
X6182000Y8177000D03*
X6761000Y8174000D03*
X1724000Y8355000D03*
X4382910Y8296090D03*
X4542910D03*
X5022910D03*
X4942910D03*
X5251090D03*
X5171090D03*
X5331090D03*
X5411090D03*
X5571090D03*
X5731090D03*
X5651090D03*
X5811090D03*
X5901000Y8264000D03*
X6033000Y8262000D03*
X6403000Y8286000D03*
X6644000Y8297000D03*
X2027000Y8396000D03*
X3728000Y8402000D03*
X3777000Y8446000D03*
X4142000Y8428000D03*
X4462910Y8456090D03*
X4616000Y8377000D03*
X4782910Y8376090D03*
X5022910D03*
Y8456090D03*
X5251090D03*
X5171090D03*
Y8376090D03*
X5331090Y8456090D03*
Y8376090D03*
X5411090Y8456090D03*
Y8376090D03*
X5571090D03*
Y8456090D03*
X5811090Y8376090D03*
X5886000Y8451000D03*
X6044000Y8364000D03*
X6233000Y8414000D03*
X6495000Y8377000D03*
X7297000Y8375000D03*
X7664000Y8428000D03*
X9434000Y8458000D03*
X5022910Y8536090D03*
X4942910D03*
X5171090D03*
X5251090D03*
X5331090D03*
X5811090D03*
X6270000Y8538000D03*
X6612000Y8542000D03*
X6792000Y8573000D03*
X693000Y8656000D03*
X925000Y8619000D03*
X3603000Y8614000D03*
X4862910Y8616090D03*
X4942910D03*
X5022910D03*
X5092000Y8671000D03*
X5268000Y8689000D03*
X5171090Y8616090D03*
X5251090D03*
X5731090D03*
X5811090D03*
X5797000Y8687000D03*
X5902000Y8603000D03*
X6364000Y8700000D03*
X1112000Y8782000D03*
X1317000Y8722000D03*
X3832000Y8776000D03*
X5118000Y8792000D03*
X5275500Y8782500D03*
X5370000Y8772000D03*
X6557000Y8754000D03*
X818000Y8878000D03*
X4342000Y8909000D03*
X3451000Y9189000D03*
X7654000Y9127000D03*
X3971000Y9242000D03*
X4986000Y9304000D03*
X5363000Y9205000D03*
X4878000Y9377000D03*
X5990000Y9378000D03*
X9999000Y9369000D03*
X4916000Y9482000D03*
X5052000Y9530000D03*
X7688000Y9485000D03*
X9447500Y9649500D03*
X6946000Y9703000D03*
X4530000Y9828000D03*
X7654000Y9844000D03*
X9585000Y9929000D03*
X7143000Y10067000D03*
X4896000Y10322000D03*
X6969000Y10305000D03*
X10727270Y10476000D03*
X3454000Y10501000D03*
X7638000Y10524000D03*
X7688000Y10641000D03*
X9657000Y10665000D03*
X3758000Y10864000D03*
X7215000Y10914000D03*
X5749000Y11140000D03*
X6023000Y11114000D03*
X6901000Y11228000D03*
X6106000Y11388000D03*
X10705270Y11354000D03*
X6594000Y11483000D03*
X9681000Y11614000D03*
X5571000Y11786000D03*
X2242000Y11918000D03*
X3758000Y11818000D03*
X4985000Y11979000D03*
X7482000Y11973000D03*
X6177000Y12155000D03*
X10733000Y12163000D03*
X1389000Y12247000D03*
X1762000Y12232000D03*
X4478000Y12282000D03*
X5604000Y12236000D03*
X5524000Y12208000D03*
X5181000Y12395000D03*
X6927000Y12322000D03*
X4210000Y12422000D03*
X5277000Y12458000D03*
X5325000Y12506000D03*
X3572330Y12567000D03*
X3643060D03*
X3873640Y12598000D03*
X3944370D03*
X5420000Y12610000D03*
X6354000Y12538000D03*
X9627000Y12530000D03*
X1662000Y12737000D03*
X5319000Y12764000D03*
X3257320Y12836000D03*
X3328050D03*
X860000Y12992000D03*
X2942670Y12969000D03*
X3013400D03*
X1389000Y13093000D03*
X1553000Y13023000D03*
X7043000Y13004000D03*
X10679000Y13072000D03*
X6243000Y13221000D03*
X6766000Y13438000D03*
X3148060Y13575000D03*
X3464000D03*
X5836000Y13585800D03*
X6561000Y13497000D03*
X8449000Y13559000D03*
X7593000Y13668000D03*
X8758000Y13638000D03*
X9169000Y13678000D03*
X5677000Y13834000D03*
X7121000Y13810380D03*
X7848000Y13770000D03*
X469000Y13859000D03*
X2596000Y13869000D03*
X8102000Y13943000D03*
X5680000Y13996000D03*
X477000Y14147000D03*
X2617000Y14161000D03*
X5158000Y14076000D03*
X4837000Y14391000D03*
G54D27*
X4957000Y564000D03*
X5160000D03*
X5363000D03*
X5566000D03*
X5769000D03*
X5972000D03*
G54D32*
X9759000Y5528000D03*
X10009000D03*
X10259000D03*
X9749000Y6708000D03*
X9999000D03*
X10249000D03*
X9749000Y7868000D03*
X9999000D03*
X10249000D03*
X9749000Y9068000D03*
X9999000D03*
X10249000D03*
G54D34*
X1104000Y10197000D03*
X1359000D03*
X1612000D03*
X1866000D03*
X2120000D03*
X2375000D03*
X2882000D03*
X3136000D03*
X3644000D03*
X1866000Y11223000D03*
X2629000Y11222000D03*
X2883000Y11223000D03*
X3137000D03*
X3644000D03*
G54D33*
X6776000Y7384000D03*
Y7638000D03*
G54D30*
X8507000Y2078000D03*
Y2338000D03*
Y2598000D03*
Y2798000D03*
Y3058000D03*
Y3318000D03*
X8502000Y3517000D03*
Y3777000D03*
Y4037000D03*
X8509000Y4248000D03*
Y4508000D03*
Y4768000D03*
Y4958000D03*
Y5218000D03*
Y5478000D03*
Y5668000D03*
Y5928000D03*
Y6188000D03*
Y6378000D03*
Y6638000D03*
Y6898000D03*
Y7088000D03*
Y7348000D03*
Y7608000D03*
Y7798000D03*
Y8058000D03*
Y8318000D03*
Y8508000D03*
Y8768000D03*
Y9028000D03*
Y9218000D03*
X1108000Y9359000D03*
X1494000Y9362000D03*
X1754000D03*
X2014000D03*
X2217000Y9364000D03*
X2477000D03*
X2737000D03*
X8509000Y9478000D03*
X1108000Y9619000D03*
X3663000Y9756000D03*
X3923000D03*
X4183000D03*
X8509000Y9738000D03*
X1108000Y9879000D03*
X8509000Y9928000D03*
Y10188000D03*
Y10448000D03*
X2897000Y11553000D03*
X4318000Y11713000D03*
X4578000D03*
X4838000D03*
X2897000Y11813000D03*
Y12073000D03*
G54D36*
X6821000Y14292000D03*
X7075000D03*
X7329000D03*
X7583000D03*
X7837000D03*
X8091000D03*
X8345000D03*
X8599000D03*
X8853000D03*
X9107000D03*
X9361000D03*
X9615000D03*
X9869000D03*
X10123000D03*
X10377000D03*
X10631000D03*
G54D35*
X351000Y13721000D03*
X651000D03*
X951000D03*
X1251000D03*
X1551000D03*
X1851000D03*
X2501000D03*
X2801000D03*
X3101000D03*
X3401000D03*
X3701000D03*
X4001000D03*
X651000Y14021000D03*
X951000D03*
X1251000D03*
X1551000D03*
X1851000D03*
X2801000D03*
X3101000D03*
X3401000D03*
X3701000D03*
X4001000D03*
G54D29*
X4658000Y1998000D03*
X6271000D03*
G54D31*
X296000Y4228000D03*
Y4482000D03*
Y4736000D03*
Y4990000D03*
Y5244000D03*
Y5498000D03*
X7141000Y8575000D03*
Y8829000D03*
Y9337000D03*
Y9591000D03*
Y9845000D03*
G54D25*
X4742000Y317000D03*
X4996000D03*
X5933000D03*
X6187000D03*
G54D28*
X4830000Y1681000D03*
X6100000D03*
%LPD*%
G75*
G54D10*
X210000Y2286000D03*
X198000Y2502000D03*
X195000Y6140000D03*
X182000Y6503000D03*
Y6789000D03*
X185000Y7050000D03*
Y7332000D03*
X183000Y7594000D03*
X178000Y7859000D03*
X186000Y8151000D03*
X180000Y8442000D03*
X338000Y1775000D03*
X283000Y3909000D03*
X476000Y2076000D03*
X470000Y2798000D03*
X482000Y3598000D03*
X478000Y4482000D03*
X448000Y5708000D03*
Y5772000D03*
X451000Y8822000D03*
X469000Y13859000D03*
X477000Y14147000D03*
X540000Y1431000D03*
X558000Y2794000D03*
X595000Y5273000D03*
X539000Y5879000D03*
X738000Y2036000D03*
X671000Y2382000D03*
X704000Y2442000D03*
X739000Y3588000D03*
X745000Y3824000D03*
X722000Y5428000D03*
X693000Y8656000D03*
X744000Y13877000D03*
X746000Y14160000D03*
X815410Y1417590D03*
X762000Y2109000D03*
X760000Y2493000D03*
X869000Y3828000D03*
X846000Y4062000D03*
X814000Y5241000D03*
X824000Y5391000D03*
X827000Y5725000D03*
X815000Y6509000D03*
X811000Y6786000D03*
X808000Y7035000D03*
X807000Y7331000D03*
X805000Y7594000D03*
X800000Y7880000D03*
X798000Y8162000D03*
X784000Y8451000D03*
X818000Y8878000D03*
X860000Y12992000D03*
X976000Y1630000D03*
X970000Y1790000D03*
X989000Y1936000D03*
X894000Y2471000D03*
X973930Y2685070D03*
X967220Y5003780D03*
X964000Y5662000D03*
X925000Y7417000D03*
Y8619000D03*
X1017000Y1420000D03*
X1105000Y3882000D03*
X1088000Y3993000D03*
X1017000Y4780000D03*
X1044000Y5091000D03*
X1052780Y5442220D03*
X1009000Y5734000D03*
X1037000Y7514000D03*
X1108000Y9209000D03*
X1175000Y1061000D03*
X1134000Y1527000D03*
X1174920Y2930080D03*
X1218000Y4045000D03*
X1112780Y5011780D03*
Y5630220D03*
X1190000Y6342000D03*
X1169000Y7527000D03*
X1112000Y8782000D03*
X1267000Y1302000D03*
X1324960Y1892960D03*
X1247000Y2410000D03*
X1304000Y3027000D03*
X1324000Y3197000D03*
X1304000Y3762000D03*
X1253790Y4094000D03*
X1281000Y5250000D03*
X1317000Y8722000D03*
X1360000Y1576000D03*
X1425000Y2843000D03*
X1407000Y3384000D03*
X1465000Y4069000D03*
X1374970Y4898970D03*
X1424980Y4902000D03*
X1374970Y5545910D03*
X1420000Y6335000D03*
X1353000Y6971000D03*
X1360000Y7144000D03*
X1382000Y7046000D03*
X1368000Y7245000D03*
X1374000Y7348000D03*
X1365000Y7449000D03*
X1366000Y7562000D03*
X1372000Y7655000D03*
X1389000Y12247000D03*
Y13093000D03*
X1519000Y1476000D03*
X1575020Y1887980D03*
X1500000Y2162590D03*
Y2410000D03*
Y2657410D03*
X1575000Y3083000D03*
X1525010Y4888010D03*
X1474990Y4902990D03*
X1502000Y5032000D03*
Y5252000D03*
X1499000Y5459000D03*
X1474990Y5545910D03*
X1562000Y5637000D03*
X1580000Y5931000D03*
X1563000Y7793000D03*
X1553000Y13023000D03*
X1697000Y717000D03*
X1702000Y1444000D03*
X1625030Y1888030D03*
X1614000Y2962000D03*
X1651000Y3852000D03*
X1673500Y4103500D03*
X1643000Y4401000D03*
X1599000Y4498000D03*
X1600000Y4722780D03*
X1700000Y5932000D03*
X1587000Y6205000D03*
X1650000Y6755000D03*
X1662000Y12737000D03*
X1807000Y1322000D03*
X1713000Y1691000D03*
X1724000Y1893000D03*
X1747410Y2410000D03*
X1803810Y2939000D03*
X1727000Y4176000D03*
X1710000Y4493000D03*
X1787000Y4660000D03*
X1716000Y5251000D03*
X1745000Y5647000D03*
X1712000Y6029000D03*
X1724000Y8355000D03*
X1762000Y12232000D03*
X1824000Y1559210D03*
X1825000Y2030000D03*
X1941960Y2186040D03*
Y2732960D03*
X1878000Y4353000D03*
X1853000Y4554000D03*
X1898000Y5090000D03*
X1928000Y5228000D03*
X1904980Y5174980D03*
X1923980Y5325020D03*
X1933000Y6064000D03*
X1901000Y6300000D03*
X1905000Y6369000D03*
X1994000Y1640000D03*
X2024000Y2480000D03*
X1963000Y3109000D03*
X1972000Y3207000D03*
Y3330000D03*
X1976000Y4044000D03*
X2056000Y4132000D03*
X1957500Y4938500D03*
X2009000Y5225000D03*
X2035000Y5327000D03*
Y5588000D03*
X2027000Y8396000D03*
X2089000Y1723000D03*
X2143000Y3048000D03*
X2148000Y5109000D03*
X2159000Y5538000D03*
X2063000Y8193000D03*
X2095000Y8300000D03*
X2193000Y670000D03*
X2296000Y654000D03*
X2204000Y1759000D03*
X2202000Y3530000D03*
X2256000Y4185000D03*
X2206000Y4426000D03*
X2221000Y5201000D03*
X2232000Y6072000D03*
X2242000Y11918000D03*
X2327000Y2095000D03*
X2321000Y3530000D03*
X2381000Y4509000D03*
X2376000Y5945000D03*
X2329000Y5878000D03*
X2327000Y6531000D03*
X2415000Y8165000D03*
X2532000Y1905000D03*
X2424000Y2135000D03*
X2493000Y4742000D03*
X2498000Y4977000D03*
X2497000Y5088000D03*
X2482000Y5457300D03*
X2480000Y5571000D03*
X2432000Y5728000D03*
X2494000Y5860000D03*
X2498840Y6742840D03*
Y6822840D03*
Y6902840D03*
Y7367160D03*
Y7287160D03*
Y7447160D03*
X2568000Y3076000D03*
X2561000Y3305000D03*
X2639000Y4194000D03*
Y4777000D03*
X2587000Y5185000D03*
X2573000Y5242000D03*
X2579000Y5295000D03*
X2588500Y5850500D03*
X2578840Y6742840D03*
Y6902840D03*
Y6822840D03*
Y7367160D03*
Y7287160D03*
Y7447160D03*
X2547000Y7973000D03*
X2596000Y13869000D03*
X2617000Y14161000D03*
X2734000Y2538000D03*
X2752000Y3740000D03*
X2699000Y5859000D03*
X2738840Y6742840D03*
X2658840D03*
X2738840Y6822840D03*
Y6902840D03*
X2658840D03*
Y6822840D03*
X2738840Y7367160D03*
X2658840D03*
Y7287160D03*
X2738840D03*
Y7447160D03*
X2658840D03*
X2702000Y7566000D03*
X2882000Y3907000D03*
X2867000Y5415000D03*
X2818840Y6742840D03*
Y6822840D03*
Y6902840D03*
Y7367160D03*
Y7287160D03*
Y7447160D03*
X2780000Y7573000D03*
X2838000Y13888000D03*
X2885000Y14125000D03*
X2965000Y3929000D03*
X2921000Y5886000D03*
X2978840Y6742840D03*
X2898840D03*
Y6822840D03*
Y6902840D03*
X2978840D03*
Y6822840D03*
Y7367160D03*
Y7287160D03*
X2898840D03*
Y7367160D03*
Y7447160D03*
X2978840D03*
X2978000Y7572000D03*
X2908000Y9327000D03*
X2942670Y12969000D03*
X3013400D03*
X3089000Y4449000D03*
X3060000Y5440000D03*
X3058840Y6742840D03*
Y6822840D03*
Y6902840D03*
Y7367160D03*
Y7287160D03*
Y7447160D03*
X3232000Y5096000D03*
X3203160Y6822840D03*
Y6902840D03*
Y7367160D03*
Y7287160D03*
X3148060Y13575000D03*
X3363000Y3388000D03*
X3368000Y3524000D03*
X3362000Y3695000D03*
Y4108000D03*
X3339000Y4498000D03*
X3340000Y5428000D03*
X3283160Y6742840D03*
Y6902840D03*
Y6822840D03*
X3363160D03*
Y6902840D03*
X3283160Y7367160D03*
Y7287160D03*
X3363160Y7367160D03*
Y7287160D03*
X3283160Y7447160D03*
X3257320Y12836000D03*
X3328050D03*
X3463000Y4195000D03*
X3484000Y5094000D03*
X3443160Y6742840D03*
X3490000Y6728000D03*
X3443160Y6902840D03*
Y6822840D03*
X3471000Y7025000D03*
X3443160Y7367160D03*
Y7447160D03*
X3381000Y7527000D03*
X3451000Y9189000D03*
X3454000Y10501000D03*
X3464000Y13575000D03*
X3509000Y3158000D03*
X3570000Y4307000D03*
X3526000Y5161000D03*
X3603160Y6742840D03*
X3523160Y6902840D03*
X3603160D03*
Y6822840D03*
X3523160D03*
X3538000Y7134000D03*
X3603160Y7367160D03*
Y7287160D03*
X3523160Y7367160D03*
Y7287160D03*
X3603160Y7447160D03*
X3523160D03*
X3603000Y8614000D03*
X3572330Y12567000D03*
X3683160Y6742840D03*
Y6822840D03*
Y6902840D03*
Y7367160D03*
Y7287160D03*
Y7447160D03*
X3656000Y7983000D03*
X3728000Y8402000D03*
X3643060Y12567000D03*
X3831000Y3387000D03*
X3763160Y6742840D03*
Y6822840D03*
Y6902840D03*
Y7367160D03*
Y7447160D03*
X3777000Y8446000D03*
X3832000Y8776000D03*
X3758000Y10864000D03*
Y11818000D03*
X3901000Y3811200D03*
X3926000Y4209000D03*
X3873640Y12598000D03*
X3944370D03*
X4017000Y3999000D03*
X4086000Y5332000D03*
X3994000Y7197000D03*
X3970500Y7386500D03*
X4035000Y7540000D03*
X4080000Y7731000D03*
Y7777000D03*
X4006000Y7835000D03*
X4025000Y8465000D03*
X3971000Y9242000D03*
X4203000Y997000D03*
X4114000Y3758000D03*
X4108000Y4060000D03*
X4198000Y4004000D03*
X4103000Y4577000D03*
X4180000Y5566000D03*
X4169000Y7375000D03*
X4158000Y7758000D03*
X4185000Y7683000D03*
X4184000Y8129000D03*
X4142000Y8428000D03*
X4310000Y587000D03*
X4220000Y1141000D03*
X4228000Y3199000D03*
X4299000Y3834000D03*
X4214000Y4064000D03*
X4310000Y4058000D03*
X4207000Y4568000D03*
X4295000Y4562000D03*
X4296000Y4632000D03*
X4263000Y5632080D03*
X4294000Y7518000D03*
X4309000Y7975000D03*
X4286000Y7899000D03*
X4291000Y8066000D03*
X4253000Y8171000D03*
X4230000Y8817000D03*
X4210000Y12422000D03*
X4382000Y721000D03*
X4440000Y4057000D03*
X4331000Y4803000D03*
X4395000Y5323000D03*
X4362000Y5257000D03*
X4416000Y5801000D03*
X4382910Y7267910D03*
Y7187910D03*
Y7347910D03*
Y7507910D03*
X4362000Y7460000D03*
X4382910Y7587910D03*
Y7667910D03*
Y7747910D03*
Y7827910D03*
Y7976090D03*
Y8296090D03*
X4342000Y8909000D03*
X4366000Y9020000D03*
X4371000Y9724000D03*
X4450000Y3748000D03*
X4484000Y4101000D03*
X4516000Y4559000D03*
X4452000Y4734000D03*
X4542910Y7187910D03*
Y7267910D03*
X4462910D03*
Y7187910D03*
Y7347910D03*
X4542910D03*
X4462910Y7507910D03*
Y7427910D03*
X4542910Y7507910D03*
Y7427910D03*
Y7587910D03*
X4462910D03*
Y7747910D03*
X4542910D03*
Y7667910D03*
X4462910D03*
Y7827910D03*
X4542910D03*
Y7976090D03*
X4462910D03*
X4542910Y8056090D03*
X4462910Y8216090D03*
X4542910Y8136090D03*
X4458000Y8295000D03*
X4542910Y8296090D03*
X4462910Y8456090D03*
Y8616090D03*
X4530000Y9828000D03*
X4478000Y12282000D03*
X4607000Y2818000D03*
X4600000Y3160000D03*
X4653000Y3985000D03*
X4657000Y4177000D03*
X4626000Y4563000D03*
X4567000Y4558000D03*
X4604000Y5879000D03*
X4622910Y7267910D03*
Y7187910D03*
Y7427910D03*
Y7507910D03*
Y7587910D03*
Y7667910D03*
Y7747910D03*
Y7827910D03*
Y7976090D03*
Y8056090D03*
Y8136090D03*
Y8296090D03*
X4616000Y8377000D03*
X4655000Y13385000D03*
X4687000Y4031000D03*
X4766000Y4184000D03*
X4775000Y4078000D03*
X4730000Y4654000D03*
X4710000Y6509000D03*
X4787000Y7125000D03*
X4702910Y7267910D03*
X4782910Y7187910D03*
X4702910D03*
X4782910Y7267910D03*
X4702910Y7347910D03*
X4782910D03*
Y7507910D03*
X4702910Y7427910D03*
Y7507910D03*
X4782910Y7427910D03*
Y7587910D03*
X4702910D03*
Y7667910D03*
X4782910Y7747910D03*
Y7667910D03*
Y7827910D03*
X4702910D03*
X4782910Y7976090D03*
X4702910D03*
Y8056090D03*
X4782910D03*
Y8216090D03*
Y8136090D03*
X4702910D03*
X4780000Y8460000D03*
X4782910Y8376090D03*
X4720000Y9406000D03*
X4840000Y4538000D03*
X4883000Y4609000D03*
X4854000Y5864000D03*
X4862910Y7267910D03*
Y7187910D03*
Y7347910D03*
Y7507910D03*
Y7427910D03*
Y7587910D03*
Y7667910D03*
Y7747910D03*
Y7827910D03*
Y7976090D03*
Y8056090D03*
Y8216090D03*
Y8136090D03*
Y8616090D03*
X4878000Y9377000D03*
X4916000Y9482000D03*
X4896000Y10322000D03*
X4837000Y14391000D03*
X5013000Y1938000D03*
X4939000Y2349000D03*
Y3643000D03*
X5013000Y3642000D03*
X4934000Y4397000D03*
X4962350Y4478350D03*
X5012000Y4501000D03*
X5005000Y4576000D03*
X5039000Y4776000D03*
X4980000Y4744000D03*
X4939000Y4662000D03*
X4984000Y6203000D03*
X5004000Y6335000D03*
X5032000Y7109000D03*
X4934000Y7077000D03*
X4942910Y7187910D03*
X5022910Y7267910D03*
Y7187910D03*
X4942910Y7267910D03*
X5022910Y7347910D03*
X4942910D03*
X5022910Y7507910D03*
X4942910D03*
X5022910Y7427910D03*
X4942910D03*
Y7587910D03*
X5022910D03*
X4942910Y7747910D03*
X5022910D03*
Y7667910D03*
X4942910D03*
Y7827910D03*
Y7976090D03*
X5022000Y7977000D03*
X5022910Y8056090D03*
X4942910D03*
Y8136090D03*
X5022910Y8216090D03*
Y8136090D03*
X4942910Y8216090D03*
X5022910Y8296090D03*
X4942910D03*
Y8456090D03*
X5022910Y8376090D03*
Y8456090D03*
Y8536090D03*
X4942910D03*
Y8616090D03*
X5022910D03*
X4936000Y9264000D03*
X4986000Y9304000D03*
X4985000Y11979000D03*
X5145000Y1066000D03*
X5097000Y3633000D03*
X5043000Y3716000D03*
X5139000Y6457000D03*
X5092000Y8671000D03*
X5118000Y8792000D03*
X5052000Y9530000D03*
X5158000Y14076000D03*
X5161000Y3642000D03*
X5243000Y3714000D03*
X5169000Y4061000D03*
X5188000Y4461000D03*
X5215000Y5931000D03*
X5176000Y6078000D03*
X5237000Y6036000D03*
X5238000Y6317000D03*
X5191000Y6806000D03*
X5252000Y7063000D03*
X5171090Y7267910D03*
X5251090D03*
Y7347910D03*
X5171090D03*
Y7507910D03*
X5251090D03*
X5171090Y7427910D03*
X5251090D03*
X5171090Y7587910D03*
X5251090D03*
X5171090Y7747910D03*
X5251090Y7667910D03*
X5171090D03*
X5251090Y7747910D03*
Y7827910D03*
X5171090D03*
X5251090Y7976090D03*
Y8056090D03*
X5172000Y8057000D03*
X5171090Y8136090D03*
X5251090Y8216090D03*
Y8136090D03*
X5171090Y8216090D03*
X5251090Y8296090D03*
X5171090D03*
X5251090Y8376090D03*
Y8456090D03*
X5171090D03*
Y8376090D03*
Y8536090D03*
X5251090D03*
X5268000Y8689000D03*
X5180000Y8682000D03*
X5171090Y8616090D03*
X5251090D03*
X5166000Y8731000D03*
X5275500Y8782500D03*
X5181000Y12395000D03*
X5277000Y12458000D03*
X5361000Y933000D03*
X5321000Y2726000D03*
X5391000Y3499000D03*
X5293000Y3492000D03*
Y3699000D03*
X5342000Y3788000D03*
X5397000Y4509000D03*
X5378000Y4605800D03*
X5316000Y4748200D03*
X5340000Y4678000D03*
X5369000Y6150000D03*
X5331000Y6479000D03*
X5323000Y7061000D03*
X5340000Y7263000D03*
X5331090Y7347910D03*
Y7507910D03*
Y7587910D03*
Y7747910D03*
Y7667910D03*
Y7827910D03*
Y7976090D03*
Y8056090D03*
Y8136090D03*
Y8216090D03*
Y8296090D03*
Y8456090D03*
Y8376090D03*
Y8536090D03*
Y8616090D03*
X5370000Y8772000D03*
X5363000Y9205000D03*
X5325000Y12506000D03*
X5319000Y12764000D03*
X5511000Y4086000D03*
X5439000Y4286000D03*
X5465000Y4454000D03*
X5417000Y4711000D03*
X5408000Y6256000D03*
X5415000Y7056000D03*
X5501000Y7346000D03*
X5491090Y7427910D03*
X5411090Y7507910D03*
Y7427910D03*
X5491090Y7507910D03*
X5411090Y7587910D03*
X5491090D03*
X5411090Y7667910D03*
Y7747910D03*
X5491090D03*
Y7667910D03*
Y7827910D03*
X5411090D03*
X5491090Y7976090D03*
X5411090D03*
Y8056090D03*
X5491090D03*
Y8136090D03*
X5411090D03*
X5491090Y8296090D03*
X5411090D03*
Y8456090D03*
Y8376090D03*
X5504000Y10187000D03*
X5420000Y12610000D03*
X5487000Y13402000D03*
X5533000Y900000D03*
X5528000Y4263000D03*
X5628000Y4615000D03*
X5602000Y5731000D03*
X5544000Y5693000D03*
X5552000Y6203000D03*
Y6112000D03*
X5569000Y6390000D03*
X5532000Y6415000D03*
X5544000Y7029000D03*
X5549000Y6942000D03*
X5518000Y7113000D03*
X5632000Y7100000D03*
X5571090Y7427910D03*
Y7507910D03*
Y7667910D03*
Y7747910D03*
Y7827910D03*
Y7976090D03*
Y8056090D03*
Y8136090D03*
Y8216090D03*
Y8296090D03*
Y8376090D03*
Y8456090D03*
Y8536090D03*
X5571000Y11786000D03*
X5604000Y12236000D03*
X5524000Y12208000D03*
X5707000Y3680000D03*
X5736000Y3817000D03*
X5642000Y3924000D03*
X5691000Y5307000D03*
X5663000Y5869000D03*
X5683000Y5910000D03*
X5654000Y6116000D03*
X5711000Y6290000D03*
X5651090Y7267910D03*
X5731090D03*
X5651090Y7187910D03*
X5657000Y7428000D03*
X5651090Y7507910D03*
X5731090Y7587910D03*
X5651090D03*
X5731090Y7747910D03*
X5651090D03*
X5731090Y7827910D03*
X5651090D03*
X5652000Y7978000D03*
X5731090Y7976090D03*
X5651090Y8056090D03*
X5731090D03*
Y8216090D03*
Y8136090D03*
X5651090D03*
Y8216090D03*
X5731090Y8296090D03*
X5651090D03*
X5676920Y8461720D03*
X5675900Y8381190D03*
X5731090Y8456090D03*
Y8376090D03*
X5654000Y8638000D03*
X5731090Y8616090D03*
X5749000Y11140000D03*
X5677000Y13834000D03*
X5680000Y13996000D03*
X5757500Y896500D03*
X5768000Y4475000D03*
X5858000D03*
X5837000Y4524000D03*
X5773000Y5822000D03*
X5764000Y6197000D03*
X5811090Y7187910D03*
Y7347910D03*
Y7507910D03*
Y7587910D03*
Y7827910D03*
Y7976090D03*
X5868000Y7999000D03*
X5811090Y8056090D03*
Y8136090D03*
Y8296090D03*
Y8456090D03*
Y8376090D03*
Y8536090D03*
Y8616090D03*
X5797000Y8687000D03*
X5799000Y10402000D03*
X5836000Y13585800D03*
X5925000Y3873000D03*
X5941500Y4041500D03*
X5930000Y4470000D03*
X5897000Y6067000D03*
X5980000Y6064000D03*
X5976000Y6331000D03*
X5984000Y6843000D03*
X5959000Y7217000D03*
X5894000Y7232000D03*
X5926000Y7642000D03*
X5956000Y7813000D03*
X5890000Y7906000D03*
X5962000Y7990000D03*
X5942000Y7917000D03*
X5924000Y8190000D03*
X5901000Y8264000D03*
X5886000Y8451000D03*
X5902000Y8603000D03*
X5990000Y9378000D03*
X5921000Y12984000D03*
X5907000Y13028000D03*
X5925000Y13979000D03*
X5999000Y3472000D03*
X6079000Y3699000D03*
X6011000Y3945000D03*
X6090000Y4468000D03*
X6081000Y5470000D03*
X6017000Y5487000D03*
X6104000Y5529000D03*
X6075000Y5901000D03*
X6039000Y7230000D03*
X6110000Y7381000D03*
X6038000Y7466000D03*
X6030000Y7543000D03*
X6050000Y7923000D03*
X6033000Y8262000D03*
X6044000Y8364000D03*
X6108000Y10406000D03*
X6023000Y11114000D03*
X6106000Y11388000D03*
X6067000Y13592000D03*
X6168000Y5552000D03*
X6133000Y7760000D03*
X6148000Y7990000D03*
X6182000Y8177000D03*
X6187000Y8568000D03*
X6149000Y10559000D03*
X6177000Y12155000D03*
X6287000Y2518000D03*
X6281000Y4436000D03*
X6277000Y6117000D03*
X6304000Y7334000D03*
X6317000Y7697000D03*
X6345000Y8069000D03*
X6233000Y8414000D03*
X6270000Y8538000D03*
X6297000Y8695000D03*
X6243000Y13221000D03*
X6350000Y13866000D03*
X6366000Y4520000D03*
X6451000Y4605000D03*
X6408000Y7301000D03*
X6371000Y7392000D03*
X6374000Y7466000D03*
X6403000Y8286000D03*
X6364000Y8700000D03*
X6419000Y9420000D03*
X6425000Y9664000D03*
X6430000Y10112000D03*
X6354000Y12538000D03*
X6583000Y1804000D03*
X6561000Y4724000D03*
X6556000Y4783000D03*
X6513000Y5645000D03*
X6557000Y6106000D03*
X6532000Y6707000D03*
X6527000Y6842000D03*
X6528000Y7301000D03*
X6556000Y7461000D03*
X6495000Y8377000D03*
X6557000Y8754000D03*
X6561000Y13497000D03*
X6544000Y14361000D03*
X6678000Y2523000D03*
X6636000Y7174000D03*
X6669000Y7704000D03*
X6644000Y8297000D03*
X6634000Y8394000D03*
X6612000Y8542000D03*
X6650000Y8867000D03*
X6637000Y9096000D03*
X6634000Y9312000D03*
X6594000Y11483000D03*
X6657000Y13991000D03*
X6748000Y1639000D03*
X6813000Y7162000D03*
X6761000Y8174000D03*
X6792000Y8573000D03*
X6766000Y13438000D03*
X6864000Y3915000D03*
X6878000Y4049000D03*
X6883000Y6996000D03*
X6927000Y7935000D03*
X6946000Y9703000D03*
X6901000Y11228000D03*
X6927000Y12322000D03*
X6986000Y6190000D03*
X6981000Y6471000D03*
X7045000Y6654000D03*
X7018000Y7098000D03*
X6981000Y7659000D03*
X6969000Y10305000D03*
X7043000Y13004000D03*
X7002790Y13929000D03*
X7165000Y7606000D03*
X7074000Y8034000D03*
X7144000Y8052000D03*
X7141000Y9712000D03*
X7143000Y10067000D03*
X7121000Y13810380D03*
X7198000Y3802000D03*
X7284000Y7912000D03*
X7297000Y8375000D03*
X7240000Y9155000D03*
X7215000Y10914000D03*
X7347000Y2891000D03*
X7323000Y7561000D03*
X7531000Y3135000D03*
X7482000Y11973000D03*
X7483000Y13887000D03*
X7649000Y5568000D03*
X7554000Y6111000D03*
X7644000Y6246000D03*
X7654000Y9127000D03*
Y9844000D03*
X7638000Y10524000D03*
X7593000Y13668000D03*
X7701000Y2731000D03*
X7737000Y3229000D03*
X7674000Y4854000D03*
X7764000Y6114000D03*
X7664000Y7006000D03*
X7670000Y7706000D03*
X7664000Y8428000D03*
X7688000Y9485000D03*
X7775000Y10676000D03*
X7688000Y10641000D03*
X7848000Y13770000D03*
X7946000Y3318000D03*
X8102000Y13943000D03*
X8324000Y11238000D03*
X8333000Y11988000D03*
X8342000Y12538000D03*
X8313000Y13158000D03*
X8449000Y13559000D03*
X8830000Y13054000D03*
X8758000Y13638000D03*
X9036000Y2813000D03*
X9123000Y3502000D03*
X9169000Y13678000D03*
X9232000Y13057000D03*
X9360000Y6128000D03*
X9348000Y7318000D03*
X9434000Y8458000D03*
X9447500Y9649500D03*
X9403000Y13318000D03*
X9398000Y13444000D03*
X9585000Y9929000D03*
X9647000Y10495000D03*
X9657000Y10665000D03*
X9659000Y11388000D03*
X9681000Y11614000D03*
X9650000Y12187000D03*
X9627000Y12530000D03*
X9647000Y13086000D03*
X9759000Y5258000D03*
X9749000Y6413000D03*
Y7560000D03*
Y8755000D03*
X10009000Y5808000D03*
X9999000Y6995000D03*
Y9369000D03*
X10727270Y10476000D03*
X10705270Y11354000D03*
X10733000Y12163000D03*
X10679000Y13072000D03*
G54D20*
X6776000Y7384000D03*
Y7638000D03*
G54D11*
X296000Y4228000D03*
Y4482000D03*
Y4736000D03*
Y4990000D03*
Y5244000D03*
Y5498000D03*
X7141000Y8575000D03*
Y8829000D03*
Y9083000D03*
Y9337000D03*
Y9591000D03*
Y9845000D03*
G54D12*
X223000Y14119000D03*
X2373000D03*
G54D21*
X6821000Y14292000D03*
X7075000D03*
X7329000D03*
X7583000D03*
X7837000D03*
X8091000D03*
X8345000D03*
X8599000D03*
X8853000D03*
X9107000D03*
X9361000D03*
X9615000D03*
X9869000D03*
X10123000D03*
X10377000D03*
X10631000D03*
G54D13*
X351000Y13721000D03*
Y14021000D03*
X651000Y13721000D03*
Y14021000D03*
X951000Y13721000D03*
Y14021000D03*
X1251000Y13721000D03*
Y14021000D03*
X1551000Y13721000D03*
Y14021000D03*
X1851000Y13721000D03*
Y14021000D03*
X2501000Y13721000D03*
Y14021000D03*
X2801000Y13721000D03*
Y14021000D03*
X3101000Y13721000D03*
Y14021000D03*
X3401000Y13721000D03*
Y14021000D03*
X3701000Y13721000D03*
Y14021000D03*
X4001000Y13721000D03*
Y14021000D03*
G54D22*
X9759000Y5528000D03*
X9749000Y6708000D03*
Y7868000D03*
Y9068000D03*
X10009000Y5528000D03*
X9999000Y6708000D03*
Y7868000D03*
Y9068000D03*
X10259000Y5528000D03*
X10249000Y6708000D03*
Y7868000D03*
Y9068000D03*
G54D23*
G01X8265220Y6033000D02*
X8924000D01*
G54D14*
X1108000Y9359000D03*
Y9619000D03*
Y9879000D03*
X1494000Y9362000D03*
X1754000D03*
X2014000D03*
X2217000Y9364000D03*
X2477000D03*
X2737000D03*
X2897000Y11553000D03*
Y11813000D03*
Y12073000D03*
X3663000Y9756000D03*
X3923000D03*
X4183000D03*
X4318000Y11713000D03*
X4578000D03*
X4838000D03*
X8507000Y2078000D03*
Y2338000D03*
Y2598000D03*
Y2798000D03*
Y3058000D03*
Y3318000D03*
X8502000Y3517000D03*
Y3777000D03*
Y4037000D03*
X8509000Y4248000D03*
Y4508000D03*
Y4768000D03*
Y4958000D03*
Y5218000D03*
Y5478000D03*
Y5668000D03*
Y5928000D03*
Y6188000D03*
Y6378000D03*
Y6638000D03*
Y6898000D03*
Y7088000D03*
Y7348000D03*
Y7608000D03*
Y7798000D03*
Y8058000D03*
Y8318000D03*
Y8508000D03*
Y8768000D03*
Y9028000D03*
Y9218000D03*
Y9478000D03*
Y9738000D03*
Y9928000D03*
Y10188000D03*
Y10448000D03*
G54D24*
G01X198190Y4482000D02*
X296000D01*
G01Y4384190D02*
Y4482000D01*
G01D02*
X393810D01*
G01X296000D02*
Y4579810D01*
G01X554460Y13721000D02*
X651000D01*
G01X554460Y14021000D02*
X651000D01*
G01Y13624460D02*
Y13721000D01*
G01D02*
X747540D01*
G01X651000D02*
Y13817540D01*
G01Y13924460D02*
Y14021000D01*
G01D02*
X747540D01*
G01X651000D02*
Y14117540D01*
G01X1024160Y9359000D02*
X1108000D01*
G01Y9275160D02*
Y9359000D01*
G01D02*
X1191840D01*
G01X1108000D02*
Y9442840D01*
G01X2014000Y9278160D02*
Y9362000D01*
G01D02*
X2097840D01*
G01X1930160D02*
X2014000D01*
G01D02*
Y9445840D01*
G01X2737000Y9280160D02*
Y9364000D01*
G01D02*
X2820840D01*
G01X2653160D02*
X2737000D01*
G01D02*
Y9447840D01*
G01X2704460Y13721000D02*
X2801000D01*
G01X2704460Y14021000D02*
X2801000D01*
G01X2813160Y12073000D02*
X2897000D01*
G01X2801000Y13624460D02*
Y13721000D01*
G01D02*
X2897540D01*
G01X2801000D02*
Y13817540D01*
G01Y13924460D02*
Y14021000D01*
G01D02*
X2897540D01*
G01X2801000D02*
Y14117540D01*
G01X2897000Y11989160D02*
Y12073000D01*
G01D02*
X2980840D01*
G01X2897000D02*
Y12156840D01*
G01X4183000Y9756000D02*
X4266840D01*
G01X4099160D02*
X4183000D01*
G01D02*
Y9839840D01*
G01Y9672160D02*
Y9756000D01*
G01X4754160Y11713000D02*
X4838000D01*
G01Y11629160D02*
Y11713000D01*
G01D02*
X4921840D01*
G01X4838000D02*
Y11796840D01*
G01X6675650Y7638000D02*
X6776000D01*
G01Y7537650D02*
Y7638000D01*
G01D02*
X6876350D01*
G01X6776000D02*
Y7738350D01*
G01X6728200Y14292000D02*
X6821000D01*
G01D02*
X6913800D01*
G01X6821000D02*
Y14384800D01*
G01Y14199200D02*
Y14292000D01*
G01X7043190Y9591000D02*
X7141000D01*
G01Y9493190D02*
Y9591000D01*
G01D02*
X7238810D01*
G01X7141000D02*
Y9688810D01*
G01X9661350Y6708000D02*
X9749000D01*
G01X9661350Y7868000D02*
X9749000D01*
G01X9661350Y9068000D02*
X9749000D01*
G01X9759000Y5440350D02*
Y5528000D01*
G01D02*
X9846650D01*
G01X9671350D02*
X9759000D01*
G01D02*
Y5615650D01*
G01X9749000Y6620350D02*
Y6708000D01*
G01D02*
X9836650D01*
G01X9749000D02*
Y6795650D01*
G01Y7780350D02*
Y7868000D01*
G01D02*
X9836650D01*
G01X9749000D02*
Y7955650D01*
G01Y8980350D02*
Y9068000D01*
G01D02*
X9836650D01*
G01X9749000D02*
Y9155650D01*
G01X10538200Y14292000D02*
X10631000D01*
G01D02*
X10723800D01*
G01X10631000D02*
Y14384800D01*
G01Y14199200D02*
Y14292000D01*
G54D15*
X1104000Y10197000D03*
X1359000D03*
X1612000D03*
X1866000D03*
Y11223000D03*
X2120000Y10197000D03*
X2375000D03*
X2629000Y11222000D03*
X2882000Y10197000D03*
X2883000Y11223000D03*
X3136000Y10197000D03*
X3137000Y11223000D03*
X3644000Y10197000D03*
Y11223000D03*
G54D16*
X4658000Y1998000D03*
X6271000D03*
G54D17*
X4742000Y317000D03*
X4996000D03*
X5933000D03*
X6187000D03*
G54D18*
X4830000Y1681000D03*
X6100000D03*
G54D19*
X4957000Y564000D03*
X5160000D03*
X5363000D03*
X5566000D03*
X5769000D03*
X5972000D03*
M02*
