G04 ================== begin FILE IDENTIFICATION RECORD ==================*
G04 Layout Name:  c:/users/joser/onedrive/escritorio/allegro/artix-7_ja.brd*
G04 Film Name:    INTERNAL1*
G04 File Format:  Gerber RS274X*
G04 File Origin:  Cadence Allegro 25.1-S010*
G04 Origin Date:  Mon May 11 22:28:25 2026*
G04 *
G04 Layer:  ETCH/INTERNAL1*
G04 Layer:  PIN/INTERNAL1*
G04 Layer:  VIA CLASS/INTERNAL1*
G04 *
G04 Offset:    (0.0000 0.0000)*
G04 Mirror:    No*
G04 Mode:      Positive*
G04 Rotation:  0*
G04 FullContactRelief:  No*
G04 UndefLineWidth:     0.1000*
G04 ================== end FILE IDENTIFICATION RECORD ====================*
%FSLAX25Y25*MOMM*%
%IR0*IPPOS*OFA0.00000B0.00000*MIA0B0*SFA1.00000B1.00000*%
%ADD10C,.3*%
%ADD21C,1.5*%
%ADD12C,1.016*%
%ADD11C,1.6002*%
%ADD17C,1.5301*%
%ADD15C,1.308*%
%ADD20C,1.651*%
%ADD14C,1.3208*%
%ADD19C,1.446*%
%ADD16C,2.3551*%
%ADD22C,1.397*%
%ADD13C,1.5748*%
%ADD18C,3.2499*%
%ADD23C,.15*%
%ADD24C,.08*%
G75*
%LPD*%
G75*
G54D10*
X210000Y2286000D03*
X198000Y2502000D03*
X195000Y6140000D03*
X182000Y6503000D03*
Y6789000D03*
X185000Y7050000D03*
Y7332000D03*
X183000Y7594000D03*
X178000Y7859000D03*
X186000Y8151000D03*
X180000Y8442000D03*
X338000Y1775000D03*
X283000Y3909000D03*
X476000Y2076000D03*
X470000Y2798000D03*
X482000Y3598000D03*
X478000Y4482000D03*
X448000Y5708000D03*
Y5772000D03*
X451000Y8822000D03*
X469000Y13859000D03*
X477000Y14147000D03*
X540000Y1431000D03*
X558000Y2794000D03*
X595000Y5273000D03*
X539000Y5879000D03*
X738000Y2036000D03*
X671000Y2382000D03*
X704000Y2442000D03*
X739000Y3588000D03*
X745000Y3824000D03*
X722000Y5428000D03*
X693000Y8656000D03*
X744000Y13877000D03*
X746000Y14160000D03*
X815410Y1417590D03*
X762000Y2109000D03*
X760000Y2493000D03*
X869000Y3828000D03*
X846000Y4062000D03*
X814000Y5241000D03*
X824000Y5391000D03*
X827000Y5725000D03*
X815000Y6509000D03*
X811000Y6786000D03*
X808000Y7035000D03*
X807000Y7331000D03*
X805000Y7594000D03*
X800000Y7880000D03*
X798000Y8162000D03*
X784000Y8451000D03*
X818000Y8878000D03*
X860000Y12992000D03*
X976000Y1630000D03*
X970000Y1790000D03*
X989000Y1936000D03*
X894000Y2471000D03*
X973930Y2685070D03*
X967220Y5003780D03*
X964000Y5662000D03*
X925000Y7417000D03*
Y8619000D03*
X1017000Y1420000D03*
X1105000Y3882000D03*
X1088000Y3993000D03*
X1017000Y4780000D03*
X1044000Y5091000D03*
X1052780Y5442220D03*
X1009000Y5734000D03*
X1037000Y7514000D03*
X1108000Y9209000D03*
X1175000Y1061000D03*
X1134000Y1527000D03*
X1174920Y2930080D03*
X1218000Y4045000D03*
X1112780Y5011780D03*
Y5630220D03*
X1190000Y6342000D03*
X1169000Y7527000D03*
X1112000Y8782000D03*
X1267000Y1302000D03*
X1324960Y1892960D03*
X1247000Y2410000D03*
X1304000Y3027000D03*
X1324000Y3197000D03*
X1304000Y3762000D03*
X1253790Y4094000D03*
X1281000Y5250000D03*
X1317000Y8722000D03*
X1360000Y1576000D03*
X1425000Y2843000D03*
X1407000Y3384000D03*
X1465000Y4069000D03*
X1374970Y4898970D03*
X1424980Y4902000D03*
X1374970Y5545910D03*
X1420000Y6335000D03*
X1353000Y6971000D03*
X1360000Y7144000D03*
X1382000Y7046000D03*
X1368000Y7245000D03*
X1374000Y7348000D03*
X1365000Y7449000D03*
X1366000Y7562000D03*
X1372000Y7655000D03*
X1389000Y12247000D03*
Y13093000D03*
X1519000Y1476000D03*
X1575020Y1887980D03*
X1500000Y2162590D03*
Y2410000D03*
Y2657410D03*
X1575000Y3083000D03*
X1525010Y4888010D03*
X1474990Y4902990D03*
X1502000Y5032000D03*
Y5252000D03*
X1499000Y5459000D03*
X1474990Y5545910D03*
X1562000Y5637000D03*
X1580000Y5931000D03*
X1563000Y7793000D03*
X1553000Y13023000D03*
X1697000Y717000D03*
X1702000Y1444000D03*
X1625030Y1888030D03*
X1614000Y2962000D03*
X1651000Y3852000D03*
X1673500Y4103500D03*
X1643000Y4401000D03*
X1599000Y4498000D03*
X1600000Y4722780D03*
X1700000Y5932000D03*
X1587000Y6205000D03*
X1650000Y6755000D03*
X1662000Y12737000D03*
X1807000Y1322000D03*
X1713000Y1691000D03*
X1724000Y1893000D03*
X1747410Y2410000D03*
X1803810Y2939000D03*
X1727000Y4176000D03*
X1710000Y4493000D03*
X1787000Y4660000D03*
X1716000Y5251000D03*
X1745000Y5647000D03*
X1712000Y6029000D03*
X1724000Y8355000D03*
X1762000Y12232000D03*
X1824000Y1559210D03*
X1825000Y2030000D03*
X1941960Y2186040D03*
Y2732960D03*
X1878000Y4353000D03*
X1853000Y4554000D03*
X1898000Y5090000D03*
X1928000Y5228000D03*
X1904980Y5174980D03*
X1923980Y5325020D03*
X1933000Y6064000D03*
X1901000Y6300000D03*
X1905000Y6369000D03*
X1994000Y1640000D03*
X2024000Y2480000D03*
X1963000Y3109000D03*
X1972000Y3207000D03*
Y3330000D03*
X1976000Y4044000D03*
X2056000Y4132000D03*
X1957500Y4938500D03*
X2009000Y5225000D03*
X2035000Y5327000D03*
Y5588000D03*
X2027000Y8396000D03*
X2089000Y1723000D03*
X2143000Y3048000D03*
X2148000Y5109000D03*
X2159000Y5538000D03*
X2063000Y8193000D03*
X2095000Y8300000D03*
X2193000Y670000D03*
X2296000Y654000D03*
X2204000Y1759000D03*
X2202000Y3530000D03*
X2256000Y4185000D03*
X2206000Y4426000D03*
X2221000Y5201000D03*
X2232000Y6072000D03*
X2242000Y11918000D03*
X2327000Y2095000D03*
X2321000Y3530000D03*
X2381000Y4509000D03*
X2376000Y5945000D03*
X2329000Y5878000D03*
X2327000Y6531000D03*
X2415000Y8165000D03*
X2532000Y1905000D03*
X2424000Y2135000D03*
X2493000Y4742000D03*
X2498000Y4977000D03*
X2497000Y5088000D03*
X2482000Y5457300D03*
X2480000Y5571000D03*
X2432000Y5728000D03*
X2494000Y5860000D03*
X2498840Y6742840D03*
Y6822840D03*
Y6902840D03*
Y7367160D03*
Y7287160D03*
Y7447160D03*
X2568000Y3076000D03*
X2561000Y3305000D03*
X2639000Y4194000D03*
Y4777000D03*
X2587000Y5185000D03*
X2573000Y5242000D03*
X2579000Y5295000D03*
X2588500Y5850500D03*
X2578840Y6742840D03*
Y6902840D03*
Y6822840D03*
Y7367160D03*
Y7287160D03*
Y7447160D03*
X2547000Y7973000D03*
X2596000Y13869000D03*
X2617000Y14161000D03*
X2734000Y2538000D03*
X2752000Y3740000D03*
X2699000Y5859000D03*
X2738840Y6742840D03*
X2658840D03*
X2738840Y6822840D03*
Y6902840D03*
X2658840D03*
Y6822840D03*
X2738840Y7367160D03*
X2658840D03*
Y7287160D03*
X2738840D03*
Y7447160D03*
X2658840D03*
X2702000Y7566000D03*
X2882000Y3907000D03*
X2867000Y5415000D03*
X2818840Y6742840D03*
Y6822840D03*
Y6902840D03*
Y7367160D03*
Y7287160D03*
Y7447160D03*
X2780000Y7573000D03*
X2838000Y13888000D03*
X2885000Y14125000D03*
X2965000Y3929000D03*
X2921000Y5886000D03*
X2978840Y6742840D03*
X2898840D03*
Y6822840D03*
Y6902840D03*
X2978840D03*
Y6822840D03*
Y7367160D03*
Y7287160D03*
X2898840D03*
Y7367160D03*
Y7447160D03*
X2978840D03*
X2978000Y7572000D03*
X2908000Y9327000D03*
X2942670Y12969000D03*
X3013400D03*
X3089000Y4449000D03*
X3060000Y5440000D03*
X3058840Y6742840D03*
Y6822840D03*
Y6902840D03*
Y7367160D03*
Y7287160D03*
Y7447160D03*
X3232000Y5096000D03*
X3203160Y6822840D03*
Y6902840D03*
Y7367160D03*
Y7287160D03*
X3148060Y13575000D03*
X3363000Y3388000D03*
X3368000Y3524000D03*
X3362000Y3695000D03*
Y4108000D03*
X3339000Y4498000D03*
X3340000Y5428000D03*
X3283160Y6742840D03*
Y6902840D03*
Y6822840D03*
X3363160D03*
Y6902840D03*
X3283160Y7367160D03*
Y7287160D03*
X3363160Y7367160D03*
Y7287160D03*
X3283160Y7447160D03*
X3257320Y12836000D03*
X3328050D03*
X3463000Y4195000D03*
X3484000Y5094000D03*
X3443160Y6742840D03*
X3490000Y6728000D03*
X3443160Y6902840D03*
Y6822840D03*
X3471000Y7025000D03*
X3443160Y7367160D03*
Y7447160D03*
X3381000Y7527000D03*
X3451000Y9189000D03*
X3454000Y10501000D03*
X3464000Y13575000D03*
X3509000Y3158000D03*
X3570000Y4307000D03*
X3526000Y5161000D03*
X3603160Y6742840D03*
X3523160Y6902840D03*
X3603160D03*
Y6822840D03*
X3523160D03*
X3538000Y7134000D03*
X3603160Y7367160D03*
Y7287160D03*
X3523160Y7367160D03*
Y7287160D03*
X3603160Y7447160D03*
X3523160D03*
X3603000Y8614000D03*
X3572330Y12567000D03*
X3683160Y6742840D03*
Y6822840D03*
Y6902840D03*
Y7367160D03*
Y7287160D03*
Y7447160D03*
X3656000Y7983000D03*
X3728000Y8402000D03*
X3643060Y12567000D03*
X3831000Y3387000D03*
X3763160Y6742840D03*
Y6822840D03*
Y6902840D03*
Y7367160D03*
Y7447160D03*
X3777000Y8446000D03*
X3832000Y8776000D03*
X3758000Y10864000D03*
Y11818000D03*
X3901000Y3811200D03*
X3926000Y4209000D03*
X3873640Y12598000D03*
X3944370D03*
X4017000Y3999000D03*
X4086000Y5332000D03*
X3994000Y7197000D03*
X3970500Y7386500D03*
X4035000Y7540000D03*
X4080000Y7731000D03*
Y7777000D03*
X4006000Y7835000D03*
X4025000Y8465000D03*
X3971000Y9242000D03*
X4203000Y997000D03*
X4114000Y3758000D03*
X4108000Y4060000D03*
X4198000Y4004000D03*
X4103000Y4577000D03*
X4180000Y5566000D03*
X4169000Y7375000D03*
X4158000Y7758000D03*
X4185000Y7683000D03*
X4184000Y8129000D03*
X4142000Y8428000D03*
X4310000Y587000D03*
X4220000Y1141000D03*
X4228000Y3199000D03*
X4299000Y3834000D03*
X4214000Y4064000D03*
X4310000Y4058000D03*
X4207000Y4568000D03*
X4295000Y4562000D03*
X4296000Y4632000D03*
X4263000Y5632080D03*
X4294000Y7518000D03*
X4309000Y7975000D03*
X4286000Y7899000D03*
X4291000Y8066000D03*
X4253000Y8171000D03*
X4230000Y8817000D03*
X4210000Y12422000D03*
X4382000Y721000D03*
X4440000Y4057000D03*
X4331000Y4803000D03*
X4395000Y5323000D03*
X4362000Y5257000D03*
X4416000Y5801000D03*
X4382910Y7267910D03*
Y7187910D03*
Y7347910D03*
Y7507910D03*
X4362000Y7460000D03*
X4382910Y7587910D03*
Y7667910D03*
Y7747910D03*
Y7827910D03*
Y7976090D03*
Y8296090D03*
X4342000Y8909000D03*
X4366000Y9020000D03*
X4371000Y9724000D03*
X4450000Y3748000D03*
X4484000Y4101000D03*
X4516000Y4559000D03*
X4452000Y4734000D03*
X4542910Y7187910D03*
Y7267910D03*
X4462910D03*
Y7187910D03*
Y7347910D03*
X4542910D03*
X4462910Y7507910D03*
Y7427910D03*
X4542910Y7507910D03*
Y7427910D03*
Y7587910D03*
X4462910D03*
Y7747910D03*
X4542910D03*
Y7667910D03*
X4462910D03*
Y7827910D03*
X4542910D03*
Y7976090D03*
X4462910D03*
X4542910Y8056090D03*
X4462910Y8216090D03*
X4542910Y8136090D03*
X4458000Y8295000D03*
X4542910Y8296090D03*
X4462910Y8456090D03*
Y8616090D03*
X4530000Y9828000D03*
X4478000Y12282000D03*
X4607000Y2818000D03*
X4600000Y3160000D03*
X4653000Y3985000D03*
X4657000Y4177000D03*
X4626000Y4563000D03*
X4567000Y4558000D03*
X4604000Y5879000D03*
X4622910Y7267910D03*
Y7187910D03*
Y7427910D03*
Y7507910D03*
Y7587910D03*
Y7667910D03*
Y7747910D03*
Y7827910D03*
Y7976090D03*
Y8056090D03*
Y8136090D03*
Y8296090D03*
X4616000Y8377000D03*
X4655000Y13385000D03*
X4687000Y4031000D03*
X4766000Y4184000D03*
X4775000Y4078000D03*
X4730000Y4654000D03*
X4710000Y6509000D03*
X4787000Y7125000D03*
X4702910Y7267910D03*
X4782910Y7187910D03*
X4702910D03*
X4782910Y7267910D03*
X4702910Y7347910D03*
X4782910D03*
Y7507910D03*
X4702910Y7427910D03*
Y7507910D03*
X4782910Y7427910D03*
Y7587910D03*
X4702910D03*
Y7667910D03*
X4782910Y7747910D03*
Y7667910D03*
Y7827910D03*
X4702910D03*
X4782910Y7976090D03*
X4702910D03*
Y8056090D03*
X4782910D03*
Y8216090D03*
Y8136090D03*
X4702910D03*
X4780000Y8460000D03*
X4782910Y8376090D03*
X4720000Y9406000D03*
X4840000Y4538000D03*
X4883000Y4609000D03*
X4854000Y5864000D03*
X4862910Y7267910D03*
Y7187910D03*
Y7347910D03*
Y7507910D03*
Y7427910D03*
Y7587910D03*
Y7667910D03*
Y7747910D03*
Y7827910D03*
Y7976090D03*
Y8056090D03*
Y8216090D03*
Y8136090D03*
Y8616090D03*
X4878000Y9377000D03*
X4916000Y9482000D03*
X4896000Y10322000D03*
X4837000Y14391000D03*
X5013000Y1938000D03*
X4939000Y2349000D03*
Y3643000D03*
X5013000Y3642000D03*
X4934000Y4397000D03*
X4962350Y4478350D03*
X5012000Y4501000D03*
X5005000Y4576000D03*
X5039000Y4776000D03*
X4980000Y4744000D03*
X4939000Y4662000D03*
X4984000Y6203000D03*
X5004000Y6335000D03*
X5032000Y7109000D03*
X4934000Y7077000D03*
X4942910Y7187910D03*
X5022910Y7267910D03*
Y7187910D03*
X4942910Y7267910D03*
X5022910Y7347910D03*
X4942910D03*
X5022910Y7507910D03*
X4942910D03*
X5022910Y7427910D03*
X4942910D03*
Y7587910D03*
X5022910D03*
X4942910Y7747910D03*
X5022910D03*
Y7667910D03*
X4942910D03*
Y7827910D03*
Y7976090D03*
X5022000Y7977000D03*
X5022910Y8056090D03*
X4942910D03*
Y8136090D03*
X5022910Y8216090D03*
Y8136090D03*
X4942910Y8216090D03*
X5022910Y8296090D03*
X4942910D03*
Y8456090D03*
X5022910Y8376090D03*
Y8456090D03*
Y8536090D03*
X4942910D03*
Y8616090D03*
X5022910D03*
X4936000Y9264000D03*
X4986000Y9304000D03*
X4985000Y11979000D03*
X5145000Y1066000D03*
X5097000Y3633000D03*
X5043000Y3716000D03*
X5139000Y6457000D03*
X5092000Y8671000D03*
X5118000Y8792000D03*
X5052000Y9530000D03*
X5158000Y14076000D03*
X5161000Y3642000D03*
X5243000Y3714000D03*
X5169000Y4061000D03*
X5188000Y4461000D03*
X5215000Y5931000D03*
X5176000Y6078000D03*
X5237000Y6036000D03*
X5238000Y6317000D03*
X5191000Y6806000D03*
X5252000Y7063000D03*
X5171090Y7267910D03*
X5251090D03*
Y7347910D03*
X5171090D03*
Y7507910D03*
X5251090D03*
X5171090Y7427910D03*
X5251090D03*
X5171090Y7587910D03*
X5251090D03*
X5171090Y7747910D03*
X5251090Y7667910D03*
X5171090D03*
X5251090Y7747910D03*
Y7827910D03*
X5171090D03*
X5251090Y7976090D03*
Y8056090D03*
X5172000Y8057000D03*
X5171090Y8136090D03*
X5251090Y8216090D03*
Y8136090D03*
X5171090Y8216090D03*
X5251090Y8296090D03*
X5171090D03*
X5251090Y8376090D03*
Y8456090D03*
X5171090D03*
Y8376090D03*
Y8536090D03*
X5251090D03*
X5268000Y8689000D03*
X5180000Y8682000D03*
X5171090Y8616090D03*
X5251090D03*
X5166000Y8731000D03*
X5275500Y8782500D03*
X5181000Y12395000D03*
X5277000Y12458000D03*
X5361000Y933000D03*
X5321000Y2726000D03*
X5391000Y3499000D03*
X5293000Y3492000D03*
Y3699000D03*
X5342000Y3788000D03*
X5397000Y4509000D03*
X5378000Y4605800D03*
X5316000Y4748200D03*
X5340000Y4678000D03*
X5369000Y6150000D03*
X5331000Y6479000D03*
X5323000Y7061000D03*
X5340000Y7263000D03*
X5331090Y7347910D03*
Y7507910D03*
Y7587910D03*
Y7747910D03*
Y7667910D03*
Y7827910D03*
Y7976090D03*
Y8056090D03*
Y8136090D03*
Y8216090D03*
Y8296090D03*
Y8456090D03*
Y8376090D03*
Y8536090D03*
Y8616090D03*
X5370000Y8772000D03*
X5363000Y9205000D03*
X5325000Y12506000D03*
X5319000Y12764000D03*
X5511000Y4086000D03*
X5439000Y4286000D03*
X5465000Y4454000D03*
X5417000Y4711000D03*
X5408000Y6256000D03*
X5415000Y7056000D03*
X5501000Y7346000D03*
X5491090Y7427910D03*
X5411090Y7507910D03*
Y7427910D03*
X5491090Y7507910D03*
X5411090Y7587910D03*
X5491090D03*
X5411090Y7667910D03*
Y7747910D03*
X5491090D03*
Y7667910D03*
Y7827910D03*
X5411090D03*
X5491090Y7976090D03*
X5411090D03*
Y8056090D03*
X5491090D03*
Y8136090D03*
X5411090D03*
X5491090Y8296090D03*
X5411090D03*
Y8456090D03*
Y8376090D03*
X5504000Y10187000D03*
X5420000Y12610000D03*
X5487000Y13402000D03*
X5533000Y900000D03*
X5528000Y4263000D03*
X5628000Y4615000D03*
X5602000Y5731000D03*
X5544000Y5693000D03*
X5552000Y6203000D03*
Y6112000D03*
X5569000Y6390000D03*
X5532000Y6415000D03*
X5544000Y7029000D03*
X5549000Y6942000D03*
X5518000Y7113000D03*
X5632000Y7100000D03*
X5571090Y7427910D03*
Y7507910D03*
Y7667910D03*
Y7747910D03*
Y7827910D03*
Y7976090D03*
Y8056090D03*
Y8136090D03*
Y8216090D03*
Y8296090D03*
Y8376090D03*
Y8456090D03*
Y8536090D03*
X5571000Y11786000D03*
X5604000Y12236000D03*
X5524000Y12208000D03*
X5707000Y3680000D03*
X5736000Y3817000D03*
X5642000Y3924000D03*
X5691000Y5307000D03*
X5663000Y5869000D03*
X5683000Y5910000D03*
X5654000Y6116000D03*
X5711000Y6290000D03*
X5651090Y7267910D03*
X5731090D03*
X5651090Y7187910D03*
X5657000Y7428000D03*
X5651090Y7507910D03*
X5731090Y7587910D03*
X5651090D03*
X5731090Y7747910D03*
X5651090D03*
X5731090Y7827910D03*
X5651090D03*
X5652000Y7978000D03*
X5731090Y7976090D03*
X5651090Y8056090D03*
X5731090D03*
Y8216090D03*
Y8136090D03*
X5651090D03*
Y8216090D03*
X5731090Y8296090D03*
X5651090D03*
X5676920Y8461720D03*
X5675900Y8381190D03*
X5731090Y8456090D03*
Y8376090D03*
X5654000Y8638000D03*
X5731090Y8616090D03*
X5749000Y11140000D03*
X5677000Y13834000D03*
X5680000Y13996000D03*
X5757500Y896500D03*
X5768000Y4475000D03*
X5858000D03*
X5837000Y4524000D03*
X5773000Y5822000D03*
X5764000Y6197000D03*
X5811090Y7187910D03*
Y7347910D03*
Y7507910D03*
Y7587910D03*
Y7827910D03*
Y7976090D03*
X5868000Y7999000D03*
X5811090Y8056090D03*
Y8136090D03*
Y8296090D03*
Y8456090D03*
Y8376090D03*
Y8536090D03*
Y8616090D03*
X5797000Y8687000D03*
X5799000Y10402000D03*
X5836000Y13585800D03*
X5925000Y3873000D03*
X5941500Y4041500D03*
X5930000Y4470000D03*
X5897000Y6067000D03*
X5980000Y6064000D03*
X5976000Y6331000D03*
X5984000Y6843000D03*
X5959000Y7217000D03*
X5894000Y7232000D03*
X5926000Y7642000D03*
X5956000Y7813000D03*
X5890000Y7906000D03*
X5962000Y7990000D03*
X5942000Y7917000D03*
X5924000Y8190000D03*
X5901000Y8264000D03*
X5886000Y8451000D03*
X5902000Y8603000D03*
X5990000Y9378000D03*
X5921000Y12984000D03*
X5907000Y13028000D03*
X5925000Y13979000D03*
X5999000Y3472000D03*
X6079000Y3699000D03*
X6011000Y3945000D03*
X6090000Y4468000D03*
X6081000Y5470000D03*
X6017000Y5487000D03*
X6104000Y5529000D03*
X6075000Y5901000D03*
X6039000Y7230000D03*
X6110000Y7381000D03*
X6038000Y7466000D03*
X6030000Y7543000D03*
X6050000Y7923000D03*
X6033000Y8262000D03*
X6044000Y8364000D03*
X6108000Y10406000D03*
X6023000Y11114000D03*
X6106000Y11388000D03*
X6067000Y13592000D03*
X6168000Y5552000D03*
X6133000Y7760000D03*
X6148000Y7990000D03*
X6182000Y8177000D03*
X6187000Y8568000D03*
X6149000Y10559000D03*
X6177000Y12155000D03*
X6287000Y2518000D03*
X6281000Y4436000D03*
X6277000Y6117000D03*
X6304000Y7334000D03*
X6317000Y7697000D03*
X6345000Y8069000D03*
X6233000Y8414000D03*
X6270000Y8538000D03*
X6297000Y8695000D03*
X6243000Y13221000D03*
X6350000Y13866000D03*
X6366000Y4520000D03*
X6451000Y4605000D03*
X6408000Y7301000D03*
X6371000Y7392000D03*
X6374000Y7466000D03*
X6403000Y8286000D03*
X6364000Y8700000D03*
X6419000Y9420000D03*
X6425000Y9664000D03*
X6430000Y10112000D03*
X6354000Y12538000D03*
X6583000Y1804000D03*
X6561000Y4724000D03*
X6556000Y4783000D03*
X6513000Y5645000D03*
X6557000Y6106000D03*
X6532000Y6707000D03*
X6527000Y6842000D03*
X6528000Y7301000D03*
X6556000Y7461000D03*
X6495000Y8377000D03*
X6557000Y8754000D03*
X6561000Y13497000D03*
X6544000Y14361000D03*
X6678000Y2523000D03*
X6636000Y7174000D03*
X6669000Y7704000D03*
X6644000Y8297000D03*
X6634000Y8394000D03*
X6612000Y8542000D03*
X6650000Y8867000D03*
X6637000Y9096000D03*
X6634000Y9312000D03*
X6594000Y11483000D03*
X6657000Y13991000D03*
X6748000Y1639000D03*
X6813000Y7162000D03*
X6761000Y8174000D03*
X6792000Y8573000D03*
X6766000Y13438000D03*
X6864000Y3915000D03*
X6878000Y4049000D03*
X6883000Y6996000D03*
X6927000Y7935000D03*
X6946000Y9703000D03*
X6901000Y11228000D03*
X6927000Y12322000D03*
X6986000Y6190000D03*
X6981000Y6471000D03*
X7045000Y6654000D03*
X7018000Y7098000D03*
X6981000Y7659000D03*
X6969000Y10305000D03*
X7043000Y13004000D03*
X7002790Y13929000D03*
X7165000Y7606000D03*
X7074000Y8034000D03*
X7144000Y8052000D03*
X7141000Y9712000D03*
X7143000Y10067000D03*
X7121000Y13810380D03*
X7198000Y3802000D03*
X7284000Y7912000D03*
X7297000Y8375000D03*
X7240000Y9155000D03*
X7215000Y10914000D03*
X7347000Y2891000D03*
X7323000Y7561000D03*
X7531000Y3135000D03*
X7482000Y11973000D03*
X7483000Y13887000D03*
X7649000Y5568000D03*
X7554000Y6111000D03*
X7644000Y6246000D03*
X7654000Y9127000D03*
Y9844000D03*
X7638000Y10524000D03*
X7593000Y13668000D03*
X7701000Y2731000D03*
X7737000Y3229000D03*
X7674000Y4854000D03*
X7764000Y6114000D03*
X7664000Y7006000D03*
X7670000Y7706000D03*
X7664000Y8428000D03*
X7688000Y9485000D03*
X7775000Y10676000D03*
X7688000Y10641000D03*
X7848000Y13770000D03*
X7946000Y3318000D03*
X8102000Y13943000D03*
X8324000Y11238000D03*
X8333000Y11988000D03*
X8342000Y12538000D03*
X8313000Y13158000D03*
X8449000Y13559000D03*
X8830000Y13054000D03*
X8758000Y13638000D03*
X9036000Y2813000D03*
X9123000Y3502000D03*
X9169000Y13678000D03*
X9232000Y13057000D03*
X9360000Y6128000D03*
X9348000Y7318000D03*
X9434000Y8458000D03*
X9447500Y9649500D03*
X9403000Y13318000D03*
X9398000Y13444000D03*
X9585000Y9929000D03*
X9647000Y10495000D03*
X9657000Y10665000D03*
X9659000Y11388000D03*
X9681000Y11614000D03*
X9650000Y12187000D03*
X9627000Y12530000D03*
X9647000Y13086000D03*
X9759000Y5258000D03*
X9749000Y6413000D03*
Y7560000D03*
Y8755000D03*
X10009000Y5808000D03*
X9999000Y6995000D03*
Y9369000D03*
X10727270Y10476000D03*
X10705270Y11354000D03*
X10733000Y12163000D03*
X10679000Y13072000D03*
G54D20*
X6776000Y7384000D03*
Y7638000D03*
G54D11*
X296000Y4228000D03*
Y4482000D03*
Y4736000D03*
Y4990000D03*
Y5244000D03*
Y5498000D03*
X7141000Y8575000D03*
Y8829000D03*
Y9083000D03*
Y9337000D03*
Y9591000D03*
Y9845000D03*
G54D12*
X223000Y14119000D03*
X2373000D03*
G54D21*
X6821000Y14292000D03*
X7075000D03*
X7329000D03*
X7583000D03*
X7837000D03*
X8091000D03*
X8345000D03*
X8599000D03*
X8853000D03*
X9107000D03*
X9361000D03*
X9615000D03*
X9869000D03*
X10123000D03*
X10377000D03*
X10631000D03*
G54D13*
X351000Y13721000D03*
Y14021000D03*
X651000Y13721000D03*
Y14021000D03*
X951000Y13721000D03*
Y14021000D03*
X1251000Y13721000D03*
Y14021000D03*
X1551000Y13721000D03*
Y14021000D03*
X1851000Y13721000D03*
Y14021000D03*
X2501000Y13721000D03*
Y14021000D03*
X2801000Y13721000D03*
Y14021000D03*
X3101000Y13721000D03*
Y14021000D03*
X3401000Y13721000D03*
Y14021000D03*
X3701000Y13721000D03*
Y14021000D03*
X4001000Y13721000D03*
Y14021000D03*
G54D22*
X9759000Y5528000D03*
X9749000Y6708000D03*
Y7868000D03*
Y9068000D03*
X10009000Y5528000D03*
X9999000Y6708000D03*
Y7868000D03*
Y9068000D03*
X10259000Y5528000D03*
X10249000Y6708000D03*
Y7868000D03*
Y9068000D03*
G54D23*
G01X296000Y4736000D02*
X1294180D01*
X1424980Y4866800D01*
Y4902000D01*
G01X1374970Y4898970D02*
X387030D01*
X296000Y4990000D01*
G01X1474990Y5545910D02*
X1087080Y5158000D01*
X632000D01*
X546000Y5244000D01*
X296000D01*
G01X2898840Y6902840D02*
Y6952840D01*
X2845680Y7006000D01*
X2448000D01*
X2296000Y7158000D01*
Y7630000D01*
X2384000Y7718000D01*
X3984000D01*
X4113000Y7589000D01*
X4308500D01*
X4342610Y7623110D01*
X4427710D01*
X4462910Y7587910D01*
G01X2978840Y6902840D02*
X2945050Y6936630D01*
Y6949060D01*
X2858110Y7036000D01*
X2460430D01*
X2326000Y7170430D01*
Y7617570D01*
X2396430Y7688000D01*
X3971570D01*
X4100570Y7559000D01*
X4320930D01*
X4349840Y7587910D01*
X4382910D01*
G01X2658840Y7287160D02*
X2633840Y7262160D01*
Y7228510D01*
X2573330Y7168000D01*
X2428000D01*
X2369000Y7227000D01*
Y7505000D01*
X2503000Y7639000D01*
X3886210D01*
X4016210Y7509000D01*
Y7454790D01*
X4329000Y7142000D01*
X4357610D01*
Y7163420D01*
X4347710Y7173320D01*
Y7202500D01*
X4368320Y7223110D01*
X4418110D01*
X4462910Y7267910D01*
G01X2578840Y7287160D02*
X2603840Y7262160D01*
Y7240940D01*
X2560900Y7198000D01*
X2440430D01*
X2399000Y7239430D01*
Y7492570D01*
X2515430Y7609000D01*
X3873780D01*
X3986210Y7496570D01*
Y7442360D01*
X4316570Y7112000D01*
X4410430D01*
X4451140Y7152710D01*
X4448320D01*
X4427710Y7173320D01*
Y7192000D01*
X4458820D01*
X4462910Y7187910D01*
G01X3203160Y7287160D02*
Y7253510D01*
X3276670Y7180000D01*
X3727000D01*
X3947000Y6960000D01*
X5042000D01*
X5118000Y7036000D01*
Y7206470D01*
X5081560Y7242910D01*
X5047910D01*
X5022910Y7267910D01*
G01X3283160Y7287160D02*
X3258160Y7262160D01*
Y7240940D01*
X3289100Y7210000D01*
X3739430D01*
X3959430Y6990000D01*
X5029570D01*
X5088000Y7048430D01*
Y7194040D01*
X5069130Y7212910D01*
X5047910D01*
X5022910Y7187910D01*
G01X8509000Y7088000D02*
X8315000Y6894000D01*
Y6506000D01*
X8443000Y6378000D01*
X8509000D01*
G01X8507000Y2078000D02*
X8370000Y2215000D01*
Y2661000D01*
X8507000Y2798000D01*
G01X8509000Y5668000D02*
X8671000Y5506000D01*
Y5130000D01*
X8509000Y4968000D01*
Y4958000D01*
G01Y7088000D02*
X8672000Y7251000D01*
Y7633000D01*
X8509000Y7796000D01*
Y7798000D01*
G54D14*
X1108000Y9359000D03*
Y9619000D03*
Y9879000D03*
X1494000Y9362000D03*
X1754000D03*
X2014000D03*
X2217000Y9364000D03*
X2477000D03*
X2737000D03*
X2897000Y11553000D03*
Y11813000D03*
Y12073000D03*
X3663000Y9756000D03*
X3923000D03*
X4183000D03*
X4318000Y11713000D03*
X4578000D03*
X4838000D03*
X8507000Y2078000D03*
Y2338000D03*
Y2598000D03*
Y2798000D03*
Y3058000D03*
Y3318000D03*
X8502000Y3517000D03*
Y3777000D03*
Y4037000D03*
X8509000Y4248000D03*
Y4508000D03*
Y4768000D03*
Y4958000D03*
Y5218000D03*
Y5478000D03*
Y5668000D03*
Y5928000D03*
Y6188000D03*
Y6378000D03*
Y6638000D03*
Y6898000D03*
Y7088000D03*
Y7348000D03*
Y7608000D03*
Y7798000D03*
Y8058000D03*
Y8318000D03*
Y8508000D03*
Y8768000D03*
Y9028000D03*
Y9218000D03*
Y9478000D03*
Y9738000D03*
Y9928000D03*
Y10188000D03*
Y10448000D03*
G54D24*
G01X1614000Y2962000D02*
X1616000Y2964000D01*
Y3334000D01*
X1499000Y3451000D01*
X1214000D01*
X1087000Y3324000D01*
Y3132000D01*
X911000Y2956000D01*
X479000D01*
X121000Y3314000D01*
Y8624000D01*
X479000Y8982000D01*
X1008000D01*
X1112000Y8878000D01*
Y8782000D01*
G01X5731090Y7587910D02*
X5768000Y7551000D01*
X5993160D01*
X6053160Y7611000D01*
X6404000D01*
X6473000Y7542000D01*
Y7255000D01*
X6761000Y6967000D01*
Y6048000D01*
X6352000Y5639000D01*
X5300000D01*
X4818000Y6121000D01*
X1343000D01*
X970000Y6494000D01*
Y8726000D01*
X818000Y8878000D01*
G01X860000Y12992000D02*
Y12500000D01*
X1239000Y12121000D01*
X2827980D01*
X2862720Y12155740D01*
X3540260D01*
X4338000Y11358000D01*
Y10152000D01*
X4988000Y9502000D01*
Y9470000D01*
X5401700Y9056300D01*
Y8758860D01*
X5379700Y8736860D01*
Y8698300D01*
X5422700Y8655300D01*
X5626300D01*
X5641000Y8670000D01*
X5667000D01*
X5681700Y8655300D01*
X5810140D01*
X5821140Y8666300D01*
X5883540D01*
X6171000Y8378840D01*
Y8210840D01*
X6150300Y8190140D01*
Y8163860D01*
X6171000Y8143160D01*
Y8011840D01*
X6179700Y8003140D01*
Y7966700D01*
X6072610Y7859610D01*
X5682790D01*
X5651090Y7827910D01*
G01X5811090Y7507910D02*
X5842790D01*
X5844880Y7510000D01*
X5904000D01*
X6011000Y7403000D01*
Y7338000D01*
X6076000Y7273000D01*
X6155000D01*
X6317000Y7111000D01*
X6521000D01*
X6678000Y6954000D01*
Y6109000D01*
X6321000Y5752000D01*
X5625840D01*
X5615140Y5762700D01*
X5588860D01*
X5578160Y5752000D01*
X5318000D01*
X4881000Y6189000D01*
X1716000D01*
X1037000Y6868000D01*
Y7514000D01*
G01X3454000Y10501000D02*
X3388000Y10435000D01*
Y9245000D01*
X3055000Y8912000D01*
X1412000D01*
X1137000Y8637000D01*
Y6960000D01*
X1185000Y6912000D01*
Y6764000D01*
X1379000Y6570000D01*
X2064000D01*
X2319000Y6315000D01*
X2443000D01*
X2504000Y6254000D01*
X4985000D01*
X5134000Y6105000D01*
X5158000D01*
X5163000Y6110000D01*
X5212000D01*
X5300000Y6022000D01*
X5341000D01*
X5391000Y6072000D01*
Y6091000D01*
X5457000Y6157000D01*
Y6193000D01*
X5569000Y6305000D01*
Y6390000D01*
G01X5811090Y7347910D02*
X5779390Y7316210D01*
Y7174770D01*
X5781000Y7173160D01*
Y7127000D01*
X5584000Y6930000D01*
Y6534000D01*
X5327000Y6277000D01*
X2536000D01*
X2097000Y6716000D01*
X1460000D01*
X1169000Y7007000D01*
Y7527000D01*
G01X1317000Y8722000D02*
X1318000D01*
X1458000Y8582000D01*
X4988820D01*
X5022910Y8616090D01*
G01X1389000Y13093000D02*
Y12247000D01*
G01X1553000Y13023000D02*
Y12441000D01*
X1762000Y12232000D01*
G01X1662000Y12737000D02*
Y12674000D01*
X2053000Y12283000D01*
X3546000D01*
X4953000Y10876000D01*
Y9598000D01*
X5020000Y9531000D01*
Y9483000D01*
X5118000Y9385000D01*
X5183000D01*
X5363000Y9205000D01*
G01X3283160Y6902840D02*
X3234860Y6854540D01*
Y6809700D01*
X3207000Y6781840D01*
Y6623000D01*
X3174000Y6590000D01*
X2321000D01*
X1898000Y7013000D01*
Y7619000D01*
X2308000Y8029000D01*
X4302000D01*
X4312000Y8019000D01*
X4624840D01*
X4656000Y7987840D01*
Y7701000D01*
X4622910Y7667910D01*
G01X2738840Y6902840D02*
Y6940160D01*
X2709000Y6970000D01*
X2394000D01*
X2187000Y7177000D01*
Y7630000D01*
X2331000Y7774000D01*
X4032160D01*
X4198160Y7940000D01*
X4519000D01*
X4574610Y7884390D01*
Y7724810D01*
X4586000Y7713420D01*
Y7340000D01*
X4553000Y7307000D01*
X4422000D01*
X4382910Y7267910D01*
G01X5251090Y8536090D02*
X5228670Y8513670D01*
Y8478510D01*
X5219390Y8469230D01*
Y8362950D01*
X5254550Y8327790D01*
X5367110D01*
X5385170Y8345850D01*
Y8357170D01*
X5379390Y8362950D01*
Y8469230D01*
X5409000Y8498840D01*
Y8599000D01*
X5338300Y8669700D01*
Y8765700D01*
X5237000Y8867000D01*
Y9130000D01*
X4947700Y9419300D01*
Y9495140D01*
X4887840Y9555000D01*
X4828000D01*
X4602000Y9781000D01*
Y9819000D01*
X4380000Y10041000D01*
X4172000D01*
X3605000Y10608000D01*
X2664000D01*
X2242000Y11030000D01*
Y11918000D01*
G01X2702000Y7566000D02*
Y7237000D01*
X2710000Y7229000D01*
X2877000D01*
X3203160Y6902840D01*
G01X3970500Y7386500D02*
X3785000Y7572000D01*
X3034000D01*
X3014000Y7552000D01*
Y7240000D01*
X3137000Y7117000D01*
X3193840D01*
X3394860Y6915980D01*
Y6855140D01*
X3404740Y6845260D01*
X3420740D01*
X3443160Y6822840D01*
G01X5323000Y7061000D02*
Y7011000D01*
X4908000Y6596000D01*
X4649000D01*
X4567000Y6514000D01*
X3539000D01*
X3314860Y6738140D01*
Y6854540D01*
X3363160Y6902840D01*
G01X3283160Y7447160D02*
X3318000Y7482000D01*
X3777000D01*
X4198000Y7061000D01*
X4703000D01*
X4742000Y7100000D01*
Y7548820D01*
X4702910Y7587910D01*
G01X5252000Y7063000D02*
Y7003000D01*
X4939000Y6690000D01*
X3451160D01*
X3363160Y6778000D01*
Y6822840D01*
G01X5811090Y8536090D02*
X5774180Y8573000D01*
X5559000D01*
X5471000Y8485000D01*
Y8320840D01*
X5459390Y8309230D01*
Y8271390D01*
X5451000Y8263000D01*
X5148780D01*
X5139390Y8272390D01*
Y8469230D01*
X5157950Y8487790D01*
X5184230D01*
X5204000Y8507560D01*
Y8628020D01*
X5184230Y8647790D01*
X5155210D01*
X5138000Y8665000D01*
Y8686000D01*
X5119000Y8705000D01*
X5078000D01*
X5024000Y8651000D01*
X4185000D01*
X3647000Y9189000D01*
X3451000D01*
G01X3763160Y6822840D02*
X5009840D01*
X5186000Y6999000D01*
Y7008000D01*
X5183000Y7011000D01*
Y7037000D01*
X5186000Y7040000D01*
Y7208160D01*
X5097000Y7297160D01*
Y7392720D01*
X5077300Y7412420D01*
Y7787700D01*
X5005390Y7859610D01*
X4814610D01*
X4782910Y7827910D01*
G01X3758000Y10864000D02*
Y11818000D01*
G01X4035000Y7540000D02*
X4057000Y7518000D01*
X4294000D01*
G01X3971000Y9242000D02*
X4306000D01*
X4502000Y9438000D01*
X4899720D01*
X5209000Y9128720D01*
Y8849000D01*
X5275500Y8782500D01*
G01X4452000Y4734000D02*
X4411000Y4693000D01*
X4349000D01*
X4086000Y4956000D01*
Y5332000D01*
G01X4286000Y7899000D02*
X4473000D01*
X4502000Y7870000D01*
Y7548820D01*
X4542910Y7507910D01*
G01X5749000Y11140000D02*
X5043000Y11846000D01*
X5003000D01*
X4719000Y12130000D01*
X4497000D01*
X4489000Y12138000D01*
Y12143000D01*
X4210000Y12422000D01*
G01X6017000Y5487000D02*
X5921000D01*
X5494000Y5060000D01*
X4871000D01*
X4468000Y4657000D01*
Y4254000D01*
X4623000Y4099000D01*
Y4000000D01*
X4621000Y3998000D01*
Y3703000D01*
X4760000Y3564000D01*
Y3557000D01*
X4890000Y3427000D01*
X5999000D01*
X6031000Y3459000D01*
Y3485000D01*
X6012000Y3504000D01*
X5438000D01*
X5579000Y3645000D01*
Y3861000D01*
X5642000Y3924000D01*
G01X4916000Y9482000D02*
X4771000D01*
X4530000Y9723000D01*
Y9828000D01*
G01X5926000Y7642000D02*
X6457000D01*
X6604000Y7495000D01*
X6833000D01*
X6874000Y7536000D01*
X6966000D01*
X7172000Y7742000D01*
Y7974000D01*
X7537000Y8339000D01*
Y10974000D01*
X6229000Y12282000D01*
X4478000D01*
G01X4787000Y7125000D02*
X4809420Y7147420D01*
X4819420D01*
X4827000Y7155000D01*
Y7598000D01*
X4797000Y7628000D01*
X4677000D01*
X4654610Y7605610D01*
Y7556210D01*
X4702910Y7507910D01*
G01X5999000Y3472000D02*
X5409000D01*
X5404000Y3467000D01*
X5378000D01*
X5373000Y3472000D01*
X5318000D01*
X5306000Y3460000D01*
X4941000D01*
X4760000Y3641000D01*
Y4063000D01*
X4775000Y4078000D01*
G01X4939000Y4662000D02*
X5244000D01*
X5397000Y4509000D01*
G01X5215000Y5931000D02*
X5027000Y6119000D01*
X4992000D01*
X4984000Y6127000D01*
Y6203000D01*
G01X5004000Y6335000D02*
X5005000Y6336000D01*
Y6604000D01*
X5115000Y6714000D01*
X5176000D01*
X5365000Y6903000D01*
Y7100000D01*
X5325000Y7140000D01*
X5281000D01*
X5218000Y7203000D01*
Y7441000D01*
X5197000Y7462000D01*
X5159000D01*
X5130000Y7491000D01*
Y8085000D01*
X5149000Y8104000D01*
X5184000D01*
X5203000Y8123000D01*
Y8164000D01*
X5214000Y8175000D01*
X5612180D01*
X5651090Y8136090D01*
G01X4942910Y7267910D02*
X4985000Y7225820D01*
Y7124000D01*
X5000000Y7109000D01*
X5032000D01*
G01X5331090Y8376090D02*
X5299390Y8407790D01*
Y8469230D01*
X5317950Y8487790D01*
X5344230D01*
X5370000Y8513560D01*
Y8571000D01*
X5356610Y8584390D01*
X5317950D01*
X5299390Y8602950D01*
Y8641610D01*
X5283700Y8657300D01*
X5254860D01*
X5236300Y8675860D01*
Y8718540D01*
X5131140Y8823700D01*
X5117300D01*
X5065000Y8876000D01*
Y9090000D01*
X4986000Y9169000D01*
Y9304000D01*
G01X4985000Y11979000D02*
X6306000D01*
X7389000Y10896000D01*
Y8420000D01*
X7162000Y8193000D01*
X7053000D01*
X6948000Y8088000D01*
X6670000D01*
X6517000Y8241000D01*
X6321000D01*
X6242700Y8162700D01*
Y7936420D01*
X6205000Y7898720D01*
Y7783000D01*
X6109000Y7687000D01*
X5763000D01*
X5699000Y7623000D01*
Y7565000D01*
X5673610Y7539610D01*
X5539390D01*
X5491090Y7587910D01*
G01X5171090Y7347910D02*
X5098000Y7421000D01*
Y8457120D01*
X5138000Y8497120D01*
Y8625000D01*
X5092000Y8671000D01*
G01X5052000Y9530000D02*
Y10269000D01*
X6011000Y11228000D01*
X6901000D01*
G01X5773000Y5822000D02*
X5744000Y5793000D01*
X5432000D01*
X5237000Y5988000D01*
Y6036000D01*
G01X5411090Y7827910D02*
X5376000Y7792820D01*
Y7169000D01*
X5476000Y7069000D01*
Y7014000D01*
X5386000Y6924000D01*
Y6649000D01*
X5180000Y6443000D01*
Y6375000D01*
X5238000Y6317000D01*
G01X5251090Y8616090D02*
X5215600Y8651580D01*
Y8696120D01*
X5180720Y8731000D01*
X5166000D01*
G01X5544000Y7029000D02*
X5543000Y7030000D01*
Y7052000D01*
X5587000Y7096000D01*
Y7139000D01*
X5568000Y7158000D01*
X5467000D01*
X5452000Y7173000D01*
Y7937000D01*
X5491090Y7976090D01*
G01X5632000Y7100000D02*
X5616000Y7116000D01*
Y7217000D01*
X5651090Y7252090D01*
Y7267910D01*
G01X5604000Y12236000D02*
X6096000D01*
X6177000Y12155000D01*
G01X5736000Y3817000D02*
X5934000Y3619000D01*
X6649000D01*
X6813000Y3783000D01*
Y7162000D01*
G01X5651090Y7587910D02*
Y7665090D01*
X5695000Y7709000D01*
X5986000D01*
X6222000Y7945000D01*
Y8378000D01*
X5913000Y8687000D01*
X5797000D01*
G01X6034500Y8010500D02*
X5965000Y8080000D01*
X5920000D01*
X5775000Y8225000D01*
Y8332180D01*
X5731090Y8376090D01*
G01X6050000Y7923000D02*
X6116000Y7989000D01*
Y8143000D01*
X6062000Y8197000D01*
X6029000D01*
X5937000Y8289000D01*
Y8466000D01*
X5905000Y8498000D01*
X5713200D01*
X5676920Y8461720D01*
G01X6075000Y5901000D02*
X6073000Y5903000D01*
Y6158000D01*
X6034000Y6197000D01*
X5764000D01*
G01X6270000Y8538000D02*
X6309000Y8577000D01*
Y8643000D01*
X6289000Y8663000D01*
X6261000D01*
X6234000Y8690000D01*
X6026000D01*
X5912000Y8804000D01*
Y10425000D01*
X6023000Y10536000D01*
Y11114000D01*
G01X6081000Y5470000D02*
X6058000Y5447000D01*
Y4455000D01*
X6081000Y4432000D01*
Y3701000D01*
X6079000Y3699000D01*
G01X6981000Y7659000D02*
X6898000Y7742000D01*
X6362000D01*
X6317000Y7697000D01*
G01X6927000Y12322000D02*
Y13002000D01*
X7593000Y13668000D01*
G54D15*
X1104000Y10197000D03*
X1359000D03*
X1612000D03*
X1866000D03*
Y11223000D03*
X2120000Y10197000D03*
X2375000D03*
X2629000Y11222000D03*
X2882000Y10197000D03*
X2883000Y11223000D03*
X3136000Y10197000D03*
X3137000Y11223000D03*
X3644000Y10197000D03*
Y11223000D03*
G54D16*
X4658000Y1998000D03*
X6271000D03*
G54D17*
X4742000Y317000D03*
X4996000D03*
X5933000D03*
X6187000D03*
G54D18*
X4830000Y1681000D03*
X6100000D03*
G54D19*
X4957000Y564000D03*
X5160000D03*
X5363000D03*
X5566000D03*
X5769000D03*
X5972000D03*
M02*
