G04 ================== begin FILE IDENTIFICATION RECORD ==================*
G04 Layout Name:  c:/users/joser/onedrive/escritorio/allegro/artix-7_ja.brd*
G04 Film Name:    INTERNAL2*
G04 File Format:  Gerber RS274X*
G04 File Origin:  Cadence Allegro 25.1-S010*
G04 Origin Date:  Mon May 11 22:28:26 2026*
G04 *
G04 Layer:  ETCH/INTERNAL2*
G04 Layer:  PIN/INTERNAL2*
G04 Layer:  VIA CLASS/INTERNAL2*
G04 *
G04 Offset:    (0.0000 0.0000)*
G04 Mirror:    No*
G04 Mode:      Positive*
G04 Rotation:  0*
G04 FullContactRelief:  No*
G04 UndefLineWidth:     0.1000*
G04 ================== end FILE IDENTIFICATION RECORD ====================*
%FSLAX25Y25*MOMM*%
%IR0*IPPOS*OFA0.00000B0.00000*MIA0B0*SFA1.00000B1.00000*%
%ADD10C,.3*%
%ADD21C,1.5*%
%ADD12C,1.016*%
%ADD11C,1.6002*%
%ADD17C,1.5301*%
%ADD15C,1.308*%
%ADD20C,1.651*%
%ADD14C,1.3208*%
%ADD19C,1.446*%
%ADD16C,2.3551*%
%ADD22C,1.397*%
%ADD13C,1.5748*%
%ADD18C,3.2499*%
%ADD23C,.15*%
%ADD24C,.08*%
G75*
%LPD*%
G75*
G54D10*
X210000Y2286000D03*
X198000Y2502000D03*
X195000Y6140000D03*
X182000Y6503000D03*
Y6789000D03*
X185000Y7050000D03*
Y7332000D03*
X183000Y7594000D03*
X178000Y7859000D03*
X186000Y8151000D03*
X180000Y8442000D03*
X338000Y1775000D03*
X283000Y3909000D03*
X476000Y2076000D03*
X470000Y2798000D03*
X482000Y3598000D03*
X478000Y4482000D03*
X448000Y5708000D03*
Y5772000D03*
X451000Y8822000D03*
X469000Y13859000D03*
X477000Y14147000D03*
X540000Y1431000D03*
X558000Y2794000D03*
X595000Y5273000D03*
X539000Y5879000D03*
X738000Y2036000D03*
X671000Y2382000D03*
X704000Y2442000D03*
X739000Y3588000D03*
X745000Y3824000D03*
X722000Y5428000D03*
X693000Y8656000D03*
X744000Y13877000D03*
X746000Y14160000D03*
X815410Y1417590D03*
X762000Y2109000D03*
X760000Y2493000D03*
X869000Y3828000D03*
X846000Y4062000D03*
X814000Y5241000D03*
X824000Y5391000D03*
X827000Y5725000D03*
X815000Y6509000D03*
X811000Y6786000D03*
X808000Y7035000D03*
X807000Y7331000D03*
X805000Y7594000D03*
X800000Y7880000D03*
X798000Y8162000D03*
X784000Y8451000D03*
X818000Y8878000D03*
X860000Y12992000D03*
X976000Y1630000D03*
X970000Y1790000D03*
X989000Y1936000D03*
X894000Y2471000D03*
X973930Y2685070D03*
X967220Y5003780D03*
X964000Y5662000D03*
X925000Y7417000D03*
Y8619000D03*
X1017000Y1420000D03*
X1105000Y3882000D03*
X1088000Y3993000D03*
X1017000Y4780000D03*
X1044000Y5091000D03*
X1052780Y5442220D03*
X1009000Y5734000D03*
X1037000Y7514000D03*
X1108000Y9209000D03*
X1175000Y1061000D03*
X1134000Y1527000D03*
X1174920Y2930080D03*
X1218000Y4045000D03*
X1112780Y5011780D03*
Y5630220D03*
X1190000Y6342000D03*
X1169000Y7527000D03*
X1112000Y8782000D03*
X1267000Y1302000D03*
X1324960Y1892960D03*
X1247000Y2410000D03*
X1304000Y3027000D03*
X1324000Y3197000D03*
X1304000Y3762000D03*
X1253790Y4094000D03*
X1281000Y5250000D03*
X1317000Y8722000D03*
X1360000Y1576000D03*
X1425000Y2843000D03*
X1407000Y3384000D03*
X1465000Y4069000D03*
X1374970Y4898970D03*
X1424980Y4902000D03*
X1374970Y5545910D03*
X1420000Y6335000D03*
X1353000Y6971000D03*
X1360000Y7144000D03*
X1382000Y7046000D03*
X1368000Y7245000D03*
X1374000Y7348000D03*
X1365000Y7449000D03*
X1366000Y7562000D03*
X1372000Y7655000D03*
X1389000Y12247000D03*
Y13093000D03*
X1519000Y1476000D03*
X1575020Y1887980D03*
X1500000Y2162590D03*
Y2410000D03*
Y2657410D03*
X1575000Y3083000D03*
X1525010Y4888010D03*
X1474990Y4902990D03*
X1502000Y5032000D03*
Y5252000D03*
X1499000Y5459000D03*
X1474990Y5545910D03*
X1562000Y5637000D03*
X1580000Y5931000D03*
X1563000Y7793000D03*
X1553000Y13023000D03*
X1697000Y717000D03*
X1702000Y1444000D03*
X1625030Y1888030D03*
X1614000Y2962000D03*
X1651000Y3852000D03*
X1673500Y4103500D03*
X1643000Y4401000D03*
X1599000Y4498000D03*
X1600000Y4722780D03*
X1700000Y5932000D03*
X1587000Y6205000D03*
X1650000Y6755000D03*
X1662000Y12737000D03*
X1807000Y1322000D03*
X1713000Y1691000D03*
X1724000Y1893000D03*
X1747410Y2410000D03*
X1803810Y2939000D03*
X1727000Y4176000D03*
X1710000Y4493000D03*
X1787000Y4660000D03*
X1716000Y5251000D03*
X1745000Y5647000D03*
X1712000Y6029000D03*
X1724000Y8355000D03*
X1762000Y12232000D03*
X1824000Y1559210D03*
X1825000Y2030000D03*
X1941960Y2186040D03*
Y2732960D03*
X1878000Y4353000D03*
X1853000Y4554000D03*
X1898000Y5090000D03*
X1928000Y5228000D03*
X1904980Y5174980D03*
X1923980Y5325020D03*
X1933000Y6064000D03*
X1901000Y6300000D03*
X1905000Y6369000D03*
X1994000Y1640000D03*
X2024000Y2480000D03*
X1963000Y3109000D03*
X1972000Y3207000D03*
Y3330000D03*
X1976000Y4044000D03*
X2056000Y4132000D03*
X1957500Y4938500D03*
X2009000Y5225000D03*
X2035000Y5327000D03*
Y5588000D03*
X2027000Y8396000D03*
X2089000Y1723000D03*
X2143000Y3048000D03*
X2148000Y5109000D03*
X2159000Y5538000D03*
X2063000Y8193000D03*
X2095000Y8300000D03*
X2193000Y670000D03*
X2296000Y654000D03*
X2204000Y1759000D03*
X2202000Y3530000D03*
X2256000Y4185000D03*
X2206000Y4426000D03*
X2221000Y5201000D03*
X2232000Y6072000D03*
X2242000Y11918000D03*
X2327000Y2095000D03*
X2321000Y3530000D03*
X2381000Y4509000D03*
X2376000Y5945000D03*
X2329000Y5878000D03*
X2327000Y6531000D03*
X2415000Y8165000D03*
X2532000Y1905000D03*
X2424000Y2135000D03*
X2493000Y4742000D03*
X2498000Y4977000D03*
X2497000Y5088000D03*
X2482000Y5457300D03*
X2480000Y5571000D03*
X2432000Y5728000D03*
X2494000Y5860000D03*
X2498840Y6742840D03*
Y6822840D03*
Y6902840D03*
Y7367160D03*
Y7287160D03*
Y7447160D03*
X2568000Y3076000D03*
X2561000Y3305000D03*
X2639000Y4194000D03*
Y4777000D03*
X2587000Y5185000D03*
X2573000Y5242000D03*
X2579000Y5295000D03*
X2588500Y5850500D03*
X2578840Y6742840D03*
Y6902840D03*
Y6822840D03*
Y7367160D03*
Y7287160D03*
Y7447160D03*
X2547000Y7973000D03*
X2596000Y13869000D03*
X2617000Y14161000D03*
X2734000Y2538000D03*
X2752000Y3740000D03*
X2699000Y5859000D03*
X2738840Y6742840D03*
X2658840D03*
X2738840Y6822840D03*
Y6902840D03*
X2658840D03*
Y6822840D03*
X2738840Y7367160D03*
X2658840D03*
Y7287160D03*
X2738840D03*
Y7447160D03*
X2658840D03*
X2702000Y7566000D03*
X2882000Y3907000D03*
X2867000Y5415000D03*
X2818840Y6742840D03*
Y6822840D03*
Y6902840D03*
Y7367160D03*
Y7287160D03*
Y7447160D03*
X2780000Y7573000D03*
X2838000Y13888000D03*
X2885000Y14125000D03*
X2965000Y3929000D03*
X2921000Y5886000D03*
X2978840Y6742840D03*
X2898840D03*
Y6822840D03*
Y6902840D03*
X2978840D03*
Y6822840D03*
Y7367160D03*
Y7287160D03*
X2898840D03*
Y7367160D03*
Y7447160D03*
X2978840D03*
X2978000Y7572000D03*
X2908000Y9327000D03*
X2942670Y12969000D03*
X3013400D03*
X3089000Y4449000D03*
X3060000Y5440000D03*
X3058840Y6742840D03*
Y6822840D03*
Y6902840D03*
Y7367160D03*
Y7287160D03*
Y7447160D03*
X3232000Y5096000D03*
X3203160Y6822840D03*
Y6902840D03*
Y7367160D03*
Y7287160D03*
X3148060Y13575000D03*
X3363000Y3388000D03*
X3368000Y3524000D03*
X3362000Y3695000D03*
Y4108000D03*
X3339000Y4498000D03*
X3340000Y5428000D03*
X3283160Y6742840D03*
Y6902840D03*
Y6822840D03*
X3363160D03*
Y6902840D03*
X3283160Y7367160D03*
Y7287160D03*
X3363160Y7367160D03*
Y7287160D03*
X3283160Y7447160D03*
X3257320Y12836000D03*
X3328050D03*
X3463000Y4195000D03*
X3484000Y5094000D03*
X3443160Y6742840D03*
X3490000Y6728000D03*
X3443160Y6902840D03*
Y6822840D03*
X3471000Y7025000D03*
X3443160Y7367160D03*
Y7447160D03*
X3381000Y7527000D03*
X3451000Y9189000D03*
X3454000Y10501000D03*
X3464000Y13575000D03*
X3509000Y3158000D03*
X3570000Y4307000D03*
X3526000Y5161000D03*
X3603160Y6742840D03*
X3523160Y6902840D03*
X3603160D03*
Y6822840D03*
X3523160D03*
X3538000Y7134000D03*
X3603160Y7367160D03*
Y7287160D03*
X3523160Y7367160D03*
Y7287160D03*
X3603160Y7447160D03*
X3523160D03*
X3603000Y8614000D03*
X3572330Y12567000D03*
X3683160Y6742840D03*
Y6822840D03*
Y6902840D03*
Y7367160D03*
Y7287160D03*
Y7447160D03*
X3656000Y7983000D03*
X3728000Y8402000D03*
X3643060Y12567000D03*
X3831000Y3387000D03*
X3763160Y6742840D03*
Y6822840D03*
Y6902840D03*
Y7367160D03*
Y7447160D03*
X3777000Y8446000D03*
X3832000Y8776000D03*
X3758000Y10864000D03*
Y11818000D03*
X3901000Y3811200D03*
X3926000Y4209000D03*
X3873640Y12598000D03*
X3944370D03*
X4017000Y3999000D03*
X4086000Y5332000D03*
X3994000Y7197000D03*
X3970500Y7386500D03*
X4035000Y7540000D03*
X4080000Y7731000D03*
Y7777000D03*
X4006000Y7835000D03*
X4025000Y8465000D03*
X3971000Y9242000D03*
X4203000Y997000D03*
X4114000Y3758000D03*
X4108000Y4060000D03*
X4198000Y4004000D03*
X4103000Y4577000D03*
X4180000Y5566000D03*
X4169000Y7375000D03*
X4158000Y7758000D03*
X4185000Y7683000D03*
X4184000Y8129000D03*
X4142000Y8428000D03*
X4310000Y587000D03*
X4220000Y1141000D03*
X4228000Y3199000D03*
X4299000Y3834000D03*
X4214000Y4064000D03*
X4310000Y4058000D03*
X4207000Y4568000D03*
X4295000Y4562000D03*
X4296000Y4632000D03*
X4263000Y5632080D03*
X4294000Y7518000D03*
X4309000Y7975000D03*
X4286000Y7899000D03*
X4291000Y8066000D03*
X4253000Y8171000D03*
X4230000Y8817000D03*
X4210000Y12422000D03*
X4382000Y721000D03*
X4440000Y4057000D03*
X4331000Y4803000D03*
X4395000Y5323000D03*
X4362000Y5257000D03*
X4416000Y5801000D03*
X4382910Y7267910D03*
Y7187910D03*
Y7347910D03*
Y7507910D03*
X4362000Y7460000D03*
X4382910Y7587910D03*
Y7667910D03*
Y7747910D03*
Y7827910D03*
Y7976090D03*
Y8296090D03*
X4342000Y8909000D03*
X4366000Y9020000D03*
X4371000Y9724000D03*
X4450000Y3748000D03*
X4484000Y4101000D03*
X4516000Y4559000D03*
X4452000Y4734000D03*
X4542910Y7187910D03*
Y7267910D03*
X4462910D03*
Y7187910D03*
Y7347910D03*
X4542910D03*
X4462910Y7507910D03*
Y7427910D03*
X4542910Y7507910D03*
Y7427910D03*
Y7587910D03*
X4462910D03*
Y7747910D03*
X4542910D03*
Y7667910D03*
X4462910D03*
Y7827910D03*
X4542910D03*
Y7976090D03*
X4462910D03*
X4542910Y8056090D03*
X4462910Y8216090D03*
X4542910Y8136090D03*
X4458000Y8295000D03*
X4542910Y8296090D03*
X4462910Y8456090D03*
Y8616090D03*
X4530000Y9828000D03*
X4478000Y12282000D03*
X4607000Y2818000D03*
X4600000Y3160000D03*
X4653000Y3985000D03*
X4657000Y4177000D03*
X4626000Y4563000D03*
X4567000Y4558000D03*
X4604000Y5879000D03*
X4622910Y7267910D03*
Y7187910D03*
Y7427910D03*
Y7507910D03*
Y7587910D03*
Y7667910D03*
Y7747910D03*
Y7827910D03*
Y7976090D03*
Y8056090D03*
Y8136090D03*
Y8296090D03*
X4616000Y8377000D03*
X4655000Y13385000D03*
X4687000Y4031000D03*
X4766000Y4184000D03*
X4775000Y4078000D03*
X4730000Y4654000D03*
X4710000Y6509000D03*
X4787000Y7125000D03*
X4702910Y7267910D03*
X4782910Y7187910D03*
X4702910D03*
X4782910Y7267910D03*
X4702910Y7347910D03*
X4782910D03*
Y7507910D03*
X4702910Y7427910D03*
Y7507910D03*
X4782910Y7427910D03*
Y7587910D03*
X4702910D03*
Y7667910D03*
X4782910Y7747910D03*
Y7667910D03*
Y7827910D03*
X4702910D03*
X4782910Y7976090D03*
X4702910D03*
Y8056090D03*
X4782910D03*
Y8216090D03*
Y8136090D03*
X4702910D03*
X4780000Y8460000D03*
X4782910Y8376090D03*
X4720000Y9406000D03*
X4840000Y4538000D03*
X4883000Y4609000D03*
X4854000Y5864000D03*
X4862910Y7267910D03*
Y7187910D03*
Y7347910D03*
Y7507910D03*
Y7427910D03*
Y7587910D03*
Y7667910D03*
Y7747910D03*
Y7827910D03*
Y7976090D03*
Y8056090D03*
Y8216090D03*
Y8136090D03*
Y8616090D03*
X4878000Y9377000D03*
X4916000Y9482000D03*
X4896000Y10322000D03*
X4837000Y14391000D03*
X5013000Y1938000D03*
X4939000Y2349000D03*
Y3643000D03*
X5013000Y3642000D03*
X4934000Y4397000D03*
X4962350Y4478350D03*
X5012000Y4501000D03*
X5005000Y4576000D03*
X5039000Y4776000D03*
X4980000Y4744000D03*
X4939000Y4662000D03*
X4984000Y6203000D03*
X5004000Y6335000D03*
X5032000Y7109000D03*
X4934000Y7077000D03*
X4942910Y7187910D03*
X5022910Y7267910D03*
Y7187910D03*
X4942910Y7267910D03*
X5022910Y7347910D03*
X4942910D03*
X5022910Y7507910D03*
X4942910D03*
X5022910Y7427910D03*
X4942910D03*
Y7587910D03*
X5022910D03*
X4942910Y7747910D03*
X5022910D03*
Y7667910D03*
X4942910D03*
Y7827910D03*
Y7976090D03*
X5022000Y7977000D03*
X5022910Y8056090D03*
X4942910D03*
Y8136090D03*
X5022910Y8216090D03*
Y8136090D03*
X4942910Y8216090D03*
X5022910Y8296090D03*
X4942910D03*
Y8456090D03*
X5022910Y8376090D03*
Y8456090D03*
Y8536090D03*
X4942910D03*
Y8616090D03*
X5022910D03*
X4936000Y9264000D03*
X4986000Y9304000D03*
X4985000Y11979000D03*
X5145000Y1066000D03*
X5097000Y3633000D03*
X5043000Y3716000D03*
X5139000Y6457000D03*
X5092000Y8671000D03*
X5118000Y8792000D03*
X5052000Y9530000D03*
X5158000Y14076000D03*
X5161000Y3642000D03*
X5243000Y3714000D03*
X5169000Y4061000D03*
X5188000Y4461000D03*
X5215000Y5931000D03*
X5176000Y6078000D03*
X5237000Y6036000D03*
X5238000Y6317000D03*
X5191000Y6806000D03*
X5252000Y7063000D03*
X5171090Y7267910D03*
X5251090D03*
Y7347910D03*
X5171090D03*
Y7507910D03*
X5251090D03*
X5171090Y7427910D03*
X5251090D03*
X5171090Y7587910D03*
X5251090D03*
X5171090Y7747910D03*
X5251090Y7667910D03*
X5171090D03*
X5251090Y7747910D03*
Y7827910D03*
X5171090D03*
X5251090Y7976090D03*
Y8056090D03*
X5172000Y8057000D03*
X5171090Y8136090D03*
X5251090Y8216090D03*
Y8136090D03*
X5171090Y8216090D03*
X5251090Y8296090D03*
X5171090D03*
X5251090Y8376090D03*
Y8456090D03*
X5171090D03*
Y8376090D03*
Y8536090D03*
X5251090D03*
X5268000Y8689000D03*
X5180000Y8682000D03*
X5171090Y8616090D03*
X5251090D03*
X5166000Y8731000D03*
X5275500Y8782500D03*
X5181000Y12395000D03*
X5277000Y12458000D03*
X5361000Y933000D03*
X5321000Y2726000D03*
X5391000Y3499000D03*
X5293000Y3492000D03*
Y3699000D03*
X5342000Y3788000D03*
X5397000Y4509000D03*
X5378000Y4605800D03*
X5316000Y4748200D03*
X5340000Y4678000D03*
X5369000Y6150000D03*
X5331000Y6479000D03*
X5323000Y7061000D03*
X5340000Y7263000D03*
X5331090Y7347910D03*
Y7507910D03*
Y7587910D03*
Y7747910D03*
Y7667910D03*
Y7827910D03*
Y7976090D03*
Y8056090D03*
Y8136090D03*
Y8216090D03*
Y8296090D03*
Y8456090D03*
Y8376090D03*
Y8536090D03*
Y8616090D03*
X5370000Y8772000D03*
X5363000Y9205000D03*
X5325000Y12506000D03*
X5319000Y12764000D03*
X5511000Y4086000D03*
X5439000Y4286000D03*
X5465000Y4454000D03*
X5417000Y4711000D03*
X5408000Y6256000D03*
X5415000Y7056000D03*
X5501000Y7346000D03*
X5491090Y7427910D03*
X5411090Y7507910D03*
Y7427910D03*
X5491090Y7507910D03*
X5411090Y7587910D03*
X5491090D03*
X5411090Y7667910D03*
Y7747910D03*
X5491090D03*
Y7667910D03*
Y7827910D03*
X5411090D03*
X5491090Y7976090D03*
X5411090D03*
Y8056090D03*
X5491090D03*
Y8136090D03*
X5411090D03*
X5491090Y8296090D03*
X5411090D03*
Y8456090D03*
Y8376090D03*
X5504000Y10187000D03*
X5420000Y12610000D03*
X5487000Y13402000D03*
X5533000Y900000D03*
X5528000Y4263000D03*
X5628000Y4615000D03*
X5602000Y5731000D03*
X5544000Y5693000D03*
X5552000Y6203000D03*
Y6112000D03*
X5569000Y6390000D03*
X5532000Y6415000D03*
X5544000Y7029000D03*
X5549000Y6942000D03*
X5518000Y7113000D03*
X5632000Y7100000D03*
X5571090Y7427910D03*
Y7507910D03*
Y7667910D03*
Y7747910D03*
Y7827910D03*
Y7976090D03*
Y8056090D03*
Y8136090D03*
Y8216090D03*
Y8296090D03*
Y8376090D03*
Y8456090D03*
Y8536090D03*
X5571000Y11786000D03*
X5604000Y12236000D03*
X5524000Y12208000D03*
X5707000Y3680000D03*
X5736000Y3817000D03*
X5642000Y3924000D03*
X5691000Y5307000D03*
X5663000Y5869000D03*
X5683000Y5910000D03*
X5654000Y6116000D03*
X5711000Y6290000D03*
X5651090Y7267910D03*
X5731090D03*
X5651090Y7187910D03*
X5657000Y7428000D03*
X5651090Y7507910D03*
X5731090Y7587910D03*
X5651090D03*
X5731090Y7747910D03*
X5651090D03*
X5731090Y7827910D03*
X5651090D03*
X5652000Y7978000D03*
X5731090Y7976090D03*
X5651090Y8056090D03*
X5731090D03*
Y8216090D03*
Y8136090D03*
X5651090D03*
Y8216090D03*
X5731090Y8296090D03*
X5651090D03*
X5676920Y8461720D03*
X5675900Y8381190D03*
X5731090Y8456090D03*
Y8376090D03*
X5654000Y8638000D03*
X5731090Y8616090D03*
X5749000Y11140000D03*
X5677000Y13834000D03*
X5680000Y13996000D03*
X5757500Y896500D03*
X5768000Y4475000D03*
X5858000D03*
X5837000Y4524000D03*
X5773000Y5822000D03*
X5764000Y6197000D03*
X5811090Y7187910D03*
Y7347910D03*
Y7507910D03*
Y7587910D03*
Y7827910D03*
Y7976090D03*
X5868000Y7999000D03*
X5811090Y8056090D03*
Y8136090D03*
Y8296090D03*
Y8456090D03*
Y8376090D03*
Y8536090D03*
Y8616090D03*
X5797000Y8687000D03*
X5799000Y10402000D03*
X5836000Y13585800D03*
X5925000Y3873000D03*
X5941500Y4041500D03*
X5930000Y4470000D03*
X5897000Y6067000D03*
X5980000Y6064000D03*
X5976000Y6331000D03*
X5984000Y6843000D03*
X5959000Y7217000D03*
X5894000Y7232000D03*
X5926000Y7642000D03*
X5956000Y7813000D03*
X5890000Y7906000D03*
X5962000Y7990000D03*
X5942000Y7917000D03*
X5924000Y8190000D03*
X5901000Y8264000D03*
X5886000Y8451000D03*
X5902000Y8603000D03*
X5990000Y9378000D03*
X5921000Y12984000D03*
X5907000Y13028000D03*
X5925000Y13979000D03*
X5999000Y3472000D03*
X6079000Y3699000D03*
X6011000Y3945000D03*
X6090000Y4468000D03*
X6081000Y5470000D03*
X6017000Y5487000D03*
X6104000Y5529000D03*
X6075000Y5901000D03*
X6039000Y7230000D03*
X6110000Y7381000D03*
X6038000Y7466000D03*
X6030000Y7543000D03*
X6050000Y7923000D03*
X6033000Y8262000D03*
X6044000Y8364000D03*
X6108000Y10406000D03*
X6023000Y11114000D03*
X6106000Y11388000D03*
X6067000Y13592000D03*
X6168000Y5552000D03*
X6133000Y7760000D03*
X6148000Y7990000D03*
X6182000Y8177000D03*
X6187000Y8568000D03*
X6149000Y10559000D03*
X6177000Y12155000D03*
X6287000Y2518000D03*
X6281000Y4436000D03*
X6277000Y6117000D03*
X6304000Y7334000D03*
X6317000Y7697000D03*
X6345000Y8069000D03*
X6233000Y8414000D03*
X6270000Y8538000D03*
X6297000Y8695000D03*
X6243000Y13221000D03*
X6350000Y13866000D03*
X6366000Y4520000D03*
X6451000Y4605000D03*
X6408000Y7301000D03*
X6371000Y7392000D03*
X6374000Y7466000D03*
X6403000Y8286000D03*
X6364000Y8700000D03*
X6419000Y9420000D03*
X6425000Y9664000D03*
X6430000Y10112000D03*
X6354000Y12538000D03*
X6583000Y1804000D03*
X6561000Y4724000D03*
X6556000Y4783000D03*
X6513000Y5645000D03*
X6557000Y6106000D03*
X6532000Y6707000D03*
X6527000Y6842000D03*
X6528000Y7301000D03*
X6556000Y7461000D03*
X6495000Y8377000D03*
X6557000Y8754000D03*
X6561000Y13497000D03*
X6544000Y14361000D03*
X6678000Y2523000D03*
X6636000Y7174000D03*
X6669000Y7704000D03*
X6644000Y8297000D03*
X6634000Y8394000D03*
X6612000Y8542000D03*
X6650000Y8867000D03*
X6637000Y9096000D03*
X6634000Y9312000D03*
X6594000Y11483000D03*
X6657000Y13991000D03*
X6748000Y1639000D03*
X6813000Y7162000D03*
X6761000Y8174000D03*
X6792000Y8573000D03*
X6766000Y13438000D03*
X6864000Y3915000D03*
X6878000Y4049000D03*
X6883000Y6996000D03*
X6927000Y7935000D03*
X6946000Y9703000D03*
X6901000Y11228000D03*
X6927000Y12322000D03*
X6986000Y6190000D03*
X6981000Y6471000D03*
X7045000Y6654000D03*
X7018000Y7098000D03*
X6981000Y7659000D03*
X6969000Y10305000D03*
X7043000Y13004000D03*
X7002790Y13929000D03*
X7165000Y7606000D03*
X7074000Y8034000D03*
X7144000Y8052000D03*
X7141000Y9712000D03*
X7143000Y10067000D03*
X7121000Y13810380D03*
X7198000Y3802000D03*
X7284000Y7912000D03*
X7297000Y8375000D03*
X7240000Y9155000D03*
X7215000Y10914000D03*
X7347000Y2891000D03*
X7323000Y7561000D03*
X7531000Y3135000D03*
X7482000Y11973000D03*
X7483000Y13887000D03*
X7649000Y5568000D03*
X7554000Y6111000D03*
X7644000Y6246000D03*
X7654000Y9127000D03*
Y9844000D03*
X7638000Y10524000D03*
X7593000Y13668000D03*
X7701000Y2731000D03*
X7737000Y3229000D03*
X7674000Y4854000D03*
X7764000Y6114000D03*
X7664000Y7006000D03*
X7670000Y7706000D03*
X7664000Y8428000D03*
X7688000Y9485000D03*
X7775000Y10676000D03*
X7688000Y10641000D03*
X7848000Y13770000D03*
X7946000Y3318000D03*
X8102000Y13943000D03*
X8324000Y11238000D03*
X8333000Y11988000D03*
X8342000Y12538000D03*
X8313000Y13158000D03*
X8449000Y13559000D03*
X8830000Y13054000D03*
X8758000Y13638000D03*
X9036000Y2813000D03*
X9123000Y3502000D03*
X9169000Y13678000D03*
X9232000Y13057000D03*
X9360000Y6128000D03*
X9348000Y7318000D03*
X9434000Y8458000D03*
X9447500Y9649500D03*
X9403000Y13318000D03*
X9398000Y13444000D03*
X9585000Y9929000D03*
X9647000Y10495000D03*
X9657000Y10665000D03*
X9659000Y11388000D03*
X9681000Y11614000D03*
X9650000Y12187000D03*
X9627000Y12530000D03*
X9647000Y13086000D03*
X9759000Y5258000D03*
X9749000Y6413000D03*
Y7560000D03*
Y8755000D03*
X10009000Y5808000D03*
X9999000Y6995000D03*
Y9369000D03*
X10727270Y10476000D03*
X10705270Y11354000D03*
X10733000Y12163000D03*
X10679000Y13072000D03*
G54D20*
X6776000Y7384000D03*
Y7638000D03*
G54D11*
X296000Y4228000D03*
Y4482000D03*
Y4736000D03*
Y4990000D03*
Y5244000D03*
Y5498000D03*
X7141000Y8575000D03*
Y8829000D03*
Y9083000D03*
Y9337000D03*
Y9591000D03*
Y9845000D03*
G54D12*
X223000Y14119000D03*
X2373000D03*
G54D21*
X6821000Y14292000D03*
X7075000D03*
X7329000D03*
X7583000D03*
X7837000D03*
X8091000D03*
X8345000D03*
X8599000D03*
X8853000D03*
X9107000D03*
X9361000D03*
X9615000D03*
X9869000D03*
X10123000D03*
X10377000D03*
X10631000D03*
G54D13*
X351000Y13721000D03*
Y14021000D03*
X651000Y13721000D03*
Y14021000D03*
X951000Y13721000D03*
Y14021000D03*
X1251000Y13721000D03*
Y14021000D03*
X1551000Y13721000D03*
Y14021000D03*
X1851000Y13721000D03*
Y14021000D03*
X2501000Y13721000D03*
Y14021000D03*
X2801000Y13721000D03*
Y14021000D03*
X3101000Y13721000D03*
Y14021000D03*
X3401000Y13721000D03*
Y14021000D03*
X3701000Y13721000D03*
Y14021000D03*
X4001000Y13721000D03*
Y14021000D03*
G54D22*
X9759000Y5528000D03*
X9749000Y6708000D03*
Y7868000D03*
Y9068000D03*
X10009000Y5528000D03*
X9999000Y6708000D03*
Y7868000D03*
Y9068000D03*
X10259000Y5528000D03*
X10249000Y6708000D03*
Y7868000D03*
Y9068000D03*
G54D23*
G01X3060000Y5440000D02*
X2915000Y5295000D01*
Y4863000D01*
X2478000Y4426000D01*
X2376000D01*
X2321000Y4481000D01*
X2195000D01*
X2140000Y4426000D01*
X1879000D01*
X1740000Y4287000D01*
X1698000D01*
X1575000Y4164000D01*
X1063000D01*
X722000Y4505000D01*
Y5428000D01*
G01X4702910Y8056090D02*
X4667710Y8091290D01*
Y10667710D01*
X5921000Y11921000D01*
Y12984000D01*
G01X6354000Y12538000D02*
X6216000D01*
X6104000Y12426000D01*
Y11855000D01*
X4754100Y10505100D01*
Y10230830D01*
X4763000Y10221930D01*
Y8603000D01*
X4728000Y8568000D01*
Y8160790D01*
X4738110Y8150680D01*
Y8011290D01*
X4702910Y7976090D01*
G54D14*
X1108000Y9359000D03*
Y9619000D03*
Y9879000D03*
X1494000Y9362000D03*
X1754000D03*
X2014000D03*
X2217000Y9364000D03*
X2477000D03*
X2737000D03*
X2897000Y11553000D03*
Y11813000D03*
Y12073000D03*
X3663000Y9756000D03*
X3923000D03*
X4183000D03*
X4318000Y11713000D03*
X4578000D03*
X4838000D03*
X8507000Y2078000D03*
Y2338000D03*
Y2598000D03*
Y2798000D03*
Y3058000D03*
Y3318000D03*
X8502000Y3517000D03*
Y3777000D03*
Y4037000D03*
X8509000Y4248000D03*
Y4508000D03*
Y4768000D03*
Y4958000D03*
Y5218000D03*
Y5478000D03*
Y5668000D03*
Y5928000D03*
Y6188000D03*
Y6378000D03*
Y6638000D03*
Y6898000D03*
Y7088000D03*
Y7348000D03*
Y7608000D03*
Y7798000D03*
Y8058000D03*
Y8318000D03*
Y8508000D03*
Y8768000D03*
Y9028000D03*
Y9218000D03*
Y9478000D03*
Y9738000D03*
Y9928000D03*
Y10188000D03*
Y10448000D03*
G54D24*
G01X3340000Y5428000D02*
X3339000Y5429000D01*
X3315000D01*
X2979000Y5765000D01*
X2717000D01*
X2648000Y5834000D01*
Y5865000D01*
X1784000Y6729000D01*
Y7638000D01*
X2213000Y8067000D01*
Y8068000D01*
X2310000Y8165000D01*
X2415000D01*
G01X4184000Y8129000D02*
X4179000Y8124000D01*
X2311000D01*
X1846000Y7659000D01*
Y6803000D01*
X2699000Y5950000D01*
Y5859000D01*
G01X4622910Y8136090D02*
X4579000Y8180000D01*
X4323000D01*
X4201000Y8058000D01*
X2298000D01*
X1905000Y7665000D01*
Y6837000D01*
X2856000Y5886000D01*
X2921000D01*
G01X2089000Y1723000D02*
X2556000Y1256000D01*
X6882000D01*
X7514000Y1888000D01*
Y3094000D01*
X7488000Y3120000D01*
Y3146000D01*
X7514000Y3172000D01*
Y7966000D01*
X7382000Y8098000D01*
X7333000D01*
X7253000Y8178000D01*
Y8384000D01*
X7373000Y8504000D01*
Y8506000D01*
X7546000Y8679000D01*
Y9636000D01*
X7438000Y9744000D01*
X6987000D01*
X6946000Y9703000D01*
G01X4080000Y7731000D02*
X4048300D01*
X3974300Y7805000D01*
X2434000D01*
X2059000Y7430000D01*
Y7042000D01*
X2270000Y6831000D01*
X2343000D01*
X2414840Y6902840D01*
X2498840D01*
G01X2327000Y2095000D02*
X2285000Y2053000D01*
Y1834000D01*
X2778000Y1341000D01*
X6850000D01*
X7445000Y1936000D01*
Y7980000D01*
X7374000Y8051000D01*
X7345000D01*
X7231000Y8165000D01*
Y8407000D01*
X7522000Y8698000D01*
Y9047000D01*
X7414000Y9155000D01*
X7240000D01*
G01X2424000Y2135000D02*
X2352000Y2063000D01*
Y1915000D01*
X2855000Y1412000D01*
X6832000D01*
X7406000Y1986000D01*
Y7989000D01*
X7377000Y8018000D01*
X7344000D01*
X7246000Y8116000D01*
Y8117000D01*
X7189000Y8174000D01*
X6761000D01*
G01X2327000Y6531000D02*
Y6651000D01*
X2498840Y6822840D01*
G01X2658840Y7367160D02*
X2615000Y7411000D01*
X2476000D01*
X2410000Y7345000D01*
Y7324000D01*
X2637000Y7097000D01*
X3428230D01*
Y7080000D01*
X3448930D01*
Y7097000D01*
X3546000D01*
X3558500Y7109500D01*
X4039710D01*
Y7059000D01*
X4060410D01*
Y7109500D01*
X4081110D01*
Y7059000D01*
X4101810D01*
Y7109500D01*
X4122510D01*
Y7059000D01*
X4143210D01*
Y7109500D01*
X4163910D01*
Y7059000D01*
X4184610D01*
Y7109500D01*
X4205310D01*
Y7059000D01*
X4226010D01*
Y7109500D01*
X4246710D01*
Y7059000D01*
X4267410D01*
Y7109500D01*
X4288110D01*
Y7059000D01*
X4308810D01*
Y7109500D01*
X4329510D01*
Y7059000D01*
X4350210D01*
Y7109500D01*
X4370910D01*
Y7059000D01*
X4391610D01*
Y7109500D01*
X4412310D01*
Y7059000D01*
X4433010D01*
Y7109500D01*
X4453710D01*
Y7059000D01*
X4474410D01*
Y7109500D01*
X4514500D01*
X4574610Y7169610D01*
Y7211610D01*
X4582610Y7219610D01*
X4616610D01*
X4622910Y7225910D01*
Y7267910D01*
G01X2532000Y1905000D02*
Y1875000D01*
X2590000Y1817000D01*
X2789000D01*
X3114000Y2142000D01*
X6706000D01*
X7379000Y2815000D01*
Y7947000D01*
X7293000Y8033000D01*
X7264000D01*
X7161000Y8136000D01*
X6750000D01*
X6720000Y8166000D01*
Y8220000D01*
X6789000Y8289000D01*
X6793000D01*
X6801000Y8297000D01*
Y8428000D01*
X6792000Y8437000D01*
Y8573000D01*
G01X2578840Y7367160D02*
Y7332000D01*
X2610540Y7300300D01*
Y7245460D01*
X2690000Y7166000D01*
X3227460D01*
Y7132000D01*
X3248160D01*
Y7166000D01*
X3268860D01*
Y7132000D01*
X3289560D01*
Y7166000D01*
X3310260D01*
Y7132000D01*
X3330960D01*
Y7166000D01*
X3351660D01*
Y7132000D01*
X3372360D01*
Y7166000D01*
X3393060D01*
Y7132000D01*
X3413760D01*
Y7166000D01*
X3434460D01*
Y7132000D01*
X3455160D01*
Y7166000D01*
X3551000D01*
X3565000Y7152000D01*
X3587660D01*
Y7169000D01*
X3608360D01*
Y7152000D01*
X3629060D01*
Y7169000D01*
X3649760D01*
Y7152000D01*
X3670460D01*
Y7169000D01*
X3691160D01*
Y7152000D01*
X3711860D01*
Y7169000D01*
X3732560D01*
Y7152000D01*
X3753260D01*
Y7169000D01*
X3773960D01*
Y7152000D01*
X3794660D01*
Y7169000D01*
X3815360D01*
Y7152000D01*
X3836060D01*
Y7169000D01*
X3856760D01*
Y7152000D01*
X3877460D01*
Y7169000D01*
X3898160D01*
Y7152000D01*
X3918860D01*
Y7169000D01*
X3939560D01*
Y7152000D01*
X4030000D01*
Y7214000D01*
X4047720D01*
Y7152000D01*
X4068420D01*
Y7214000D01*
X4089120D01*
Y7152000D01*
X4109820D01*
Y7214000D01*
X4130520D01*
Y7152000D01*
X4151220D01*
Y7214000D01*
X4171920D01*
Y7152000D01*
X4192620D01*
Y7214000D01*
X4213320D01*
Y7152000D01*
X4234020D01*
Y7214000D01*
X4254720D01*
Y7152000D01*
X4275420D01*
Y7214000D01*
X4296120D01*
Y7152000D01*
X4427000D01*
X4431210Y7156210D01*
Y7201050D01*
X4449770Y7219610D01*
X4494610D01*
X4542910Y7267910D01*
G01X2547000Y7973000D02*
X2660000Y7860000D01*
X3986000D01*
X3993000Y7867000D01*
X4019000D01*
X4026000Y7860000D01*
X4690000D01*
X4713000Y7883000D01*
X4739000D01*
X4798000Y7942000D01*
X5063000D01*
X5172000Y8051000D01*
Y8057000D01*
G01X4710000Y6509000D02*
X4595000Y6394000D01*
X2844000D01*
X2696000Y6542000D01*
Y6785680D01*
X2658840Y6822840D01*
G01Y6902840D02*
X2740000Y6984000D01*
X4178830D01*
Y7025000D01*
X4199530D01*
Y6984000D01*
X4220230D01*
Y7025000D01*
X4240930D01*
Y6984000D01*
X4261630D01*
Y7025000D01*
X4282330D01*
Y6984000D01*
X4303030D01*
Y7025000D01*
X4323730D01*
Y6984000D01*
X4344430D01*
Y7025000D01*
X4365130D01*
Y6984000D01*
X4385830D01*
Y7025000D01*
X4406530D01*
Y6984000D01*
X4427230D01*
Y7025000D01*
X4447930D01*
Y6984000D01*
X4468630D01*
Y7025000D01*
X4489330D01*
Y6984000D01*
X4510030D01*
Y7025000D01*
X4530730D01*
Y6984000D01*
X4551430D01*
Y7025000D01*
X4572130D01*
Y6984000D01*
X4970000D01*
X5072000Y7086000D01*
Y7364000D01*
X5039790Y7396210D01*
X4913210D01*
X4894610Y7377610D01*
Y7334770D01*
X4876050Y7316210D01*
X4833210D01*
X4816610Y7299610D01*
X4751210D01*
X4702910Y7347910D01*
G01Y7827910D02*
X4732000Y7857000D01*
X4767160D01*
X4769770Y7859610D01*
X4796050D01*
X4798660Y7857000D01*
X4847160D01*
X4849770Y7859610D01*
X4876050D01*
X4878660Y7857000D01*
X4927160D01*
X4929770Y7859610D01*
X4956050D01*
X4958660Y7857000D01*
X5008000D01*
X5130000Y7735000D01*
Y6984000D01*
X4765000Y6619000D01*
X2924000D01*
X2867000Y6676000D01*
Y6854680D01*
X2818840Y6902840D01*
G01Y7287160D02*
X2850540Y7318860D01*
Y7460300D01*
X2849000Y7461840D01*
Y7677000D01*
X2954000Y7782000D01*
X2997770D01*
Y7701000D01*
X3018470D01*
Y7782000D01*
X3039170D01*
Y7701000D01*
X3059870D01*
Y7782000D01*
X3080570D01*
Y7701000D01*
X3101270D01*
Y7782000D01*
X3121970D01*
Y7701000D01*
X3142670D01*
Y7782000D01*
X3163370D01*
Y7701000D01*
X3184070D01*
Y7782000D01*
X3204770D01*
Y7701000D01*
X3225470D01*
Y7782000D01*
X3246170D01*
Y7701000D01*
X3266870D01*
Y7782000D01*
X3938000D01*
X4020700Y7699300D01*
X4093140D01*
X4111700Y7717860D01*
Y7756540D01*
X4144860Y7789700D01*
X4171140D01*
X4190510Y7770330D01*
X4360490D01*
X4382910Y7747910D01*
G01X3994000Y7197000D02*
X3949640D01*
Y7213000D01*
X3928940D01*
Y7197000D01*
X3888880D01*
Y7218000D01*
X3868180D01*
Y7197000D01*
X3847480D01*
Y7218000D01*
X3826780D01*
Y7197000D01*
X3806080D01*
Y7218000D01*
X3785380D01*
Y7197000D01*
X3764680D01*
Y7218000D01*
X3743980D01*
Y7197000D01*
X3723280D01*
Y7218000D01*
X3702580D01*
Y7197000D01*
X3681880D01*
Y7218000D01*
X3661180D01*
Y7197000D01*
X3640480D01*
Y7218000D01*
X3619780D01*
Y7197000D01*
X3599080D01*
Y7218000D01*
X3578380D01*
Y7197000D01*
X3557680D01*
Y7218000D01*
X3536980D01*
Y7197000D01*
X3149000D01*
X3058840Y7287160D01*
G01Y7367160D02*
X3122160D01*
X3179920Y7424920D01*
X3137920Y7466920D01*
X3152560Y7481560D01*
X3045060Y7589060D01*
X3059700Y7603700D01*
X3167200Y7496200D01*
X3181840Y7510840D01*
X3074340Y7618340D01*
X3088980Y7632980D01*
X3196480Y7525480D01*
X3211120Y7540120D01*
X3253120Y7498120D01*
X3267760Y7512760D01*
X3225760Y7554760D01*
X3240400Y7569400D01*
X3282400Y7527400D01*
X3297040Y7542040D01*
X3255040Y7584040D01*
X3269680Y7598680D01*
X3311680Y7556680D01*
X3326320Y7571320D01*
X3284320Y7613320D01*
X3298960Y7627960D01*
X3340960Y7585960D01*
X3355600Y7600600D01*
X3313600Y7642600D01*
X3328240Y7657240D01*
X3370240Y7615240D01*
X3384880Y7629880D01*
X3342880Y7671880D01*
X3357520Y7686520D01*
X3399520Y7644520D01*
X3414160Y7659160D01*
X3372160Y7701160D01*
X3386800Y7715800D01*
X3428800Y7673800D01*
X3443440Y7688440D01*
X3401440Y7730440D01*
X3416080Y7745080D01*
X3458080Y7703080D01*
X3487500Y7732500D01*
X3494340D01*
Y7757000D01*
X3515040D01*
Y7732500D01*
X3535740D01*
Y7757000D01*
X3556440D01*
Y7732500D01*
X3577140D01*
Y7757000D01*
X3597840D01*
Y7732500D01*
X3618540D01*
Y7757000D01*
X3639240D01*
Y7732500D01*
X3659940D01*
Y7757000D01*
X3680640D01*
Y7732500D01*
X3701340D01*
Y7757000D01*
X3722040D01*
Y7732500D01*
X3742740D01*
Y7757000D01*
X3763440D01*
Y7732500D01*
X3784140D01*
Y7757000D01*
X3804840D01*
Y7732500D01*
X3857450D01*
Y7756000D01*
X3878150D01*
Y7732500D01*
X3898850D01*
Y7756000D01*
X3919550D01*
Y7732500D01*
X3940500D01*
X4019700Y7653300D01*
X4042640D01*
Y7677000D01*
X4063340D01*
Y7653300D01*
X4110460D01*
X4158000Y7700840D01*
Y7758000D01*
G01X3363160Y7287160D02*
X3411460Y7335460D01*
Y7460300D01*
X3430020Y7478860D01*
X3524860D01*
X3585000Y7539000D01*
X3995300D01*
X4003300Y7547000D01*
Y7553140D01*
X4080160Y7630000D01*
X4294000D01*
X4372000Y7708000D01*
X4805000D01*
X4831210Y7681790D01*
Y7476210D01*
X4782910Y7427910D01*
G01X3523160Y7287160D02*
X3571320Y7239000D01*
X3808790D01*
Y7271000D01*
X3829490D01*
Y7239000D01*
X3850190D01*
Y7271000D01*
X3870890D01*
Y7239000D01*
X3891590D01*
Y7271000D01*
X3912290D01*
Y7239000D01*
X3932990D01*
Y7271000D01*
X3953690D01*
Y7239000D01*
X3974390D01*
Y7271000D01*
X3995090D01*
Y7239000D01*
X4015790D01*
Y7271000D01*
X4036490D01*
Y7239000D01*
X4057190D01*
Y7271000D01*
X4077890D01*
Y7239000D01*
X4098590D01*
Y7271000D01*
X4119290D01*
Y7239000D01*
X4212000D01*
X4287860Y7314860D01*
X4303360Y7299360D01*
X4318000Y7314000D01*
X4302500Y7329500D01*
X4352610Y7379610D01*
X4751210D01*
X4782910Y7347910D01*
G01X4035000Y7540000D02*
X4024000Y7529000D01*
Y7526300D01*
X4016000Y7518300D01*
X3598300D01*
X3571000Y7491000D01*
Y7415000D01*
X3523160Y7367160D01*
G01X3603160Y7287160D02*
X3649000Y7333000D01*
Y7457840D01*
X3670020Y7478860D01*
X3776300D01*
X3784160Y7471000D01*
X3823310D01*
Y7496000D01*
X3844010D01*
Y7471000D01*
X3864710D01*
Y7496000D01*
X3885410D01*
Y7471000D01*
X3906110D01*
Y7496000D01*
X3926810D01*
Y7471000D01*
X3947510D01*
Y7496000D01*
X3968210D01*
Y7471000D01*
X3988910D01*
Y7496000D01*
X4009610D01*
Y7471000D01*
X4030310D01*
Y7496000D01*
X4051010D01*
Y7471000D01*
X4071710D01*
Y7496000D01*
X4092410D01*
Y7471000D01*
X4113110D01*
Y7496000D01*
X4133810D01*
Y7471000D01*
X4175000D01*
X4340000Y7636000D01*
X4751000D01*
X4782910Y7667910D01*
G01X6644000Y8297000D02*
Y8161000D01*
X6719000Y8086000D01*
X7160000D01*
X7322000Y7924000D01*
Y7605000D01*
X7291000Y7574000D01*
Y7548000D01*
X7299000Y7540000D01*
Y4892000D01*
X6720000Y4313000D01*
X6283000D01*
X5976000Y4006000D01*
Y3795000D01*
X5489000Y3308000D01*
X4944000D01*
X4525000Y3727000D01*
Y3729000D01*
X4295000Y3959000D01*
X4004000D01*
X3822000Y4141000D01*
Y4393000D01*
X4199000Y4770000D01*
X4804000D01*
X4862000Y4828000D01*
X5273000D01*
X5291000Y4810000D01*
X5466000D01*
X5494000Y4782000D01*
Y4724000D01*
X5448000Y4678000D01*
X5340000D01*
G01X4006000Y7835000D02*
X4066220D01*
Y7817000D01*
X4086920D01*
Y7835000D01*
X4107620D01*
Y7817000D01*
X4128320D01*
Y7835000D01*
X4149020D01*
Y7817000D01*
X4169720D01*
Y7835000D01*
X4190420D01*
Y7817000D01*
X4211120D01*
Y7835000D01*
X4231820D01*
Y7817000D01*
X4252520D01*
Y7835000D01*
X4306000D01*
X4348000Y7793000D01*
X4737820D01*
X4782910Y7747910D01*
G01X4542910Y7427910D02*
X4499820Y7471000D01*
X4427000D01*
X4380000Y7424000D01*
X4344000D01*
X4295000Y7375000D01*
X4169000D01*
G01X4622910Y7507910D02*
X4576820Y7554000D01*
X4330000D01*
X4294000Y7518000D01*
G01X4542910Y8136090D02*
X4511210D01*
X4507300Y8140000D01*
X4365000D01*
X4291000Y8066000D01*
G01X6243000Y13221000D02*
X6157000Y13135000D01*
X5607000D01*
X5323000Y12851000D01*
X4800000D01*
X4235260Y12286260D01*
Y11678720D01*
X4293000Y11620980D01*
Y8424000D01*
X4374000Y8343000D01*
X4496000D01*
X4542910Y8296090D01*
G01X4462910Y7976090D02*
X4544000Y7895000D01*
X4686000D01*
X4721000Y7930000D01*
Y7937000D01*
X4751210Y7967210D01*
Y7989230D01*
X4769770Y8007790D01*
X4779450D01*
X4814610Y8042950D01*
Y8229230D01*
X4794000Y8249840D01*
Y8342340D01*
X4814610Y8362950D01*
Y10204550D01*
X4778300Y10240860D01*
Y10343300D01*
X5918000Y11483000D01*
X6594000D01*
G01X5411090Y8136090D02*
X5372000Y8097000D01*
X4934000D01*
X4902000Y8129000D01*
Y9356000D01*
X4910000Y9364000D01*
Y9390000D01*
X4902000Y9398000D01*
Y9451160D01*
X4884300Y9468860D01*
Y9495140D01*
X4902000Y9512840D01*
Y10168000D01*
X4828000Y10242000D01*
Y10330000D01*
X4916000Y10418000D01*
X4978000D01*
X5345000Y10785000D01*
X5478000D01*
X6022000Y11329000D01*
X6047000D01*
X6106000Y11388000D01*
G01X5251090Y7427910D02*
X5282790D01*
X5285700Y7425000D01*
X5316000D01*
X5373000Y7482000D01*
Y7863000D01*
X5446000Y7936000D01*
X5863000D01*
X5900000Y7973000D01*
Y7992000D01*
X6048000Y8140000D01*
X6321000D01*
X6547000Y8366000D01*
Y8719160D01*
X6525300Y8740860D01*
Y8767140D01*
X6547000Y8788840D01*
Y10160000D01*
X6261000Y10446000D01*
X5694000D01*
X5295000Y10047000D01*
X5195000D01*
X4988000Y10254000D01*
X4964000D01*
X4896000Y10322000D01*
G01X5188000Y4461000D02*
X5177000Y4450000D01*
Y4420000D01*
X5195000Y4402000D01*
X5220700D01*
X5225700Y4407000D01*
X5462840D01*
X5514000Y4458160D01*
Y4650000D01*
X5551000Y4687000D01*
X5996000D01*
X6203000Y4480000D01*
X6772000D01*
X7099000Y4807000D01*
Y7662000D01*
X6948000Y7813000D01*
X6755000D01*
X6499000Y8069000D01*
X6345000D01*
G01X5411090Y7427910D02*
X5466000Y7373000D01*
Y6423000D01*
X5278000Y6235000D01*
Y6139000D01*
X5217000Y6078000D01*
X5176000D01*
G01X5251090Y7267910D02*
X5283700Y7235300D01*
Y7032300D01*
X5331000Y6985000D01*
Y6479000D01*
G01X5524000Y12208000D02*
Y12559000D01*
X5319000Y12764000D01*
G01X6556000Y7461000D02*
X6547000D01*
X6498000Y7510000D01*
X5952000D01*
X5917000Y7545000D01*
X5528180D01*
X5491090Y7507910D01*
G01X5411090Y7667910D02*
X5459180Y7716000D01*
X5956000D01*
X6038000Y7634000D01*
X6486000D01*
X6636000Y7484000D01*
Y7174000D01*
G01X6233000Y8414000D02*
X5491000D01*
X5453090Y8376090D01*
X5411090D01*
G01X5518000Y7113000D02*
Y7144700D01*
X5539390Y7166090D01*
Y7476210D01*
X5571090Y7507910D01*
G01Y7427910D02*
X5608180Y7465000D01*
X5884000D01*
X6251000Y7098000D01*
X7018000D01*
G01X5651090Y7187910D02*
X5799000Y7040000D01*
X5979000D01*
X5987000Y7032000D01*
Y6925000D01*
X6070000Y6842000D01*
X6527000D01*
G01X5731090Y8376090D02*
X5699000Y8344000D01*
Y8271000D01*
X5708000Y8262000D01*
X5811000D01*
X5858000Y8215000D01*
Y8213000D01*
X5892000Y8179000D01*
Y8177000D01*
X5911000Y8158000D01*
X5937000D01*
X5940000Y8161000D01*
X6168000D01*
X6182000Y8175000D01*
Y8177000D01*
G01X6495000Y8377000D02*
X6473000Y8399000D01*
Y8460000D01*
X6350000Y8583000D01*
X6253000D01*
X6167000Y8497000D01*
X5772000D01*
X5731090Y8456090D01*
G01X5907000Y13028000D02*
X6047000D01*
X6625700Y12449300D01*
Y11469860D01*
X6612000Y11456160D01*
Y9335000D01*
X6602000Y9325000D01*
Y9299000D01*
X6612000Y9289000D01*
Y9116000D01*
X6605000Y9109000D01*
Y9083000D01*
X6612000Y9076000D01*
Y8542000D01*
G01X7297000Y8375000D02*
X7595000Y8673000D01*
Y12609000D01*
X6766000Y13438000D01*
G01X7074000Y8034000D02*
X7073000Y8033000D01*
X6959000D01*
X6927000Y8001000D01*
Y7935000D01*
G01X6969000Y10305000D02*
Y12930000D01*
X7043000Y13004000D01*
G01X8449000Y13559000D02*
X8059000D01*
X7848000Y13770000D01*
G54D15*
X1104000Y10197000D03*
X1359000D03*
X1612000D03*
X1866000D03*
Y11223000D03*
X2120000Y10197000D03*
X2375000D03*
X2629000Y11222000D03*
X2882000Y10197000D03*
X2883000Y11223000D03*
X3136000Y10197000D03*
X3137000Y11223000D03*
X3644000Y10197000D03*
Y11223000D03*
G54D16*
X4658000Y1998000D03*
X6271000D03*
G54D17*
X4742000Y317000D03*
X4996000D03*
X5933000D03*
X6187000D03*
G54D18*
X4830000Y1681000D03*
X6100000D03*
G54D19*
X4957000Y564000D03*
X5160000D03*
X5363000D03*
X5566000D03*
X5769000D03*
X5972000D03*
M02*
