G04 ================== begin FILE IDENTIFICATION RECORD ==================*
G04 Layout Name:  c:/users/joser/onedrive/escritorio/allegro/artix-7_ja.brd*
G04 Film Name:    PWR*
G04 File Format:  Gerber RS274X*
G04 File Origin:  Cadence Allegro 25.1-S010*
G04 Origin Date:  Mon May 11 22:28:25 2026*
G04 *
G04 Layer:  ETCH/PWR*
G04 Layer:  PIN/PWR*
G04 Layer:  VIA CLASS/PWR*
G04 *
G04 Offset:    (0.0000 0.0000)*
G04 Mirror:    No*
G04 Mode:      Positive*
G04 Rotation:  0*
G04 FullContactRelief:  No*
G04 UndefLineWidth:     0.1000*
G04 ================== end FILE IDENTIFICATION RECORD ====================*
%FSLAX25Y25*MOMM*%
%IR0*IPPOS*OFA0.00000B0.00000*MIA0B0*SFA1.00000B1.00000*%
%ADD10C,.3*%
%ADD21C,1.5*%
%ADD12C,1.016*%
%ADD11C,1.6002*%
%ADD17C,1.5301*%
%ADD15C,1.308*%
%ADD20C,1.651*%
%ADD14C,1.3208*%
%ADD19C,1.446*%
%ADD16C,2.3551*%
%ADD22C,1.397*%
%ADD13C,1.5748*%
%ADD18C,3.2499*%
%ADD23C,.15*%
%ADD24C,.5544*%
G75*
%LPD*%
G75*
G36*
G01X4371000Y9465000D02*
X4824000D01*
X4925000Y9364000D01*
Y9289620D01*
X4922410Y9288160D01*
G03Y9239840I13590J-24160D01*
G01X4925000Y9238380D01*
Y8672000D01*
X4885670Y8632670D01*
X4882080Y8636110D01*
G03X4862910Y8643810I-19170J-20013D01*
G03X4860010Y8643660I-20J-27721D01*
G01X4857600Y8643400D01*
X4856000Y8645000D01*
X4327000D01*
X4284000Y8602000D01*
Y8202630D01*
G02X4268250Y8194150I-10159J2D01*
G03X4253000Y8198720I-15250J-23159D01*
G03Y8143280I0J-27720D01*
G03X4268250Y8147850I0J27729D01*
G02X4284000Y8139370I5591J-8482D01*
G01Y8093040D01*
X4280790Y8091770D01*
G03Y8040230I10208J-25770D01*
G01X4284000Y8038960D01*
Y7987020D01*
X4283580Y7986050D01*
G03X4281280Y7975000I25419J-11055D01*
G03X4283580Y7963950I27719J5D01*
G01X4284000Y7962980D01*
Y7945000D01*
X4285690Y7943310D01*
G02X4280510Y7926170I-7188J-7180D01*
G03X4258280Y7899000I5489J-27170D01*
G03X4313720I27720J0D01*
G03X4313690Y7900350I-27721J59D01*
G02X4323830Y7911000I10147J491D01*
G01X4732000D01*
X4747000Y7896000D01*
Y7644000D01*
X4766370Y7624630D01*
G02X4765550Y7609520I-7181J-7188D01*
G03X4755190Y7587910I17358J-21610D01*
G03X4782910Y7560190I27720J0D01*
G03X4804520Y7570550I0J27718D01*
G02X4819630Y7571370I7922J-6361D01*
G01X4846370Y7544630D01*
G02X4845550Y7529520I-7181J-7188D01*
G03X4835190Y7507910I17358J-21610D01*
G03X4862910Y7480190I27720J0D01*
G03X4884520Y7490550I0J27718D01*
G02X4899630Y7491370I7922J-6361D01*
G01X4926370Y7464630D01*
G02X4925550Y7449520I-7181J-7188D01*
G03X4915190Y7427910I17358J-21610D01*
G03X4942910Y7400190I27720J0D01*
G03X4964520Y7410550I0J27718D01*
G02X4979630Y7411370I7922J-6361D01*
G01X5006370Y7384630D01*
G02X5005550Y7369520I-7181J-7188D01*
G03X4995190Y7347910I17358J-21610D01*
G03X5022910Y7320190I27720J0D01*
G03X5025790Y7320340I0J27723D01*
G02X5037000Y7310230I1050J-10105D01*
G01Y7305590D01*
G02X5025790Y7295480I-10160J-5D01*
G03X5022910Y7295630I-2880J-27573D01*
G03Y7240190I0J-27720D01*
G03X5025790Y7240340I0J27723D01*
G02X5037000Y7230230I1050J-10105D01*
G01Y7225590D01*
G02X5025790Y7215480I-10160J-5D01*
G03X5022910Y7215630I-2880J-27573D01*
G03Y7160190I0J-27720D01*
G03X5025790Y7160340I0J27723D01*
G02X5037000Y7150230I1050J-10105D01*
G01Y7141800D01*
G02X5031930Y7136720I-5080J0D01*
G03Y7081280I70J-27720D01*
G02X5037000Y7076200I-10J-5080D01*
G01Y7068000D01*
X4257000Y6288000D01*
Y5659380D01*
X4253640Y5658170D01*
G03Y5605990I9357J-26090D01*
G01X4257000Y5604780D01*
Y4569000D01*
X4259000Y4567000D01*
Y4158000D01*
X4153060Y4052060D01*
G02X4135710Y4059440I-7191J7179D01*
G03X4135720Y4060000I-27706J775D01*
G03X4108000Y4032280I-27720J0D01*
G03X4108560Y4032290I-215J27716D01*
G02X4115940Y4014940I201J-10159D01*
G01X4093000Y3992000D01*
X4054750D01*
G02X4044620Y4001310I-5J10161D01*
G03X4017000Y4026720I-27620J-2306D01*
G03X3990680Y4007700I0J-27721D01*
G01X3989530Y4004220D01*
X2787780D01*
X2743000Y4049000D01*
Y5692000D01*
X2606280Y5828720D01*
X2609400Y5832290D01*
G03X2616220Y5850500I-20901J18210D01*
G03X2588500Y5878220I-27720J0D01*
G03X2570290Y5871400I0J-27721D01*
G01X2566720Y5868280D01*
X2471000Y5964000D01*
X2396180D01*
G03X2355820I-20180J-18990D01*
G01X802000D01*
X542000Y5704000D01*
X475870D01*
X475700Y5708910D01*
G03X462830Y5731420I-27704J-905D01*
G02Y5748580I5440J8580D01*
G03X475720Y5772000I-14831J23420D01*
G03X420280I-27720J0D01*
G03X433170Y5748580I27721J0D01*
G02Y5731420I-5440J-8580D01*
G03X420300Y5708910I14834J-23415D01*
G01X420130Y5704000D01*
X352000D01*
X226000Y5830000D01*
Y8874000D01*
X326000Y8974000D01*
X3880000D01*
X4371000Y9465000D01*
G37*
G36*
G01X2396180Y5926000D02*
X2420000D01*
X2470640Y5875360D01*
X2469060Y5872100D01*
G03X2466280Y5860000I24943J-12100D01*
G03X2494000Y5832280I27720J0D01*
G03X2506100Y5835060I0J27723D01*
G01X2509360Y5836640D01*
X2543000Y5803000D01*
Y5612120D01*
G02X2525660Y5604940I-10159J5D01*
G01X2509300Y5621300D01*
G03X2495000Y5627220I-14300J-14311D01*
G01X2470380D01*
X2452220Y5645380D01*
Y5709040D01*
G03X2459720Y5728000I-20215J18960D01*
G03X2404280I-27720J0D01*
G03X2411780Y5709040I27715J0D01*
G01Y5637000D01*
G03X2417700Y5622700I20231J0D01*
G01X2447700Y5592700D01*
G03X2462000Y5586780I14300J14311D01*
G01X2486620D01*
X2543000Y5530400D01*
Y4207000D01*
X2605780Y4144220D01*
Y4057010D01*
G03X2611700Y4042710I20231J0D01*
G01X2684710Y3969700D01*
G03X2699010Y3963780I14300J14311D01*
G01X2936210D01*
G02X2943930Y3947020I0J-10158D01*
G03X2937280Y3929000I21072J-18013D01*
G03X2992720I27720J0D01*
G03X2986070Y3947020I-27722J7D01*
G02X2993790Y3963780I7720J6602D01*
G01X3973830D01*
X4002110Y3935500D01*
G03X4016410Y3929580I14300J14311D01*
G01X4667590D01*
G03X4681890Y3935500I0J20231D01*
G01X4710170Y3963780D01*
X4943990D01*
G03X4958290Y3969700I0J20231D01*
G01X4967590Y3979000D01*
X5981560D01*
G02X5989460Y3962450I3J-10159D01*
G03X5983280Y3945000I21546J-17450D01*
G03X6038720I27720J0D01*
G03X6032540Y3962450I-27726J0D01*
G02X6040440Y3979000I7897J6391D01*
G01X6574000D01*
X6617440Y4022440D01*
G02X6634780Y4015250I7180J-7188D01*
G01Y2771380D01*
X6530400Y2667000D01*
X3834000D01*
X2775740Y3725260D01*
X2777210Y3728470D01*
G03X2779720Y3740000I-25211J11526D01*
G03X2724280I-27720J0D01*
G03X2725230Y3732800I27721J-5D01*
G02X2715420Y3720000I-9810J-2641D01*
G01X926000D01*
X689000Y3957000D01*
Y5397780D01*
G02X705290Y5405890I10162J4D01*
G03X722000Y5400280I16719J22107D01*
G03Y5455720I0J27720D01*
G03X705290Y5450110I9J-27717D01*
G02X689000Y5458220I-6128J8106D01*
G01Y5763000D01*
X852000Y5926000D01*
X1552490D01*
X1553620Y5922480D01*
G03X1606380I26380J8523D01*
G01X1607510Y5926000D01*
X1672700D01*
X1673910Y5922640D01*
G03X1726090I26090J9357D01*
G01X1727300Y5926000D01*
X2355820D01*
G03X2396180I20180J18990D01*
G37*
G36*
G01X1089000Y2122000D02*
X1837000D01*
X1901000Y2058000D01*
Y1320000D01*
X1807000Y1226000D01*
X1163000D01*
X1044000Y1345000D01*
Y1413700D01*
X1044110Y1414220D01*
G03X1044720Y1420000I-27110J5783D01*
G03X1044110Y1425780I-27720J-3D01*
G01X1044000Y1426300D01*
Y2077000D01*
X1089000Y2122000D01*
G37*
G36*
G01X4906000Y8259000D02*
X4943000D01*
X4964000Y8238000D01*
X4986900D01*
G02X4996560Y8224690I0J-10160D01*
G03X4995190Y8216090I26349J-8607D01*
G03X5050630I27720J0D01*
G03X5049260Y8224690I-27719J-7D01*
G02X5058920Y8238000I9660J3150D01*
G01X5189000D01*
X5272000Y8155000D01*
Y8092410D01*
G02X5258960Y8082670I-10159J3D01*
G03X5251090Y8083810I-7868J-26580D01*
G03Y8028370I0J-27720D01*
G03X5258960Y8029510I2J27720D01*
G02X5272000Y8019770I2881J-9743D01*
G01Y7921000D01*
X5198190Y7847190D01*
G02X5190960Y7847240I-3590J3593D01*
G03X5171090Y7855630I-19870J-19334D01*
G03X5143370Y7827910I0J-27720D01*
G03X5145880Y7816380I27721J-4D01*
G02X5136640Y7802000I-9241J-4221D01*
G01X4897360D01*
G02X4888120Y7816380I1J10159D01*
G03X4890630Y7827910I-25211J11526D01*
G03X4835190I-27720J0D01*
G03X4841500Y7810310I27718J6D01*
G02X4837570Y7802000I-3924J-3229D01*
G01X4829000D01*
X4809900Y7821100D01*
X4810300Y7823650D01*
G03X4810630Y7827910I-27390J4265D01*
G03X4782910Y7855630I-27720J0D01*
G03X4778650Y7855300I5J-27720D01*
G01X4776100Y7854900D01*
X4759720Y7871280D01*
Y7901270D01*
X4756000Y7904990D01*
Y7942120D01*
G02X4770650Y7951230I10160J-4D01*
G03X4782910Y7948370I12260J24848D01*
G03Y8003810I0J27720D01*
G03X4770650Y8000950I0J-27708D01*
G02X4756000Y8010060I-4490J9114D01*
G01Y8022120D01*
G02X4770650Y8031230I10160J-4D01*
G03X4782910Y8028370I12260J24848D01*
G03X4810630Y8056090I0J27720D01*
G03X4796020Y8080510I-27714J0D01*
G02X4793650Y8096650I4810J8950D01*
G01X4884000Y8187000D01*
Y8198100D01*
G03Y8234080I-21092J17990D01*
G01Y8237000D01*
X4906000Y8259000D01*
G37*
G36*
G01X5281380Y8329000D02*
X5290000D01*
X5307660Y8311340D01*
X5306100Y8308090D01*
G03X5303370Y8296090I24991J-11996D01*
G03X5331090Y8268370I27720J0D01*
G03X5343090Y8271100I4J27721D01*
G01X5346340Y8272660D01*
X5397000Y8222000D01*
Y8159960D01*
G03Y8112220I14087J-23870D01*
G01Y8079960D01*
G03Y8032220I14087J-23870D01*
G01Y7999960D01*
G03Y7952220I14087J-23870D01*
G01Y7851780D01*
G03Y7804040I14087J-23870D01*
G01Y7771780D01*
G03Y7724040I14087J-23870D01*
G01Y7691780D01*
G03X5383460Y7670170I14088J-23874D01*
G01X5383310Y7668310D01*
X5367000Y7652000D01*
X5288530D01*
G02X5278490Y7663700I2J10159D01*
G03X5278810Y7667910I-27401J4200D01*
G03X5251930Y7695620I-27723J0D01*
G02X5247000Y7700690I149J5077D01*
G01Y7715130D01*
G02X5251930Y7720200I5079J-7D01*
G03Y7775620I-843J27710D01*
G02X5247000Y7780690I149J5077D01*
G01Y7795130D01*
G02X5251930Y7800200I5079J-7D01*
G03Y7855620I-843J27710D01*
G02X5247000Y7860690I149J5077D01*
G01Y7878010D01*
X5284720Y7915730D01*
Y7990500D01*
X5284820Y7991000D01*
G03X5285220Y7995000I-19820J4002D01*
G03X5284820Y7999000I-20220J-2D01*
G01X5284720Y7999500D01*
Y8160270D01*
X5266490Y8178500D01*
G02X5267620Y8193840I7186J7182D01*
G03X5278810Y8216090I-16526J22250D01*
G03X5251090Y8243810I-27720J0D01*
G03X5228840Y8232620I0J-27716D01*
G02X5213500Y8231490I-8158J6056D01*
G01X5194270Y8250720D01*
X4969270D01*
X4948270Y8271720D01*
X4894280D01*
X4884000Y8282000D01*
Y8322000D01*
X4891000Y8329000D01*
X4992620D01*
G02X5000750Y8312740I4J-10160D01*
G03X4995190Y8296090I22150J-16650D01*
G03X5050630I27720J0D01*
G03X5045070Y8312740I-27710J0D01*
G02X5053200Y8329000I8126J6100D01*
G01X5140800D01*
G02X5148930Y8312740I4J-10160D01*
G03X5143370Y8296090I22150J-16650D01*
G03X5198810I27720J0D01*
G03X5193250Y8312740I-27710J0D01*
G02X5201380Y8329000I8126J6100D01*
G01X5220800D01*
G02X5228930Y8312740I4J-10160D01*
G03X5223370Y8296090I22150J-16650D01*
G03X5278810I27720J0D01*
G03X5273250Y8312740I-27710J0D01*
G02X5281380Y8329000I8126J6100D01*
G37*
G36*
G01X6269000Y14184000D02*
X8990000D01*
X9360000Y13814000D01*
Y13246000D01*
X9255000Y13141000D01*
X8350260D01*
G02X8340260Y13152990I-5J10161D01*
G03X8340720Y13158000I-27258J5029D01*
G03X8285280I-27720J0D01*
G03X8285740Y13152990I27718J19D01*
G02X8275740Y13141000I-9995J-1829D01*
G01X6576000D01*
X6235000Y13482000D01*
Y14150000D01*
X6269000Y14184000D01*
G37*
G36*
G01X7570000Y10760000D02*
X7983000D01*
X8089000Y10654000D01*
Y2943000D01*
X7813000Y2667000D01*
X6612120D01*
G02X6604940Y2684340I5J10159D01*
G01X6669300Y2748700D01*
G03X6675220Y2763000I-14311J14300D01*
G01Y4080220D01*
X7447000Y4852000D01*
Y10637000D01*
X7570000Y10760000D01*
G37*
%LPC*%
G75*
G36*
G01X4351260Y7485560D02*
G03X4356870Y7498410I-3933J9366D01*
G02X4355190Y7507910I26039J9503D01*
G02X4410630I27720J0D01*
G02X4393650Y7482350I-27728J0D01*
G03X4388040Y7469500I3933J-9366D01*
G02X4389720Y7460000I-26039J-9503D01*
G02X4334280I-27720J0D01*
G02X4351260Y7485560I27728J0D01*
G37*
G36*
G01X4060240Y7750440D02*
G03Y7757560I-3624J3560D01*
G02X4052280Y7777000I19758J19440D01*
G02X4107720I27720J0D01*
G02X4099760Y7757560I-27718J0D01*
G03Y7750440I3624J-3560D01*
G02X4107720Y7731000I-19758J-19440D01*
G02X4052280I-27720J0D01*
G02X4060240Y7750440I27718J0D01*
G37*
G36*
G01X4769070Y7163890D02*
G02X4755190Y7187910I13844J24020D01*
G02X4810630I27720J0D01*
G02X4799750Y7165890I-27723J0D01*
G03X4800840Y7149020I6168J-8072D01*
G02X4814720Y7125000I-13844J-24020D01*
G02X4759280I-27720J0D01*
G02X4770160Y7147020I27723J0D01*
G03X4769070Y7163890I-6168J8072D01*
G37*
G36*
G01X5268930Y3685250D02*
G03X5255520Y3689270I-8820J-5044D01*
G02X5243000Y3686280I-12520J24717D01*
G02Y3741720I0J27720D01*
G02X5267070Y3727750I0J-27721D01*
G03X5280480Y3723730I8820J5044D01*
G02X5293000Y3726720I12520J-24717D01*
G02Y3671280I0J-27720D01*
G02X5268930Y3685250I0J27721D01*
G37*
G36*
G01X1392010Y4920830D02*
G03X1405420Y4921650I6240J8017D01*
G02X1424980Y4929720I19553J-19653D01*
G02X1442870Y4923180I6J-27722D01*
G03X1456280Y4923440I6557J7760D01*
G02X1474990Y4930710I18710J-20441D01*
G02X1499050Y4916750I0J-27714D01*
G03X1512470Y4912730I8822J5041D01*
G02X1525010Y4915730I12540J-24709D01*
G02Y4860290I0J-27720D01*
G02X1500950Y4874250I0J27714D01*
G03X1487530Y4878270I-8822J-5041D01*
G02X1474990Y4875270I-12540J24709D01*
G02X1457100Y4881810I-6J27722D01*
G03X1443690Y4881550I-6557J-7760D01*
G02X1424980Y4874280I-18710J20441D01*
G02X1407940Y4880140I5J27718D01*
G03X1394530Y4879320I-6240J-8017D01*
G02X1374970Y4871250I-19553J19653D01*
G02Y4926690I0J27720D01*
G02X1392010Y4920830I-5J-27718D01*
G37*
G36*
G01X5122430Y3621970D02*
G02X5097000Y3605280I-25430J11028D01*
G02Y3660720I0J27720D01*
G02X5118400Y3650620I0J-27721D01*
G03X5135570Y3653030I7849J6452D01*
G02X5161000Y3669720I25430J-11028D01*
G02Y3614280I0J-27720D01*
G02X5139600Y3624380I0J27721D01*
G03X5122430Y3621970I-7849J-6452D01*
G37*
G36*
G01X1227290Y4085860D02*
G02X1226070Y4094000I26501J8133D01*
G02X1281510I27720J0D01*
G02X1254100Y4066280I-27722J0D01*
G03X1244500Y4053140I111J-10158D01*
G02X1245720Y4045000I-26501J-8133D01*
G02X1190280I-27720J0D01*
G02X1217690Y4072720I27722J0D01*
G03X1227290Y4085860I-111J10158D01*
G37*
G36*
G01X1903140Y5215740D02*
G02X1900280Y5228000I24848J12260D01*
G02X1955720I27720J0D01*
G02X1936010Y5201460I-27723J0D01*
G03X1929840Y5187240I2941J-9724D01*
G02X1932700Y5174980I-24848J-12260D01*
G02X1877260I-27720J0D01*
G02X1896970Y5201520I27723J0D01*
G03X1903140Y5215740I-2941J9724D01*
G37*
G36*
G01X1606750Y1867190D02*
G03X1593340Y1867180I-6699J-7639D01*
G02X1575020Y1860260I-18320J20790D01*
G02Y1915700I0J27720D01*
G02X1593300Y1908820I0J-27725D01*
G03X1606710Y1908830I6699J7639D01*
G02X1625030Y1915750I18320J-20790D01*
G02Y1860310I0J-27720D01*
G02X1606750Y1867190I0J27725D01*
G37*
G54D24*
X3362000Y4108000D03*
X3463000Y4195000D03*
X3926000Y4209000D03*
X3570000Y4307000D03*
X3339000Y4498000D03*
X4103000Y4577000D03*
X4207000Y4568000D03*
X3232000Y5096000D03*
X3484000Y5094000D03*
X3526000Y5161000D03*
X4086000Y5332000D03*
X2867000Y5415000D03*
X3060000Y5440000D03*
X3340000Y5428000D03*
X4180000Y5566000D03*
X539000Y5879000D03*
X2699000Y5859000D03*
X2921000Y5886000D03*
X1712000Y6029000D03*
X1933000Y6064000D03*
X2232000Y6072000D03*
X1587000Y6205000D03*
X1901000Y6300000D03*
X1190000Y6342000D03*
X1420000Y6335000D03*
X1905000Y6369000D03*
X815000Y6509000D03*
X2327000Y6531000D03*
X811000Y6786000D03*
X1650000Y6755000D03*
X2578840Y6742840D03*
X2738840D03*
X2818840D03*
X2978840D03*
X3058840D03*
X3283160D03*
X3443160D03*
X3603160D03*
X3763160D03*
X2498840Y6902840D03*
Y6822840D03*
X2578840Y6902840D03*
X2738840D03*
X2658840D03*
Y6822840D03*
X2818840D03*
Y6902840D03*
X2978840D03*
Y6822840D03*
X2898840Y6902840D03*
Y6822840D03*
X3058840Y6902840D03*
X3203160Y6822840D03*
Y6902840D03*
X3363160D03*
Y6822840D03*
X3283160Y6902840D03*
X3443160D03*
Y6822840D03*
X3603160D03*
Y6902840D03*
X3523160Y6822840D03*
Y6902840D03*
X3683160Y6822840D03*
Y6902840D03*
X3763160D03*
Y6822840D03*
X808000Y7035000D03*
X1353000Y6971000D03*
X3471000Y7025000D03*
X1382000Y7046000D03*
X1360000Y7144000D03*
X3538000Y7134000D03*
X4934000Y7077000D03*
X1368000Y7245000D03*
X3994000Y7197000D03*
X4382910Y7267910D03*
Y7187910D03*
X4542910D03*
Y7267910D03*
X4462910Y7187910D03*
Y7267910D03*
X4622910D03*
Y7187910D03*
X4782910Y7267910D03*
X4702910Y7187910D03*
X4862910Y7267910D03*
Y7187910D03*
X4942910Y7267910D03*
X807000Y7331000D03*
X1374000Y7348000D03*
X2498840Y7287160D03*
X2578840D03*
Y7367160D03*
X2738840D03*
Y7287160D03*
X2658840D03*
Y7367160D03*
X2818840D03*
Y7287160D03*
X2978840Y7367160D03*
X2898840D03*
Y7287160D03*
X3058840D03*
Y7367160D03*
X3203160D03*
Y7287160D03*
X3363160Y7367160D03*
Y7287160D03*
X3283160D03*
X3443160Y7367160D03*
X3603160D03*
Y7287160D03*
X3523160Y7367160D03*
Y7287160D03*
X3683160Y7367160D03*
Y7287160D03*
X3763160Y7367160D03*
X3970500Y7386500D03*
X4169000Y7375000D03*
X4382910Y7347910D03*
X4542910D03*
X4782910D03*
X4702910D03*
X4862910D03*
X4942910D03*
X925000Y7417000D03*
X1037000Y7514000D03*
X1365000Y7449000D03*
X2498840Y7447160D03*
X2578840D03*
X2978840D03*
X2898840D03*
X3283160D03*
X3443160D03*
X3603160D03*
X3763160D03*
X4294000Y7518000D03*
X4462910Y7507910D03*
X4542910D03*
X4462910Y7427910D03*
X4542910D03*
X4622910Y7507910D03*
Y7427910D03*
X4782910D03*
X4702910D03*
Y7507910D03*
X4862910Y7427910D03*
X805000Y7594000D03*
X1169000Y7527000D03*
X1366000Y7562000D03*
X2702000Y7566000D03*
X2780000Y7573000D03*
X2978000Y7572000D03*
X3381000Y7527000D03*
X4035000Y7540000D03*
X4382910Y7587910D03*
X4462910D03*
X4622910D03*
X4702910D03*
X1372000Y7655000D03*
X4185000Y7683000D03*
X4158000Y7758000D03*
X4382910Y7747910D03*
Y7667910D03*
X4462910Y7747910D03*
X4542910D03*
Y7667910D03*
X4462910D03*
X4622910Y7747910D03*
Y7667910D03*
X4702910D03*
X1563000Y7793000D03*
X4006000Y7835000D03*
X4382910Y7827910D03*
X4462910D03*
X4542910D03*
X4702910D03*
X800000Y7880000D03*
X2547000Y7973000D03*
X3656000Y7983000D03*
X798000Y8162000D03*
X2063000Y8193000D03*
X2415000Y8165000D03*
X4184000Y8129000D03*
X1724000Y8355000D03*
X2095000Y8300000D03*
X784000Y8451000D03*
X3728000Y8402000D03*
X3777000Y8446000D03*
X4025000Y8465000D03*
X4142000Y8428000D03*
X925000Y8619000D03*
X3603000Y8614000D03*
X451000Y8822000D03*
X1112000Y8782000D03*
X1317000Y8722000D03*
X3832000Y8776000D03*
X4230000Y8817000D03*
X818000Y8878000D03*
X4366000Y9020000D03*
X4720000Y9406000D03*
X5321000Y2726000D03*
X4607000Y2818000D03*
X3509000Y3158000D03*
X4228000Y3199000D03*
X4600000Y3160000D03*
X3363000Y3388000D03*
X3368000Y3524000D03*
X5391000Y3499000D03*
X5293000Y3492000D03*
X5999000Y3472000D03*
X3362000Y3695000D03*
X4939000Y3643000D03*
X5013000Y3642000D03*
X5707000Y3680000D03*
X6079000Y3699000D03*
X3901000Y3811200D03*
X4114000Y3758000D03*
X4450000Y3748000D03*
X5043000Y3716000D03*
X5342000Y3788000D03*
X5736000Y3817000D03*
X1105000Y3882000D03*
X1651000Y3852000D03*
X2882000Y3907000D03*
X4299000Y3834000D03*
X5642000Y3924000D03*
X5925000Y3873000D03*
X1088000Y3993000D03*
X1465000Y4069000D03*
X1673500Y4103500D03*
X1727000Y4176000D03*
X2256000Y4185000D03*
X1643000Y4401000D03*
X1878000Y4353000D03*
X1599000Y4498000D03*
X1710000Y4493000D03*
X2206000Y4426000D03*
X2381000Y4509000D03*
X1853000Y4554000D03*
X1017000Y4780000D03*
X2493000Y4742000D03*
X967220Y5003780D03*
X1957500Y4938500D03*
X2498000Y4977000D03*
X1044000Y5091000D03*
X1502000Y5032000D03*
X1898000Y5090000D03*
X2148000Y5109000D03*
X2497000Y5088000D03*
X814000Y5241000D03*
X1281000Y5250000D03*
X1502000Y5252000D03*
X1716000Y5251000D03*
X2009000Y5225000D03*
X2221000Y5201000D03*
X1923980Y5325020D03*
X2035000Y5327000D03*
X824000Y5391000D03*
X1499000Y5459000D03*
X1374970Y5545910D03*
X1474990D03*
X2035000Y5588000D03*
X2159000Y5538000D03*
X827000Y5725000D03*
X964000Y5662000D03*
X1009000Y5734000D03*
X2329000Y5878000D03*
X1807000Y1322000D03*
X1134000Y1527000D03*
X1702000Y1444000D03*
X1824000Y1559210D03*
X1360000Y1576000D03*
X1713000Y1691000D03*
X1324960Y1892960D03*
X1724000Y1893000D03*
X1825000Y2030000D03*
X4942910Y7976090D03*
X5022000Y7977000D03*
X4862910Y8056090D03*
X5022910D03*
X5172000Y8057000D03*
X4942910Y8136090D03*
X5171090D03*
X5331090Y7747910D03*
Y7976090D03*
Y8136090D03*
X6766000Y13438000D03*
X8449000Y13559000D03*
X7593000Y13668000D03*
X8758000Y13638000D03*
X7121000Y13810380D03*
X7848000Y13770000D03*
X6350000Y13866000D03*
X7002790Y13929000D03*
X7483000Y13887000D03*
X8102000Y13943000D03*
X6657000Y13991000D03*
X7737000Y3229000D03*
X7946000Y3318000D03*
X7198000Y3802000D03*
X6864000Y3915000D03*
X6878000Y4049000D03*
X7764000Y6114000D03*
X7688000Y9485000D03*
X7775000Y10676000D03*
%LPD*%
G75*
G54D10*
G01X6182000Y2673000D02*
Y2623000D01*
X6287000Y2518000D01*
G01X6806000Y2702000D02*
X6678000Y2574000D01*
Y2523000D01*
X210000Y2286000D03*
X198000Y2502000D03*
X195000Y6140000D03*
X182000Y6503000D03*
Y6789000D03*
X185000Y7050000D03*
Y7332000D03*
X183000Y7594000D03*
X178000Y7859000D03*
X186000Y8151000D03*
X180000Y8442000D03*
X338000Y1775000D03*
X283000Y3909000D03*
X476000Y2076000D03*
X470000Y2798000D03*
X482000Y3598000D03*
X478000Y4482000D03*
X448000Y5708000D03*
Y5772000D03*
X451000Y8822000D03*
X469000Y13859000D03*
X477000Y14147000D03*
X540000Y1431000D03*
X558000Y2794000D03*
X595000Y5273000D03*
X539000Y5879000D03*
X738000Y2036000D03*
X671000Y2382000D03*
X704000Y2442000D03*
X739000Y3588000D03*
X745000Y3824000D03*
X722000Y5428000D03*
X693000Y8656000D03*
X744000Y13877000D03*
X746000Y14160000D03*
X815410Y1417590D03*
X762000Y2109000D03*
X760000Y2493000D03*
X869000Y3828000D03*
X846000Y4062000D03*
X814000Y5241000D03*
X824000Y5391000D03*
X827000Y5725000D03*
X815000Y6509000D03*
X811000Y6786000D03*
X808000Y7035000D03*
X807000Y7331000D03*
X805000Y7594000D03*
X800000Y7880000D03*
X798000Y8162000D03*
X784000Y8451000D03*
X818000Y8878000D03*
X860000Y12992000D03*
X976000Y1630000D03*
X970000Y1790000D03*
X989000Y1936000D03*
X894000Y2471000D03*
X973930Y2685070D03*
X967220Y5003780D03*
X964000Y5662000D03*
X925000Y7417000D03*
Y8619000D03*
X1017000Y1420000D03*
X1105000Y3882000D03*
X1088000Y3993000D03*
X1017000Y4780000D03*
X1044000Y5091000D03*
X1052780Y5442220D03*
X1009000Y5734000D03*
X1037000Y7514000D03*
X1108000Y9209000D03*
X1175000Y1061000D03*
X1134000Y1527000D03*
X1174920Y2930080D03*
X1218000Y4045000D03*
X1112780Y5011780D03*
Y5630220D03*
X1190000Y6342000D03*
X1169000Y7527000D03*
X1112000Y8782000D03*
X1267000Y1302000D03*
X1324960Y1892960D03*
X1247000Y2410000D03*
X1304000Y3027000D03*
X1324000Y3197000D03*
X1304000Y3762000D03*
X1253790Y4094000D03*
X1281000Y5250000D03*
X1317000Y8722000D03*
X1360000Y1576000D03*
X1425000Y2843000D03*
X1407000Y3384000D03*
X1465000Y4069000D03*
X1374970Y4898970D03*
X1424980Y4902000D03*
X1374970Y5545910D03*
X1420000Y6335000D03*
X1353000Y6971000D03*
X1360000Y7144000D03*
X1382000Y7046000D03*
X1368000Y7245000D03*
X1374000Y7348000D03*
X1365000Y7449000D03*
X1366000Y7562000D03*
X1372000Y7655000D03*
X1389000Y12247000D03*
Y13093000D03*
X1519000Y1476000D03*
X1575020Y1887980D03*
X1500000Y2162590D03*
Y2410000D03*
Y2657410D03*
X1575000Y3083000D03*
X1525010Y4888010D03*
X1474990Y4902990D03*
X1502000Y5032000D03*
Y5252000D03*
X1499000Y5459000D03*
X1474990Y5545910D03*
X1562000Y5637000D03*
X1580000Y5931000D03*
X1563000Y7793000D03*
X1553000Y13023000D03*
X1697000Y717000D03*
X1702000Y1444000D03*
X1625030Y1888030D03*
X1614000Y2962000D03*
X1651000Y3852000D03*
X1673500Y4103500D03*
X1643000Y4401000D03*
X1599000Y4498000D03*
X1600000Y4722780D03*
X1700000Y5932000D03*
X1587000Y6205000D03*
X1650000Y6755000D03*
X1662000Y12737000D03*
X1807000Y1322000D03*
X1713000Y1691000D03*
X1724000Y1893000D03*
X1747410Y2410000D03*
X1803810Y2939000D03*
X1727000Y4176000D03*
X1710000Y4493000D03*
X1787000Y4660000D03*
X1716000Y5251000D03*
X1745000Y5647000D03*
X1712000Y6029000D03*
X1724000Y8355000D03*
X1762000Y12232000D03*
X1824000Y1559210D03*
X1825000Y2030000D03*
X1941960Y2186040D03*
Y2732960D03*
X1878000Y4353000D03*
X1853000Y4554000D03*
X1898000Y5090000D03*
X1928000Y5228000D03*
X1904980Y5174980D03*
X1923980Y5325020D03*
X1933000Y6064000D03*
X1901000Y6300000D03*
X1905000Y6369000D03*
X1994000Y1640000D03*
X2024000Y2480000D03*
X1963000Y3109000D03*
X1972000Y3207000D03*
Y3330000D03*
X1976000Y4044000D03*
X2056000Y4132000D03*
X1957500Y4938500D03*
X2009000Y5225000D03*
X2035000Y5327000D03*
Y5588000D03*
X2027000Y8396000D03*
X2089000Y1723000D03*
X2143000Y3048000D03*
X2148000Y5109000D03*
X2159000Y5538000D03*
X2063000Y8193000D03*
X2095000Y8300000D03*
X2193000Y670000D03*
X2296000Y654000D03*
X2204000Y1759000D03*
X2202000Y3530000D03*
X2256000Y4185000D03*
X2206000Y4426000D03*
X2221000Y5201000D03*
X2232000Y6072000D03*
X2242000Y11918000D03*
X2327000Y2095000D03*
X2321000Y3530000D03*
X2381000Y4509000D03*
X2376000Y5945000D03*
X2329000Y5878000D03*
X2327000Y6531000D03*
X2415000Y8165000D03*
X2532000Y1905000D03*
X2424000Y2135000D03*
X2493000Y4742000D03*
X2498000Y4977000D03*
X2497000Y5088000D03*
X2482000Y5457300D03*
X2480000Y5571000D03*
X2432000Y5728000D03*
X2494000Y5860000D03*
X2498840Y6742840D03*
Y6822840D03*
Y6902840D03*
Y7367160D03*
Y7287160D03*
Y7447160D03*
X2568000Y3076000D03*
X2561000Y3305000D03*
X2639000Y4194000D03*
Y4777000D03*
X2587000Y5185000D03*
X2573000Y5242000D03*
X2579000Y5295000D03*
X2588500Y5850500D03*
X2578840Y6742840D03*
Y6902840D03*
Y6822840D03*
Y7367160D03*
Y7287160D03*
Y7447160D03*
X2547000Y7973000D03*
X2596000Y13869000D03*
X2617000Y14161000D03*
X2734000Y2538000D03*
X2752000Y3740000D03*
X2699000Y5859000D03*
X2738840Y6742840D03*
X2658840D03*
X2738840Y6822840D03*
Y6902840D03*
X2658840D03*
Y6822840D03*
X2738840Y7367160D03*
X2658840D03*
Y7287160D03*
X2738840D03*
Y7447160D03*
X2658840D03*
X2702000Y7566000D03*
X2882000Y3907000D03*
X2867000Y5415000D03*
X2818840Y6742840D03*
Y6822840D03*
Y6902840D03*
Y7367160D03*
Y7287160D03*
Y7447160D03*
X2780000Y7573000D03*
X2838000Y13888000D03*
X2885000Y14125000D03*
X2965000Y3929000D03*
X2921000Y5886000D03*
X2978840Y6742840D03*
X2898840D03*
Y6822840D03*
Y6902840D03*
X2978840D03*
Y6822840D03*
Y7367160D03*
Y7287160D03*
X2898840D03*
Y7367160D03*
Y7447160D03*
X2978840D03*
X2978000Y7572000D03*
X2908000Y9327000D03*
X2942670Y12969000D03*
X3013400D03*
X3089000Y4449000D03*
X3060000Y5440000D03*
X3058840Y6742840D03*
Y6822840D03*
Y6902840D03*
Y7367160D03*
Y7287160D03*
Y7447160D03*
X3232000Y5096000D03*
X3203160Y6822840D03*
Y6902840D03*
Y7367160D03*
Y7287160D03*
X3148060Y13575000D03*
X3363000Y3388000D03*
X3368000Y3524000D03*
X3362000Y3695000D03*
Y4108000D03*
X3339000Y4498000D03*
X3340000Y5428000D03*
X3283160Y6742840D03*
Y6902840D03*
Y6822840D03*
X3363160D03*
Y6902840D03*
X3283160Y7367160D03*
Y7287160D03*
X3363160Y7367160D03*
Y7287160D03*
X3283160Y7447160D03*
X3257320Y12836000D03*
X3328050D03*
X3463000Y4195000D03*
X3484000Y5094000D03*
X3443160Y6742840D03*
X3490000Y6728000D03*
X3443160Y6902840D03*
Y6822840D03*
X3471000Y7025000D03*
X3443160Y7367160D03*
Y7447160D03*
X3381000Y7527000D03*
X3451000Y9189000D03*
X3454000Y10501000D03*
X3464000Y13575000D03*
X3509000Y3158000D03*
X3570000Y4307000D03*
X3526000Y5161000D03*
X3603160Y6742840D03*
X3523160Y6902840D03*
X3603160D03*
Y6822840D03*
X3523160D03*
X3538000Y7134000D03*
X3603160Y7367160D03*
Y7287160D03*
X3523160Y7367160D03*
Y7287160D03*
X3603160Y7447160D03*
X3523160D03*
X3603000Y8614000D03*
X3572330Y12567000D03*
X3683160Y6742840D03*
Y6822840D03*
Y6902840D03*
Y7367160D03*
Y7287160D03*
Y7447160D03*
X3656000Y7983000D03*
X3728000Y8402000D03*
X3643060Y12567000D03*
X3831000Y3387000D03*
X3763160Y6742840D03*
Y6822840D03*
Y6902840D03*
Y7367160D03*
Y7447160D03*
X3777000Y8446000D03*
X3832000Y8776000D03*
X3758000Y10864000D03*
Y11818000D03*
X3901000Y3811200D03*
X3926000Y4209000D03*
X3873640Y12598000D03*
X3944370D03*
X4017000Y3999000D03*
X4086000Y5332000D03*
X3994000Y7197000D03*
X3970500Y7386500D03*
X4035000Y7540000D03*
X4080000Y7731000D03*
Y7777000D03*
X4006000Y7835000D03*
X4025000Y8465000D03*
X3971000Y9242000D03*
X4203000Y997000D03*
X4114000Y3758000D03*
X4108000Y4060000D03*
X4198000Y4004000D03*
X4103000Y4577000D03*
X4180000Y5566000D03*
X4169000Y7375000D03*
X4158000Y7758000D03*
X4185000Y7683000D03*
X4184000Y8129000D03*
X4142000Y8428000D03*
X4310000Y587000D03*
X4220000Y1141000D03*
X4228000Y3199000D03*
X4299000Y3834000D03*
X4214000Y4064000D03*
X4310000Y4058000D03*
X4207000Y4568000D03*
X4295000Y4562000D03*
X4296000Y4632000D03*
X4263000Y5632080D03*
X4294000Y7518000D03*
X4309000Y7975000D03*
X4286000Y7899000D03*
X4291000Y8066000D03*
X4253000Y8171000D03*
X4230000Y8817000D03*
X4210000Y12422000D03*
X4382000Y721000D03*
X4440000Y4057000D03*
X4331000Y4803000D03*
X4395000Y5323000D03*
X4362000Y5257000D03*
X4416000Y5801000D03*
X4382910Y7267910D03*
Y7187910D03*
Y7347910D03*
Y7507910D03*
X4362000Y7460000D03*
X4382910Y7587910D03*
Y7667910D03*
Y7747910D03*
Y7827910D03*
Y7976090D03*
Y8296090D03*
X4342000Y8909000D03*
X4366000Y9020000D03*
X4371000Y9724000D03*
X4450000Y3748000D03*
X4484000Y4101000D03*
X4516000Y4559000D03*
X4452000Y4734000D03*
X4542910Y7187910D03*
Y7267910D03*
X4462910D03*
Y7187910D03*
Y7347910D03*
X4542910D03*
X4462910Y7507910D03*
Y7427910D03*
X4542910Y7507910D03*
Y7427910D03*
Y7587910D03*
X4462910D03*
Y7747910D03*
X4542910D03*
Y7667910D03*
X4462910D03*
Y7827910D03*
X4542910D03*
Y7976090D03*
X4462910D03*
X4542910Y8056090D03*
X4462910Y8216090D03*
X4542910Y8136090D03*
X4458000Y8295000D03*
X4542910Y8296090D03*
X4462910Y8456090D03*
Y8616090D03*
X4530000Y9828000D03*
X4478000Y12282000D03*
X4607000Y2818000D03*
X4600000Y3160000D03*
X4653000Y3985000D03*
X4657000Y4177000D03*
X4626000Y4563000D03*
X4567000Y4558000D03*
X4604000Y5879000D03*
X4622910Y7267910D03*
Y7187910D03*
Y7427910D03*
Y7507910D03*
Y7587910D03*
Y7667910D03*
Y7747910D03*
Y7827910D03*
Y7976090D03*
Y8056090D03*
Y8136090D03*
Y8296090D03*
X4616000Y8377000D03*
X4655000Y13385000D03*
X4687000Y4031000D03*
X4766000Y4184000D03*
X4775000Y4078000D03*
X4730000Y4654000D03*
X4710000Y6509000D03*
X4787000Y7125000D03*
X4702910Y7267910D03*
X4782910Y7187910D03*
X4702910D03*
X4782910Y7267910D03*
X4702910Y7347910D03*
X4782910D03*
Y7507910D03*
X4702910Y7427910D03*
Y7507910D03*
X4782910Y7427910D03*
Y7587910D03*
X4702910D03*
Y7667910D03*
X4782910Y7747910D03*
Y7667910D03*
Y7827910D03*
X4702910D03*
X4782910Y7976090D03*
X4702910D03*
Y8056090D03*
X4782910D03*
Y8216090D03*
Y8136090D03*
X4702910D03*
X4780000Y8460000D03*
X4782910Y8376090D03*
X4720000Y9406000D03*
X4840000Y4538000D03*
X4883000Y4609000D03*
X4854000Y5864000D03*
X4862910Y7267910D03*
Y7187910D03*
Y7347910D03*
Y7507910D03*
Y7427910D03*
Y7587910D03*
Y7667910D03*
Y7747910D03*
Y7827910D03*
Y7976090D03*
Y8056090D03*
Y8216090D03*
Y8136090D03*
Y8616090D03*
X4878000Y9377000D03*
X4916000Y9482000D03*
X4896000Y10322000D03*
X4837000Y14391000D03*
X5013000Y1938000D03*
X4939000Y2349000D03*
Y3643000D03*
X5013000Y3642000D03*
X4934000Y4397000D03*
X4962350Y4478350D03*
X5012000Y4501000D03*
X5005000Y4576000D03*
X5039000Y4776000D03*
X4980000Y4744000D03*
X4939000Y4662000D03*
X4984000Y6203000D03*
X5004000Y6335000D03*
X5032000Y7109000D03*
X4934000Y7077000D03*
X4942910Y7187910D03*
X5022910Y7267910D03*
Y7187910D03*
X4942910Y7267910D03*
X5022910Y7347910D03*
X4942910D03*
X5022910Y7507910D03*
X4942910D03*
X5022910Y7427910D03*
X4942910D03*
Y7587910D03*
X5022910D03*
X4942910Y7747910D03*
X5022910D03*
Y7667910D03*
X4942910D03*
Y7827910D03*
Y7976090D03*
X5022000Y7977000D03*
X5022910Y8056090D03*
X4942910D03*
Y8136090D03*
X5022910Y8216090D03*
Y8136090D03*
X4942910Y8216090D03*
X5022910Y8296090D03*
X4942910D03*
Y8456090D03*
X5022910Y8376090D03*
Y8456090D03*
Y8536090D03*
X4942910D03*
Y8616090D03*
X5022910D03*
X4936000Y9264000D03*
X4986000Y9304000D03*
X4985000Y11979000D03*
X5145000Y1066000D03*
X5097000Y3633000D03*
X5043000Y3716000D03*
X5139000Y6457000D03*
X5092000Y8671000D03*
X5118000Y8792000D03*
X5052000Y9530000D03*
X5158000Y14076000D03*
X5161000Y3642000D03*
X5243000Y3714000D03*
X5169000Y4061000D03*
X5188000Y4461000D03*
X5215000Y5931000D03*
X5176000Y6078000D03*
X5237000Y6036000D03*
X5238000Y6317000D03*
X5191000Y6806000D03*
X5252000Y7063000D03*
X5171090Y7267910D03*
X5251090D03*
Y7347910D03*
X5171090D03*
Y7507910D03*
X5251090D03*
X5171090Y7427910D03*
X5251090D03*
X5171090Y7587910D03*
X5251090D03*
X5171090Y7747910D03*
X5251090Y7667910D03*
X5171090D03*
X5251090Y7747910D03*
Y7827910D03*
X5171090D03*
X5251090Y7976090D03*
Y8056090D03*
X5172000Y8057000D03*
X5171090Y8136090D03*
X5251090Y8216090D03*
Y8136090D03*
X5171090Y8216090D03*
X5251090Y8296090D03*
X5171090D03*
X5251090Y8376090D03*
Y8456090D03*
X5171090D03*
Y8376090D03*
Y8536090D03*
X5251090D03*
X5268000Y8689000D03*
X5180000Y8682000D03*
X5171090Y8616090D03*
X5251090D03*
X5166000Y8731000D03*
X5275500Y8782500D03*
X5181000Y12395000D03*
X5277000Y12458000D03*
X5361000Y933000D03*
X5321000Y2726000D03*
X5391000Y3499000D03*
X5293000Y3492000D03*
Y3699000D03*
X5342000Y3788000D03*
X5397000Y4509000D03*
X5378000Y4605800D03*
X5316000Y4748200D03*
X5340000Y4678000D03*
X5369000Y6150000D03*
X5331000Y6479000D03*
X5323000Y7061000D03*
X5340000Y7263000D03*
X5331090Y7347910D03*
Y7507910D03*
Y7587910D03*
Y7747910D03*
Y7667910D03*
Y7827910D03*
Y7976090D03*
Y8056090D03*
Y8136090D03*
Y8216090D03*
Y8296090D03*
Y8456090D03*
Y8376090D03*
Y8536090D03*
Y8616090D03*
X5370000Y8772000D03*
X5363000Y9205000D03*
X5325000Y12506000D03*
X5319000Y12764000D03*
X5511000Y4086000D03*
X5439000Y4286000D03*
X5465000Y4454000D03*
X5417000Y4711000D03*
X5408000Y6256000D03*
X5415000Y7056000D03*
X5501000Y7346000D03*
X5491090Y7427910D03*
X5411090Y7507910D03*
Y7427910D03*
X5491090Y7507910D03*
X5411090Y7587910D03*
X5491090D03*
X5411090Y7667910D03*
Y7747910D03*
X5491090D03*
Y7667910D03*
Y7827910D03*
X5411090D03*
X5491090Y7976090D03*
X5411090D03*
Y8056090D03*
X5491090D03*
Y8136090D03*
X5411090D03*
X5491090Y8296090D03*
X5411090D03*
Y8456090D03*
Y8376090D03*
X5504000Y10187000D03*
X5420000Y12610000D03*
X5487000Y13402000D03*
X5533000Y900000D03*
X5528000Y4263000D03*
X5628000Y4615000D03*
X5602000Y5731000D03*
X5544000Y5693000D03*
X5552000Y6203000D03*
Y6112000D03*
X5569000Y6390000D03*
X5532000Y6415000D03*
X5544000Y7029000D03*
X5549000Y6942000D03*
X5518000Y7113000D03*
X5632000Y7100000D03*
X5571090Y7427910D03*
Y7507910D03*
Y7667910D03*
Y7747910D03*
Y7827910D03*
Y7976090D03*
Y8056090D03*
Y8136090D03*
Y8216090D03*
Y8296090D03*
Y8376090D03*
Y8456090D03*
Y8536090D03*
X5571000Y11786000D03*
X5604000Y12236000D03*
X5524000Y12208000D03*
X5707000Y3680000D03*
X5736000Y3817000D03*
X5642000Y3924000D03*
X5691000Y5307000D03*
X5663000Y5869000D03*
X5683000Y5910000D03*
X5654000Y6116000D03*
X5711000Y6290000D03*
X5651090Y7267910D03*
X5731090D03*
X5651090Y7187910D03*
X5657000Y7428000D03*
X5651090Y7507910D03*
X5731090Y7587910D03*
X5651090D03*
X5731090Y7747910D03*
X5651090D03*
X5731090Y7827910D03*
X5651090D03*
X5652000Y7978000D03*
X5731090Y7976090D03*
X5651090Y8056090D03*
X5731090D03*
Y8216090D03*
Y8136090D03*
X5651090D03*
Y8216090D03*
X5731090Y8296090D03*
X5651090D03*
X5676920Y8461720D03*
X5675900Y8381190D03*
X5731090Y8456090D03*
Y8376090D03*
X5654000Y8638000D03*
X5731090Y8616090D03*
X5749000Y11140000D03*
X5677000Y13834000D03*
X5680000Y13996000D03*
X5757500Y896500D03*
X5768000Y4475000D03*
X5858000D03*
X5837000Y4524000D03*
X5773000Y5822000D03*
X5764000Y6197000D03*
X5811090Y7187910D03*
Y7347910D03*
Y7507910D03*
Y7587910D03*
Y7827910D03*
Y7976090D03*
X5868000Y7999000D03*
X5811090Y8056090D03*
Y8136090D03*
Y8296090D03*
Y8456090D03*
Y8376090D03*
Y8536090D03*
Y8616090D03*
X5797000Y8687000D03*
X5799000Y10402000D03*
X5836000Y13585800D03*
X5925000Y3873000D03*
X5941500Y4041500D03*
X5930000Y4470000D03*
X5897000Y6067000D03*
X5980000Y6064000D03*
X5976000Y6331000D03*
X5984000Y6843000D03*
X5959000Y7217000D03*
X5894000Y7232000D03*
X5926000Y7642000D03*
X5956000Y7813000D03*
X5890000Y7906000D03*
X5962000Y7990000D03*
X5942000Y7917000D03*
X5924000Y8190000D03*
X5901000Y8264000D03*
X5886000Y8451000D03*
X5902000Y8603000D03*
X5990000Y9378000D03*
X5921000Y12984000D03*
X5907000Y13028000D03*
X5925000Y13979000D03*
X5999000Y3472000D03*
X6079000Y3699000D03*
X6011000Y3945000D03*
X6090000Y4468000D03*
X6081000Y5470000D03*
X6017000Y5487000D03*
X6104000Y5529000D03*
X6075000Y5901000D03*
X6039000Y7230000D03*
X6110000Y7381000D03*
X6038000Y7466000D03*
X6030000Y7543000D03*
X6050000Y7923000D03*
X6033000Y8262000D03*
X6044000Y8364000D03*
X6108000Y10406000D03*
X6023000Y11114000D03*
X6106000Y11388000D03*
X6067000Y13592000D03*
X6168000Y5552000D03*
X6133000Y7760000D03*
X6148000Y7990000D03*
X6182000Y8177000D03*
X6187000Y8568000D03*
X6149000Y10559000D03*
X6177000Y12155000D03*
X6287000Y2518000D03*
X6281000Y4436000D03*
X6277000Y6117000D03*
X6304000Y7334000D03*
X6317000Y7697000D03*
X6345000Y8069000D03*
X6233000Y8414000D03*
X6270000Y8538000D03*
X6297000Y8695000D03*
X6243000Y13221000D03*
X6350000Y13866000D03*
X6366000Y4520000D03*
X6451000Y4605000D03*
X6408000Y7301000D03*
X6371000Y7392000D03*
X6374000Y7466000D03*
X6403000Y8286000D03*
X6364000Y8700000D03*
X6419000Y9420000D03*
X6425000Y9664000D03*
X6430000Y10112000D03*
X6354000Y12538000D03*
X6583000Y1804000D03*
X6561000Y4724000D03*
X6556000Y4783000D03*
X6513000Y5645000D03*
X6557000Y6106000D03*
X6532000Y6707000D03*
X6527000Y6842000D03*
X6528000Y7301000D03*
X6556000Y7461000D03*
X6495000Y8377000D03*
X6557000Y8754000D03*
X6561000Y13497000D03*
X6544000Y14361000D03*
X6678000Y2523000D03*
X6636000Y7174000D03*
X6669000Y7704000D03*
X6644000Y8297000D03*
X6634000Y8394000D03*
X6612000Y8542000D03*
X6650000Y8867000D03*
X6637000Y9096000D03*
X6634000Y9312000D03*
X6594000Y11483000D03*
X6657000Y13991000D03*
X6748000Y1639000D03*
X6813000Y7162000D03*
X6761000Y8174000D03*
X6792000Y8573000D03*
X6766000Y13438000D03*
X6864000Y3915000D03*
X6878000Y4049000D03*
X6883000Y6996000D03*
X6927000Y7935000D03*
X6946000Y9703000D03*
X6901000Y11228000D03*
X6927000Y12322000D03*
X6986000Y6190000D03*
X6981000Y6471000D03*
X7045000Y6654000D03*
X7018000Y7098000D03*
X6981000Y7659000D03*
X6969000Y10305000D03*
X7043000Y13004000D03*
X7002790Y13929000D03*
X7165000Y7606000D03*
X7074000Y8034000D03*
X7144000Y8052000D03*
X7141000Y9712000D03*
X7143000Y10067000D03*
X7121000Y13810380D03*
X7198000Y3802000D03*
X7284000Y7912000D03*
X7297000Y8375000D03*
X7240000Y9155000D03*
X7215000Y10914000D03*
X7347000Y2891000D03*
X7323000Y7561000D03*
X7531000Y3135000D03*
X7482000Y11973000D03*
X7483000Y13887000D03*
X7649000Y5568000D03*
X7554000Y6111000D03*
X7644000Y6246000D03*
X7654000Y9127000D03*
Y9844000D03*
X7638000Y10524000D03*
X7593000Y13668000D03*
X7701000Y2731000D03*
X7737000Y3229000D03*
X7674000Y4854000D03*
X7764000Y6114000D03*
X7664000Y7006000D03*
X7670000Y7706000D03*
X7664000Y8428000D03*
X7688000Y9485000D03*
X7775000Y10676000D03*
X7688000Y10641000D03*
X7848000Y13770000D03*
X7946000Y3318000D03*
X8102000Y13943000D03*
X8324000Y11238000D03*
X8333000Y11988000D03*
X8342000Y12538000D03*
X8313000Y13158000D03*
X8449000Y13559000D03*
X8830000Y13054000D03*
X8758000Y13638000D03*
X9036000Y2813000D03*
X9123000Y3502000D03*
X9169000Y13678000D03*
X9232000Y13057000D03*
X9360000Y6128000D03*
X9348000Y7318000D03*
X9434000Y8458000D03*
X9447500Y9649500D03*
X9403000Y13318000D03*
X9398000Y13444000D03*
X9585000Y9929000D03*
X9647000Y10495000D03*
X9657000Y10665000D03*
X9659000Y11388000D03*
X9681000Y11614000D03*
X9650000Y12187000D03*
X9627000Y12530000D03*
X9647000Y13086000D03*
X9759000Y5258000D03*
X9749000Y6413000D03*
Y7560000D03*
Y8755000D03*
X10009000Y5808000D03*
X9999000Y6995000D03*
Y9369000D03*
X10727270Y10476000D03*
X10705270Y11354000D03*
X10733000Y12163000D03*
X10679000Y13072000D03*
G54D20*
X6776000Y7384000D03*
Y7638000D03*
G54D11*
X296000Y4228000D03*
Y4482000D03*
Y4736000D03*
Y4990000D03*
Y5244000D03*
Y5498000D03*
X7141000Y8575000D03*
Y8829000D03*
Y9083000D03*
Y9337000D03*
Y9591000D03*
Y9845000D03*
G54D12*
X223000Y14119000D03*
X2373000D03*
G54D21*
X6821000Y14292000D03*
X7075000D03*
X7329000D03*
X7583000D03*
X7837000D03*
X8091000D03*
X8345000D03*
X8599000D03*
X8853000D03*
X9107000D03*
X9361000D03*
X9615000D03*
X9869000D03*
X10123000D03*
X10377000D03*
X10631000D03*
G54D13*
X351000Y13721000D03*
Y14021000D03*
X651000Y13721000D03*
Y14021000D03*
X951000Y13721000D03*
Y14021000D03*
X1251000Y13721000D03*
Y14021000D03*
X1551000Y13721000D03*
Y14021000D03*
X1851000Y13721000D03*
Y14021000D03*
X2501000Y13721000D03*
Y14021000D03*
X2801000Y13721000D03*
Y14021000D03*
X3101000Y13721000D03*
Y14021000D03*
X3401000Y13721000D03*
Y14021000D03*
X3701000Y13721000D03*
Y14021000D03*
X4001000Y13721000D03*
Y14021000D03*
G54D22*
X9759000Y5528000D03*
X9749000Y6708000D03*
Y7868000D03*
Y9068000D03*
X10009000Y5528000D03*
X9999000Y6708000D03*
Y7868000D03*
Y9068000D03*
X10259000Y5528000D03*
X10249000Y6708000D03*
Y7868000D03*
Y9068000D03*
G54D23*
G01X5375000Y7755000D02*
Y7493000D01*
X5404000Y7464000D01*
X5946000D01*
X6428000Y6982000D01*
Y5039000D01*
X6655000Y4812000D01*
Y2763000D01*
X6096000Y2204000D01*
X3293000D01*
X2688000Y2809000D01*
X2256000D01*
X2203000Y2862000D01*
Y2988000D01*
X2143000Y3048000D01*
G01X5976000Y6331000D02*
X6027000Y6280000D01*
Y6212000D01*
X6075000Y6164000D01*
X6098000D01*
X6282000Y5980000D01*
Y4997000D01*
X5844200Y4559200D01*
X5519190D01*
X4943990Y3984000D01*
X4701790D01*
X4667590Y3949800D01*
X4016410D01*
X3982210Y3984000D01*
X2699010D01*
X2626000Y4057010D01*
Y4157210D01*
X2577000Y4206210D01*
Y4764790D01*
X2626000Y4813790D01*
Y5476000D01*
X2495000Y5607000D01*
X2462000D01*
X2432000Y5637000D01*
Y5728000D01*
G01X2942670Y12969000D02*
Y12935890D01*
X2952860Y12925700D01*
X2973220D01*
X2986520Y12939000D01*
X2993610D01*
X2998810Y12933800D01*
X3027990D01*
X3033190Y12939000D01*
X5051780D01*
X5191580Y12799200D01*
X5333590D01*
X5354200Y12778590D01*
Y12750450D01*
X5399650Y12705000D01*
X5735000D01*
X6751000Y11689000D01*
Y9644000D01*
X6601000Y9494000D01*
Y9373000D01*
X6568000Y9340000D01*
Y9284000D01*
X6601000Y9251000D01*
Y9154000D01*
X6571000Y9124000D01*
Y9068000D01*
X6601000Y9038000D01*
Y8912000D01*
X6584000Y8895000D01*
Y8839000D01*
X6601000Y8822000D01*
Y8669000D01*
X6228000Y8296000D01*
Y7998440D01*
X6115560Y7886000D01*
X5962000D01*
X5957000Y7881000D01*
X5927000D01*
X5922000Y7886000D01*
X5919790D01*
X5904590Y7870800D01*
X5875410D01*
X5829210Y7917000D01*
X5586090D01*
X5571090Y7932000D01*
Y7976090D01*
G01X3013400Y12969000D02*
X5064210D01*
X5204010Y12829200D01*
X5346020D01*
X5384200Y12791020D01*
Y12762880D01*
X5412080Y12735000D01*
X5747430D01*
X6781000Y11701430D01*
Y9631570D01*
X6631000Y9481570D01*
Y9348000D01*
X6619000D01*
X6598000Y9327000D01*
Y9297000D01*
X6619000Y9276000D01*
X6631000D01*
Y9132000D01*
X6622000D01*
X6601000Y9111000D01*
Y9081000D01*
X6622000Y9060000D01*
X6631000D01*
Y8899000D01*
X6614000Y8882000D01*
Y8852000D01*
X6631000Y8835000D01*
Y8656570D01*
X6258000Y8283570D01*
Y7986010D01*
X6146000Y7874010D01*
Y7874000D01*
X6128000Y7856000D01*
X5975000D01*
X5970000Y7851000D01*
X5927220D01*
X5917020Y7840800D01*
X5862980D01*
X5816780Y7887000D01*
X5586090D01*
X5571090Y7872000D01*
Y7827910D01*
G01X3257320Y12836000D02*
Y12802890D01*
X3277690Y12782520D01*
Y12701570D01*
X3310260Y12669000D01*
X5268780D01*
X5392980Y12544800D01*
X5748200D01*
X6141000Y12152000D01*
Y12140000D01*
X6162000Y12119000D01*
X6174000D01*
X6680000Y11613000D01*
Y9677000D01*
X6482000Y9479000D01*
Y8693000D01*
X6268200Y8479200D01*
X6022200D01*
X5963000Y8420000D01*
Y8296000D01*
X5968000Y8291000D01*
X5967000Y8290000D01*
Y8234000D01*
X6005000Y8196000D01*
X6006000D01*
Y8089000D01*
X6005000D01*
X5972000Y8056000D01*
X5935000D01*
X5914000Y8035000D01*
X5853000D01*
X5829290Y8011290D01*
X5766290D01*
X5731090Y7976090D01*
G01X3328050Y12836000D02*
Y12802890D01*
X3307690Y12782530D01*
Y12714000D01*
X3322690Y12699000D01*
X5281210D01*
X5405410Y12574800D01*
X5760630D01*
X6153210Y12182220D01*
X6153220D01*
X6162000Y12191000D01*
X6192000D01*
X6213000Y12170000D01*
Y12140000D01*
X6204220Y12131220D01*
Y12131210D01*
X6710000Y11625430D01*
Y9664570D01*
X6512000Y9466570D01*
Y8680570D01*
X6280630Y8449200D01*
X6034630D01*
X5993000Y8407570D01*
Y8309430D01*
X6011210Y8291220D01*
Y8291210D01*
X5997000Y8277000D01*
Y8247000D01*
X6018000Y8226000D01*
X6036000D01*
Y8076570D01*
X5984630Y8025200D01*
X5947410D01*
X5900210Y7978000D01*
X5898000D01*
X5883000Y7963000D01*
X5853000D01*
X5838000Y7978000D01*
X5813000D01*
X5811090Y7976090D01*
G01X5571090Y8376090D02*
X5489210Y8457970D01*
Y8702580D01*
X5367000Y8824790D01*
Y9159210D01*
X5398200Y9190410D01*
Y10432800D01*
X5062000Y10769000D01*
X4545000D01*
X4043000Y11271000D01*
Y11597000D01*
X3592700Y12047300D01*
Y12513520D01*
X3572330Y12533890D01*
Y12567000D01*
G01X5571090Y8456090D02*
X5519210Y8507970D01*
Y8715010D01*
X5397000Y8837220D01*
Y9146780D01*
X5428200Y9177980D01*
Y10445230D01*
X5074430Y10799000D01*
X4557430D01*
X4073000Y11283430D01*
Y11609430D01*
X3622700Y12059730D01*
Y12513530D01*
X3643060Y12533890D01*
Y12567000D01*
G01X5571090Y8296090D02*
X5596090Y8321090D01*
Y8351300D01*
X5606290Y8361500D01*
Y8634370D01*
X5618000Y8646080D01*
Y8653000D01*
X5639000Y8674000D01*
X5645920D01*
X5784000Y8812080D01*
Y10130000D01*
X4913000Y11001000D01*
X4589000D01*
X4153000Y11437000D01*
Y11690000D01*
X3866000Y11977000D01*
Y12486510D01*
X3894010Y12514520D01*
Y12544520D01*
X3873640Y12564890D01*
Y12598000D01*
G01X5651090Y8296090D02*
X5626090Y8321090D01*
Y8338870D01*
X5636290Y8349070D01*
Y8599300D01*
X5638990Y8602000D01*
X5669000D01*
X5690000Y8623000D01*
Y8653000D01*
X5678680Y8664320D01*
Y8664330D01*
X5814000Y8799650D01*
Y10142430D01*
X4925430Y11031000D01*
X4601430D01*
X4183000Y11449430D01*
Y11702430D01*
X3896000Y11989430D01*
Y12474080D01*
X3924010Y12502090D01*
Y12544530D01*
X3944370Y12564890D01*
Y12598000D01*
G01X4818110Y7842500D02*
X4797500Y7863110D01*
X4780890D01*
X4774000Y7870000D01*
G01X5984000Y6843000D02*
X5810000D01*
X5798110Y6831110D01*
X5776890D01*
X5579200Y7028800D01*
Y7043590D01*
X5558590Y7064200D01*
X5543800D01*
X5530200Y7077800D01*
X5503410D01*
X5482800Y7098410D01*
Y7125200D01*
X5375200Y7232800D01*
Y7277590D01*
X5354590Y7298200D01*
X5309810D01*
X5286290Y7321720D01*
Y7362500D01*
X5265680Y7383110D01*
X5224900D01*
X5206290Y7401720D01*
Y7532100D01*
X5185680Y7552710D01*
X5156500D01*
X5135890Y7573320D01*
Y7604720D01*
X5037500Y7703110D01*
X4857920D01*
X4818110Y7742920D01*
Y7842500D01*
G01X5265000Y7995000D02*
X5251090Y7981090D01*
Y7976090D01*
G01X5324000Y7810000D02*
X5331090Y7817090D01*
Y7827910D01*
G01X5360000Y7818000D02*
Y7770000D01*
X5375000Y7755000D01*
G54D14*
X1108000Y9359000D03*
Y9619000D03*
Y9879000D03*
X1494000Y9362000D03*
X1754000D03*
X2014000D03*
X2217000Y9364000D03*
X2477000D03*
X2737000D03*
X2897000Y11553000D03*
Y11813000D03*
Y12073000D03*
X3663000Y9756000D03*
X3923000D03*
X4183000D03*
X4318000Y11713000D03*
X4578000D03*
X4838000D03*
X8507000Y2078000D03*
Y2338000D03*
Y2598000D03*
Y2798000D03*
Y3058000D03*
Y3318000D03*
X8502000Y3517000D03*
Y3777000D03*
Y4037000D03*
X8509000Y4248000D03*
Y4508000D03*
Y4768000D03*
Y4958000D03*
Y5218000D03*
Y5478000D03*
Y5668000D03*
Y5928000D03*
Y6188000D03*
Y6378000D03*
Y6638000D03*
Y6898000D03*
Y7088000D03*
Y7348000D03*
Y7608000D03*
Y7798000D03*
Y8058000D03*
Y8318000D03*
Y8508000D03*
Y8768000D03*
Y9028000D03*
Y9218000D03*
Y9478000D03*
Y9738000D03*
Y9928000D03*
Y10188000D03*
Y10448000D03*
G54D15*
X1104000Y10197000D03*
X1359000D03*
X1612000D03*
X1866000D03*
Y11223000D03*
X2120000Y10197000D03*
X2375000D03*
X2629000Y11222000D03*
X2882000Y10197000D03*
X2883000Y11223000D03*
X3136000Y10197000D03*
X3137000Y11223000D03*
X3644000Y10197000D03*
Y11223000D03*
G54D16*
X4658000Y1998000D03*
X6271000D03*
G54D17*
X4742000Y317000D03*
X4996000D03*
X5933000D03*
X6187000D03*
G54D18*
X4830000Y1681000D03*
X6100000D03*
G54D19*
X4957000Y564000D03*
X5160000D03*
X5363000D03*
X5566000D03*
X5769000D03*
X5972000D03*
M02*
