G04 ================== begin FILE IDENTIFICATION RECORD ==================*
G04 Layout Name:  c:/users/joser/onedrive/escritorio/allegro/artix-7_ja.brd*
G04 Film Name:    TOP*
G04 File Format:  Gerber RS274X*
G04 File Origin:  Cadence Allegro 25.1-S010*
G04 Origin Date:  Mon May 11 22:28:25 2026*
G04 *
G04 Layer:  ETCH/TOP*
G04 Layer:  PIN/TOP*
G04 Layer:  VIA CLASS/TOP*
G04 *
G04 Offset:    (0.0000 0.0000)*
G04 Mirror:    No*
G04 Mode:      Positive*
G04 Rotation:  0*
G04 FullContactRelief:  No*
G04 UndefLineWidth:     0.1000*
G04 ================== end FILE IDENTIFICATION RECORD ====================*
%FSLAX25Y25*MOMM*%
%IR0*IPPOS*OFA0.00000B0.00000*MIA0B0*SFA1.00000B1.00000*%
%ADD35R,.4X1.4*%
%ADD11C,.3*%
%AMMACRO66*
21,1,1.,.7,0.0,0.0,90.28*%
%ADD66MACRO66*%
%ADD48C,.41*%
%ADD45R,1.525X.65*%
%ADD38R,.3X.3*%
%ADD22R,.95X1.0056*%
%ADD24R,1.0056X.95*%
%ADD43C,.3556*%
%ADD74R,3.2004X.9906*%
%ADD60R,.8999X1.*%
%ADD51R,2.2098X.762*%
%ADD20R,.762X1.1938*%
%ADD15R,.5588X1.3208*%
%ADD63R,.5588X1.3208*%
%ADD69R,.9398X1.5494*%
%ADD64R,.5588X1.5875*%
%ADD44R,1.7X1.3*%
%ADD25R,1.4501X1.*%
%ADD61R,1.3X1.7*%
%ADD23R,1.X1.4501*%
%ADD30R,.4X.5001*%
%ADD72R,.7X.5*%
%ADD57R,.25X.6*%
%ADD56R,.6X.25*%
%ADD71R,.55X.4*%
%ADD68C,1.5*%
%ADD46R,2.71X3.402*%
%ADD42R,.35X.25*%
%ADD40R,.25X.35*%
%ADD17R,.46X.42*%
%ADD47R,.42X.46*%
%ADD13C,1.016*%
%ADD12C,1.6002*%
%ADD52C,1.5301*%
%ADD29C,1.308*%
%ADD67R,1.5X1.5*%
%ADD65C,1.651*%
%ADD37R,.65X.6401*%
%ADD41R,.6401X.65*%
%ADD28C,1.3208*%
%ADD59C,1.446*%
%ADD49C,2.3551*%
%ADD27R,.762X.254*%
%ADD62R,2.0066X1.9304*%
%ADD58R,4.7X4.7*%
%ADD31R,.254X.762*%
%ADD19R,1.4699X1.0201*%
%ADD73C,1.397*%
%ADD10R,1.0201X1.4699*%
%ADD55R,1.446X1.446*%
%ADD16C,1.5748*%
%ADD36R,1.4501X1.1999*%
%ADD53C,3.2499*%
%ADD39R,1.1999X1.4501*%
%ADD26R,2.3X1.8999*%
%ADD34R,4.7244X4.7244*%
%ADD50R,.8636X.4064*%
%ADD33R,4.3942X4.3942*%
%ADD21R,1.1938X1.1938*%
%ADD70R,1.4986X2.1336*%
%ADD14R,.7X.5999*%
%ADD18R,.5999X.7*%
%ADD32R,1.8001X1.8999*%
%ADD54R,4.7498X4.9022*%
%ADD75C,.15*%
%ADD76C,.127*%
%ADD77C,.08*%
G75*
%LPD*%
G75*
G36*
G01X322000Y8615000D02*
X670000D01*
X734000Y8551000D01*
Y8397220D01*
X730390Y8396130D01*
G03X723980Y8387500I2608J-8633D01*
G01Y8240500D01*
G03X730390Y8231870I9018J3D01*
G01X734000Y8230780D01*
Y6196000D01*
X775000Y6155000D01*
Y5985000D01*
X757000Y5967000D01*
X550000D01*
X528000Y5945000D01*
Y5916000D01*
X426000Y5814000D01*
X319000D01*
X262000Y5871000D01*
Y8555000D01*
X322000Y8615000D01*
G37*
G36*
G01X484000Y1877000D02*
X682000D01*
X711000Y1848000D01*
Y1510000D01*
X674000Y1473000D01*
X475000D01*
X444000Y1504000D01*
Y1741280D01*
X503000D01*
G03X515720Y1754000I0J12720D01*
G01Y1796000D01*
G03X503000Y1808720I-12720J0D01*
G01X444000D01*
Y1837000D01*
X484000Y1877000D01*
G37*
G36*
G01X840000Y6170000D02*
X1070000D01*
X1090000Y6150000D01*
X1500000D01*
X1530000Y6120000D01*
Y5950000D01*
X1513900Y5933900D01*
G02X1505220Y5937490I-3598J3588D01*
G01Y5945000D01*
G03X1492500Y5957720I-12720J0D01*
G01X1347500D01*
G03X1334780Y5945000I0J-12720D01*
G01Y5820000D01*
X850000D01*
X790000Y5880000D01*
Y6120000D01*
X840000Y6170000D01*
G37*
G36*
G01X1130000Y4630000D02*
X1352010D01*
X1357890Y4624120D01*
X1356190Y4620820D01*
G03X1354780Y4615000I11307J-5820D01*
G01Y4495000D01*
G03X1367500Y4482280I12720J0D01*
G01X1512500D01*
G03X1525220Y4495000I0J12720D01*
G01Y4612510D01*
G02X1533900Y4616100I5082J2D01*
G01X1540000Y4610000D01*
Y4280000D01*
X1510000Y4250000D01*
X1160000D01*
X1110000Y4300000D01*
Y4610000D01*
X1130000Y4630000D01*
G37*
G36*
G01X1350000Y5810000D02*
X1490000D01*
X1520000Y5780000D01*
Y5640000D01*
X1540510Y5619490D01*
G03X1544310Y5615660I21484J17516D01*
G01X1544490Y5615510D01*
X1550000Y5610000D01*
Y5596730D01*
X1512310D01*
G03X1503710Y5593380I0J-12714D01*
G02X1491990Y5591940I-6868J7487D01*
G03X1488620Y5592980I-4293J-7932D01*
G01X1486830Y5593170D01*
X1480000Y5600000D01*
X1370000D01*
X1310000Y5660000D01*
Y5770000D01*
X1350000Y5810000D01*
G37*
G36*
G01X1399000Y3343000D02*
X1460000D01*
X1472000Y3331000D01*
Y3320030D01*
X1466200D01*
X1465520Y3320220D01*
G03X1462000Y3320720I-3531J-12218D01*
G01X1416000D01*
G03X1403280Y3308000I0J-12720D01*
G01Y3266000D01*
G03X1416000Y3253280I12720J0D01*
G01X1462000D01*
G03X1465520Y3253780I-11J12718D01*
G01X1466200Y3253970D01*
X1472000D01*
Y3246700D01*
G02X1460580Y3236620I-10160J2D01*
G03X1459000Y3236720I-1592J-12619D01*
G01X1413000D01*
G03X1400280Y3224000I0J-12720D01*
G01Y3182000D01*
G03X1413000Y3169280I12720J0D01*
G01X1459000D01*
G03X1460580Y3169380I-12J12719D01*
G02X1472000Y3159300I1260J-10082D01*
G01Y3151320D01*
X1465890D01*
X1464950Y3151720D01*
G03X1460000Y3152720I-4944J-11721D01*
G01X1414000D01*
G03X1401280Y3140000I0J-12720D01*
G01Y3098000D01*
G03X1414000Y3085280I12720J0D01*
G01X1472000D01*
Y3056720D01*
X1413000D01*
G03X1400280Y3044000I0J-12720D01*
G01Y3002000D01*
G03X1413000Y2989280I12720J0D01*
G01X1472000D01*
Y2939000D01*
X1450000Y2917000D01*
Y2902780D01*
X1412280D01*
G03X1409990Y2902570I12J-12719D01*
G02X1398000Y2912570I-1830J9994D01*
G01Y2920000D01*
X1385000Y2933000D01*
Y3329000D01*
X1399000Y3343000D01*
G37*
G36*
G01X1562540Y4903270D02*
X1597310D01*
Y4857310D01*
X1540000Y4800000D01*
Y4660000D01*
X1520000Y4640000D01*
X1360000D01*
X1340000Y4660000D01*
Y4790000D01*
X1370000Y4820000D01*
X1490000D01*
X1530890Y4860890D01*
X1532200Y4861240D01*
G03X1552730Y4888010I-7188J26770D01*
G03X1552480Y4891740I-27721J15D01*
G02X1562540Y4903270I10066J1371D01*
G37*
G36*
G01X1681830Y7714000D02*
X1717000D01*
X1746000Y7685000D01*
Y6857000D01*
X1710000Y6821000D01*
X1554000D01*
X1514000Y6861000D01*
Y6874390D01*
X1520360D01*
X1521480Y6873790D01*
G03X1527500Y6872280I6011J11207D01*
G01X1592500D01*
G03X1605220Y6885000I0J12720D01*
G01Y6949000D01*
G03X1592500Y6961720I-12720J0D01*
G01X1527500D01*
G03X1521480Y6960210I-9J-12717D01*
G01X1520360Y6959610D01*
X1514000D01*
Y6974390D01*
X1520360D01*
X1521480Y6973790D01*
G03X1527500Y6972280I6011J11207D01*
G01X1592500D01*
G03X1605220Y6985000I0J12720D01*
G01Y7049000D01*
G03X1592500Y7061720I-12720J0D01*
G01X1527500D01*
G03X1521480Y7060210I-9J-12717D01*
G01X1520360Y7059610D01*
X1514000D01*
Y7074390D01*
X1520360D01*
X1521480Y7073790D01*
G03X1527500Y7072280I6011J11207D01*
G01X1592500D01*
G03X1605220Y7085000I0J12720D01*
G01Y7149000D01*
G03X1592500Y7161720I-12720J0D01*
G01X1527500D01*
G03X1521480Y7160210I-9J-12717D01*
G01X1520360Y7159610D01*
X1514000D01*
Y7174390D01*
X1520360D01*
X1521480Y7173790D01*
G03X1527500Y7172280I6011J11207D01*
G01X1592500D01*
G03X1605220Y7185000I0J12720D01*
G01Y7249000D01*
G03X1592500Y7261720I-12720J0D01*
G01X1527500D01*
G03X1521480Y7260210I-9J-12717D01*
G01X1520360Y7259610D01*
X1514000D01*
Y7274390D01*
X1520360D01*
X1521480Y7273790D01*
G03X1527500Y7272280I6011J11207D01*
G01X1592500D01*
G03X1605220Y7285000I0J12720D01*
G01Y7349000D01*
G03X1592500Y7361720I-12720J0D01*
G01X1527500D01*
G03X1521480Y7360210I-9J-12717D01*
G01X1520360Y7359610D01*
X1514000D01*
Y7374390D01*
X1520360D01*
X1521480Y7373790D01*
G03X1527500Y7372280I6011J11207D01*
G01X1592500D01*
G03X1605220Y7385000I0J12720D01*
G01Y7449000D01*
G03X1592500Y7461720I-12720J0D01*
G01X1527500D01*
G03X1521480Y7460210I-9J-12717D01*
G01X1520360Y7459610D01*
X1514000D01*
Y7474390D01*
X1520360D01*
X1521480Y7473790D01*
G03X1527500Y7472280I6011J11207D01*
G01X1592500D01*
G03X1605220Y7485000I0J12720D01*
G01Y7549000D01*
G03X1592500Y7561720I-12720J0D01*
G01X1527500D01*
G03X1521480Y7560210I-9J-12717D01*
G01X1520360Y7559610D01*
X1514000D01*
Y7574390D01*
X1520360D01*
X1521480Y7573790D01*
G03X1527500Y7572280I6011J11207D01*
G01X1592500D01*
G03X1605220Y7585000I0J12720D01*
G01Y7649000D01*
G03X1592500Y7661720I-12720J0D01*
G01X1527500D01*
G03X1525640Y7661590I-46J-12718D01*
G02X1514000Y7671640I-1481J10051D01*
G01Y7687000D01*
X1541000Y7714000D01*
X1608170D01*
G02X1617860Y7700800I-4J-10159D01*
G03X1617280Y7697000I12140J-3797D01*
G01Y7667000D01*
G03X1630000Y7654280I12720J0D01*
G01X1660000D01*
G03X1672720Y7667000I0J12720D01*
G01Y7697000D01*
G03X1672140Y7700800I-12720J3D01*
G02X1681830Y7714000I9694J3041D01*
G37*
G36*
G01X1655000Y3238000D02*
X1709000D01*
X1723000Y3224000D01*
Y3211860D01*
X1716730D01*
X1715660Y3212390D01*
G03X1710000Y3213720I-5660J-11378D01*
G01X1664000D01*
G03X1651280Y3201000I0J-12720D01*
G01Y3159000D01*
G03X1664000Y3146280I12720J0D01*
G01X1723000D01*
Y3105720D01*
X1669000D01*
G03X1656280Y3093000I0J-12720D01*
G01Y3051000D01*
G03X1669000Y3038280I12720J0D01*
G01X1715000D01*
G03X1717090Y3038450I17J12721D01*
G01X1717500Y3038520D01*
X1723000D01*
Y3023480D01*
X1717500D01*
X1717090Y3023550D01*
G03X1715000Y3023720I-2073J-12551D01*
G01X1669000D01*
G03X1656280Y3011000I0J-12720D01*
G01Y2969000D01*
G03X1669000Y2956280I12720J0D01*
G01X1715000D01*
G03X1717090Y2956450I17J12721D01*
G01X1717500Y2956520D01*
X1723000D01*
Y2941000D01*
X1702000Y2920000D01*
Y2912570D01*
G02X1690020Y2902570I-10161J-3D01*
G03X1687740Y2902780I-2302J-12508D01*
G01X1662340D01*
G03X1654800Y2900300I5J-12718D01*
G01X1651280Y2897720D01*
X1641000Y2908000D01*
Y2955700D01*
X1641110Y2956220D01*
G03X1641720Y2962000I-27110J5783D01*
G03X1641110Y2967780I-27720J-3D01*
G01X1641000Y2968300D01*
Y3014000D01*
X1640000Y3015000D01*
Y3223000D01*
X1655000Y3238000D01*
G37*
G36*
G01X1750480Y4915990D02*
Y4974990D01*
G02X1767820Y4982180I10160J2D01*
G01X1850000Y4900000D01*
X1920000D01*
X1970000Y4850000D01*
Y4690000D01*
X1940000Y4660000D01*
X1830000D01*
X1790000Y4700000D01*
Y4830000D01*
X1725400Y4894600D01*
G02X1728990Y4903270I3594J3590D01*
G01X1737760D01*
G03X1750480Y4915990I0J12720D01*
G37*
G36*
G01X1791000Y5876000D02*
X1936000D01*
X1946700Y5865300D01*
G02X1931740Y5853290I-9577J-3392D01*
G03X1925000Y5855220I-6736J-10789D01*
G01X1805000D01*
G03X1792280Y5842500I0J-12720D01*
G01Y5697500D01*
G03X1805000Y5684780I12720J0D01*
G01X1925000D01*
G03X1931740Y5686710I4J12719D01*
G02X1947280Y5678090I5380J-8618D01*
G01Y5674730D01*
X1950000Y5672010D01*
Y5665000D01*
X1942000Y5657000D01*
X1910000D01*
X1767820Y5514820D01*
G02X1750480Y5522010I-7180J7188D01*
G01Y5584010D01*
G03X1740960Y5596320I-12719J0D01*
G02X1736340Y5613340I2560J9832D01*
G01X1742320Y5619320D01*
X1744480Y5619280D01*
X1745000D01*
G03X1772720Y5647000I0J27720D01*
G03X1767000Y5663860I-27708J0D01*
G01Y5852000D01*
X1791000Y5876000D01*
G37*
G36*
G01X2070000Y5130000D02*
X2260000D01*
X2300000Y5090000D01*
Y4530000D01*
X2291400Y4521400D01*
G02X2282720Y4524990I-3598J3588D01*
G01Y4673500D01*
G03X2270000Y4686220I-12720J0D01*
G01X2168000D01*
G03X2155280Y4673500I0J-12720D01*
G01Y4526500D01*
G03X2168000Y4513780I12720J0D01*
G01X2271520D01*
G02X2275110Y4505110I0J-5078D01*
G01X2270000Y4500000D01*
X2100000D01*
X1980000Y4620000D01*
Y4682010D01*
X1985880Y4687890D01*
X1989180Y4686190D01*
G03X1995000Y4684780I5820J11307D01*
G01X2115000D01*
G03X2127720Y4697500I0J12720D01*
G01Y4842500D01*
G03X2115000Y4855220I-12720J0D01*
G01X1995000D01*
G03X1989180Y4853810I0J-12717D01*
G01X1985880Y4852110D01*
X1980000Y4857990D01*
Y4922310D01*
G03Y4954690I-22497J16190D01*
G01Y5040000D01*
X2070000Y5130000D01*
G37*
G36*
G01X2000000Y6040000D02*
X2190000D01*
X2230000Y6000000D01*
Y5680000D01*
X2190000Y5640000D01*
X2000000D01*
X1960000Y5680000D01*
Y5687800D01*
X1966630D01*
X1967910Y5686940D01*
G03X1975000Y5684780I7090J10558D01*
G01X2095000D01*
G03X2100000Y5685800I10J12718D01*
G03X2105000Y5684780I4990J11697D01*
G01X2205000D01*
G03X2217720Y5697500I0J12720D01*
G01Y5842500D01*
G03X2205000Y5855220I-12720J0D01*
G01X2105000D01*
G03X2100000Y5854200I-10J-12717D01*
G03X2095000Y5855220I-4990J-11698D01*
G01X1975000D01*
G03X1972310Y5854940I-36J-12719D01*
G02X1960000Y5864870I-2152J9928D01*
G01Y6000000D01*
X2000000Y6040000D01*
G37*
G36*
G01X2221220Y3461000D02*
X2279780D01*
Y3425000D01*
G03X2280510Y3420760I12719J7D01*
G02X2270930Y3407220I-9580J-3381D01*
G01X2229000D01*
G03X2216280Y3394500I0J-12720D01*
G01Y3247500D01*
G03X2229000Y3234780I12720J0D01*
G01X2331000D01*
G03X2343720Y3247500I0J12720D01*
G01Y3394500D01*
G03X2339400Y3404050I-12718J-1D01*
G02X2337840Y3417600I6704J7637D01*
G03X2340220Y3425000I-10338J7408D01*
G01Y3441250D01*
G02X2357560Y3448440I10160J2D01*
G01X2364000Y3442000D01*
Y3010000D01*
X2341000Y2987000D01*
X2109000D01*
X2041000Y3055000D01*
Y3065140D01*
G02X2053310Y3075070I10160J0D01*
G03X2056000Y3074780I2701J12429D01*
G01X2081000D01*
G03X2093720Y3087500I0J12720D01*
G01Y3122500D01*
G03X2081000Y3135220I-12720J0D01*
G01X2056000D01*
G03X2053310Y3134930I11J-12719D01*
G02X2041000Y3144860I-2150J9930D01*
G01Y3175780D01*
X2079000D01*
G03X2091720Y3188500I0J12720D01*
G01Y3223500D01*
G03X2079000Y3236220I-12720J0D01*
G01X2041000D01*
Y3290940D01*
G02X2052860Y3300960I10159J4D01*
G03X2055000Y3300780I2132J12541D01*
G01X2080000D01*
G03X2092720Y3313500I0J12720D01*
G01Y3348500D01*
G03X2080000Y3361220I-12720J0D01*
G01X2055000D01*
G03X2052860Y3361040I-8J-12721D01*
G02X2041000Y3371060I-1701J10016D01*
G01Y3448000D01*
X2054000Y3461000D01*
X2160780D01*
Y3426000D01*
G03X2173500Y3413280I12720J0D01*
G01X2208500D01*
G03X2221220Y3426000I0J12720D01*
G01Y3461000D01*
G37*
G36*
G01X2322000Y5582000D02*
X2410000D01*
X2431000Y5561000D01*
Y5240140D01*
G02X2416030Y5231200I-10158J6D01*
G03X2410000Y5232720I-6030J-11201D01*
G01X2340000D01*
G03X2327280Y5220000I0J-12720D01*
G01Y5160000D01*
G03X2340000Y5147280I12720J0D01*
G01X2410000D01*
G03X2416030Y5148800I0J12721D01*
G02X2429430Y5134430I4810J-8947D01*
G01X2418000Y5123000D01*
X2319000D01*
X2309000Y5133000D01*
Y5569000D01*
X2322000Y5582000D01*
G37*
G36*
G01X2622000Y2482000D02*
X2730000D01*
X2744000Y2468000D01*
Y1934000D01*
X2726000Y1916000D01*
X2617000D01*
X2601000Y1932000D01*
Y2461000D01*
X2622000Y2482000D01*
G37*
G36*
G01X2936000Y3765000D02*
X3184000D01*
X3217480Y3731520D01*
Y3716900D01*
G03X3219090Y3711750I9022J-6D01*
G01X3220000Y3710450D01*
Y3582140D01*
G02X3205030Y3573200I-10158J6D01*
G03X3199000Y3574720I-6030J-11201D01*
G01X3129000D01*
G03X3116280Y3562000I0J-12720D01*
G01Y3502000D01*
G03X3129000Y3489280I12720J0D01*
G01X3199000D01*
G03X3205030Y3490800I0J12721D01*
G02X3220000Y3481860I4812J-8946D01*
G01Y3075000D01*
X3176000Y3031000D01*
X2910000D01*
X2788000Y3153000D01*
Y3662000D01*
X2863000Y3737000D01*
X2908000D01*
X2936000Y3765000D01*
G37*
G36*
G01X2901000Y4387000D02*
X3161000D01*
X3172000Y4376000D01*
Y4353650D01*
G02X3157470Y4344480I-10159J1D01*
G03X3152000Y4345720I-5479J-11483D01*
G01X3082000D01*
G03X3069280Y4333000I0J-12720D01*
G01Y4273000D01*
G03X3082000Y4260280I12720J0D01*
G01X3152000D01*
G03X3157470Y4261520I-9J12723D01*
G02X3172000Y4252350I4371J-9171D01*
G01Y4240000D01*
X3201000Y4211000D01*
Y4038000D01*
X3177000Y4014000D01*
X2975000D01*
X2962000Y4001000D01*
X2828000D01*
X2806000Y4023000D01*
Y4292000D01*
X2901000Y4387000D01*
G37*
G36*
G01X3184720Y4390000D02*
X3236000D01*
X3249000Y4377000D01*
X3288860D01*
G02X3297800Y4362030I-6J-10158D01*
G03X3296280Y4356000I11201J-6030D01*
G01Y4286000D01*
G03X3309000Y4273280I12720J0D01*
G01X3369000D01*
G03X3381720Y4286000I0J12720D01*
G01Y4356000D01*
G03X3380200Y4362030I-12721J0D01*
G02X3389140Y4377000I8946J4812D01*
G01X3461000D01*
X3479000Y4359000D01*
Y4340720D01*
X3421000D01*
G03X3408280Y4328000I0J-12720D01*
G01Y4286000D01*
G03X3421000Y4273280I12720J0D01*
G01X3479000D01*
Y4250000D01*
X3447000Y4218000D01*
X3211990D01*
X3184720Y4245270D01*
Y4260420D01*
X3190120D01*
X3190430Y4260380D01*
G03X3192000Y4260280I1592J12624D01*
G01X3262000D01*
G03X3274720Y4273000I0J12720D01*
G01Y4333000D01*
G03X3262000Y4345720I-12720J0D01*
G01X3184720D01*
Y4390000D01*
G37*
G36*
G01X4328720Y4473000D02*
X4373000D01*
X4407000Y4439000D01*
Y4165000D01*
X4378000Y4136000D01*
X4343720D01*
Y4191000D01*
G03X4331000Y4203720I-12720J0D01*
G01X4289000D01*
G03X4276280Y4191000I0J-12720D01*
G01Y4136000D01*
X4247720D01*
Y4189000D01*
G03X4235000Y4201720I-12720J0D01*
G01X4193000D01*
G03X4180280Y4189000I0J-12720D01*
G01Y4136000D01*
X4141720D01*
Y4191000D01*
G03X4129000Y4203720I-12720J0D01*
G01X4087000D01*
G03X4074280Y4191000I0J-12720D01*
G01Y4167250D01*
G02X4056940Y4160060I-10160J-2D01*
G01X4004000Y4213000D01*
Y4437000D01*
X4040000Y4473000D01*
X4069280D01*
Y4431000D01*
G03X4082000Y4418280I12720J0D01*
G01X4124000D01*
G03X4136720Y4431000I0J12720D01*
G01Y4473000D01*
X4173280D01*
Y4420000D01*
G03X4186000Y4407280I12720J0D01*
G01X4228000D01*
G03X4240720Y4420000I0J12720D01*
G01Y4473000D01*
X4261280D01*
Y4420000D01*
G03X4274000Y4407280I12720J0D01*
G01X4316000D01*
G03X4328720Y4420000I0J12720D01*
G01Y4473000D01*
G37*
G36*
G01X4816220Y4478000D02*
X4869000D01*
X4915230Y4431770D01*
G02X4915010Y4417190I-7186J-7183D01*
G03X4906280Y4397000I18982J-20190D01*
G03X4921480Y4372270I27718J0D01*
G01Y4321000D01*
G03X4921810Y4318570I9022J-12D01*
G01X4922000Y4317900D01*
Y4308820D01*
X4915560D01*
X4914370Y4309510D01*
G03X4908000Y4311220I-6370J-11010D01*
G01X4848000D01*
G03X4835280Y4298500I0J-12720D01*
G01Y4273500D01*
G03X4835420Y4271640I12718J22D01*
G02X4825370Y4260000I-10053J-1479D01*
G01X4637000D01*
X4538000Y4161000D01*
X4435000D01*
X4419720Y4176280D01*
Y4213830D01*
G02X4431270Y4223890I10158J-3D01*
G03X4433000Y4223780I1670J12609D01*
G01X4553000D01*
G03X4565720Y4236500I0J12720D01*
G01Y4381500D01*
G03X4553000Y4394220I-12720J0D01*
G01X4433000D01*
G03X4431270Y4394110I-60J-12719D01*
G02X4419720Y4404170I-1392J10063D01*
G01Y4445720D01*
X4452000Y4478000D01*
X4482280D01*
Y4422000D01*
G03X4495000Y4409280I12720J0D01*
G01X4537000D01*
G03X4540190Y4409690I-13J12718D01*
G03X4546000Y4408280I5820J11308D01*
G01X4588000D01*
G03X4593500Y4409530I0J12725D01*
G03X4599000Y4408280I5500J11475D01*
G01X4643780D01*
Y4366000D01*
G03X4656500Y4353280I12720J0D01*
G01X4803500D01*
G03X4816220Y4366000I0J12720D01*
G01Y4478000D01*
G37*
G36*
G01X4860860Y9327000D02*
X4873000D01*
X4908000Y9292000D01*
Y9254860D01*
G02X4895690Y9244930I-10160J0D01*
G03X4893000Y9245220I-2701J-12429D01*
G01X4868000D01*
G03X4855280Y9232500I0J-12720D01*
G01Y9197500D01*
G03X4868000Y9184780I12720J0D01*
G01X4893000D01*
G03X4895690Y9185070I-11J12719D01*
G02X4908000Y9175140I2150J-9930D01*
G01Y9169480D01*
X4901180D01*
X4899800Y9170540D01*
G03X4892000Y9173220I-7809J-10037D01*
G01X4867000D01*
G03X4854280Y9160500I0J-12720D01*
G01Y9125500D01*
G03X4867000Y9112780I12720J0D01*
G01X4892000D01*
G03X4895250Y9113200I8J12721D01*
G02X4908000Y9103380I2591J-9823D01*
G01Y8679000D01*
X4878000Y8649000D01*
X4457000D01*
X4437000Y8669000D01*
Y8889920D01*
G02X4452420Y8898620I10161J5D01*
G03X4459000Y8896780I6589J10877D01*
G01X4484000D01*
G03X4496720Y8909500I0J12720D01*
G01Y8944500D01*
G03X4484000Y8957220I-12720J0D01*
G01X4459000D01*
G03X4452420Y8955380I9J-12717D01*
G02X4437000Y8964080I-5259J8695D01*
G01Y8969400D01*
G02X4451090Y8978770I10161J-1D01*
G03X4456000Y8977780I4920J11728D01*
G01X4481000D01*
G03X4493720Y8990500I0J12720D01*
G01Y9025500D01*
G03X4481000Y9038220I-12720J0D01*
G01X4456000D01*
G03X4451090Y9037230I10J-12718D01*
G02X4437000Y9046600I-3929J9371D01*
G01Y9061010D01*
G02X4450640Y9070550I10160J-5D01*
G03X4455000Y9069780I4360J11959D01*
G01X4480000D01*
G03X4492720Y9082500I0J12720D01*
G01Y9117500D01*
G03X4480000Y9130220I-12720J0D01*
G01X4455000D01*
G03X4450640Y9129450I0J-12729D01*
G02X4437000Y9138990I-3480J9545D01*
G01Y9163380D01*
G02X4449750Y9173200I10159J-3D01*
G03X4453000Y9172780I3242J12301D01*
G01X4478000D01*
G03X4490720Y9185500I0J12720D01*
G01Y9220500D01*
G03X4478000Y9233220I-12720J0D01*
G01X4453000D01*
G03X4449750Y9232800I-8J-12721D01*
G02X4437000Y9242620I-2591J9823D01*
G01Y9290000D01*
X4474000Y9327000D01*
X4515010D01*
G02X4524550Y9313360I-5J-10160D01*
G03X4523780Y9309000I11959J-4360D01*
G01Y9284000D01*
G03X4536500Y9271280I12720J0D01*
G01X4571500D01*
G03X4584220Y9284000I0J12720D01*
G01Y9309000D01*
G03X4583450Y9313360I-12729J0D01*
G02X4592990Y9327000I9545J3480D01*
G01X4603400D01*
G02X4612770Y9312910I-1J-10161D01*
G03X4611780Y9308000I11728J-4920D01*
G01Y9283000D01*
G03X4624500Y9270280I12720J0D01*
G01X4659500D01*
G03X4672220Y9283000I0J12720D01*
G01Y9308000D01*
G03X4671230Y9312910I-12718J-10D01*
G02X4680600Y9327000I9371J3929D01*
G01X4689140D01*
G02X4699070Y9314690I0J-10160D01*
G03X4698780Y9312000I12429J-2701D01*
G01Y9287000D01*
G03X4711500Y9274280I12720J0D01*
G01X4746500D01*
G03X4759220Y9287000I0J12720D01*
G01Y9312000D01*
G03X4758930Y9314690I-12719J-11D01*
G02X4768860Y9327000I9930J2150D01*
G01X4781140D01*
G02X4791070Y9314690I0J-10160D01*
G03X4790780Y9312000I12429J-2701D01*
G01Y9287000D01*
G03X4803500Y9274280I12720J0D01*
G01X4838500D01*
G03X4851220Y9287000I0J12720D01*
G01Y9312000D01*
G03X4850930Y9314690I-12719J-11D01*
G02X4860860Y9327000I9930J2150D01*
G37*
G36*
G01X6216210Y10329000D02*
X6225000D01*
X6244000Y10310000D01*
Y8740000D01*
X6214000Y8710000D01*
X6029060D01*
G02X6019040Y8721860I-4J10159D01*
G03X6019220Y8724000I-12541J2132D01*
G01Y8749000D01*
G03X6006500Y8761720I-12720J0D01*
G01X5971500D01*
G03X5958780Y8749000I0J-12720D01*
G01Y8724000D01*
G03X5958960Y8721860I12721J-8D01*
G02X5948940Y8710000I-10016J-1701D01*
G01X5812540D01*
X5811330Y8710730D01*
G03X5782670I-14330J-23738D01*
G01X5781460Y8710000D01*
X5627000D01*
X5584000Y8753000D01*
Y9895670D01*
G02X5597200Y9905360I10159J-4D01*
G03X5601000Y9904780I3797J12140D01*
G01X5626000D01*
G03X5638720Y9917500I0J12720D01*
G01Y9952500D01*
G03X5626000Y9965220I-12720J0D01*
G01X5601000D01*
G03X5598430Y9964960I-11J-12721D01*
G02X5586220Y9974910I-2051J9950D01*
G01Y9984600D01*
G02X5599320Y9994320I10158J-3D01*
G03X5603000Y9993780I3667J12182D01*
G01X5628000D01*
G03X5640720Y10006500I0J12720D01*
G01Y10041500D01*
G03X5628000Y10054220I-12720J0D01*
G01X5603000D01*
G03X5600430Y10053960I-11J-12721D01*
G02X5588220Y10063910I-2051J9950D01*
G01Y10076170D01*
X5595200D01*
X5596640Y10074910D01*
G03X5605000Y10071780I8360J9599D01*
G01X5630000D01*
G03X5642720Y10084500I0J12720D01*
G01Y10119500D01*
G03X5630000Y10132220I-12720J0D01*
G01X5605000D01*
G03X5602430Y10131960I-11J-12721D01*
G02X5590220Y10141910I-2051J9950D01*
G01Y10149930D01*
G02X5603760Y10159510I10160J-2D01*
G03X5608000Y10158780I4247J11989D01*
G01X5633000D01*
G03X5645720Y10171500I0J12720D01*
G01Y10206500D01*
G03X5633000Y10219220I-12720J0D01*
G01X5608000D01*
G03X5595880Y10210350I0J-12715D01*
G02X5586340Y10209940I-4845J1530D01*
G03X5585090Y10212080I-8341J-3437D01*
G01X5584000Y10213460D01*
Y10231000D01*
X5682000Y10329000D01*
X5695360D01*
Y10321970D01*
X5694050Y10320520D01*
G03X5690780Y10312000I9452J-8515D01*
G01Y10287000D01*
G03X5703500Y10274280I12720J0D01*
G01X5738500D01*
G03X5751220Y10287000I0J12720D01*
G01Y10312000D01*
G03X5750960Y10314570I-12721J11D01*
G02X5760910Y10326780I9950J2051D01*
G01X5769090D01*
G02X5779040Y10314570I0J-10159D01*
G03X5778780Y10312000I12461J-2559D01*
G01Y10287000D01*
G03X5791500Y10274280I12720J0D01*
G01X5826500D01*
G03X5839220Y10287000I0J12720D01*
G01Y10312000D01*
G03X5838640Y10315800I-12720J3D01*
G02X5848330Y10329000I9694J3041D01*
G01X6070940D01*
G02X6080960Y10317140I4J-10159D01*
G03X6080780Y10315000I12541J-2132D01*
G01Y10290000D01*
G03X6093500Y10277280I12720J0D01*
G01X6128500D01*
G03X6141220Y10290000I0J12720D01*
G01Y10315000D01*
G03X6141040Y10317140I-12721J8D01*
G02X6156780Y10327230I10015J1698D01*
G01Y10293000D01*
G03X6169500Y10280280I12720J0D01*
G01X6204500D01*
G03X6217220Y10293000I0J12720D01*
G01Y10318000D01*
G03X6216500Y10322230I-12722J11D01*
G01X6216210Y10323050D01*
Y10329000D01*
G37*
G36*
G01X6150780Y7152000D02*
X6163000D01*
X6196000Y7119000D01*
Y6617650D01*
G02X6181030Y6608700I-10159J-2D01*
G03X6175000Y6610220I-6030J-11202D01*
G01X6073000D01*
G03X6060280Y6597500I0J-12720D01*
G01Y6450500D01*
G03X6073000Y6437780I12720J0D01*
G01X6175000D01*
G03X6181030Y6439300I0J12722D01*
G02X6196000Y6430350I4811J-8948D01*
G01Y6187000D01*
X6151000Y6142000D01*
X6032220D01*
Y6176000D01*
G03X6019500Y6188720I-12720J0D01*
G01X5984500D01*
G03X5971780Y6176000I0J-12720D01*
G01Y6142000D01*
X5928220D01*
Y6175000D01*
G03X5915500Y6187720I-12720J0D01*
G01X5880500D01*
G03X5867780Y6175000I0J-12720D01*
G01Y6142000D01*
X5836000D01*
X5798000Y6180000D01*
Y6238780D01*
X5835000D01*
G03X5847720Y6251500I0J12720D01*
G01Y6286500D01*
G03X5835000Y6299220I-12720J0D01*
G01X5798000D01*
Y7103000D01*
X5847000Y7152000D01*
X5855180D01*
Y7145560D01*
X5854490Y7144370D01*
G03X5852780Y7138000I11010J-6370D01*
G01Y7113000D01*
G03X5865500Y7100280I12720J0D01*
G01X5900500D01*
G03X5913220Y7113000I0J12720D01*
G01Y7138000D01*
G03X5913040Y7140140I-12721J8D01*
G02X5923060Y7152000I10016J1701D01*
G01X5942780D01*
Y7119000D01*
G03X5955500Y7106280I12720J0D01*
G01X5990500D01*
G03X6003220Y7119000I0J12720D01*
G01Y7144000D01*
G03X6003050Y7146090I-12721J17D01*
G01X6002980Y7146500D01*
Y7152000D01*
X6020220D01*
Y7146350D01*
X6020090Y7145800D01*
G03X6019780Y7143000I12411J-2791D01*
G01Y7118000D01*
G03X6032500Y7105280I12720J0D01*
G01X6067500D01*
G03X6080220Y7118000I0J12720D01*
G01Y7143000D01*
G03X6079910Y7145800I-12721J9D01*
G01X6079780Y7146350D01*
Y7152000D01*
X6091220D01*
Y7146350D01*
X6091090Y7145800D01*
G03X6090780Y7143000I12411J-2791D01*
G01Y7118000D01*
G03X6103500Y7105280I12720J0D01*
G01X6138500D01*
G03X6151220Y7118000I0J12720D01*
G01Y7143000D01*
G03X6150910Y7145800I-12721J9D01*
G01X6150780Y7146350D01*
Y7152000D01*
G37*
G36*
G01X8692000Y13569000D02*
X8918000D01*
X8929280Y13557720D01*
Y13541170D01*
G02X8917730Y13531110I-10158J3D01*
G03X8916000Y13531220I-1670J-12609D01*
G01X8796000D01*
G03X8783280Y13518500I0J-12720D01*
G01Y13374720D01*
X8756500D01*
G03X8743780Y13362000I0J-12720D01*
G01Y13260000D01*
G03X8756500Y13247280I12720J0D01*
G01X8903500D01*
G03X8916220Y13260000I0J12720D01*
G01Y13360240D01*
X8919780Y13361350D01*
G03X8921860Y13362210I-3801J12138D01*
G01X8922960Y13362780D01*
X8929280D01*
Y13228280D01*
X8927000Y13226000D01*
X8708000D01*
X8633000Y13301000D01*
Y13510000D01*
X8692000Y13569000D01*
G37*
G36*
G01X9016000Y13649000D02*
X9269000D01*
X9311000Y13607000D01*
Y13486830D01*
G02X9297800Y13477140I-10159J4D01*
G03X9294000Y13477720I-3797J-12140D01*
G01X9248000D01*
G03X9235280Y13465000I0J-12720D01*
G01Y13423000D01*
G03X9248000Y13410280I12720J0D01*
G01X9294000D01*
G03X9297800Y13410860I3J12720D01*
G02X9311000Y13401170I3041J-9694D01*
G01Y13351720D01*
X9253000D01*
G03X9240280Y13339000I0J-12720D01*
G01Y13297000D01*
G03X9253000Y13284280I12720J0D01*
G01X9311000D01*
Y13163000D01*
X9279000Y13131000D01*
X9001000D01*
X8942000Y13190000D01*
Y13575000D01*
X9016000Y13649000D01*
G37*
%LPC*%
G75*
G36*
G01X411780Y8486000D02*
Y8588000D01*
G02X424500Y8600720I12720J0D01*
G01X571500D01*
G02X584220Y8588000I0J-12720D01*
G01Y8486000D01*
G02X571500Y8473280I-12720J0D01*
G01X424500D01*
G02X411780Y8486000I0J12720D01*
G37*
G36*
G01X558280Y8240500D02*
Y8387500D01*
G02X571000Y8400220I12720J0D01*
G01X673000D01*
G02X685720Y8387500I0J-12720D01*
G01Y8240500D01*
G02X673000Y8227780I-12720J0D01*
G01X571000D01*
G02X558280Y8240500I0J12720D01*
G37*
G36*
G01X278280Y8238500D02*
Y8385500D01*
G02X291000Y8398220I12720J0D01*
G01X393000D01*
G02X405720Y8385500I0J-12720D01*
G01Y8238500D01*
G02X393000Y8225780I-12720J0D01*
G01X291000D01*
G02X278280Y8238500I0J12720D01*
G37*
G36*
G01X572280Y7958500D02*
Y8105500D01*
G02X585000Y8118220I12720J0D01*
G01X687000D01*
G02X699720Y8105500I0J-12720D01*
G01Y7958500D01*
G02X687000Y7945780I-12720J0D01*
G01X585000D01*
G02X572280Y7958500I0J12720D01*
G37*
G36*
G01X284280Y7951500D02*
Y8098500D01*
G02X297000Y8111220I12720J0D01*
G01X399000D01*
G02X411720Y8098500I0J-12720D01*
G01Y7951500D01*
G02X399000Y7938780I-12720J0D01*
G01X297000D01*
G02X284280Y7951500I0J12720D01*
G37*
G36*
G01X574280Y7681500D02*
Y7828500D01*
G02X587000Y7841220I12720J0D01*
G01X689000D01*
G02X701720Y7828500I0J-12720D01*
G01Y7681500D01*
G02X689000Y7668780I-12720J0D01*
G01X587000D01*
G02X574280Y7681500I0J12720D01*
G37*
G36*
G01X276280Y7670500D02*
Y7817500D01*
G02X289000Y7830220I12720J0D01*
G01X391000D01*
G02X403720Y7817500I0J-12720D01*
G01Y7670500D01*
G02X391000Y7657780I-12720J0D01*
G01X289000D01*
G02X276280Y7670500I0J12720D01*
G37*
G36*
G01X579280Y7400500D02*
Y7547500D01*
G02X592000Y7560220I12720J0D01*
G01X694000D01*
G02X706720Y7547500I0J-12720D01*
G01Y7400500D01*
G02X694000Y7387780I-12720J0D01*
G01X592000D01*
G02X579280Y7400500I0J12720D01*
G37*
G36*
G01X281280Y7402500D02*
Y7549500D01*
G02X294000Y7562220I12720J0D01*
G01X396000D01*
G02X408720Y7549500I0J-12720D01*
G01Y7402500D01*
G02X396000Y7389780I-12720J0D01*
G01X294000D01*
G02X281280Y7402500I0J12720D01*
G37*
G36*
G01X574280Y7138500D02*
Y7285500D01*
G02X587000Y7298220I12720J0D01*
G01X689000D01*
G02X701720Y7285500I0J-12720D01*
G01Y7138500D01*
G02X689000Y7125780I-12720J0D01*
G01X587000D01*
G02X574280Y7138500I0J12720D01*
G37*
G36*
G01X283280Y7129500D02*
Y7276500D01*
G02X296000Y7289220I12720J0D01*
G01X398000D01*
G02X410720Y7276500I0J-12720D01*
G01Y7129500D01*
G02X398000Y7116780I-12720J0D01*
G01X296000D01*
G02X283280Y7129500I0J12720D01*
G37*
G36*
G01X582280Y6846500D02*
Y6993500D01*
G02X595000Y7006220I12720J0D01*
G01X697000D01*
G02X709720Y6993500I0J-12720D01*
G01Y6846500D01*
G02X697000Y6833780I-12720J0D01*
G01X595000D01*
G02X582280Y6846500I0J12720D01*
G37*
G36*
G01X283280Y6845500D02*
Y6992500D01*
G02X296000Y7005220I12720J0D01*
G01X398000D01*
G02X410720Y6992500I0J-12720D01*
G01Y6845500D01*
G02X398000Y6832780I-12720J0D01*
G01X296000D01*
G02X283280Y6845500I0J12720D01*
G37*
G36*
G01X585280Y6590500D02*
Y6737500D01*
G02X598000Y6750220I12720J0D01*
G01X700000D01*
G02X712720Y6737500I0J-12720D01*
G01Y6590500D01*
G02X700000Y6577780I-12720J0D01*
G01X598000D01*
G02X585280Y6590500I0J12720D01*
G37*
G36*
G01X280280Y6585500D02*
Y6732500D01*
G02X293000Y6745220I12720J0D01*
G01X395000D01*
G02X407720Y6732500I0J-12720D01*
G01Y6585500D01*
G02X395000Y6572780I-12720J0D01*
G01X293000D01*
G02X280280Y6585500I0J12720D01*
G37*
G36*
G01X589280Y6326500D02*
Y6473500D01*
G02X602000Y6486220I12720J0D01*
G01X704000D01*
G02X716720Y6473500I0J-12720D01*
G01Y6326500D01*
G02X704000Y6313780I-12720J0D01*
G01X602000D01*
G02X589280Y6326500I0J12720D01*
G37*
G36*
G01X280280Y6302500D02*
Y6449500D01*
G02X293000Y6462220I12720J0D01*
G01X395000D01*
G02X407720Y6449500I0J-12720D01*
G01Y6302500D01*
G02X395000Y6289780I-12720J0D01*
G01X293000D01*
G02X280280Y6302500I0J12720D01*
G37*
G36*
G01X567780Y6001000D02*
Y6103000D01*
G02X580500Y6115720I12720J0D01*
G01X727500D01*
G02X740220Y6103000I0J-12720D01*
G01Y6001000D01*
G02X727500Y5988280I-12720J0D01*
G01X580500D01*
G02X567780Y6001000I0J12720D01*
G37*
G36*
G01X282280Y5940500D02*
Y6087500D01*
G02X295000Y6100220I12720J0D01*
G01X397000D01*
G02X409720Y6087500I0J-12720D01*
G01Y5940500D01*
G02X397000Y5927780I-12720J0D01*
G01X295000D01*
G02X282280Y5940500I0J12720D01*
G37*
G36*
G01X553770Y1720560D02*
Y1839940D01*
G02X566490Y1852660I12720J0D01*
G01X642690D01*
G02X655410Y1839940I0J-12720D01*
G01Y1720560D01*
G02X642690Y1707840I-12720J0D01*
G01X566490D01*
G02X553770Y1720560I0J12720D01*
G37*
G36*
G01Y1530060D02*
Y1649440D01*
G02X566490Y1662160I12720J0D01*
G01X642690D01*
G02X655410Y1649440I0J-12720D01*
G01Y1530060D01*
G02X642690Y1517340I-12720J0D01*
G01X566490D01*
G02X553770Y1530060I0J12720D01*
G37*
G36*
G01X1333780Y6018000D02*
Y6120000D01*
G02X1346500Y6132720I12720J0D01*
G01X1493500D01*
G02X1506220Y6120000I0J-12720D01*
G01Y6018000D01*
G02X1493500Y6005280I-12720J0D01*
G01X1346500D01*
G02X1333780Y6018000I0J12720D01*
G37*
G36*
G01X1103780D02*
Y6120000D01*
G02X1116500Y6132720I12720J0D01*
G01X1263500D01*
G02X1276220Y6120000I0J-12720D01*
G01Y6018000D01*
G02X1263500Y6005280I-12720J0D01*
G01X1116500D01*
G02X1103780Y6018000I0J12720D01*
G37*
G36*
G01X874780Y6015000D02*
Y6115000D01*
G02X887500Y6127720I12720J0D01*
G01X1032500D01*
G02X1045220Y6115000I0J-12720D01*
G01Y6015000D01*
G02X1032500Y6002280I-12720J0D01*
G01X887500D01*
G02X874780Y6015000I0J12720D01*
G37*
G36*
G01X1343780Y4290000D02*
Y4392000D01*
G02X1356500Y4404720I12720J0D01*
G01X1503500D01*
G02X1516220Y4392000I0J-12720D01*
G01Y4290000D01*
G02X1503500Y4277280I-12720J0D01*
G01X1356500D01*
G02X1343780Y4290000I0J12720D01*
G37*
G36*
G01X1153780D02*
Y4392000D01*
G02X1166500Y4404720I12720J0D01*
G01X1313500D01*
G02X1326220Y4392000I0J-12720D01*
G01Y4290000D01*
G02X1313500Y4277280I-12720J0D01*
G01X1166500D01*
G02X1153780Y4290000I0J12720D01*
G37*
G36*
G01X1334780Y5655000D02*
Y5775000D01*
G02X1347500Y5787720I12720J0D01*
G01X1492500D01*
G02X1505220Y5775000I0J-12720D01*
G01Y5655000D01*
G02X1492500Y5642280I-12720J0D01*
G01X1347500D01*
G02X1334780Y5655000I0J12720D01*
G37*
G36*
G01X1354780Y4665000D02*
Y4785000D01*
G02X1367500Y4797720I12720J0D01*
G01X1512500D01*
G02X1525220Y4785000I0J-12720D01*
G01Y4665000D01*
G02X1512500Y4652280I-12720J0D01*
G01X1367500D01*
G02X1354780Y4665000I0J12720D01*
G37*
G36*
G01X1812280Y4697500D02*
Y4842500D01*
G02X1825000Y4855220I12720J0D01*
G01X1945000D01*
G02X1957720Y4842500I0J-12720D01*
G01Y4697500D01*
G02X1945000Y4684780I-12720J0D01*
G01X1825000D01*
G02X1812280Y4697500I0J12720D01*
G37*
G36*
G01X2152280Y4917500D02*
Y5062500D01*
G02X2165000Y5075220I12720J0D01*
G01X2265000D01*
G02X2277720Y5062500I0J-12720D01*
G01Y4917500D01*
G02X2265000Y4904780I-12720J0D01*
G01X2165000D01*
G02X2152280Y4917500I0J12720D01*
G37*
G36*
G01X2155280Y4726500D02*
Y4873500D01*
G02X2168000Y4886220I12720J0D01*
G01X2270000D01*
G02X2282720Y4873500I0J-12720D01*
G01Y4726500D01*
G02X2270000Y4713780I-12720J0D01*
G01X2168000D01*
G02X2155280Y4726500I0J12720D01*
G37*
G36*
G01X2013780Y5908000D02*
Y6010000D01*
G02X2026500Y6022720I12720J0D01*
G01X2173500D01*
G02X2186220Y6010000I0J-12720D01*
G01Y5908000D01*
G02X2173500Y5895280I-12720J0D01*
G01X2026500D01*
G02X2013780Y5908000I0J12720D01*
G37*
G36*
G01X2221280Y3021500D02*
Y3168500D01*
G02X2234000Y3181220I12720J0D01*
G01X2336000D01*
G02X2348720Y3168500I0J-12720D01*
G01Y3021500D01*
G02X2336000Y3008780I-12720J0D01*
G01X2234000D01*
G02X2221280Y3021500I0J12720D01*
G37*
G36*
G01X2322280Y5485000D02*
Y5545000D01*
G02X2335000Y5557720I12720J0D01*
G01X2405000D01*
G02X2417720Y5545000I0J-12720D01*
G01Y5485000D01*
G02X2405000Y5472280I-12720J0D01*
G01X2335000D01*
G02X2322280Y5485000I0J12720D01*
G37*
G36*
G01X2324280Y5382000D02*
Y5442000D01*
G02X2337000Y5454720I12720J0D01*
G01X2407000D01*
G02X2419720Y5442000I0J-12720D01*
G01Y5382000D01*
G02X2407000Y5369280I-12720J0D01*
G01X2337000D01*
G02X2324280Y5382000I0J12720D01*
G37*
G36*
G01X2323280Y5274000D02*
Y5334000D01*
G02X2336000Y5346720I12720J0D01*
G01X2406000D01*
G02X2418720Y5334000I0J-12720D01*
G01Y5274000D01*
G02X2406000Y5261280I-12720J0D01*
G01X2336000D01*
G02X2323280Y5274000I0J12720D01*
G37*
G36*
G01X2614280Y2373000D02*
Y2433000D01*
G02X2627000Y2445720I12720J0D01*
G01X2697000D01*
G02X2709720Y2433000I0J-12720D01*
G01Y2373000D01*
G02X2707520Y2365860I-12719J10D01*
G03Y2360140I4202J-2860D01*
G02X2709720Y2353000I-10519J-7150D01*
G01Y2293000D01*
G02X2707520Y2285860I-12719J10D01*
G03Y2280140I4202J-2860D01*
G02X2709720Y2273000I-10519J-7150D01*
G01Y2213000D01*
G02X2707520Y2205860I-12719J10D01*
G03Y2200140I4202J-2860D01*
G02X2709720Y2193000I-10519J-7150D01*
G01Y2133000D01*
G02X2707520Y2125860I-12719J10D01*
G03Y2120140I4202J-2860D01*
G02X2709720Y2113000I-10519J-7150D01*
G01Y2053000D01*
G02X2707520Y2045860I-12719J10D01*
G03Y2040140I4202J-2860D01*
G02X2709720Y2033000I-10519J-7150D01*
G01Y1973000D01*
G02X2697000Y1960280I-12720J0D01*
G01X2627000D01*
G02X2614280Y1973000I0J12720D01*
G01Y2033000D01*
G02X2616480Y2040140I12719J-10D01*
G03Y2045860I-4202J2860D01*
G02X2614280Y2053000I10519J7150D01*
G01Y2113000D01*
G02X2616480Y2120140I12719J-10D01*
G03Y2125860I-4202J2860D01*
G02X2614280Y2133000I10519J7150D01*
G01Y2193000D01*
G02X2616480Y2200140I12719J-10D01*
G03Y2205860I-4202J2860D01*
G02X2614280Y2213000I10519J7150D01*
G01Y2273000D01*
G02X2616480Y2280140I12719J-10D01*
G03Y2285860I-4202J2860D01*
G02X2614280Y2293000I10519J7150D01*
G01Y2353000D01*
G02X2616480Y2360140I12719J-10D01*
G03Y2365860I-4202J2860D01*
G02X2614280Y2373000I10519J7150D01*
G37*
G36*
G01X3001830Y3664000D02*
Y3729000D01*
G02X3014550Y3741720I12720J0D01*
G01X3167050D01*
G02X3179770Y3729000I0J-12720D01*
G01Y3664000D01*
G02X3167050Y3651280I-12720J0D01*
G01X3014550D01*
G02X3001830Y3664000I0J12720D01*
G37*
G36*
G01X3061280Y3308500D02*
Y3455500D01*
G02X3074000Y3468220I12720J0D01*
G01X3176000D01*
G02X3188720Y3455500I0J-12720D01*
G01Y3308500D01*
G02X3176000Y3295780I-12720J0D01*
G01X3074000D01*
G02X3061280Y3308500I0J12720D01*
G37*
G36*
G01X2998280Y3093000D02*
Y3223000D01*
G02X3011000Y3235720I12720J0D01*
G01X3181000D01*
G02X3193720Y3223000I0J-12720D01*
G01Y3093000D01*
G02X3181000Y3080280I-12720J0D01*
G01X3011000D01*
G02X2998280Y3093000I0J12720D01*
G37*
G36*
G01X3001830Y4045000D02*
Y4110000D01*
G02X3014550Y4122720I12720J0D01*
G01X3167050D01*
G02X3179770Y4110000I0J-12720D01*
G01Y4045000D01*
G02X3167050Y4032280I-12720J0D01*
G01X3014550D01*
G02X3001830Y4045000I0J12720D01*
G37*
G36*
G01X2829280Y4120500D02*
Y4267500D01*
G02X2842000Y4280220I12720J0D01*
G01X2944000D01*
G02X2956720Y4267500I0J-12720D01*
G01Y4120500D01*
G02X2944000Y4107780I-12720J0D01*
G01X2842000D01*
G02X2829280Y4120500I0J12720D01*
G37*
G36*
G01X4240280Y4236500D02*
Y4381500D01*
G02X4253000Y4394220I12720J0D01*
G01X4373000D01*
G02X4385720Y4381500I0J-12720D01*
G01Y4236500D01*
G02X4373000Y4223780I-12720J0D01*
G01X4253000D01*
G02X4240280Y4236500I0J12720D01*
G37*
G36*
G01X4024280Y4235500D02*
Y4382500D01*
G02X4037000Y4395220I12720J0D01*
G01X4139000D01*
G02X4151720Y4382500I0J-12720D01*
G01Y4235500D01*
G02X4139000Y4222780I-12720J0D01*
G01X4037000D01*
G02X4024280Y4235500I0J12720D01*
G37*
G36*
G01X4759280Y8934500D02*
Y9081500D01*
G02X4772000Y9094220I12720J0D01*
G01X4874000D01*
G02X4886720Y9081500I0J-12720D01*
G01Y8934500D01*
G02X4874000Y8921780I-12720J0D01*
G01X4772000D01*
G02X4759280Y8934500I0J12720D01*
G37*
G36*
G01X4758280Y8722500D02*
Y8869500D01*
G02X4771000Y8882220I12720J0D01*
G01X4873000D01*
G02X4885720Y8869500I0J-12720D01*
G01Y8722500D01*
G02X4873000Y8709780I-12720J0D01*
G01X4771000D01*
G02X4758280Y8722500I0J12720D01*
G37*
G36*
G01X4455280Y8702500D02*
Y8849500D01*
G02X4468000Y8862220I12720J0D01*
G01X4570000D01*
G02X4582720Y8849500I0J-12720D01*
G01Y8702500D01*
G02X4570000Y8689780I-12720J0D01*
G01X4468000D01*
G02X4455280Y8702500I0J12720D01*
G37*
G36*
G01X5878280Y10129000D02*
Y10299000D01*
G02X5891000Y10311720I12720J0D01*
G01X6021000D01*
G02X6033720Y10299000I0J-12720D01*
G01Y10129000D01*
G02X6021000Y10116280I-12720J0D01*
G01X5891000D01*
G02X5878280Y10129000I0J12720D01*
G37*
G36*
G01X6094280Y10083500D02*
Y10230500D01*
G02X6107000Y10243220I12720J0D01*
G01X6209000D01*
G02X6221720Y10230500I0J-12720D01*
G01Y10083500D01*
G02X6209000Y10070780I-12720J0D01*
G01X6107000D01*
G02X6094280Y10083500I0J12720D01*
G37*
G36*
G01X6098280Y9837500D02*
Y9984500D01*
G02X6111000Y9997220I12720J0D01*
G01X6213000D01*
G02X6225720Y9984500I0J-12720D01*
G01Y9837500D01*
G02X6213000Y9824780I-12720J0D01*
G01X6111000D01*
G02X6098280Y9837500I0J12720D01*
G37*
G36*
G01X5604280Y9717500D02*
Y9864500D01*
G02X5617000Y9877220I12720J0D01*
G01X5719000D01*
G02X5731720Y9864500I0J-12720D01*
G01Y9717500D01*
G02X5719000Y9704780I-12720J0D01*
G01X5617000D01*
G02X5604280Y9717500I0J12720D01*
G37*
G36*
G01X6099280Y9588500D02*
Y9735500D01*
G02X6112000Y9748220I12720J0D01*
G01X6214000D01*
G02X6226720Y9735500I0J-12720D01*
G01Y9588500D01*
G02X6214000Y9575780I-12720J0D01*
G01X6112000D01*
G02X6099280Y9588500I0J12720D01*
G37*
G36*
G01X5606280Y9467500D02*
Y9614500D01*
G02X5619000Y9627220I12720J0D01*
G01X5721000D01*
G02X5733720Y9614500I0J-12720D01*
G01Y9467500D01*
G02X5721000Y9454780I-12720J0D01*
G01X5619000D01*
G02X5606280Y9467500I0J12720D01*
G37*
G36*
G01X6101280Y9344500D02*
Y9491500D01*
G02X6114000Y9504220I12720J0D01*
G01X6216000D01*
G02X6228720Y9491500I0J-12720D01*
G01Y9344500D01*
G02X6216000Y9331780I-12720J0D01*
G01X6114000D01*
G02X6101280Y9344500I0J12720D01*
G37*
G36*
G01X5603280Y9249500D02*
Y9396500D01*
G02X5616000Y9409220I12720J0D01*
G01X5718000D01*
G02X5730720Y9396500I0J-12720D01*
G01Y9249500D01*
G02X5718000Y9236780I-12720J0D01*
G01X5616000D01*
G02X5603280Y9249500I0J12720D01*
G37*
G36*
G01X6095280Y9082500D02*
Y9229500D01*
G02X6108000Y9242220I12720J0D01*
G01X6210000D01*
G02X6222720Y9229500I0J-12720D01*
G01Y9082500D01*
G02X6210000Y9069780I-12720J0D01*
G01X6108000D01*
G02X6095280Y9082500I0J12720D01*
G37*
G36*
G01X5599280Y9028500D02*
Y9175500D01*
G02X5612000Y9188220I12720J0D01*
G01X5714000D01*
G02X5726720Y9175500I0J-12720D01*
G01Y9028500D01*
G02X5714000Y9015780I-12720J0D01*
G01X5612000D01*
G02X5599280Y9028500I0J12720D01*
G37*
G36*
G01X6097280Y8796500D02*
Y8943500D01*
G02X6110000Y8956220I12720J0D01*
G01X6212000D01*
G02X6224720Y8943500I0J-12720D01*
G01Y8796500D01*
G02X6212000Y8783780I-12720J0D01*
G01X6110000D01*
G02X6097280Y8796500I0J12720D01*
G37*
G36*
G01X5597280Y8803500D02*
Y8950500D01*
G02X5610000Y8963220I12720J0D01*
G01X5712000D01*
G02X5724720Y8950500I0J-12720D01*
G01Y8803500D01*
G02X5712000Y8790780I-12720J0D01*
G01X5610000D01*
G02X5597280Y8803500I0J12720D01*
G37*
G36*
G01X6050280Y6885500D02*
Y7032500D01*
G02X6063000Y7045220I12720J0D01*
G01X6165000D01*
G02X6177720Y7032500I0J-12720D01*
G01Y6885500D01*
G02X6165000Y6872780I-12720J0D01*
G01X6063000D01*
G02X6050280Y6885500I0J12720D01*
G37*
G36*
G01X5820280Y6872500D02*
Y7019500D01*
G02X5833000Y7032220I12720J0D01*
G01X5935000D01*
G02X5947720Y7019500I0J-12720D01*
G01Y6872500D01*
G02X5935000Y6859780I-12720J0D01*
G01X5833000D01*
G02X5820280Y6872500I0J12720D01*
G37*
G36*
G01X6053280Y6667500D02*
Y6814500D01*
G02X6066000Y6827220I12720J0D01*
G01X6168000D01*
G02X6180720Y6814500I0J-12720D01*
G01Y6667500D01*
G02X6168000Y6654780I-12720J0D01*
G01X6066000D01*
G02X6053280Y6667500I0J12720D01*
G37*
G36*
G01X5811280Y6613500D02*
Y6760500D01*
G02X5824000Y6773220I12720J0D01*
G01X5926000D01*
G02X5938720Y6760500I0J-12720D01*
G01Y6613500D01*
G02X5926000Y6600780I-12720J0D01*
G01X5824000D01*
G02X5811280Y6613500I0J12720D01*
G37*
G36*
G01Y6353500D02*
Y6500500D01*
G02X5824000Y6513220I12720J0D01*
G01X5926000D01*
G02X5938720Y6500500I0J-12720D01*
G01Y6353500D01*
G02X5926000Y6340780I-12720J0D01*
G01X5824000D01*
G02X5811280Y6353500I0J12720D01*
G37*
G36*
G01X6055280Y6202500D02*
Y6349500D01*
G02X6068000Y6362220I12720J0D01*
G01X6170000D01*
G02X6182720Y6349500I0J-12720D01*
G01Y6202500D01*
G02X6170000Y6189780I-12720J0D01*
G01X6068000D01*
G02X6055280Y6202500I0J12720D01*
G37*
G36*
G01X8953280Y13373500D02*
Y13518500D01*
G02X8966000Y13531220I12720J0D01*
G01X9086000D01*
G02X9098720Y13518500I0J-12720D01*
G01Y13373500D01*
G02X9086000Y13360780I-12720J0D01*
G01X8966000D01*
G02X8953280Y13373500I0J12720D01*
G37*
G36*
G01X9016780Y13168000D02*
Y13270000D01*
G02X9029500Y13282720I12720J0D01*
G01X9176500D01*
G02X9189220Y13270000I0J-12720D01*
G01Y13168000D01*
G02X9176500Y13155280I-12720J0D01*
G01X9029500D01*
G02X9016780Y13168000I0J12720D01*
G37*
%LPD*%
G75*
G54D10*
X184000Y6014000D03*
X182000Y6376000D03*
Y6659000D03*
X183000Y7476000D03*
X178000Y7744000D03*
X180000Y8312000D03*
X185000Y6919000D03*
Y7203000D03*
X186000Y8025000D03*
X346000Y6014000D03*
X344000Y6376000D03*
Y6659000D03*
X347000Y6919000D03*
Y7203000D03*
X345000Y7476000D03*
X340000Y7744000D03*
X348000Y8025000D03*
X342000Y8312000D03*
X653000Y6400000D03*
X649000Y6664000D03*
X646000Y6920000D03*
X638000Y7212000D03*
X643000Y7474000D03*
X638000Y7755000D03*
X636000Y8032000D03*
X622000Y8314000D03*
X889000Y5220000D03*
X815000Y6400000D03*
X811000Y6664000D03*
X808000Y6920000D03*
X800000Y7212000D03*
X805000Y7474000D03*
X800000Y7755000D03*
X798000Y8032000D03*
X784000Y8314000D03*
X1089000Y1630000D03*
X1079000Y1790000D03*
X1099000Y4780000D03*
X1051000Y5220000D03*
X1251000Y1630000D03*
X1241000Y1790000D03*
X1261000Y4780000D03*
X1555000Y1595000D03*
X1551000Y1782000D03*
X1717000Y1595000D03*
X1713000Y1782000D03*
X2285000Y3095000D03*
X2280000Y3321000D03*
X2219000Y4600000D03*
Y4800000D03*
X2447000Y3095000D03*
X2442000Y3321000D03*
X2381000Y4600000D03*
Y4800000D03*
X2603000Y5437000D03*
X2731000Y4194000D03*
X2765000Y5437000D03*
X2893000Y4194000D03*
X3125000Y3382000D03*
X3287000D03*
X3926000Y4309000D03*
X4088000D03*
X4357000Y8776000D03*
X4519000D03*
X4822000Y8796000D03*
X4823000Y9008000D03*
X4984000Y8796000D03*
X4985000Y9008000D03*
X5499000Y8877000D03*
X5501000Y9102000D03*
X5505000Y9323000D03*
X5508000Y9541000D03*
X5506000Y9791000D03*
X5661000Y8877000D03*
X5663000Y9102000D03*
X5713000Y6427000D03*
Y6687000D03*
X5722000Y6946000D03*
X5667000Y9323000D03*
X5670000Y9541000D03*
X5668000Y9791000D03*
X5875000Y6427000D03*
Y6687000D03*
X5884000Y6946000D03*
X6119000Y6276000D03*
X6124000Y6524000D03*
X6117000Y6741000D03*
X6114000Y6959000D03*
X6161000Y8870000D03*
X6159000Y9156000D03*
X6165000Y9418000D03*
X6163000Y9662000D03*
X6162000Y9911000D03*
X6158000Y10157000D03*
X6281000Y6276000D03*
X6286000Y6524000D03*
X6279000Y6741000D03*
X6276000Y6959000D03*
X6323000Y8870000D03*
X6321000Y9156000D03*
X6327000Y9418000D03*
X6325000Y9662000D03*
X6324000Y9911000D03*
X6320000Y10157000D03*
G54D20*
X604590Y1589750D03*
Y1780250D03*
X815410Y1589750D03*
Y1780250D03*
G54D11*
G01X540000Y1480000D02*
X481000Y1539000D01*
X480030D01*
G01X470000Y2725000D02*
Y2798000D01*
G01X600000Y3606000D02*
X490000D01*
X482000Y3598000D01*
G01X540000Y1431000D02*
Y1480000D01*
G01X560000Y2725000D02*
Y2792000D01*
X558000Y2794000D01*
G01X675000Y2010000D02*
X712000D01*
X738000Y2036000D01*
G01X818000Y3604000D02*
X755000D01*
X739000Y3588000D01*
G01X688000Y6258000D02*
X691000Y6255000D01*
G01D02*
X960000D01*
G01X760000Y2415000D02*
Y2493000D01*
G01X848000Y3909000D02*
Y3849000D01*
X869000Y3828000D01*
G01X846000Y3986000D02*
Y4062000D01*
G01X1675040Y2002780D02*
X1647680Y2030140D01*
X1128610D01*
X1123840Y2034910D01*
X1058040D01*
G01Y2435010D02*
X1115010D01*
X1180000Y2500000D01*
Y2722000D01*
X1210000Y2752000D01*
X1390820D01*
X1424980Y2786160D01*
Y2851960D01*
G01X1204090Y5375030D02*
X1135790D01*
X1130760Y5370000D01*
X1052780D01*
G01X1125000Y495000D02*
X1385000D01*
G01X1220000Y1420000D02*
X1273000Y1473000D01*
Y1520000D01*
G01X1220000Y1420000D02*
Y1349000D01*
X1267000Y1302000D01*
G01X1112780Y4933630D02*
X1204090Y5024940D01*
G01X1112780Y4930000D02*
Y4933630D01*
G01Y5570000D02*
X1210450D01*
X1234540Y5545910D01*
X1274940D01*
G01X1251000Y1630000D02*
X1273000Y1608000D01*
Y1520000D01*
G01X1241000Y1790000D02*
Y1640000D01*
X1251000Y1630000D01*
G01X1274940Y1968040D02*
Y1823940D01*
X1241000Y1790000D01*
G01X1500000Y2410000D02*
X1247000D01*
G01X1387030Y3029080D02*
X1306080D01*
X1304000Y3027000D01*
G01X1386160Y3199930D02*
X1326930D01*
X1324000Y3197000D01*
G01X1385000Y495000D02*
X1615000D01*
G01X1409000Y3333000D02*
Y3382000D01*
X1407000Y3384000D01*
G01X1555000Y1595000D02*
Y1512000D01*
X1519000Y1476000D01*
G01X1551000Y1782000D02*
Y1599000D01*
X1555000Y1595000D01*
G01X1589000Y1444000D02*
Y1561000D01*
X1555000Y1595000D01*
G01X1525010Y1968040D02*
Y1807990D01*
X1551000Y1782000D01*
G01X1500000Y2410000D02*
Y2162590D01*
G01Y2410000D02*
Y2657410D01*
G01Y2410000D02*
X1747410D01*
G01X1502000Y3023000D02*
Y3118000D01*
X1503000Y3119000D01*
G01X1505000Y3287000D02*
Y3206000D01*
X1502000Y3203000D01*
G01X1503000Y3119000D02*
Y3202000D01*
X1502000Y3203000D01*
G01X1565000Y3850000D02*
X1649000D01*
X1651000Y3852000D01*
G01X1575000Y4883000D02*
X1575020Y4883020D01*
G01D02*
Y4954090D01*
G01X1625030Y5545910D02*
Y5655230D01*
X1580000Y5700260D01*
G01X1615000Y495000D02*
X1875000D01*
G01X1589000Y1444000D02*
Y1378710D01*
X1585000Y1374710D01*
Y1322000D01*
G01X1675040Y1968040D02*
Y2002780D01*
G01D02*
X1818000Y2145740D01*
Y2718000D01*
X1790000Y2746000D01*
X1715200D01*
X1675040Y2786160D01*
Y2851960D01*
G01X1600000Y4722780D02*
X1710000D01*
G01X1600000Y4760000D02*
Y4810010D01*
X1625030Y4835040D01*
Y4954090D01*
G01X1710000Y4722780D02*
Y4807010D01*
X1675040Y4841970D01*
Y4954090D01*
G01Y5545910D02*
Y5614280D01*
X1700000Y5639240D01*
Y5692000D01*
G01X1580000Y5700260D02*
Y5717220D01*
G01X1710000Y4722780D02*
X1724220D01*
X1787000Y4660000D01*
G01X1795910Y5124970D02*
X1874970D01*
X1880000Y5130000D01*
G01X1700000Y5692000D02*
Y5717220D01*
G01X1898000Y4044000D02*
X1976000D01*
G01X1880000Y5130000D02*
Y5108000D01*
X1898000Y5090000D01*
G01X1941960Y2184940D02*
Y2186040D01*
G01Y2735080D02*
Y2732960D01*
G01X1994000Y4132000D02*
X2056000D01*
G01X2482000Y5412000D02*
Y5457300D01*
G01X2480000Y5515000D02*
Y5571000D01*
G01X2688000Y2468000D02*
Y2492000D01*
X2734000Y2538000D01*
G01X3162000Y5295000D02*
X3143000Y5276000D01*
Y5162000D01*
G01X3362000Y3887000D02*
Y3695000D01*
G01Y3887000D02*
Y4108000D01*
G01X3342000Y5295000D02*
X3362000Y5275000D01*
Y5160000D01*
G01D02*
X3426500D01*
X3427500Y5161000D01*
G01X3482500D02*
X3526000D01*
G01X3831000Y3524000D02*
Y3387000D01*
G01X4227000Y3468000D02*
X4346000Y3349000D01*
Y3227000D01*
X4413000Y3160000D01*
X4600000D01*
G01X4368000Y4176000D02*
Y3622000D01*
X4825000Y3165000D01*
X5070000D01*
X5293000Y3388000D01*
Y3492000D01*
G01X4657000Y4306000D02*
Y4177000D01*
G01X4844000Y4455000D02*
Y4534000D01*
X4840000Y4538000D01*
G01X5013000Y3532000D02*
X4940000D01*
X4939000Y3533000D01*
G01X5087000Y3532000D02*
X5013000D01*
G01X5088000Y4576000D02*
X5005000D01*
G01X4991000Y5869000D02*
Y5511000D01*
X4981000Y5501000D01*
G01X5161000Y3532000D02*
X5087000D01*
G01X5128000Y4776000D02*
X5039000D01*
G01X5193000Y6568000D02*
Y6511000D01*
X5139000Y6457000D01*
G01X5161000Y3532000D02*
X5253000D01*
X5293000Y3492000D01*
G01X5168000Y4061000D02*
X5169000D01*
G01X5458000Y3414000D02*
X5457000Y3415000D01*
X5372000D01*
X5295000Y3492000D01*
X5293000D01*
G01Y3771000D02*
Y3699000D01*
G01X5628000Y4350000D02*
X5481800D01*
X5458000Y4326200D01*
Y4286000D01*
G01X5499000Y8877000D02*
Y9100000D01*
X5501000Y9102000D01*
G01X5505000Y9323000D02*
Y9106000D01*
X5501000Y9102000D01*
G01X5505000Y9323000D02*
Y9538000D01*
X5508000Y9541000D01*
G01X5506000Y9791000D02*
Y9543000D01*
X5508000Y9541000D01*
G01X5506000Y9791000D02*
Y9882500D01*
X5558500Y9935000D01*
G01X5565500Y10189000D02*
X5506000D01*
X5504000Y10187000D01*
G01X5558500Y9935000D02*
Y10022000D01*
X5560500Y10024000D01*
G01D02*
Y10100000D01*
X5562500Y10102000D01*
G01D02*
Y10186000D01*
X5565500Y10189000D01*
G01X5713000Y6427000D02*
Y6292000D01*
X5711000Y6290000D01*
G01X5767500Y6269000D02*
X5732000D01*
X5711000Y6290000D01*
G01X5713000Y6687000D02*
Y6427000D01*
G01X5722000Y6946000D02*
Y6696000D01*
X5713000Y6687000D01*
G01X5809000Y10354500D02*
X5721000D01*
G01X5809000D02*
Y10392000D01*
X5799000Y10402000D01*
G01X5893000Y3941000D02*
Y3905000D01*
X5925000Y3873000D01*
G01X5956000Y10484000D02*
X6074000D01*
X6149000Y10559000D01*
G01X6187000Y10360500D02*
X6114000D01*
X6111000Y10357500D01*
G01D02*
Y10403000D01*
X6108000Y10406000D01*
G01X6287000Y2518000D02*
X6673000D01*
X6678000Y2523000D01*
G01X6281000Y6276000D02*
Y6121000D01*
X6277000Y6117000D01*
G01X6281000Y6276000D02*
Y6519000D01*
X6286000Y6524000D01*
G01D02*
Y6734000D01*
X6279000Y6741000D01*
G01D02*
Y6956000D01*
X6276000Y6959000D01*
G01X6323000Y8870000D02*
Y9154000D01*
X6321000Y9156000D01*
G01D02*
Y9412000D01*
X6327000Y9418000D01*
G01D02*
X6417000D01*
X6419000Y9420000D01*
G01X6325000Y9662000D02*
Y9910000D01*
X6324000Y9911000D01*
G01X6325000Y9662000D02*
X6423000D01*
X6425000Y9664000D01*
G01X6320000Y10157000D02*
Y9915000D01*
X6324000Y9911000D01*
G01X6320000Y10157000D02*
X6385000D01*
X6430000Y10112000D01*
G01X6389000Y13643000D02*
X6505960D01*
X6506360Y13643400D01*
X6562000D01*
G01D02*
Y13498000D01*
X6561000Y13497000D01*
G01X6752000Y13643400D02*
X6849200D01*
X6858800Y13653000D01*
X6960000D01*
G01X7141000Y9591000D02*
Y9712000D01*
G01X7664000Y5478000D02*
Y5553000D01*
X7649000Y5568000D01*
G01X7635000Y6111000D02*
X7554000D01*
G01X7644000Y6188000D02*
Y6246000D01*
G01X7654000Y9028000D02*
Y9127000D01*
G01Y9728000D02*
Y9844000D01*
G01X7674000Y4768000D02*
Y4854000D01*
G01X7664000Y6918000D02*
Y7006000D01*
G01Y8318000D02*
Y8428000D01*
G01X8758000Y13551000D02*
Y13638000D01*
G01X9026000Y13446000D02*
Y13591000D01*
G01D02*
X9034000Y13599000D01*
G01X9169000Y13621000D02*
Y13678000D01*
X210000Y2286000D03*
X198000Y2502000D03*
X195000Y6140000D03*
X182000Y6503000D03*
Y6789000D03*
X185000Y7050000D03*
Y7332000D03*
X183000Y7594000D03*
X178000Y7859000D03*
X186000Y8151000D03*
X180000Y8442000D03*
X338000Y1775000D03*
X283000Y3909000D03*
X476000Y2076000D03*
X470000Y2798000D03*
X482000Y3598000D03*
X478000Y4482000D03*
X448000Y5708000D03*
Y5772000D03*
X451000Y8822000D03*
X469000Y13859000D03*
X477000Y14147000D03*
X540000Y1431000D03*
X558000Y2794000D03*
X595000Y5273000D03*
X539000Y5879000D03*
X738000Y2036000D03*
X671000Y2382000D03*
X704000Y2442000D03*
X739000Y3588000D03*
X745000Y3824000D03*
X722000Y5428000D03*
X693000Y8656000D03*
X744000Y13877000D03*
X746000Y14160000D03*
X815410Y1417590D03*
X762000Y2109000D03*
X760000Y2493000D03*
X869000Y3828000D03*
X846000Y4062000D03*
X814000Y5241000D03*
X824000Y5391000D03*
X827000Y5725000D03*
X815000Y6509000D03*
X811000Y6786000D03*
X808000Y7035000D03*
X807000Y7331000D03*
X805000Y7594000D03*
X800000Y7880000D03*
X798000Y8162000D03*
X784000Y8451000D03*
X818000Y8878000D03*
X860000Y12992000D03*
X976000Y1630000D03*
X970000Y1790000D03*
X989000Y1936000D03*
X894000Y2471000D03*
X973930Y2685070D03*
X967220Y5003780D03*
X964000Y5662000D03*
X925000Y7417000D03*
Y8619000D03*
X1017000Y1420000D03*
X1105000Y3882000D03*
X1088000Y3993000D03*
X1017000Y4780000D03*
X1044000Y5091000D03*
X1052780Y5442220D03*
X1009000Y5734000D03*
X1037000Y7514000D03*
X1108000Y9209000D03*
X1175000Y1061000D03*
X1134000Y1527000D03*
X1174920Y2930080D03*
X1218000Y4045000D03*
X1112780Y5011780D03*
Y5630220D03*
X1190000Y6342000D03*
X1169000Y7527000D03*
X1112000Y8782000D03*
X1267000Y1302000D03*
X1324960Y1892960D03*
X1247000Y2410000D03*
X1304000Y3027000D03*
X1324000Y3197000D03*
X1304000Y3762000D03*
X1253790Y4094000D03*
X1281000Y5250000D03*
X1317000Y8722000D03*
X1360000Y1576000D03*
X1425000Y2843000D03*
X1407000Y3384000D03*
X1465000Y4069000D03*
X1374970Y4898970D03*
X1424980Y4902000D03*
X1374970Y5545910D03*
X1420000Y6335000D03*
X1353000Y6971000D03*
X1360000Y7144000D03*
X1382000Y7046000D03*
X1368000Y7245000D03*
X1374000Y7348000D03*
X1365000Y7449000D03*
X1366000Y7562000D03*
X1372000Y7655000D03*
X1389000Y12247000D03*
Y13093000D03*
X1519000Y1476000D03*
X1575020Y1887980D03*
X1500000Y2162590D03*
Y2410000D03*
Y2657410D03*
X1575000Y3083000D03*
X1525010Y4888010D03*
X1474990Y4902990D03*
X1502000Y5032000D03*
Y5252000D03*
X1499000Y5459000D03*
X1474990Y5545910D03*
X1562000Y5637000D03*
X1580000Y5931000D03*
X1563000Y7793000D03*
X1553000Y13023000D03*
X1697000Y717000D03*
X1702000Y1444000D03*
X1625030Y1888030D03*
X1614000Y2962000D03*
X1651000Y3852000D03*
X1673500Y4103500D03*
X1643000Y4401000D03*
X1599000Y4498000D03*
X1600000Y4722780D03*
X1700000Y5932000D03*
X1587000Y6205000D03*
X1650000Y6755000D03*
X1662000Y12737000D03*
X1807000Y1322000D03*
X1713000Y1691000D03*
X1724000Y1893000D03*
X1747410Y2410000D03*
X1803810Y2939000D03*
X1727000Y4176000D03*
X1710000Y4493000D03*
X1787000Y4660000D03*
X1716000Y5251000D03*
X1745000Y5647000D03*
X1712000Y6029000D03*
X1724000Y8355000D03*
X1762000Y12232000D03*
X1824000Y1559210D03*
X1825000Y2030000D03*
X1941960Y2186040D03*
Y2732960D03*
X1878000Y4353000D03*
X1853000Y4554000D03*
X1898000Y5090000D03*
X1928000Y5228000D03*
X1904980Y5174980D03*
X1923980Y5325020D03*
X1933000Y6064000D03*
X1901000Y6300000D03*
X1905000Y6369000D03*
X1994000Y1640000D03*
X2024000Y2480000D03*
X1963000Y3109000D03*
X1972000Y3207000D03*
Y3330000D03*
X1976000Y4044000D03*
X2056000Y4132000D03*
X1957500Y4938500D03*
X2009000Y5225000D03*
X2035000Y5327000D03*
Y5588000D03*
X2027000Y8396000D03*
X2089000Y1723000D03*
X2143000Y3048000D03*
X2148000Y5109000D03*
X2159000Y5538000D03*
X2063000Y8193000D03*
X2095000Y8300000D03*
X2193000Y670000D03*
X2296000Y654000D03*
X2204000Y1759000D03*
X2202000Y3530000D03*
X2256000Y4185000D03*
X2206000Y4426000D03*
X2221000Y5201000D03*
X2232000Y6072000D03*
X2242000Y11918000D03*
X2327000Y2095000D03*
X2321000Y3530000D03*
X2381000Y4509000D03*
X2376000Y5945000D03*
X2329000Y5878000D03*
X2327000Y6531000D03*
X2415000Y8165000D03*
X2532000Y1905000D03*
X2424000Y2135000D03*
X2493000Y4742000D03*
X2498000Y4977000D03*
X2497000Y5088000D03*
X2482000Y5457300D03*
X2480000Y5571000D03*
X2432000Y5728000D03*
X2494000Y5860000D03*
X2498840Y6742840D03*
Y6822840D03*
Y6902840D03*
Y7367160D03*
Y7287160D03*
Y7447160D03*
X2568000Y3076000D03*
X2561000Y3305000D03*
X2639000Y4194000D03*
Y4777000D03*
X2587000Y5185000D03*
X2573000Y5242000D03*
X2579000Y5295000D03*
X2588500Y5850500D03*
X2578840Y6742840D03*
Y6902840D03*
Y6822840D03*
Y7367160D03*
Y7287160D03*
Y7447160D03*
X2547000Y7973000D03*
X2596000Y13869000D03*
X2617000Y14161000D03*
X2734000Y2538000D03*
X2752000Y3740000D03*
X2699000Y5859000D03*
X2738840Y6742840D03*
X2658840D03*
X2738840Y6822840D03*
Y6902840D03*
X2658840D03*
Y6822840D03*
X2738840Y7367160D03*
X2658840D03*
Y7287160D03*
X2738840D03*
Y7447160D03*
X2658840D03*
X2702000Y7566000D03*
X2882000Y3907000D03*
X2867000Y5415000D03*
X2818840Y6742840D03*
Y6822840D03*
Y6902840D03*
Y7367160D03*
Y7287160D03*
Y7447160D03*
X2780000Y7573000D03*
X2838000Y13888000D03*
X2885000Y14125000D03*
X2965000Y3929000D03*
X2921000Y5886000D03*
X2978840Y6742840D03*
X2898840D03*
Y6822840D03*
Y6902840D03*
X2978840D03*
Y6822840D03*
Y7367160D03*
Y7287160D03*
X2898840D03*
Y7367160D03*
Y7447160D03*
X2978840D03*
X2978000Y7572000D03*
X2908000Y9327000D03*
X2942670Y12969000D03*
X3013400D03*
X3089000Y4449000D03*
X3060000Y5440000D03*
X3058840Y6742840D03*
Y6822840D03*
Y6902840D03*
Y7367160D03*
Y7287160D03*
Y7447160D03*
X3232000Y5096000D03*
X3203160Y6822840D03*
Y6902840D03*
Y7367160D03*
Y7287160D03*
X3148060Y13575000D03*
X3363000Y3388000D03*
X3368000Y3524000D03*
X3362000Y3695000D03*
Y4108000D03*
X3339000Y4498000D03*
X3340000Y5428000D03*
X3283160Y6742840D03*
Y6902840D03*
Y6822840D03*
X3363160D03*
Y6902840D03*
X3283160Y7367160D03*
Y7287160D03*
X3363160Y7367160D03*
Y7287160D03*
X3283160Y7447160D03*
X3257320Y12836000D03*
X3328050D03*
X3463000Y4195000D03*
X3484000Y5094000D03*
X3443160Y6742840D03*
X3490000Y6728000D03*
X3443160Y6902840D03*
Y6822840D03*
X3471000Y7025000D03*
X3443160Y7367160D03*
Y7447160D03*
X3381000Y7527000D03*
X3451000Y9189000D03*
X3454000Y10501000D03*
X3464000Y13575000D03*
X3509000Y3158000D03*
X3570000Y4307000D03*
X3526000Y5161000D03*
X3603160Y6742840D03*
X3523160Y6902840D03*
X3603160D03*
Y6822840D03*
X3523160D03*
X3538000Y7134000D03*
X3603160Y7367160D03*
Y7287160D03*
X3523160Y7367160D03*
Y7287160D03*
X3603160Y7447160D03*
X3523160D03*
X3603000Y8614000D03*
X3572330Y12567000D03*
X3683160Y6742840D03*
Y6822840D03*
Y6902840D03*
Y7367160D03*
Y7287160D03*
Y7447160D03*
X3656000Y7983000D03*
X3728000Y8402000D03*
X3643060Y12567000D03*
X3831000Y3387000D03*
X3763160Y6742840D03*
Y6822840D03*
Y6902840D03*
Y7367160D03*
Y7447160D03*
X3777000Y8446000D03*
X3832000Y8776000D03*
X3758000Y10864000D03*
Y11818000D03*
X3901000Y3811200D03*
X3926000Y4209000D03*
X3873640Y12598000D03*
X3944370D03*
X4017000Y3999000D03*
X4086000Y5332000D03*
X3994000Y7197000D03*
X3970500Y7386500D03*
X4035000Y7540000D03*
X4080000Y7731000D03*
Y7777000D03*
X4006000Y7835000D03*
X4025000Y8465000D03*
X3971000Y9242000D03*
X4203000Y997000D03*
X4114000Y3758000D03*
X4108000Y4060000D03*
X4198000Y4004000D03*
X4103000Y4577000D03*
X4180000Y5566000D03*
X4169000Y7375000D03*
X4158000Y7758000D03*
X4185000Y7683000D03*
X4184000Y8129000D03*
X4142000Y8428000D03*
X4310000Y587000D03*
X4220000Y1141000D03*
X4228000Y3199000D03*
X4299000Y3834000D03*
X4214000Y4064000D03*
X4310000Y4058000D03*
X4207000Y4568000D03*
X4295000Y4562000D03*
X4296000Y4632000D03*
X4263000Y5632080D03*
X4294000Y7518000D03*
X4309000Y7975000D03*
X4286000Y7899000D03*
X4291000Y8066000D03*
X4253000Y8171000D03*
X4230000Y8817000D03*
X4210000Y12422000D03*
X4382000Y721000D03*
X4440000Y4057000D03*
X4331000Y4803000D03*
X4395000Y5323000D03*
X4362000Y5257000D03*
X4416000Y5801000D03*
X4382910Y7267910D03*
Y7187910D03*
Y7347910D03*
Y7507910D03*
X4362000Y7460000D03*
X4382910Y7587910D03*
Y7667910D03*
Y7747910D03*
Y7827910D03*
Y7976090D03*
Y8296090D03*
X4342000Y8909000D03*
X4366000Y9020000D03*
X4371000Y9724000D03*
X4450000Y3748000D03*
X4484000Y4101000D03*
X4516000Y4559000D03*
X4452000Y4734000D03*
X4542910Y7187910D03*
Y7267910D03*
X4462910D03*
Y7187910D03*
Y7347910D03*
X4542910D03*
X4462910Y7507910D03*
Y7427910D03*
X4542910Y7507910D03*
Y7427910D03*
Y7587910D03*
X4462910D03*
Y7747910D03*
X4542910D03*
Y7667910D03*
X4462910D03*
Y7827910D03*
X4542910D03*
Y7976090D03*
X4462910D03*
X4542910Y8056090D03*
X4462910Y8216090D03*
X4542910Y8136090D03*
X4458000Y8295000D03*
X4542910Y8296090D03*
X4462910Y8456090D03*
Y8616090D03*
X4530000Y9828000D03*
X4478000Y12282000D03*
X4607000Y2818000D03*
X4600000Y3160000D03*
X4653000Y3985000D03*
X4657000Y4177000D03*
X4626000Y4563000D03*
X4567000Y4558000D03*
X4604000Y5879000D03*
X4622910Y7267910D03*
Y7187910D03*
Y7427910D03*
Y7507910D03*
Y7587910D03*
Y7667910D03*
Y7747910D03*
Y7827910D03*
Y7976090D03*
Y8056090D03*
Y8136090D03*
Y8296090D03*
X4616000Y8377000D03*
X4655000Y13385000D03*
X4687000Y4031000D03*
X4766000Y4184000D03*
X4775000Y4078000D03*
X4730000Y4654000D03*
X4710000Y6509000D03*
X4787000Y7125000D03*
X4702910Y7267910D03*
X4782910Y7187910D03*
X4702910D03*
X4782910Y7267910D03*
X4702910Y7347910D03*
X4782910D03*
Y7507910D03*
X4702910Y7427910D03*
Y7507910D03*
X4782910Y7427910D03*
Y7587910D03*
X4702910D03*
Y7667910D03*
X4782910Y7747910D03*
Y7667910D03*
Y7827910D03*
X4702910D03*
X4782910Y7976090D03*
X4702910D03*
Y8056090D03*
X4782910D03*
Y8216090D03*
Y8136090D03*
X4702910D03*
X4780000Y8460000D03*
X4782910Y8376090D03*
X4720000Y9406000D03*
X4840000Y4538000D03*
X4883000Y4609000D03*
X4854000Y5864000D03*
X4862910Y7267910D03*
Y7187910D03*
Y7347910D03*
Y7507910D03*
Y7427910D03*
Y7587910D03*
Y7667910D03*
Y7747910D03*
Y7827910D03*
Y7976090D03*
Y8056090D03*
Y8216090D03*
Y8136090D03*
Y8616090D03*
X4878000Y9377000D03*
X4916000Y9482000D03*
X4896000Y10322000D03*
X4837000Y14391000D03*
X5013000Y1938000D03*
X4939000Y2349000D03*
Y3643000D03*
X5013000Y3642000D03*
X4934000Y4397000D03*
X4962350Y4478350D03*
X5012000Y4501000D03*
X5005000Y4576000D03*
X5039000Y4776000D03*
X4980000Y4744000D03*
X4939000Y4662000D03*
X4984000Y6203000D03*
X5004000Y6335000D03*
X5032000Y7109000D03*
X4934000Y7077000D03*
X4942910Y7187910D03*
X5022910Y7267910D03*
Y7187910D03*
X4942910Y7267910D03*
X5022910Y7347910D03*
X4942910D03*
X5022910Y7507910D03*
X4942910D03*
X5022910Y7427910D03*
X4942910D03*
Y7587910D03*
X5022910D03*
X4942910Y7747910D03*
X5022910D03*
Y7667910D03*
X4942910D03*
Y7827910D03*
Y7976090D03*
X5022000Y7977000D03*
X5022910Y8056090D03*
X4942910D03*
Y8136090D03*
X5022910Y8216090D03*
Y8136090D03*
X4942910Y8216090D03*
X5022910Y8296090D03*
X4942910D03*
Y8456090D03*
X5022910Y8376090D03*
Y8456090D03*
Y8536090D03*
X4942910D03*
Y8616090D03*
X5022910D03*
X4936000Y9264000D03*
X4986000Y9304000D03*
X4985000Y11979000D03*
X5145000Y1066000D03*
X5097000Y3633000D03*
X5043000Y3716000D03*
X5139000Y6457000D03*
X5092000Y8671000D03*
X5118000Y8792000D03*
X5052000Y9530000D03*
X5158000Y14076000D03*
X5161000Y3642000D03*
X5243000Y3714000D03*
X5169000Y4061000D03*
X5188000Y4461000D03*
X5215000Y5931000D03*
X5176000Y6078000D03*
X5237000Y6036000D03*
X5238000Y6317000D03*
X5191000Y6806000D03*
X5252000Y7063000D03*
X5171090Y7267910D03*
X5251090D03*
Y7347910D03*
X5171090D03*
Y7507910D03*
X5251090D03*
X5171090Y7427910D03*
X5251090D03*
X5171090Y7587910D03*
X5251090D03*
X5171090Y7747910D03*
X5251090Y7667910D03*
X5171090D03*
X5251090Y7747910D03*
Y7827910D03*
X5171090D03*
X5251090Y7976090D03*
Y8056090D03*
X5172000Y8057000D03*
X5171090Y8136090D03*
X5251090Y8216090D03*
Y8136090D03*
X5171090Y8216090D03*
X5251090Y8296090D03*
X5171090D03*
X5251090Y8376090D03*
Y8456090D03*
X5171090D03*
Y8376090D03*
Y8536090D03*
X5251090D03*
X5268000Y8689000D03*
X5180000Y8682000D03*
X5171090Y8616090D03*
X5251090D03*
X5166000Y8731000D03*
X5275500Y8782500D03*
X5181000Y12395000D03*
X5277000Y12458000D03*
X5361000Y933000D03*
X5321000Y2726000D03*
X5391000Y3499000D03*
X5293000Y3492000D03*
Y3699000D03*
X5342000Y3788000D03*
X5397000Y4509000D03*
X5378000Y4605800D03*
X5316000Y4748200D03*
X5340000Y4678000D03*
X5369000Y6150000D03*
X5331000Y6479000D03*
X5323000Y7061000D03*
X5340000Y7263000D03*
X5331090Y7347910D03*
Y7507910D03*
Y7587910D03*
Y7747910D03*
Y7667910D03*
Y7827910D03*
Y7976090D03*
Y8056090D03*
Y8136090D03*
Y8216090D03*
Y8296090D03*
Y8456090D03*
Y8376090D03*
Y8536090D03*
Y8616090D03*
X5370000Y8772000D03*
X5363000Y9205000D03*
X5325000Y12506000D03*
X5319000Y12764000D03*
X5511000Y4086000D03*
X5439000Y4286000D03*
X5465000Y4454000D03*
X5417000Y4711000D03*
X5408000Y6256000D03*
X5415000Y7056000D03*
X5501000Y7346000D03*
X5491090Y7427910D03*
X5411090Y7507910D03*
Y7427910D03*
X5491090Y7507910D03*
X5411090Y7587910D03*
X5491090D03*
X5411090Y7667910D03*
Y7747910D03*
X5491090D03*
Y7667910D03*
Y7827910D03*
X5411090D03*
X5491090Y7976090D03*
X5411090D03*
Y8056090D03*
X5491090D03*
Y8136090D03*
X5411090D03*
X5491090Y8296090D03*
X5411090D03*
Y8456090D03*
Y8376090D03*
X5504000Y10187000D03*
X5420000Y12610000D03*
X5487000Y13402000D03*
X5533000Y900000D03*
X5528000Y4263000D03*
X5628000Y4615000D03*
X5602000Y5731000D03*
X5544000Y5693000D03*
X5552000Y6203000D03*
Y6112000D03*
X5569000Y6390000D03*
X5532000Y6415000D03*
X5544000Y7029000D03*
X5549000Y6942000D03*
X5518000Y7113000D03*
X5632000Y7100000D03*
X5571090Y7427910D03*
Y7507910D03*
Y7667910D03*
Y7747910D03*
Y7827910D03*
Y7976090D03*
Y8056090D03*
Y8136090D03*
Y8216090D03*
Y8296090D03*
Y8376090D03*
Y8456090D03*
Y8536090D03*
X5571000Y11786000D03*
X5604000Y12236000D03*
X5524000Y12208000D03*
X5707000Y3680000D03*
X5736000Y3817000D03*
X5642000Y3924000D03*
X5691000Y5307000D03*
X5663000Y5869000D03*
X5683000Y5910000D03*
X5654000Y6116000D03*
X5711000Y6290000D03*
X5651090Y7267910D03*
X5731090D03*
X5651090Y7187910D03*
X5657000Y7428000D03*
X5651090Y7507910D03*
X5731090Y7587910D03*
X5651090D03*
X5731090Y7747910D03*
X5651090D03*
X5731090Y7827910D03*
X5651090D03*
X5652000Y7978000D03*
X5731090Y7976090D03*
X5651090Y8056090D03*
X5731090D03*
Y8216090D03*
Y8136090D03*
X5651090D03*
Y8216090D03*
X5731090Y8296090D03*
X5651090D03*
X5676920Y8461720D03*
X5675900Y8381190D03*
X5731090Y8456090D03*
Y8376090D03*
X5654000Y8638000D03*
X5731090Y8616090D03*
X5749000Y11140000D03*
X5677000Y13834000D03*
X5680000Y13996000D03*
X5757500Y896500D03*
X5768000Y4475000D03*
X5858000D03*
X5837000Y4524000D03*
X5773000Y5822000D03*
X5764000Y6197000D03*
X5811090Y7187910D03*
Y7347910D03*
Y7507910D03*
Y7587910D03*
Y7827910D03*
Y7976090D03*
X5868000Y7999000D03*
X5811090Y8056090D03*
Y8136090D03*
Y8296090D03*
Y8456090D03*
Y8376090D03*
Y8536090D03*
Y8616090D03*
X5797000Y8687000D03*
X5799000Y10402000D03*
X5836000Y13585800D03*
X5925000Y3873000D03*
X5941500Y4041500D03*
X5930000Y4470000D03*
X5897000Y6067000D03*
X5980000Y6064000D03*
X5976000Y6331000D03*
X5984000Y6843000D03*
X5959000Y7217000D03*
X5894000Y7232000D03*
X5926000Y7642000D03*
X5956000Y7813000D03*
X5890000Y7906000D03*
X5962000Y7990000D03*
X5942000Y7917000D03*
X5924000Y8190000D03*
X5901000Y8264000D03*
X5886000Y8451000D03*
X5902000Y8603000D03*
X5990000Y9378000D03*
X5921000Y12984000D03*
X5907000Y13028000D03*
X5925000Y13979000D03*
X5999000Y3472000D03*
X6079000Y3699000D03*
X6011000Y3945000D03*
X6090000Y4468000D03*
X6081000Y5470000D03*
X6017000Y5487000D03*
X6104000Y5529000D03*
X6075000Y5901000D03*
X6039000Y7230000D03*
X6110000Y7381000D03*
X6038000Y7466000D03*
X6030000Y7543000D03*
X6050000Y7923000D03*
X6033000Y8262000D03*
X6044000Y8364000D03*
X6108000Y10406000D03*
X6023000Y11114000D03*
X6106000Y11388000D03*
X6067000Y13592000D03*
X6168000Y5552000D03*
X6133000Y7760000D03*
X6148000Y7990000D03*
X6182000Y8177000D03*
X6187000Y8568000D03*
X6149000Y10559000D03*
X6177000Y12155000D03*
X6287000Y2518000D03*
X6281000Y4436000D03*
X6277000Y6117000D03*
X6304000Y7334000D03*
X6317000Y7697000D03*
X6345000Y8069000D03*
X6233000Y8414000D03*
X6270000Y8538000D03*
X6297000Y8695000D03*
X6243000Y13221000D03*
X6350000Y13866000D03*
X6366000Y4520000D03*
X6451000Y4605000D03*
X6408000Y7301000D03*
X6371000Y7392000D03*
X6374000Y7466000D03*
X6403000Y8286000D03*
X6364000Y8700000D03*
X6419000Y9420000D03*
X6425000Y9664000D03*
X6430000Y10112000D03*
X6354000Y12538000D03*
X6583000Y1804000D03*
X6561000Y4724000D03*
X6556000Y4783000D03*
X6513000Y5645000D03*
X6557000Y6106000D03*
X6532000Y6707000D03*
X6527000Y6842000D03*
X6528000Y7301000D03*
X6556000Y7461000D03*
X6495000Y8377000D03*
X6557000Y8754000D03*
X6561000Y13497000D03*
X6544000Y14361000D03*
X6678000Y2523000D03*
X6636000Y7174000D03*
X6669000Y7704000D03*
X6644000Y8297000D03*
X6634000Y8394000D03*
X6612000Y8542000D03*
X6650000Y8867000D03*
X6637000Y9096000D03*
X6634000Y9312000D03*
X6594000Y11483000D03*
X6657000Y13991000D03*
X6748000Y1639000D03*
X6813000Y7162000D03*
X6761000Y8174000D03*
X6792000Y8573000D03*
X6766000Y13438000D03*
X6864000Y3915000D03*
X6878000Y4049000D03*
X6883000Y6996000D03*
X6927000Y7935000D03*
X6946000Y9703000D03*
X6901000Y11228000D03*
X6927000Y12322000D03*
X6986000Y6190000D03*
X6981000Y6471000D03*
X7045000Y6654000D03*
X7018000Y7098000D03*
X6981000Y7659000D03*
X6969000Y10305000D03*
X7043000Y13004000D03*
X7002790Y13929000D03*
X7165000Y7606000D03*
X7074000Y8034000D03*
X7144000Y8052000D03*
X7141000Y9712000D03*
X7143000Y10067000D03*
X7121000Y13810380D03*
X7198000Y3802000D03*
X7284000Y7912000D03*
X7297000Y8375000D03*
X7240000Y9155000D03*
X7215000Y10914000D03*
X7347000Y2891000D03*
X7323000Y7561000D03*
X7531000Y3135000D03*
X7482000Y11973000D03*
X7483000Y13887000D03*
X7649000Y5568000D03*
X7554000Y6111000D03*
X7644000Y6246000D03*
X7654000Y9127000D03*
Y9844000D03*
X7638000Y10524000D03*
X7593000Y13668000D03*
X7701000Y2731000D03*
X7737000Y3229000D03*
X7674000Y4854000D03*
X7764000Y6114000D03*
X7664000Y7006000D03*
X7670000Y7706000D03*
X7664000Y8428000D03*
X7688000Y9485000D03*
X7775000Y10676000D03*
X7688000Y10641000D03*
X7848000Y13770000D03*
X7946000Y3318000D03*
X8102000Y13943000D03*
X8324000Y11238000D03*
X8333000Y11988000D03*
X8342000Y12538000D03*
X8313000Y13158000D03*
X8449000Y13559000D03*
X8830000Y13054000D03*
X8758000Y13638000D03*
X9036000Y2813000D03*
X9123000Y3502000D03*
X9169000Y13678000D03*
X9232000Y13057000D03*
X9360000Y6128000D03*
X9348000Y7318000D03*
X9434000Y8458000D03*
X9447500Y9649500D03*
X9403000Y13318000D03*
X9398000Y13444000D03*
X9585000Y9929000D03*
X9647000Y10495000D03*
X9657000Y10665000D03*
X9659000Y11388000D03*
X9681000Y11614000D03*
X9650000Y12187000D03*
X9627000Y12530000D03*
X9647000Y13086000D03*
X9759000Y5258000D03*
X9749000Y6413000D03*
Y7560000D03*
Y8755000D03*
X10009000Y5808000D03*
X9999000Y6995000D03*
Y9369000D03*
X10727270Y10476000D03*
X10705270Y11354000D03*
X10733000Y12163000D03*
X10679000Y13072000D03*
G54D21*
X600000Y3145590D03*
Y3356410D03*
X818000Y3143590D03*
Y3354410D03*
X7963590Y4768000D03*
Y5478000D03*
X7953590Y6188000D03*
Y6918000D03*
Y7618000D03*
Y8318000D03*
X7963590Y9028000D03*
X7953590Y9728000D03*
Y10458000D03*
X7963590Y11238000D03*
Y11988000D03*
X7973590Y12538000D03*
Y13158000D03*
X8174410Y4768000D03*
Y5478000D03*
X8164410Y6188000D03*
Y6918000D03*
Y7618000D03*
Y8318000D03*
X8174410Y9028000D03*
X8164410Y9728000D03*
Y10458000D03*
X8174410Y11238000D03*
Y11988000D03*
X8184410Y12538000D03*
Y13158000D03*
G54D12*
X296000Y4228000D03*
Y4482000D03*
Y4736000D03*
Y4990000D03*
Y5244000D03*
Y5498000D03*
X7141000Y8575000D03*
Y8829000D03*
Y9083000D03*
Y9337000D03*
Y9591000D03*
Y9845000D03*
G54D30*
X1220000Y1420000D03*
X1140000D03*
X1585000Y1322000D03*
X1665000D03*
G54D31*
X1174920Y1968040D03*
X1124910D03*
Y2851960D03*
X1174920D03*
X1324960Y1968040D03*
X1274940D03*
X1224930D03*
Y2851960D03*
X1274940D03*
X1324960D03*
Y4954090D03*
X1274940D03*
Y5545910D03*
X1324960D03*
X1424980Y1968040D03*
X1374970D03*
Y2851960D03*
X1424980D03*
Y4954090D03*
X1374970D03*
Y5545910D03*
X1424980D03*
X1575020Y1968040D03*
X1525010D03*
X1474990D03*
Y2851960D03*
X1525010D03*
X1575020D03*
Y4954090D03*
X1525010D03*
X1474990D03*
Y5545910D03*
X1525010D03*
X1575020D03*
X1675040Y1968040D03*
X1625030D03*
Y2851960D03*
X1675040D03*
Y4954090D03*
X1625030D03*
Y5545910D03*
X1675040D03*
X1775070Y1968040D03*
X1725060D03*
Y2851960D03*
X1775070D03*
X1725060Y4954090D03*
Y5545910D03*
X1875090Y1968040D03*
X1825080D03*
Y2851960D03*
X1875090D03*
G54D13*
X223000Y14119000D03*
X2373000D03*
G54D40*
X2013500Y3105000D03*
X2011500Y3206000D03*
X2012500Y3331000D03*
X2068500Y3105000D03*
X2066500Y3206000D03*
X2067500Y3331000D03*
X3482500Y5161000D03*
X3427500D03*
X4416500Y8927000D03*
X4413500Y9008000D03*
X4412500Y9100000D03*
X4410500Y9203000D03*
X4471500Y8927000D03*
X4468500Y9008000D03*
X4467500Y9100000D03*
X4465500Y9203000D03*
X4879500Y9143000D03*
X4880500Y9215000D03*
X4934500Y9143000D03*
X4935500Y9215000D03*
X5558500Y9935000D03*
X5613500D03*
X5562500Y10102000D03*
X5617500D03*
X5560500Y10024000D03*
X5615500D03*
X5565500Y10189000D03*
X5620500D03*
X5767500Y6269000D03*
X5822500D03*
G54D22*
X827000Y5505220D03*
Y5650780D03*
X1600000Y4577220D03*
Y4722780D03*
X1580000Y5717220D03*
Y5862780D03*
X1710000Y4577220D03*
Y4722780D03*
X1700000Y5717220D03*
Y5862780D03*
G54D32*
X1385000Y495000D03*
X1615000D03*
G54D14*
X366000Y2009000D03*
X476000D03*
X565000Y2010000D03*
X595000Y5320000D03*
X675000Y2010000D03*
X705000Y5320000D03*
X708000Y9617000D03*
X848000Y3909000D03*
X846000Y3986000D03*
X818000Y9617000D03*
X958000Y3909000D03*
X956000Y3986000D03*
X1455000Y3850000D03*
X1565000D03*
X1686000Y6314000D03*
Y6389000D03*
X1788000Y4044000D03*
X1796000Y6314000D03*
Y6389000D03*
X1884000Y1695000D03*
X1895000Y1820000D03*
X1898000Y4044000D03*
X1884000Y4132000D03*
X1994000Y1695000D03*
X2005000Y1820000D03*
X1994000Y4132000D03*
X2094000Y1820000D03*
X2095000Y2003000D03*
Y2083000D03*
Y2163000D03*
X2204000Y1820000D03*
X2205000Y2003000D03*
Y2083000D03*
Y2163000D03*
X2375000Y5190000D03*
X2371000Y5304000D03*
X2372000Y5412000D03*
X2370000Y5515000D03*
X2552000Y2003000D03*
Y2083000D03*
Y2163000D03*
Y2243000D03*
Y2323000D03*
Y2403000D03*
X2485000Y5190000D03*
X2481000Y5304000D03*
X2482000Y5412000D03*
X2480000Y5515000D03*
X2662000Y2003000D03*
Y2083000D03*
Y2163000D03*
Y2243000D03*
Y2323000D03*
Y2403000D03*
X3117000Y4303000D03*
X3164000Y3532000D03*
X3227000Y4303000D03*
X3198000Y11815000D03*
X3274000Y3532000D03*
X3308000Y11815000D03*
X4359000Y5445000D03*
X4358000Y5563000D03*
X4469000Y5445000D03*
X4468000Y5563000D03*
X4688000Y11979000D03*
X4578000D03*
X4818000Y14231000D03*
X4928000D03*
X5492000Y5308000D03*
Y5432000D03*
Y5563000D03*
X5493000Y5829000D03*
Y5903000D03*
X5492000Y5975000D03*
Y6047000D03*
X5583000Y3981000D03*
X5602000Y5308000D03*
Y5432000D03*
Y5563000D03*
X5603000Y5829000D03*
Y5903000D03*
X5602000Y5975000D03*
Y6047000D03*
X5693000Y3981000D03*
X5711000Y5972000D03*
X5712000Y6049000D03*
X5783000Y3941000D03*
X5821000Y5972000D03*
X5822000Y6049000D03*
X5893000Y3941000D03*
X6187000Y7380000D03*
Y7453000D03*
Y7524000D03*
X6297000Y7380000D03*
Y7453000D03*
Y7524000D03*
X6761000Y8226000D03*
X6748000Y8712000D03*
X6746000Y9195000D03*
X6754000Y9449000D03*
X6871000Y8226000D03*
X6858000Y8712000D03*
X6856000Y9195000D03*
X6864000Y9449000D03*
X7468000Y2893000D03*
X7511000Y3016000D03*
X7578000Y2893000D03*
X7621000Y3016000D03*
X7674000Y4768000D03*
X7664000Y5478000D03*
X7644000Y6188000D03*
X7664000Y6918000D03*
Y7618000D03*
Y8318000D03*
X7654000Y9028000D03*
Y9728000D03*
Y10468000D03*
X7664000Y11228000D03*
Y11988000D03*
Y12538000D03*
Y13158000D03*
X7704000Y2834000D03*
X7784000Y4768000D03*
X7774000Y5478000D03*
X7754000Y6188000D03*
X7774000Y6918000D03*
Y7618000D03*
Y8318000D03*
X7764000Y9028000D03*
Y9728000D03*
Y10468000D03*
X7774000Y11228000D03*
Y11988000D03*
Y12538000D03*
Y13158000D03*
X7814000Y2834000D03*
X8803000Y2332000D03*
Y3049000D03*
Y3770000D03*
X8814000Y4508000D03*
Y5218000D03*
Y5928000D03*
X8824000Y6628000D03*
X8844000Y7348000D03*
X8834000Y8058000D03*
Y8758000D03*
Y9488000D03*
X8844000Y10178000D03*
X8913000Y2332000D03*
Y3049000D03*
Y3770000D03*
X8924000Y4508000D03*
Y5218000D03*
Y5928000D03*
X8934000Y6628000D03*
X8954000Y7348000D03*
X8944000Y8058000D03*
Y8758000D03*
Y9488000D03*
X8954000Y10178000D03*
X9552000Y10275000D03*
X9558000Y11166000D03*
Y11962000D03*
X9554000Y12868000D03*
X9662000Y10275000D03*
X9668000Y11166000D03*
Y11962000D03*
X9664000Y12868000D03*
X9774000Y10458000D03*
X9754000Y11358000D03*
X9744000Y12158000D03*
X9754000Y13058000D03*
X9884000Y10458000D03*
X9864000Y11358000D03*
X9854000Y12158000D03*
X9864000Y13058000D03*
X10174000Y6128000D03*
X10154000Y7318000D03*
X10114000Y8458000D03*
X10134000Y9648000D03*
X10284000Y6128000D03*
X10264000Y7318000D03*
X10224000Y8458000D03*
X10244000Y9648000D03*
G54D50*
X4593650Y5310500D03*
Y5437500D03*
Y5564500D03*
Y5691500D03*
X5368350Y5310500D03*
Y5437500D03*
Y5564500D03*
Y5691500D03*
G54D41*
X2168000Y501000D03*
Y591000D03*
X6389000Y13643000D03*
Y13733000D03*
G54D23*
X1003000Y3762000D03*
X1193000D03*
X2155000Y5770000D03*
X2215000Y4990000D03*
X2405000D03*
X2345000Y5770000D03*
X2603000Y5615000D03*
X2793000D03*
X5594000Y4131000D03*
X5784000D03*
G54D33*
X1500000Y2410000D03*
G54D42*
X2191000Y3438500D03*
Y3493500D03*
X2310000Y3437500D03*
Y3492500D03*
X4554000Y9296500D03*
Y9351500D03*
X4642000Y9295500D03*
Y9350500D03*
X4729000Y9299500D03*
Y9354500D03*
X4821000Y9299500D03*
Y9354500D03*
X5721000Y10354500D03*
Y10299500D03*
X5809000Y10354500D03*
Y10299500D03*
X5898000Y6107500D03*
Y6162500D03*
X5883000Y7125500D03*
X5973000Y7131500D03*
X5883000Y7180500D03*
X5973000Y7186500D03*
X5989000Y8681500D03*
Y8736500D03*
X6002000Y6108500D03*
Y6163500D03*
X6050000Y7130500D03*
Y7185500D03*
X6121000Y7130500D03*
Y7185500D03*
X6111000Y10357500D03*
Y10302500D03*
X6187000Y10360500D03*
Y10305500D03*
G54D15*
X365000Y2180460D03*
Y2439540D03*
X460000Y2180460D03*
Y2439540D03*
X555000Y2180460D03*
Y2439540D03*
G54D51*
X4724510Y13500000D03*
Y13800000D03*
X5453490Y13500000D03*
Y13800000D03*
G54D60*
X5758000Y13573000D03*
Y13763000D03*
X5968000Y13573000D03*
Y13763000D03*
G54D24*
X967220Y4930000D03*
X907220Y5370000D03*
X967220Y5570000D03*
X1112780Y4930000D03*
X1052780Y5370000D03*
X1112780Y5570000D03*
X1090220Y5742000D03*
X1235780D03*
G54D70*
X7347000Y13994220D03*
G54D34*
X1500000Y5250000D03*
G54D16*
X351000Y13721000D03*
Y14021000D03*
X651000Y13721000D03*
Y14021000D03*
X951000Y13721000D03*
Y14021000D03*
X1251000Y13721000D03*
Y14021000D03*
X1551000Y13721000D03*
Y14021000D03*
X1851000Y13721000D03*
Y14021000D03*
X2501000Y13721000D03*
Y14021000D03*
X2801000Y13721000D03*
Y14021000D03*
X3101000Y13721000D03*
Y14021000D03*
X3401000Y13721000D03*
Y14021000D03*
X3701000Y13721000D03*
Y14021000D03*
X4001000Y13721000D03*
Y14021000D03*
G54D52*
X4742000Y317000D03*
X4996000D03*
X5933000D03*
X6187000D03*
G54D61*
X5956000Y10214000D03*
Y10484000D03*
G54D25*
X960000Y6065000D03*
Y6255000D03*
X1843000Y3523000D03*
Y3713000D03*
X2370000Y4185000D03*
Y4375000D03*
X2632000Y4883000D03*
Y5073000D03*
X2900000Y13219000D03*
Y13409000D03*
X3057000Y13218000D03*
Y13408000D03*
X3213000Y13217000D03*
Y13407000D03*
X3371000Y13218000D03*
Y13408000D03*
X3529000Y13216000D03*
Y13406000D03*
X3685000Y13217000D03*
Y13407000D03*
X3831000Y3524000D03*
Y3714000D03*
X3842000Y13217000D03*
Y13407000D03*
X4000000Y13214000D03*
Y13404000D03*
X4227000Y3278000D03*
Y3468000D03*
X6590000Y4406000D03*
Y4596000D03*
X6732000Y1771000D03*
Y1961000D03*
G54D43*
X2531000Y6775000D03*
Y6855000D03*
Y6935000D03*
Y7255000D03*
Y7335000D03*
Y7415000D03*
X2611000Y6775000D03*
Y6855000D03*
Y6935000D03*
Y7255000D03*
Y7335000D03*
Y7415000D03*
X2771000Y6775000D03*
X2691000D03*
X2771000Y6855000D03*
X2691000D03*
X2771000Y6935000D03*
X2691000D03*
X2771000Y7255000D03*
X2691000D03*
X2771000Y7335000D03*
X2691000D03*
X2771000Y7415000D03*
X2691000D03*
X2851000Y6775000D03*
Y6855000D03*
Y6935000D03*
Y7255000D03*
Y7335000D03*
Y7415000D03*
X3011000Y6775000D03*
X2931000D03*
X3011000Y6855000D03*
X2931000D03*
X3011000Y6935000D03*
X2931000D03*
X3011000Y7255000D03*
X2931000D03*
X3011000Y7335000D03*
X2931000D03*
X3011000Y7415000D03*
X2931000D03*
X3091000Y6775000D03*
Y6855000D03*
Y6935000D03*
Y7255000D03*
Y7335000D03*
Y7415000D03*
X3171000Y6775000D03*
Y6855000D03*
Y6935000D03*
Y7255000D03*
Y7335000D03*
Y7415000D03*
X3331000Y6775000D03*
X3251000D03*
X3331000Y6855000D03*
X3251000D03*
X3331000Y6935000D03*
X3251000D03*
X3331000Y7255000D03*
X3251000D03*
X3331000Y7335000D03*
X3251000D03*
X3331000Y7415000D03*
X3251000D03*
X3411000Y6775000D03*
Y6855000D03*
Y6935000D03*
Y7255000D03*
Y7335000D03*
Y7415000D03*
X3571000Y6775000D03*
X3491000D03*
X3571000Y6855000D03*
X3491000D03*
X3571000Y6935000D03*
X3491000D03*
X3571000Y7255000D03*
X3491000D03*
X3571000Y7335000D03*
X3491000D03*
X3571000Y7415000D03*
X3491000D03*
X3651000Y6775000D03*
Y6855000D03*
Y6935000D03*
Y7255000D03*
Y7335000D03*
Y7415000D03*
X3731000Y6775000D03*
Y6855000D03*
Y6935000D03*
Y7255000D03*
Y7335000D03*
Y7415000D03*
G54D26*
X1125000Y495000D03*
X1875000D03*
G54D53*
X4830000Y1681000D03*
X6100000D03*
G54D62*
X6592000Y3824930D03*
Y4183070D03*
G54D17*
X414000Y1775000D03*
X480000D03*
X1207000Y1520000D03*
X1273000D03*
X1436000Y3023000D03*
X1437000Y3119000D03*
X1436000Y3203000D03*
X1439000Y3287000D03*
X1502000Y3023000D03*
X1503000Y3119000D03*
X1502000Y3203000D03*
X1505000Y3287000D03*
X1655000Y1444000D03*
X1589000D03*
X1692000Y2990000D03*
Y3072000D03*
X1687000Y3180000D03*
X1758000Y2990000D03*
Y3072000D03*
X1753000Y3180000D03*
X3444000Y4307000D03*
X3510000D03*
X3844000Y3825000D03*
X3778000D03*
X4534000Y5888000D03*
X4468000D03*
X5850000Y13954000D03*
X5784000D03*
X7635000Y6111000D03*
X7701000D03*
X7762000Y10593000D03*
X7696000D03*
X9276000Y13318000D03*
X9271000Y13444000D03*
X9342000Y13318000D03*
X9337000Y13444000D03*
G54D71*
X7740500Y2947500D03*
Y3092500D03*
X7875500Y2947500D03*
Y3092500D03*
G54D44*
X3096000Y3158000D03*
X3366000D03*
G54D35*
X1435000Y770000D03*
X1370000D03*
X1565000D03*
X1500000D03*
X1630000D03*
G54D54*
X4981000Y5501000D03*
G54D18*
X470000Y2615000D03*
Y2725000D03*
X560000Y2615000D03*
Y2725000D03*
X600000Y3496000D03*
Y3606000D03*
X840000Y2305000D03*
X760000D03*
X840000Y2415000D03*
X760000D03*
X818000Y3494000D03*
Y3604000D03*
X797000Y13255000D03*
Y13365000D03*
X920000Y2305000D03*
Y2415000D03*
X947000Y13321000D03*
Y13431000D03*
X1094000Y13264000D03*
Y13374000D03*
X1243000Y13328000D03*
Y13438000D03*
X1360000Y1655000D03*
Y1765000D03*
X1389000Y13266000D03*
Y13376000D03*
X1553000Y13335000D03*
Y13445000D03*
X1609000Y9831000D03*
Y9941000D03*
X1690000Y13279000D03*
Y13389000D03*
X1753000Y8960000D03*
Y9070000D03*
X1870000Y9827000D03*
Y9937000D03*
Y11493000D03*
Y11603000D03*
X1840000Y13331000D03*
Y13441000D03*
X2390000Y9827000D03*
Y9937000D03*
X2487000Y8966000D03*
Y9076000D03*
X2626000Y11486000D03*
Y11596000D03*
X2873000Y9834000D03*
Y9944000D03*
X3135000Y9828000D03*
Y9938000D03*
X3339000Y4321000D03*
Y4431000D03*
X3652000Y11488000D03*
Y11598000D03*
X3931000Y9348000D03*
Y9458000D03*
X4310000Y348000D03*
Y458000D03*
X4473000Y5259000D03*
Y5369000D03*
X4476000Y5699000D03*
Y5809000D03*
X4732000Y14025000D03*
Y14135000D03*
X4734000Y14234000D03*
Y14344000D03*
X5013000Y3532000D03*
X4939000Y3533000D03*
X5013000Y3642000D03*
X4939000Y3643000D03*
X5161000Y3532000D03*
X5087000D03*
X5161000Y3642000D03*
X5087000D03*
X5088000Y4466000D03*
Y4576000D03*
X5128000Y4666000D03*
Y4776000D03*
X5188000Y4466000D03*
Y4576000D03*
X5238000Y4666000D03*
Y4776000D03*
X5193000Y6568000D03*
Y6678000D03*
X5393000Y3546000D03*
Y3656000D03*
X5298000Y4466000D03*
Y4576000D03*
X5488000Y5641000D03*
Y5751000D03*
X6113000Y8265000D03*
Y8456000D03*
Y8375000D03*
Y8566000D03*
X6677000Y344000D03*
Y454000D03*
X8928000Y2084000D03*
Y2194000D03*
X8916000Y2841000D03*
Y2951000D03*
X8921000Y3519000D03*
Y3629000D03*
X8929000Y4253000D03*
Y4363000D03*
Y4953000D03*
Y5063000D03*
Y5673000D03*
Y5783000D03*
X8939000Y6383000D03*
Y6493000D03*
X8959000Y7083000D03*
Y7193000D03*
X8949000Y7803000D03*
Y7913000D03*
Y8533000D03*
Y8643000D03*
Y9233000D03*
Y9343000D03*
Y9933000D03*
Y10043000D03*
G54D36*
X1440000Y4555000D03*
Y4725000D03*
X1420000Y5715000D03*
Y5885000D03*
G54D27*
X1058040Y2034910D03*
Y2084920D03*
Y2134930D03*
Y2184940D03*
Y2234960D03*
Y2284970D03*
Y2334980D03*
Y2384990D03*
Y2435010D03*
Y2485020D03*
Y2535030D03*
Y2585040D03*
Y2635060D03*
Y2685070D03*
Y2735080D03*
Y2785090D03*
X1204090Y5024940D03*
Y5074960D03*
Y5124970D03*
Y5174980D03*
Y5224990D03*
Y5275010D03*
Y5325020D03*
Y5375030D03*
Y5425040D03*
Y5475060D03*
X1795910Y5124970D03*
Y5074960D03*
Y5024940D03*
Y5224990D03*
Y5174980D03*
Y5325020D03*
Y5275010D03*
Y5475060D03*
Y5425040D03*
Y5375030D03*
X1941960Y2134930D03*
Y2084920D03*
Y2034910D03*
Y2234960D03*
Y2184940D03*
Y2384990D03*
Y2334980D03*
Y2284970D03*
Y2485020D03*
Y2435010D03*
Y2585040D03*
Y2535030D03*
Y2735080D03*
Y2685070D03*
Y2635060D03*
Y2785090D03*
G54D72*
X7733000Y3020000D03*
X7883000D03*
G54D63*
X6562000Y13643400D03*
X6752000D03*
G54D45*
X3090800Y3696500D03*
Y3823500D03*
Y3950500D03*
Y4077500D03*
X3633200Y3696500D03*
Y3823500D03*
Y3950500D03*
Y4077500D03*
G54D55*
X4957000Y564000D03*
G54D73*
X9759000Y5528000D03*
X9749000Y6708000D03*
Y7868000D03*
Y9068000D03*
X10009000Y5528000D03*
X9999000Y6708000D03*
Y7868000D03*
Y9068000D03*
X10259000Y5528000D03*
X10249000Y6708000D03*
Y7868000D03*
Y9068000D03*
G54D19*
X498000Y8537000D03*
Y8699000D03*
X654000Y5890000D03*
Y6052000D03*
X1240000Y4179000D03*
Y4341000D03*
X1190000Y6069000D03*
Y6231000D03*
X1430000Y4179000D03*
Y4341000D03*
X1420000Y6069000D03*
Y6231000D03*
X2100000Y5959000D03*
Y6121000D03*
X4730000Y4417000D03*
Y4579000D03*
X5628000Y4350000D03*
Y4512000D03*
X6960000Y13653000D03*
Y13815000D03*
X8830000Y13149000D03*
Y13311000D03*
X9103000Y13057000D03*
Y13219000D03*
G54D28*
X1108000Y9359000D03*
Y9619000D03*
Y9879000D03*
X1494000Y9362000D03*
X1754000D03*
X2014000D03*
X2217000Y9364000D03*
X2477000D03*
X2737000D03*
X2897000Y11553000D03*
Y11813000D03*
Y12073000D03*
X3663000Y9756000D03*
X3923000D03*
X4183000D03*
X4318000Y11713000D03*
X4578000D03*
X4838000D03*
X8507000Y2078000D03*
Y2338000D03*
Y2598000D03*
Y2798000D03*
Y3058000D03*
Y3318000D03*
X8502000Y3517000D03*
Y3777000D03*
Y4037000D03*
X8509000Y4248000D03*
Y4508000D03*
Y4768000D03*
Y4958000D03*
Y5218000D03*
Y5478000D03*
Y5668000D03*
Y5928000D03*
Y6188000D03*
Y6378000D03*
Y6638000D03*
Y6898000D03*
Y7088000D03*
Y7348000D03*
Y7608000D03*
Y7798000D03*
Y8058000D03*
Y8318000D03*
Y8508000D03*
Y8768000D03*
Y9028000D03*
Y9218000D03*
Y9478000D03*
Y9738000D03*
Y9928000D03*
Y10188000D03*
Y10448000D03*
G54D37*
X1470000Y6917000D03*
Y7017000D03*
Y7117000D03*
Y7217000D03*
Y7317000D03*
Y7517000D03*
Y7417000D03*
Y7617000D03*
X1560000Y6917000D03*
Y7017000D03*
Y7117000D03*
Y7217000D03*
Y7317000D03*
Y7517000D03*
Y7417000D03*
Y7617000D03*
X2145000Y8210000D03*
X2235000D03*
G54D46*
X3362000Y3887000D03*
G54D64*
X6657000Y13833260D03*
G54D65*
X6776000Y7384000D03*
Y7638000D03*
G54D29*
X1104000Y10197000D03*
X1359000D03*
X1612000D03*
X1866000D03*
Y11223000D03*
X2120000Y10197000D03*
X2375000D03*
X2629000Y11222000D03*
X2882000Y10197000D03*
X2883000Y11223000D03*
X3136000Y10197000D03*
X3137000Y11223000D03*
X3644000Y10197000D03*
Y11223000D03*
G54D47*
X3143000Y5096000D03*
Y5162000D03*
X3362000Y5094000D03*
Y5160000D03*
X4108000Y4102000D03*
Y4168000D03*
X4103000Y4520000D03*
Y4454000D03*
X4310000Y4102000D03*
Y4168000D03*
X4214000Y4100000D03*
Y4166000D03*
X4295000Y4509000D03*
Y4443000D03*
X4207000Y4509000D03*
Y4443000D03*
X4516000Y4511000D03*
Y4445000D03*
X4567000Y4510000D03*
Y4444000D03*
X4620000Y4510000D03*
Y4444000D03*
X5962000Y8188000D03*
Y8122000D03*
X7078000Y14017000D03*
Y14083000D03*
X10380000Y14003000D03*
Y14069000D03*
G54D56*
X4878000Y3836000D03*
Y3886000D03*
Y3936000D03*
Y3986000D03*
Y4036000D03*
Y4086000D03*
Y4136000D03*
Y4186000D03*
Y4236000D03*
Y4286000D03*
X5458000Y3936000D03*
Y3886000D03*
Y3836000D03*
Y4036000D03*
Y3986000D03*
Y4136000D03*
Y4086000D03*
Y4286000D03*
Y4236000D03*
Y4186000D03*
G54D74*
X9909000Y9868000D03*
Y10268000D03*
Y10768000D03*
Y11168000D03*
Y11568000D03*
Y11968000D03*
Y12468000D03*
Y12868000D03*
X10589000Y9868000D03*
Y10268000D03*
Y10768000D03*
Y11168000D03*
Y11568000D03*
Y11968000D03*
Y12468000D03*
Y12868000D03*
G54D38*
X1645000Y7732000D03*
Y7682000D03*
X1643000Y7816000D03*
Y7866000D03*
X1879000Y4216000D03*
Y4276000D03*
X1880000Y5130000D03*
X1940000D03*
X2170000Y8310000D03*
Y8410000D03*
X2276000Y509000D03*
Y569000D03*
X2230000Y8310000D03*
Y8410000D03*
X4931000Y5869000D03*
X4991000D03*
X5768000Y4351000D03*
Y4411000D03*
X5858000Y4351000D03*
Y4411000D03*
X5938000Y4351000D03*
Y4411000D03*
X6578000Y1935000D03*
Y1875000D03*
X6876000Y3816000D03*
X6936000D03*
X6874000Y4181000D03*
Y4121000D03*
G54D75*
G01X460000Y2525780D02*
X446780Y2539000D01*
X422000D01*
X326000Y2635000D01*
X208000D01*
X132000Y2559000D01*
Y2010000D01*
X204000Y1938000D01*
X753000D01*
X786000Y1971000D01*
Y2008000D01*
X801000Y2023000D01*
X970720D01*
X1032640Y2084920D01*
X1058040D01*
G01X366000Y2009000D02*
X310800D01*
X262610Y2057190D01*
Y2126210D01*
X316860Y2180460D01*
X365000D01*
G01X198000Y2502000D02*
X217000Y2521000D01*
X317000D01*
X365000Y2473000D01*
Y2439540D01*
G01X184000Y6014000D02*
Y6129000D01*
X195000Y6140000D01*
G01X182000Y6376000D02*
Y6503000D01*
G01Y6659000D02*
Y6789000D01*
G01X185000Y6919000D02*
Y7050000D01*
G01Y7203000D02*
Y7332000D01*
G01X183000Y7476000D02*
Y7594000D01*
G01X178000Y7744000D02*
Y7859000D01*
G01X186000Y8025000D02*
Y8151000D01*
G01X180000Y8312000D02*
Y8442000D01*
G01X414000Y1775000D02*
X338000D01*
G01X296000Y4228000D02*
X366870Y4157130D01*
Y4019870D01*
X283000Y3936000D01*
Y3909000D01*
G01X351000Y14021000D02*
X477000Y14147000D01*
G01X476000Y2009000D02*
X564000D01*
X565000Y2010000D01*
G01X460000Y2180460D02*
Y2092000D01*
X476000Y2076000D01*
G01X460000Y2525780D02*
Y2439540D01*
G01Y2525780D02*
Y2549800D01*
X470000Y2559800D01*
Y2615000D01*
G01X498000Y8699000D02*
Y8775000D01*
X451000Y8822000D01*
G01X555000Y2180460D02*
Y2070200D01*
X565000Y2060200D01*
Y2010000D01*
G01X555000Y2180460D02*
X603140D01*
X626600Y2157000D01*
X971800D01*
X999740Y2184940D01*
X1058040D01*
G01X671000Y2382000D02*
X613460Y2439540D01*
X555000D01*
G01D02*
Y2554800D01*
X560000Y2559800D01*
Y2615000D01*
G01X1058040Y2485020D02*
X944980D01*
X700000Y2730000D01*
Y2828000D01*
X600000Y2928000D01*
Y3145590D01*
G01Y3496000D02*
Y3356410D01*
G01X595000Y5320000D02*
Y5273000D01*
G01X654000Y5890000D02*
X550000D01*
X539000Y5879000D01*
G01X704000Y2442000D02*
X695000Y2451000D01*
Y2572000D01*
X727500Y2604500D01*
X778500D01*
X840000Y2543000D01*
Y2415000D01*
G01X827000Y5505220D02*
X799220D01*
X722000Y5428000D01*
G01X653000Y8594000D02*
Y8616000D01*
X693000Y8656000D01*
G01X708000Y9617000D02*
X713000D01*
X764000Y9668000D01*
X904000D01*
X953000Y9619000D01*
X1108000D01*
G01X651000Y14021000D02*
X746000Y14116000D01*
Y14160000D01*
G01X815410Y1589750D02*
Y1417590D01*
G01Y1780250D02*
X828160Y1793000D01*
X875000D01*
X969000Y1887000D01*
X1152180D01*
X1174920Y1909740D01*
Y1968040D01*
G01X762000Y2109000D02*
X969000D01*
X994930Y2134930D01*
X1058040D01*
G01X920000Y2305000D02*
X840000D01*
G01D02*
X760000D01*
G01X818000Y3143590D02*
Y2749670D01*
X1032640Y2535030D01*
X1058040D01*
G01X818000Y3494000D02*
Y3354410D01*
G01X1003000Y3762000D02*
X807000D01*
X745000Y3824000D01*
G01X889000Y5220000D02*
X835000D01*
X814000Y5241000D01*
G01X907220Y5370000D02*
X836740D01*
X824000Y5382740D01*
Y5391000D01*
G01X827000Y5505220D02*
X1098780D01*
X1178960Y5425040D01*
X1204090D01*
G01X827000Y5650780D02*
Y5725000D01*
G01X815000Y6400000D02*
Y6509000D01*
G01X811000Y6664000D02*
Y6786000D01*
G01X808000Y6920000D02*
Y7035000D01*
G01X800000Y7212000D02*
Y7324000D01*
X807000Y7331000D01*
G01X805000Y7474000D02*
Y7594000D01*
G01X800000Y7755000D02*
Y7880000D01*
G01X798000Y8032000D02*
Y8162000D01*
G01X784000Y8314000D02*
Y8451000D01*
G01X797000Y13365000D02*
Y13867000D01*
X951000Y14021000D01*
G01X1079000Y1790000D02*
X970000D01*
G01X1058040Y2284970D02*
X990230D01*
X970200Y2305000D01*
X920000D01*
G01Y2415000D02*
Y2445000D01*
X894000Y2471000D01*
G01X1058040Y2685070D02*
X973930D01*
G01X1105000Y3882000D02*
X1078000Y3909000D01*
X958000D01*
G01X1088000Y3993000D02*
X963000D01*
X956000Y3986000D01*
G01X967220Y4930000D02*
Y5003780D01*
G01X964000Y5662000D02*
X967220Y5658780D01*
Y5570000D01*
G01X947000Y13431000D02*
Y13436000D01*
X894000Y13489000D01*
Y13565060D01*
X951000Y13622060D01*
Y13721000D01*
G01X1140000Y1420000D02*
X1017000D01*
G01X1089000Y1630000D02*
X976000D01*
G01X1124910Y1968040D02*
X1021040D01*
X989000Y1936000D01*
G01X1099000Y4780000D02*
X1017000D01*
G01X1044000Y5091000D02*
X1045000Y5090000D01*
X1067000D01*
X1101970Y5124970D01*
X1204090D01*
G01X1051000Y5220000D02*
X1106010Y5275010D01*
X1204090D01*
G01X1052780Y5370000D02*
Y5442220D01*
G01X1090220Y5742000D02*
X1017000D01*
X1009000Y5734000D01*
G01X1094000Y13374000D02*
Y13864000D01*
X1251000Y14021000D01*
G01X1175000Y1061000D02*
Y924800D01*
X1329800Y770000D01*
X1370000D01*
G01X1207000Y1520000D02*
X1141000D01*
X1134000Y1527000D01*
G01X1174920Y2851960D02*
Y2930080D01*
G01X1193000Y3762000D02*
X1304000D01*
G01X1112780Y4933630D02*
Y5011780D01*
G01X1204090Y5224990D02*
Y5174980D01*
G01D02*
Y5124970D01*
G01X1112780Y5570000D02*
Y5630220D01*
G01X1190000Y6231000D02*
Y6342000D01*
G01X1104000Y10197000D02*
Y9969240D01*
X1108000Y9965240D01*
Y9879000D01*
G01X1243000Y13438000D02*
Y13443000D01*
X1184000Y13502000D01*
Y13555060D01*
X1251000Y13622060D01*
Y13721000D01*
G01X1324960Y1968040D02*
Y1892960D01*
G01X1218000Y4045000D02*
Y3920000D01*
X1288000Y3850000D01*
X1455000D01*
G01X1240000Y4179000D02*
Y4107790D01*
X1253790Y4094000D01*
G01X1324960Y4954090D02*
Y4843960D01*
X1261000Y4780000D01*
G01X1500000Y5250000D02*
X1281000D01*
G01X1235780Y5742000D02*
X1242780Y5735000D01*
Y5628090D01*
X1269870Y5601000D01*
X1295000D01*
X1324960Y5571040D01*
Y5545910D01*
G01X1424980Y1968040D02*
Y1932030D01*
X1434980Y1922030D01*
Y1809250D01*
X1434490Y1808760D01*
Y1439240D01*
X1452500Y1421230D01*
Y848110D01*
X1435000Y830610D01*
Y770000D01*
G01X1360000Y1655000D02*
Y1576000D01*
G01X1374970Y1968040D02*
Y1871970D01*
X1360000Y1857000D01*
Y1765000D01*
G01X1424980Y2916980D02*
Y2851960D01*
G01X1430000Y2922000D02*
X1424980Y2916980D01*
G01X1430000Y4179000D02*
Y4104000D01*
X1465000Y4069000D01*
G01X1374970Y4954090D02*
Y4898970D01*
G01X1424980Y4954090D02*
Y4902000D01*
G01X1420000Y6231000D02*
Y6335000D01*
G01X1470000Y6917000D02*
X1407000D01*
X1353000Y6971000D01*
G01X1382000Y7046000D02*
X1404000Y7024000D01*
X1461000D01*
X1468000Y7017000D01*
X1470000D01*
G01Y7117000D02*
X1387000D01*
X1360000Y7144000D01*
G01X1470000Y7217000D02*
X1396000D01*
X1368000Y7245000D01*
G01X1470000Y7317000D02*
X1405000D01*
X1374000Y7348000D01*
G01X1470000Y7417000D02*
X1397000D01*
X1365000Y7449000D01*
G01X1470000Y7617000D02*
X1410000D01*
X1372000Y7655000D01*
G01X1470000Y7517000D02*
X1411000D01*
X1366000Y7562000D01*
G01X1494000Y9362000D02*
Y10062000D01*
X1359000Y10197000D01*
G01X1389000Y13376000D02*
Y13778000D01*
X1384000Y13783000D01*
Y13854000D01*
X1551000Y14021000D01*
G01X1474990Y1968040D02*
Y1932030D01*
X1464980Y1922020D01*
Y1796820D01*
X1464490Y1796330D01*
Y1451670D01*
X1482500Y1433660D01*
Y848110D01*
X1500000Y830610D01*
Y770000D01*
G01X1521000Y4431000D02*
X1551000Y4401000D01*
X1643000D01*
G01X1474990Y4954090D02*
Y4902990D01*
G01X1525010Y4888010D02*
Y4954090D01*
G01X1500000Y5250000D02*
Y5034000D01*
X1502000Y5032000D01*
G01X1500000Y5250000D02*
X1715000D01*
X1716000Y5251000D01*
G01X1500000Y5250000D02*
Y5458000D01*
X1499000Y5459000D01*
G01X1500000Y5250000D02*
X1502000Y5252000D01*
G01X1575020Y5545910D02*
X1525010D01*
G01X1500000Y5614000D02*
X1525010Y5588990D01*
Y5545910D01*
G01X1580000Y5700260D02*
Y5655000D01*
X1562000Y5637000D01*
G01X1520000Y6003000D02*
X1546000Y6029000D01*
X1712000D01*
G01X1643000Y7816000D02*
X1586000D01*
X1563000Y7793000D01*
G01X1551000Y13721000D02*
Y13502200D01*
X1553000Y13500200D01*
Y13445000D01*
G01X1630000Y770000D02*
X1670200D01*
X1697000Y743200D01*
Y717000D01*
G01X1665000Y1322000D02*
X1807000D01*
G01X1655000Y1444000D02*
X1702000D01*
G01X1575020Y1968040D02*
Y1887980D01*
G01X1625030Y1968040D02*
Y1888030D01*
G01X1675040Y2921960D02*
Y2851960D01*
G01X1673000Y2924000D02*
X1675040Y2921960D01*
G01X1643000Y4401000D02*
X1595000Y4353000D01*
Y4013000D01*
X1698000Y3910000D01*
X1762000D01*
X1843000Y3829000D01*
Y3713000D01*
G01X1788000Y4044000D02*
X1688000D01*
X1673500Y4058500D01*
Y4103500D01*
G01X1600000Y4577220D02*
Y4499000D01*
X1599000Y4498000D01*
G01X1625030Y4954090D02*
X1675040D01*
G01X1580000Y5862780D02*
Y5931000D01*
G01X1686000Y6314000D02*
X1620000D01*
X1587000Y6281000D01*
Y6205000D01*
G01X1650000Y6831000D02*
Y6755000D01*
G01X1645000Y7732000D02*
X1698000Y7785000D01*
X1728000D01*
X1734000Y7791000D01*
Y7844000D01*
X1712000Y7866000D01*
X1643000D01*
G01X1612000Y10197000D02*
Y9999200D01*
X1609000Y9996200D01*
Y9941000D01*
G01X1690000Y13389000D02*
Y13860000D01*
X1851000Y14021000D01*
G01X1717000Y1595000D02*
X1788210D01*
X1824000Y1559210D01*
G01X1713000Y1782000D02*
Y1691000D01*
G01X1884000Y1695000D02*
X1825000D01*
X1810000Y1710000D01*
Y1907710D01*
X1775070Y1942640D01*
Y1968040D01*
G01X1725060D02*
Y1894060D01*
X1724000Y1893000D01*
G01X1775070Y2851960D02*
Y2910260D01*
X1803810Y2939000D01*
G01X1758000Y2990000D02*
Y3072000D01*
G01D02*
Y3175000D01*
X1753000Y3180000D01*
G01X1706230Y3232180D02*
Y3239230D01*
X1878000Y3411000D01*
X2047000D01*
G01X1879000Y4137000D02*
X1766000D01*
X1727000Y4176000D01*
G01X1710000Y4577220D02*
Y4493000D01*
G01X1754000Y4886000D02*
X1725060Y4914940D01*
Y4954090D01*
G01X1778000Y4927000D02*
X1750910Y4954090D01*
G01X1760000Y4886000D02*
X1754000D01*
G01X1750910Y4954090D02*
X1725060D01*
G01X1957500Y4938500D02*
X1852500D01*
X1795910Y4995090D01*
Y5024940D01*
G01X2221000Y5201000D02*
X2091000D01*
X1930200Y5040200D01*
X1888970D01*
X1854210Y5074960D01*
X1795910D01*
G01Y5224990D02*
X1924990D01*
X1928000Y5228000D01*
G01X1795910Y5174980D02*
X1904980D01*
G01X1795910Y5325020D02*
X1923980D01*
G01X1795910Y5275010D02*
X1983010D01*
X2035000Y5327000D01*
G01X2603000Y5615000D02*
X2309000D01*
X2169060Y5475060D01*
X1795910D01*
G01X1912000Y5375030D02*
X1795910D01*
G01Y5425040D02*
X1861990D01*
X1912000Y5375030D01*
G01X1776000Y5556000D02*
X1765910Y5545910D01*
G01X1725060D02*
Y5571310D01*
X1752050Y5598300D01*
G01D02*
X1767700D01*
X1770000Y5596000D01*
G01X1765910Y5545910D02*
X1725060D01*
G01X1700000Y5692000D02*
X1745000Y5647000D01*
G01X1700000Y5862780D02*
Y5932000D01*
G01X1796000Y6314000D02*
X1887000D01*
X1901000Y6300000D01*
G01X1796000Y6389000D02*
X1885000D01*
X1905000Y6369000D01*
G01X1875000Y495000D02*
X2109790D01*
X2115790Y501000D01*
X2168000D01*
G01X1875090Y1968040D02*
Y1890110D01*
X1895000Y1870200D01*
Y1820000D01*
G01X1825080Y1968040D02*
Y2029920D01*
X1825000Y2030000D01*
G01X2092000Y3423000D02*
X1992000Y3523000D01*
X1843000D01*
G01X1879000Y4137000D02*
X1884000Y4132000D01*
G01X1879000Y4216000D02*
Y4137000D01*
G01Y4276000D02*
Y4352000D01*
X1878000Y4353000D01*
G01X1853000Y4554000D02*
X1912000Y4495000D01*
X2025000D01*
X2145000Y4375000D01*
X2370000D01*
G01X1912000Y5375030D02*
X2134770D01*
X2319800Y5190000D01*
G01X1866000Y10197000D02*
Y9996200D01*
X1870000Y9992200D01*
Y9937000D01*
G01X1866000Y11223000D02*
Y11433800D01*
X1870000Y11437800D01*
Y11493000D01*
G01X1851000Y13721000D02*
Y13507200D01*
X1840000Y13496200D01*
Y13441000D01*
G01X1994000Y1695000D02*
Y1640000D01*
G01X2005000Y1820000D02*
X2094000D01*
G01X1941960Y2034910D02*
X2007890D01*
X2039800Y2003000D01*
X2095000D01*
G01Y2083000D02*
X2002180D01*
X2000260Y2084920D01*
X1941960D01*
G01Y2134930D02*
X2011730D01*
X2039800Y2163000D01*
X2095000D01*
G01X2552000Y2243000D02*
X2446000D01*
X2425000Y2264000D01*
X2029300D01*
X2000260Y2234960D01*
X1941960D01*
G01X2552000Y2323000D02*
X2195000D01*
X2162000Y2356000D01*
X2071290D01*
X2000260Y2284970D01*
X1941960D01*
G01X2552000Y2403000D02*
X2239800D01*
X2214800Y2428000D01*
X2010370D01*
X1967360Y2384990D01*
X1941960D01*
G01Y2435010D02*
X1967360D01*
X2012350Y2480000D01*
X2024000D01*
G01X2011500Y3206000D02*
X1973000D01*
X1972000Y3207000D01*
G01X2013500Y3105000D02*
X1967000D01*
X1963000Y3109000D01*
G01X2012500Y3331000D02*
X1973000D01*
X1972000Y3330000D01*
G01X2057000Y3401000D02*
X2047000Y3411000D01*
G01X1940000Y5130000D02*
Y5156000D01*
X2009000Y5225000D01*
G01X2035000Y5588000D02*
Y5656000D01*
G01X2100000Y6121000D02*
X1990000D01*
X1933000Y6064000D01*
G01X2168000Y591000D02*
Y645000D01*
X2193000Y670000D01*
G01X2159000Y5644000D02*
Y5538000D01*
G01X2100000Y6121000D02*
X2183000D01*
X2232000Y6072000D01*
G01X2145000Y8210000D02*
X2080000D01*
X2063000Y8193000D01*
G01X2170000Y8310000D02*
X2105000D01*
X2095000Y8300000D01*
G01X2217000Y9364000D02*
Y10100000D01*
X2120000Y10197000D01*
G01X2276000Y569000D02*
Y634000D01*
X2296000Y654000D01*
G01X2168000Y501000D02*
X2232800D01*
X2240800Y509000D01*
X2276000D01*
G01X2204000Y1820000D02*
Y1759000D01*
G01X2552000Y2003000D02*
X2205000D01*
G01Y2083000D02*
X2238500Y2049500D01*
X2518500D01*
X2552000Y2083000D01*
G01X2205000Y2163000D02*
X2227000Y2185000D01*
X2530000D01*
X2552000Y2163000D01*
G01X2370000Y4185000D02*
X2256000D01*
G01X2206000Y4426000D02*
X2243000Y4463000D01*
X2429000D01*
X2526000Y4560000D01*
Y4577000D01*
X2694000Y4745000D01*
X2760000D01*
X2960000Y4945000D01*
Y5458000D01*
X2803000Y5615000D01*
X2793000D01*
G01X2381000Y4600000D02*
Y4509000D01*
G01Y4800000D02*
X2435000D01*
X2493000Y4742000D01*
G01X2405000Y4990000D02*
X2485000D01*
X2498000Y4977000D01*
G01X2319800Y5190000D02*
X2375000D01*
G01X2345000Y5770000D02*
X2390000D01*
X2432000Y5728000D01*
G01X2375000Y10197000D02*
Y10007200D01*
X2390000Y9992200D01*
Y9937000D01*
G01X2447000Y3095000D02*
X2549000D01*
X2568000Y3076000D01*
G01X2442000Y3321000D02*
X2545000D01*
X2561000Y3305000D01*
G01X2632000Y5073000D02*
X2512000D01*
X2497000Y5088000D01*
G01X2485000Y5190000D02*
X2582000D01*
X2587000Y5185000D01*
G01X2481000Y5304000D02*
X2570000D01*
X2579000Y5295000D01*
G01X2477000Y9364000D02*
Y9141200D01*
X2487000Y9131200D01*
Y9076000D01*
G01X2501000Y14021000D02*
X2617000Y14137000D01*
Y14161000D01*
G01X2731000Y4194000D02*
X2639000D01*
G01X2632000Y4883000D02*
Y4784000D01*
X2639000Y4777000D01*
G01X2603000Y5437000D02*
X2642000Y5398000D01*
Y5292000D01*
X2592000Y5242000D01*
X2573000D01*
G01X2611000Y7255000D02*
X2578840Y7287160D01*
G01X2629000Y11222000D02*
Y11427800D01*
X2626000Y11430800D01*
Y11486000D01*
G01X2884000Y3701000D02*
X2845000Y3740000D01*
X2752000D01*
G01X2691000Y7255000D02*
X2658840Y7287160D01*
G01X2882000Y3907000D02*
Y3875000D01*
X2933500Y3823500D01*
X3090800D01*
G01X2765000Y5437000D02*
X2845000D01*
X2867000Y5415000D01*
G01X2882000Y10197000D02*
Y10008200D01*
X2873000Y9999200D01*
Y9944000D01*
G01X2883000Y11223000D02*
Y11452760D01*
X2897000Y11466760D01*
Y11553000D01*
G01X2801000Y14021000D02*
X2885000Y14105000D01*
Y14125000D01*
G01X3090800Y3950500D02*
X2986500D01*
X2965000Y3929000D01*
G01X8944000Y8058000D02*
X8939000D01*
X8824000Y8173000D01*
X8774000D01*
G01X2931000Y6935000D02*
X2898840Y6902840D01*
G01X3011000Y6935000D02*
X2978840Y6902840D01*
G01X2897000Y11813000D02*
X3140800D01*
X3142800Y11815000D01*
X3198000D01*
G01X2963040Y13147950D02*
Y13022480D01*
X2942670Y13002110D01*
Y12969000D01*
G01X2993040Y13147750D02*
Y13022470D01*
X3013400Y13002110D01*
Y12969000D01*
G01X2900000Y13219000D02*
X2911890D01*
X2963170Y13167700D01*
X2963040Y13147950D01*
G01D02*
X2962800Y13109860D01*
G01X3057000Y13218000D02*
X3045110D01*
X2993170Y13166070D01*
X2993040Y13147750D01*
G01D02*
X2992800Y13109660D01*
G01X2900000Y13409000D02*
Y13820000D01*
X3101000Y14021000D01*
G01X3401000D02*
X3247000Y13867000D01*
X3059000D01*
X2983000Y13791000D01*
Y13602000D01*
X3057000Y13528000D01*
Y13408000D01*
G01X3025000Y4359000D02*
Y4385000D01*
G01D02*
X3089000Y4449000D01*
G01X3162000Y5295000D02*
X3170000Y5303000D01*
Y5405000D01*
X3135000Y5440000D01*
X3060000D01*
G01X3101000Y13721000D02*
Y13622060D01*
X3148060Y13575000D01*
G01X3143000Y5096000D02*
X3232000D01*
G01X3171000Y7255000D02*
X3203160Y7287160D01*
G01X3136000Y10197000D02*
Y9994200D01*
X3135000Y9993200D01*
Y9938000D01*
G01X4318000Y11713000D02*
X4231760D01*
X4230760Y11712000D01*
X3440000D01*
X3137000Y11409000D01*
Y11223000D01*
G01X3257320Y12836000D02*
Y12869110D01*
X3277690Y12889480D01*
Y13108680D01*
X3277330Y13164580D01*
X3224890Y13217000D01*
X3213000D01*
G01X4001000Y14021000D02*
X3875000Y14147000D01*
X3632000D01*
X3499940Y14014940D01*
Y13980010D01*
X3441990Y13922060D01*
X3393060D01*
X3213000Y13742000D01*
Y13407000D01*
G01X3287000Y3382000D02*
X3357000D01*
X3363000Y3388000D01*
G01X3274000Y3532000D02*
X3360000D01*
X3368000Y3524000D01*
G01X3339000Y4431000D02*
Y4498000D01*
G01X3251000Y7255000D02*
X3283160Y7287160D01*
G01X3328050Y12836000D02*
Y12869110D01*
X3307690Y12889470D01*
Y13108870D01*
X3307330Y13166190D01*
X3359110Y13218000D01*
X3371000D01*
G01Y13408000D02*
Y13576000D01*
X3263610Y13683390D01*
Y13723540D01*
X3360010Y13819940D01*
X3401000D01*
X3602060Y14021000D01*
X3701000D01*
G01X3366000Y3158000D02*
X3509000D01*
G01X3442000Y4239000D02*
X3438100Y4235100D01*
Y4219900D01*
G01D02*
X3463000Y4195000D01*
G01X3362000Y5094000D02*
X3484000D01*
G01X3464000Y13575000D02*
X3587200D01*
X3685000Y13477200D01*
Y13407000D01*
G01X3401000Y13721000D02*
Y13588210D01*
X3449410Y13539800D01*
X3465400D01*
X3529000Y13476200D01*
Y13406000D01*
G01X3510000Y4307000D02*
X3570000D01*
G01X3572330Y12567000D02*
Y12600110D01*
X3592700Y12620480D01*
Y13107680D01*
X3592330Y13164570D01*
X3540890Y13216000D01*
X3529000D01*
G01X3633200Y3823500D02*
X3733300D01*
X3734800Y3825000D01*
X3778000D01*
G01X3644000Y10197000D02*
Y9861240D01*
X3663000Y9842240D01*
Y9756000D01*
G01X3644000Y11223000D02*
Y11424800D01*
X3652000Y11432800D01*
Y11488000D01*
G01X3643060Y12567000D02*
Y12600110D01*
X3622700Y12620470D01*
Y13107880D01*
X3622330Y13166200D01*
X3673110Y13217000D01*
X3685000D01*
G01X3701000Y13721000D02*
X3853000Y13873000D01*
X4106000D01*
X4173000Y13806000D01*
Y13663000D01*
X4000000Y13490000D01*
Y13404000D01*
G01X3778000Y3825000D02*
Y3767000D01*
X3831000Y3714000D01*
G01X4310000Y587000D02*
X4214000D01*
X3903000Y898000D01*
Y2741000D01*
X4192000Y3030000D01*
X5110000D01*
X5458000Y3378000D01*
Y3414000D01*
G01X3844000Y3825000D02*
X3887200D01*
X3901000Y3811200D01*
G01X3926000Y4309000D02*
Y4209000D01*
G01X3923000Y9756000D02*
Y9521200D01*
X3931000Y9513200D01*
Y9458000D01*
G01X3873640Y12598000D02*
Y12631110D01*
X3890000Y12647470D01*
Y13093140D01*
X3903930Y13107080D01*
X3904970Y13161540D01*
X3904960Y13161560D01*
X3905040Y13165790D01*
X3903890Y13167000D01*
X3853890Y13217000D01*
X3842000D01*
G01X3944370Y12598000D02*
Y12631110D01*
X3920000Y12655480D01*
Y13080710D01*
X3933700Y13094410D01*
X3933930Y13106500D01*
X3934970Y13160970D01*
X3938110Y13164000D01*
X3988110Y13214000D01*
X4000000D01*
G01X3842000Y13407000D02*
Y13562000D01*
X4001000Y13721000D01*
G01X4742000Y317000D02*
X4645280D01*
X4018500Y943780D01*
Y2712500D01*
X4278000Y2972000D01*
X5161000D01*
X5629000Y3440000D01*
Y3802000D01*
X5545000Y3886000D01*
X5458000D01*
G01X4108000Y4102000D02*
Y4060000D01*
G01X4103000Y4520000D02*
Y4577000D01*
G01X4996000Y317000D02*
Y220280D01*
X4995000Y219280D01*
Y200000D01*
X4955000Y160000D01*
X4442800D01*
X4310000Y292800D01*
Y348000D01*
G01Y458000D02*
Y587000D01*
G01X4227000Y3278000D02*
Y3200000D01*
X4228000Y3199000D01*
G01X4214000Y4100000D02*
Y4064000D01*
G01X4310000Y4102000D02*
Y4058000D01*
G01X4207000Y4509000D02*
Y4568000D01*
G01X4295000Y4509000D02*
Y4562000D01*
G01X4357000Y8776000D02*
X4271000D01*
X4230000Y8817000D01*
G01X6677000Y454000D02*
Y541000D01*
X6497000Y721000D01*
X4382000D01*
G01X4593650Y5310500D02*
X4407500D01*
X4395000Y5323000D01*
G01X4476000Y5809000D02*
X4424000D01*
X4416000Y5801000D01*
G01X4417000Y7622000D02*
X4382910Y7587910D01*
G01X4416500Y8927000D02*
Y9005000D01*
X4413500Y9008000D01*
G01X4444000Y8885000D02*
X4366000D01*
X4342000Y8909000D01*
G01X4413500Y9008000D02*
Y9099000D01*
X4412500Y9100000D01*
G01X4413500Y9008000D02*
X4378000D01*
X4366000Y9020000D01*
G01X4410500Y9203000D02*
Y9102000D01*
X4412500Y9100000D01*
G01X4516000Y4511000D02*
Y4559000D01*
G01X5488000Y5751000D02*
X5437800D01*
X5436800Y5752000D01*
X5306000D01*
X5273000Y5719000D01*
Y5158000D01*
X5247000Y5132000D01*
X4595000D01*
X4473000Y5254000D01*
Y5259000D01*
G01X4593650Y5437500D02*
X4476500D01*
X4469000Y5445000D01*
G01D02*
Y5373000D01*
X4473000Y5369000D01*
G01X4468000Y5563000D02*
X4528770D01*
X4530270Y5564500D01*
X4593650D01*
G01X4476000Y5699000D02*
X4586150D01*
X4593650Y5691500D01*
G01X4476000Y5809000D02*
Y5880000D01*
X4468000Y5888000D01*
G01X4534000D02*
X4595000D01*
X4604000Y5879000D01*
G01X4497000Y7302000D02*
X4462910Y7267910D01*
G01X4497000Y7222000D02*
X4462910Y7187910D01*
G01X4497000Y7622000D02*
X4462910Y7587910D01*
G01X4658000Y1998000D02*
X4765000Y2105000D01*
Y2379000D01*
X4802000Y2416000D01*
X5075000D01*
X5493000Y1998000D01*
X6271000D01*
G01X4622000Y4378000D02*
X4620000Y4380000D01*
G01X4588000Y4388000D02*
X4567000Y4409000D01*
Y4444000D01*
G01X4620000Y4380000D02*
Y4444000D01*
G01Y4510000D02*
Y4557000D01*
X4626000Y4563000D01*
G01X4567000Y4510000D02*
Y4558000D01*
G01X4729000Y9354500D02*
X4646000D01*
X4642000Y9350500D01*
G01D02*
X4555000D01*
X4554000Y9351500D01*
G01X4578000Y11713000D02*
Y11979000D01*
G01X4724510Y13500000D02*
Y13441700D01*
X4667810Y13385000D01*
X4655000D01*
G01X4730000Y4579000D02*
Y4654000D01*
G01X4821000Y9354500D02*
X4729000D01*
G01D02*
Y9397000D01*
X4720000Y9406000D01*
G01X4734000Y14344000D02*
X4790000D01*
X4837000Y14391000D01*
G01X4931000Y5869000D02*
X4859000D01*
X4854000Y5864000D01*
G01X4878000Y9312000D02*
Y9377000D01*
G01X4957000Y564000D02*
X5114000Y407000D01*
X5815000D01*
X5972000Y564000D01*
G01X5533000Y900000D02*
Y1500000D01*
X5095000Y1938000D01*
X5013000D01*
G01X5757500Y896500D02*
Y1481500D01*
X4939000Y2300000D01*
Y2349000D01*
G01Y3643000D02*
X4932380Y3649620D01*
Y3710180D01*
X4943000Y3720800D01*
Y3771000D01*
G01X4993000D02*
Y3717200D01*
X5013000Y3697200D01*
Y3642000D01*
G01X4943000Y4351000D02*
Y4388000D01*
X4934000Y4397000D01*
G01X5057000Y7302000D02*
X5022910Y7267910D01*
G01X5057000Y7222000D02*
X5022910Y7187910D01*
G01X4984000Y8796000D02*
Y9007000D01*
X4985000Y9008000D01*
G01D02*
Y9092500D01*
X4934500Y9143000D01*
G01D02*
Y9214000D01*
X4935500Y9215000D01*
G01D02*
Y9263500D01*
X4936000Y9264000D01*
G01X5145000Y1066000D02*
X5228000D01*
X5361000Y933000D01*
G01X5093000Y3771000D02*
Y3703200D01*
X5087000Y3697200D01*
Y3642000D01*
G01D02*
X5088000D01*
X5097000Y3633000D01*
G01X5043000Y3771000D02*
Y3716000D01*
G01X5161000Y3642000D02*
Y3702800D01*
X5143000Y3720800D01*
Y3771000D01*
G01X5093000Y4351000D02*
Y4405800D01*
X5088000Y4410800D01*
Y4466000D01*
G01X5143000Y4351000D02*
Y4422660D01*
X5141500Y4424160D01*
Y4652500D01*
X5128000Y4666000D01*
G01X5193000Y3771000D02*
Y3698340D01*
X5234340Y3657000D01*
X5309000D01*
X5343000Y3691000D01*
Y3771000D01*
G01X5243000D02*
Y3714000D01*
G01Y4351000D02*
Y4605800D01*
X5238000Y4610800D01*
Y4666000D01*
G01X5188000Y4466000D02*
X5182390Y4460390D01*
Y4411810D01*
X5193000Y4401200D01*
Y4351000D01*
G01X5378000Y4605800D02*
Y4777000D01*
X5315000Y4840000D01*
X5208430D01*
X5177000Y4808570D01*
Y4656000D01*
X5188000Y4645000D01*
Y4576000D01*
G01X5238000Y4776000D02*
X5288200D01*
X5316000Y4748200D01*
G01X5298000Y4466000D02*
Y4406200D01*
X5293000Y4401200D01*
Y4351000D01*
G01X5298000Y4576000D02*
X5348200D01*
X5378000Y4605800D01*
G01X5368350Y5310500D02*
X5434300D01*
X5436800Y5308000D01*
X5492000D01*
G01X5368350Y5437500D02*
X5486500D01*
X5492000Y5432000D01*
G01X5368350Y5564500D02*
X5435300D01*
X5436800Y5563000D01*
X5492000D01*
G01X5368350Y5691500D02*
X5449500D01*
X5451000Y5693000D01*
X5544000D01*
G01X5458000Y3414000D02*
Y3836000D01*
G01X5393000Y3546000D02*
Y3501000D01*
X5391000Y3499000D01*
G01X5393000Y3656000D02*
Y3771000D01*
G01X5733710Y3896710D02*
X5704000Y3867000D01*
X5648000D01*
X5618290Y3896710D01*
X5576290D01*
X5537000Y3936000D01*
X5458000D01*
G01Y3986000D02*
X5478000Y3966000D01*
X5524000D01*
X5539000Y3981000D01*
X5583000D01*
G01X5458000Y4136000D02*
X5518800D01*
X5523800Y4131000D01*
X5594000D01*
G01X5528000Y4263000D02*
X5509200D01*
X5482200Y4236000D01*
X5458000D01*
G01Y4186000D02*
X5475500D01*
X5511500Y4222000D01*
X6283000D01*
X6365000Y4304000D01*
X6467260D01*
X6588190Y4183070D01*
X6592000D01*
G01X5492000Y5563000D02*
Y5637000D01*
X5488000Y5641000D01*
G01X5493000Y5829000D02*
Y5903000D01*
G01X5488000Y5751000D02*
Y5824000D01*
X5493000Y5829000D01*
G01X5492000Y5975000D02*
Y5954200D01*
X5493000Y5953200D01*
Y5903000D01*
G01X5492000Y6047000D02*
Y5975000D01*
G01X5453490Y13500000D02*
Y13435510D01*
X5487000Y13402000D01*
G01X5603000Y5903000D02*
X5629000D01*
X5663000Y5869000D01*
G01X5602000Y5975000D02*
X5708000D01*
X5711000Y5972000D01*
G01X5602000Y6047000D02*
X5710000D01*
X5712000Y6049000D01*
G01X5617000Y7942000D02*
Y7943000D01*
X5652000Y7978000D01*
G01X5733710Y3896710D02*
X5778000Y3941000D01*
X5783000D01*
G01X6011000Y3945000D02*
X5967000Y3989000D01*
X5939000D01*
X5936000Y3992000D01*
X5704000D01*
X5693000Y3981000D01*
G01X5628000Y4350000D02*
X5731800D01*
X5732800Y4351000D01*
X5768000D01*
G01X5628000Y4512000D02*
Y4615000D01*
G01X5758000Y13763000D02*
Y13768000D01*
X5692000Y13834000D01*
X5677000D01*
G01X5784000Y13954000D02*
X5722000D01*
X5680000Y13996000D01*
G01X6592000Y3824930D02*
X6508300Y3741230D01*
X6312770D01*
X5923000Y4131000D01*
X5784000D01*
G01X5768000Y4351000D02*
X5858000D01*
G01D02*
X5938000D01*
G01X5768000Y4411000D02*
Y4475000D01*
G01X5858000Y4411000D02*
Y4475000D01*
G01X5822000Y6049000D02*
X5879000D01*
X5897000Y6067000D01*
G01X5821000Y5972000D02*
X5888000D01*
X5980000Y6064000D01*
G01X5758000Y13573000D02*
X5823200D01*
X5836000Y13585800D01*
G01X5850000Y13954000D02*
X5900000D01*
X5925000Y13979000D01*
G01X6677000Y344000D02*
Y235000D01*
X6596000Y154000D01*
X5999000D01*
X5933000Y220000D01*
Y317000D01*
G01D02*
X6187000D01*
G01X5938000Y4411000D02*
Y4462000D01*
X5930000Y4470000D01*
G01X5898000Y6107500D02*
Y6068000D01*
X5897000Y6067000D01*
G01X6002000Y6108500D02*
Y6086000D01*
X5980000Y6064000D01*
G01X5973000Y7186500D02*
Y7203000D01*
X5959000Y7217000D01*
G01X5883000Y7180500D02*
Y7221000D01*
X5894000Y7232000D01*
G01X5962000Y8188000D02*
X5926000D01*
X5924000Y8190000D01*
G01X7664000Y13158000D02*
X6095000D01*
X5921000Y12984000D01*
G01X5968000Y13573000D02*
X6048000D01*
X6067000Y13592000D01*
G01X6050000Y7185500D02*
Y7219000D01*
X6039000Y7230000D01*
G01X6121000Y7185500D02*
X6050000D01*
G01X6113000Y8265000D02*
X6036000D01*
X6033000Y8262000D01*
G01X5989000Y8681500D02*
X6283500D01*
X6297000Y8695000D01*
G01X6113000Y8456000D02*
Y8375000D01*
G01Y8566000D02*
X6185000D01*
X6187000Y8568000D01*
G01X6271000Y1998000D02*
X6515000D01*
X6578000Y1935000D01*
G01X6297000Y7380000D02*
X6359000D01*
X6371000Y7392000D01*
G01X6297000Y7380000D02*
Y7341000D01*
X6304000Y7334000D01*
G01X6297000Y7453000D02*
X6318000D01*
X6371000Y7400000D01*
Y7392000D01*
G01X6374000Y7466000D02*
Y7484000D01*
X6334000Y7524000D01*
X6297000D01*
G01X7664000Y12538000D02*
X6354000D01*
G01X6389000Y13733000D02*
Y13827000D01*
X6350000Y13866000D01*
G01X6578000Y1875000D02*
Y1809000D01*
X6583000Y1804000D01*
G01X6578000Y1935000D02*
X6613290D01*
X6639290Y1961000D01*
X6732000D01*
G01X6592000Y3824930D02*
X6595810D01*
X6736740Y3684000D01*
X6831000D01*
X6876000Y3729000D01*
Y3816000D01*
G01X6874000Y4181000D02*
Y4256000D01*
X6836120Y4293880D01*
X6706620D01*
X6595810Y4183070D01*
X6592000D01*
G01D02*
Y4333800D01*
X6590000Y4335800D01*
Y4406000D01*
G01X6746000Y8362000D02*
X6666000D01*
X6634000Y8394000D01*
G01X6745000Y8840000D02*
X6677000D01*
X6650000Y8867000D01*
G01X6745000Y9079000D02*
X6654000D01*
X6637000Y9096000D01*
G01X6738000Y9325000D02*
X6647000D01*
X6634000Y9312000D01*
G01X6657000Y13833260D02*
Y13991000D01*
G01X6732000Y1771000D02*
Y1655000D01*
X6748000Y1639000D01*
G01X6936000Y3816000D02*
Y3843000D01*
X6864000Y3915000D01*
G01X6874000Y4121000D02*
Y4053000D01*
X6878000Y4049000D01*
G01X6871000Y8226000D02*
Y8287140D01*
X6866340Y8291800D01*
X6866000Y8362000D01*
G01X7141000Y8575000D02*
X6992530Y8426530D01*
X6914980D01*
X6865930Y8377000D01*
X6866000Y8362000D01*
G01X6858000Y8712000D02*
Y8762460D01*
X6865340Y8769800D01*
X6865000Y8840000D01*
G01X7141000Y8829000D02*
X6931470D01*
X6920200Y8840270D01*
X6865000Y8840000D01*
G01Y9079000D02*
X7036780D01*
X7040780Y9083000D01*
X7141000D01*
G01X6856000Y9195000D02*
Y9088000D01*
X6865000Y9079000D01*
G01X7141000Y9337000D02*
X6924930D01*
X6913200Y9325270D01*
X6858000Y9325000D01*
G01X6864000Y9449000D02*
Y9331000D01*
X6858000Y9325000D01*
G01X6960000Y13815000D02*
Y13886210D01*
X7002790Y13929000D01*
G01X7252000Y13746570D02*
X7184810D01*
X7121000Y13810380D01*
G01X7468000Y2893000D02*
X7349000D01*
X7347000Y2891000D01*
G01X7531000Y3135000D02*
X7522000D01*
X7511000Y3124000D01*
Y3016000D01*
G01X7442000Y13746570D02*
Y13846000D01*
X7483000Y13887000D01*
G01X7654000Y10468000D02*
Y10508000D01*
X7638000Y10524000D01*
G01X7704000Y2834000D02*
Y2734000D01*
X7701000Y2731000D01*
G01X7737000Y3229000D02*
X7708000Y3200000D01*
Y3165200D01*
X7740500Y3132700D01*
Y3092500D01*
G01X7701000Y6111000D02*
X7761000D01*
X7764000Y6114000D01*
G01X7754000Y6188000D02*
X7953590D01*
G01X7664000Y7618000D02*
Y7700000D01*
X7670000Y7706000D01*
G01X7764000Y9028000D02*
X7963590D01*
G01X7764000Y9728000D02*
X7953590D01*
G01X7764000Y10468000D02*
X7863700D01*
X7873700Y10458000D01*
X7953590D01*
G01X7762000Y10593000D02*
Y10663000D01*
X7775000Y10676000D01*
G01X7696000Y10593000D02*
Y10633000D01*
X7688000Y10641000D01*
G01X7875500Y3092500D02*
Y3850500D01*
X8062000Y4037000D01*
X8502000D01*
G01X8507000Y2598000D02*
X8305000D01*
X7932290Y2970710D01*
Y2980710D01*
X7893000Y3020000D01*
X7883000D01*
G01X7784000Y4768000D02*
X7963590D01*
G01X7774000Y5478000D02*
X7963590D01*
G01X7774000Y6918000D02*
X7953590D01*
G01X7774000Y7618000D02*
X7953590D01*
G01X7774000Y8318000D02*
X7953590D01*
G01X7774000Y11228000D02*
X7873700D01*
X7883700Y11238000D01*
X7963590D01*
G01X7774000Y11988000D02*
X7963590D01*
G01X7774000Y12538000D02*
X7973590D01*
G01X7774000Y13158000D02*
X7973590D01*
G01X8507000Y3318000D02*
X7946000D01*
G01X8174410Y4768000D02*
X8509000D01*
G01X8174410Y5478000D02*
X8509000D01*
G01Y6188000D02*
X8164410D01*
G01Y6918000D02*
X8402760D01*
X8422760Y6898000D01*
X8509000D01*
G01X8164410Y7618000D02*
X8412760D01*
X8422760Y7608000D01*
X8509000D01*
G01X8174410Y9028000D02*
X8509000D01*
G01Y9738000D02*
X8254300D01*
X8244300Y9728000D01*
X8164410D01*
G01Y10458000D02*
X8412760D01*
X8422760Y10448000D01*
X8509000D01*
G01X8174410Y11238000D02*
X8324000D01*
G01X8174410Y11988000D02*
X8333000D01*
G01X8184410Y12538000D02*
X8342000D01*
G01X8184410Y13158000D02*
X8313000D01*
G01X8928000Y2084000D02*
X8599240D01*
X8593240Y2078000D01*
X8507000D01*
G01Y2338000D02*
X8741800D01*
X8747800Y2332000D01*
X8803000D01*
G01X8916000Y2841000D02*
X8636240D01*
X8593240Y2798000D01*
X8507000D01*
G01Y3058000D02*
X8738800D01*
X8747800Y3049000D01*
X8803000D01*
G01X8921000Y3519000D02*
X8590240D01*
X8588240Y3517000D01*
X8502000D01*
G01Y3777000D02*
X8740800D01*
X8747800Y3770000D01*
X8803000D01*
G01X8929000Y4253000D02*
X8600240D01*
X8595240Y4248000D01*
X8509000D01*
G01Y4508000D02*
X8814000D01*
G01X8929000Y4953000D02*
X8600240D01*
X8595240Y4958000D01*
X8509000D01*
G01Y5218000D02*
X8814000D01*
G01X8509000Y5668000D02*
X8873800D01*
X8878800Y5673000D01*
X8929000D01*
G01X8509000Y5928000D02*
X8814000D01*
G01X8939000Y6383000D02*
X8600240D01*
X8595240Y6378000D01*
X8509000D01*
G01Y6638000D02*
X8758800D01*
X8768800Y6628000D01*
X8824000D01*
G01X8959000Y7083000D02*
X8600240D01*
X8595240Y7088000D01*
X8509000D01*
G01Y7348000D02*
X8844000D01*
G01X8949000Y7803000D02*
X8600240D01*
X8595240Y7798000D01*
X8509000D01*
G01Y8058000D02*
X8834000D01*
G01X8509000Y8768000D02*
X8768800D01*
X8778800Y8758000D01*
X8834000D01*
G01X8509000Y9478000D02*
X8595240D01*
X8609440Y9463800D01*
X8754600D01*
X8778800Y9488000D01*
X8834000D01*
G01X8949000Y9933000D02*
X8600240D01*
X8595240Y9928000D01*
X8509000D01*
G01Y10188000D02*
X8778800D01*
X8788800Y10178000D01*
X8844000D01*
G01X8830000Y13149000D02*
Y13054000D01*
G01X8913000Y2264200D02*
X8928000Y2249200D01*
Y2194000D01*
G01X8913000Y2332000D02*
Y2264200D01*
G01Y3049000D02*
Y2954000D01*
X8916000Y2951000D01*
G01X8913000Y3770000D02*
Y3692200D01*
X8921000Y3684200D01*
Y3629000D01*
G01X8924000Y4508000D02*
Y4423200D01*
X8929000Y4418200D01*
Y4363000D01*
G01X8924000Y5218000D02*
Y5123200D01*
X8929000Y5118200D01*
Y5063000D01*
G01X8924000Y5928000D02*
Y5843200D01*
X8929000Y5838200D01*
Y5783000D01*
G01X8934000Y6628000D02*
Y6553200D01*
X8939000Y6548200D01*
Y6493000D01*
G01X8954000Y7348000D02*
Y7253200D01*
X8959000Y7248200D01*
Y7193000D01*
G01X8944000Y8058000D02*
Y7973200D01*
X8949000Y7968200D01*
Y7913000D01*
G01X8954000Y10178000D02*
Y10103200D01*
X8949000Y10098200D01*
Y10043000D01*
G01X9103000Y13057000D02*
X9232000D01*
G01X9342000Y13318000D02*
X9403000D01*
G01X9337000Y13444000D02*
X9398000D01*
G01X9909000Y9868000D02*
X9646000D01*
X9585000Y9929000D01*
G01X9662000Y10275000D02*
X9721780D01*
X9728780Y10268000D01*
X9909000D01*
G01X9774000Y10458000D02*
X9684000D01*
X9647000Y10495000D01*
G01X9909000Y10768000D02*
X9728780D01*
X9657000Y10696220D01*
Y10665000D01*
G01X9668000Y11166000D02*
X9726780D01*
X9728780Y11168000D01*
X9909000D01*
G01X9754000Y11358000D02*
X9689000D01*
X9659000Y11388000D01*
G01X9668000Y11962000D02*
X9903000D01*
X9909000Y11968000D01*
G01X9744000Y12158000D02*
X9679000D01*
X9650000Y12187000D01*
G01X9909000Y12468000D02*
X9689000D01*
X9627000Y12530000D01*
G01X9909000Y12868000D02*
X9664000D01*
G01X9754000Y13058000D02*
X9675000D01*
X9647000Y13086000D01*
G01X9749000Y6708000D02*
Y6413000D01*
G01Y9068000D02*
Y8755000D01*
G01X9909000Y11568000D02*
X9727000D01*
X9681000Y11614000D01*
G01X9884000Y10458000D02*
Y10362730D01*
X9909000Y10337730D01*
Y10268000D01*
G01D02*
X10258730D01*
X10589000Y9937730D01*
Y9868000D01*
G01X9864000Y11358000D02*
Y11282730D01*
X9909000Y11237730D01*
Y11168000D01*
G01D02*
X10258730D01*
X10589000Y10837730D01*
Y10768000D01*
G01X9854000Y12158000D02*
Y12092730D01*
X9909000Y12037730D01*
Y11968000D01*
G01D02*
X10258730D01*
X10589000Y11637730D01*
Y11568000D01*
G01X9864000Y13058000D02*
Y12982730D01*
X9909000Y12937730D01*
Y12868000D01*
G01X10589000Y12468000D02*
X10239270D01*
X9909000Y12798270D01*
Y12868000D01*
G01X9999000Y6708000D02*
Y6995000D01*
G01X10284000Y6128000D02*
Y5643060D01*
X10259000Y5618060D01*
Y5528000D01*
G01X10264000Y7318000D02*
Y6813060D01*
X10249000Y6798060D01*
Y6708000D01*
G01X10224000Y8458000D02*
Y7983060D01*
X10249000Y7958060D01*
Y7868000D01*
G01Y9068000D02*
Y9592800D01*
X10244000Y9597800D01*
Y9648000D01*
G01X10594000Y9668000D02*
Y9718200D01*
X10589000Y9723200D01*
Y9868000D01*
G01Y10268000D02*
Y10337730D01*
X10727270Y10476000D01*
G01X10604000Y10578000D02*
Y10628200D01*
X10589000Y10643200D01*
Y10768000D01*
G01Y11168000D02*
Y11237730D01*
X10705270Y11354000D01*
G01X10594000Y11378000D02*
Y11428200D01*
X10589000Y11433200D01*
Y11568000D01*
G01Y11968000D02*
Y12037730D01*
X10714270Y12163000D01*
X10733000D01*
G01X10589000Y12868000D02*
Y12982000D01*
X10679000Y13072000D01*
G54D39*
X1885000Y4770000D03*
X1865000Y5770000D03*
X2055000Y4770000D03*
X2035000Y5770000D03*
X3162000Y5295000D03*
X3342000D03*
X4313000Y4309000D03*
X4493000D03*
X8856000Y13446000D03*
X9026000D03*
G54D57*
X4993000Y3771000D03*
X4943000D03*
Y4351000D03*
X4993000D03*
X5143000Y3771000D03*
X5093000D03*
X5043000D03*
Y4351000D03*
X5093000D03*
X5143000D03*
X5243000Y3771000D03*
X5193000D03*
Y4351000D03*
X5243000D03*
X5343000Y3771000D03*
X5293000D03*
Y4351000D03*
X5343000D03*
X5393000Y3771000D03*
Y4351000D03*
G54D48*
X4417000Y7222000D03*
Y7302000D03*
Y7382000D03*
Y7462000D03*
Y7542000D03*
Y7622000D03*
Y7702000D03*
Y7782000D03*
Y7862000D03*
Y7942000D03*
Y8022000D03*
Y8102000D03*
Y8182000D03*
Y8262000D03*
Y8342000D03*
Y8422000D03*
Y8502000D03*
Y8582000D03*
X4497000Y7222000D03*
Y7302000D03*
Y7382000D03*
Y7462000D03*
Y7542000D03*
Y7622000D03*
Y7702000D03*
Y7782000D03*
Y7862000D03*
Y7942000D03*
Y8022000D03*
Y8102000D03*
Y8182000D03*
Y8262000D03*
Y8342000D03*
Y8422000D03*
Y8502000D03*
Y8582000D03*
X4657000Y7222000D03*
X4577000D03*
X4657000Y7302000D03*
X4577000D03*
X4657000Y7382000D03*
X4577000D03*
X4657000Y7462000D03*
X4577000D03*
X4657000Y7542000D03*
X4577000D03*
X4657000Y7622000D03*
X4577000D03*
X4657000Y7702000D03*
X4577000D03*
X4657000Y7782000D03*
X4577000D03*
X4657000Y7862000D03*
X4577000D03*
X4657000Y7942000D03*
X4577000D03*
X4657000Y8022000D03*
X4577000D03*
X4657000Y8102000D03*
X4577000D03*
X4657000Y8182000D03*
X4577000D03*
X4657000Y8262000D03*
X4577000D03*
X4657000Y8342000D03*
X4577000D03*
X4657000Y8422000D03*
X4577000D03*
X4657000Y8502000D03*
X4577000D03*
X4657000Y8582000D03*
X4577000D03*
X4737000Y7222000D03*
Y7302000D03*
Y7382000D03*
Y7462000D03*
Y7542000D03*
Y7622000D03*
Y7702000D03*
Y7782000D03*
Y7862000D03*
Y7942000D03*
Y8022000D03*
Y8102000D03*
Y8182000D03*
Y8262000D03*
Y8342000D03*
Y8422000D03*
Y8502000D03*
Y8582000D03*
X4897000Y7222000D03*
X4817000D03*
X4897000Y7302000D03*
X4817000D03*
X4897000Y7382000D03*
X4817000D03*
X4897000Y7462000D03*
X4817000D03*
X4897000Y7542000D03*
X4817000D03*
X4897000Y7622000D03*
X4817000D03*
X4897000Y7702000D03*
X4817000D03*
X4897000Y7782000D03*
X4817000D03*
X4897000Y7862000D03*
X4817000D03*
X4897000Y7942000D03*
X4817000D03*
X4897000Y8022000D03*
X4817000D03*
X4897000Y8102000D03*
X4817000D03*
X4897000Y8182000D03*
X4817000D03*
X4897000Y8262000D03*
X4817000D03*
X4897000Y8342000D03*
X4817000D03*
X4897000Y8422000D03*
X4817000D03*
X4897000Y8502000D03*
X4817000D03*
X4897000Y8582000D03*
X4817000D03*
X4977000Y7222000D03*
Y7302000D03*
Y7382000D03*
Y7462000D03*
Y7542000D03*
Y7622000D03*
Y7702000D03*
Y7782000D03*
Y7862000D03*
Y7942000D03*
Y8022000D03*
Y8102000D03*
Y8182000D03*
Y8262000D03*
Y8342000D03*
Y8422000D03*
Y8502000D03*
Y8582000D03*
X5137000Y7222000D03*
X5057000D03*
X5137000Y7302000D03*
X5057000D03*
X5137000Y7382000D03*
X5057000D03*
X5137000Y7462000D03*
X5057000D03*
X5137000Y7542000D03*
X5057000D03*
X5137000Y7622000D03*
X5057000D03*
X5137000Y7702000D03*
X5057000D03*
X5137000Y7782000D03*
X5057000D03*
X5137000Y7862000D03*
X5057000D03*
X5137000Y7942000D03*
X5057000D03*
X5137000Y8022000D03*
X5057000D03*
X5137000Y8102000D03*
X5057000D03*
X5137000Y8182000D03*
X5057000D03*
X5137000Y8262000D03*
X5057000D03*
X5137000Y8342000D03*
X5057000D03*
X5137000Y8422000D03*
X5057000D03*
X5137000Y8502000D03*
X5057000D03*
X5137000Y8582000D03*
X5057000D03*
X5217000Y7222000D03*
Y7302000D03*
Y7382000D03*
Y7462000D03*
Y7542000D03*
Y7622000D03*
Y7702000D03*
Y7782000D03*
Y7862000D03*
Y7942000D03*
Y8022000D03*
Y8102000D03*
Y8182000D03*
Y8262000D03*
Y8342000D03*
Y8422000D03*
Y8502000D03*
Y8582000D03*
X5377000Y7222000D03*
X5297000D03*
X5377000Y7302000D03*
X5297000D03*
X5377000Y7382000D03*
X5297000D03*
X5377000Y7462000D03*
X5297000D03*
X5377000Y7542000D03*
X5297000D03*
X5377000Y7622000D03*
X5297000D03*
X5377000Y7702000D03*
X5297000D03*
X5377000Y7782000D03*
X5297000D03*
X5377000Y7862000D03*
X5297000D03*
X5377000Y7942000D03*
X5297000D03*
X5377000Y8022000D03*
X5297000D03*
X5377000Y8102000D03*
X5297000D03*
X5377000Y8182000D03*
X5297000D03*
X5377000Y8262000D03*
X5297000D03*
X5377000Y8342000D03*
X5297000D03*
X5377000Y8422000D03*
X5297000D03*
X5377000Y8502000D03*
X5297000D03*
X5377000Y8582000D03*
X5297000D03*
X5457000Y7222000D03*
Y7302000D03*
Y7382000D03*
Y7462000D03*
Y7542000D03*
Y7622000D03*
Y7702000D03*
Y7782000D03*
Y7862000D03*
Y7942000D03*
Y8022000D03*
Y8102000D03*
Y8182000D03*
Y8262000D03*
Y8342000D03*
Y8422000D03*
Y8502000D03*
Y8582000D03*
X5617000Y7222000D03*
X5537000D03*
X5617000Y7302000D03*
X5537000D03*
X5617000Y7382000D03*
X5537000D03*
X5617000Y7462000D03*
X5537000D03*
X5617000Y7542000D03*
X5537000D03*
X5617000Y7622000D03*
X5537000D03*
X5617000Y7702000D03*
X5537000D03*
X5617000Y7782000D03*
X5537000D03*
X5617000Y7862000D03*
X5537000D03*
X5617000Y7942000D03*
X5537000D03*
X5617000Y8022000D03*
X5537000D03*
X5617000Y8102000D03*
X5537000D03*
X5617000Y8182000D03*
X5537000D03*
X5617000Y8262000D03*
X5537000D03*
X5617000Y8342000D03*
X5537000D03*
X5617000Y8422000D03*
X5537000D03*
X5617000Y8502000D03*
X5537000D03*
X5617000Y8582000D03*
X5537000D03*
X5697000Y7222000D03*
Y7302000D03*
Y7382000D03*
Y7462000D03*
Y7542000D03*
Y7622000D03*
Y7702000D03*
Y7782000D03*
Y7862000D03*
Y7942000D03*
Y8022000D03*
Y8102000D03*
Y8182000D03*
Y8262000D03*
Y8342000D03*
Y8422000D03*
Y8502000D03*
Y8582000D03*
X5777000Y7222000D03*
Y7302000D03*
Y7382000D03*
Y7462000D03*
Y7542000D03*
Y7622000D03*
Y7702000D03*
Y7782000D03*
Y7862000D03*
Y7942000D03*
Y8022000D03*
Y8102000D03*
Y8182000D03*
Y8262000D03*
Y8342000D03*
Y8422000D03*
Y8502000D03*
Y8582000D03*
G54D66*
X6746000Y8362000D03*
X6745000Y8840000D03*
Y9079000D03*
X6738000Y9325000D03*
X6866000Y8362000D03*
X6865000Y8840000D03*
Y9079000D03*
X6858000Y9325000D03*
G54D76*
G01X8509000Y8508000D02*
X8594100D01*
X8619100Y8533000D01*
X8949000D01*
G01Y8643000D02*
Y8697060D01*
X8944000Y8702060D01*
Y8758000D01*
G54D58*
X5168000Y4061000D03*
G54D49*
X4658000Y1998000D03*
X6271000D03*
G54D67*
X6821000Y14292000D03*
G54D77*
G01X346000Y5922700D02*
Y6014000D01*
G01D02*
Y6105300D01*
G01X277190Y6014000D02*
X346000D01*
G01D02*
X414810D01*
G01X344000Y6284700D02*
Y6376000D01*
G01D02*
Y6467300D01*
G01X275190Y6376000D02*
X344000D01*
G01D02*
X412810D01*
G01X344000Y6567700D02*
Y6659000D01*
G01D02*
Y6750300D01*
G01X275190Y6659000D02*
X344000D01*
G01D02*
X412810D01*
G01X347000Y6827700D02*
Y6919000D01*
G01D02*
Y7010300D01*
G01X278190Y6919000D02*
X347000D01*
G01D02*
X415810D01*
G01X347000Y7111700D02*
Y7203000D01*
G01D02*
Y7294300D01*
G01X278190Y7203000D02*
X347000D01*
G01D02*
X415810D01*
G01X345000Y7384700D02*
Y7476000D01*
G01D02*
Y7567300D01*
G01X276190Y7476000D02*
X345000D01*
G01D02*
X413810D01*
G01X340000Y7652700D02*
Y7744000D01*
G01D02*
Y7835300D01*
G01X271190Y7744000D02*
X340000D01*
G01D02*
X408810D01*
G01X348000Y7933700D02*
Y8025000D01*
G01D02*
Y8116300D01*
G01X279190Y8025000D02*
X348000D01*
G01D02*
X416810D01*
G01X342000Y8220700D02*
Y8312000D01*
G01D02*
Y8403300D01*
G01X273190Y8312000D02*
X342000D01*
G01D02*
X410810D01*
G01X480000Y1736200D02*
Y1775000D01*
G01D02*
Y1813800D01*
G01Y1775000D02*
X520800D01*
G01X448000Y5708000D02*
X511000D01*
X589000Y5630000D01*
Y5465000D01*
X519000Y5395000D01*
Y5234000D01*
X619000Y5134000D01*
Y3817000D01*
X757000Y3679000D01*
X863000D01*
X932000Y3610000D01*
X1996000D01*
X2784000Y4398000D01*
Y4640000D01*
X3009000Y4865000D01*
X6902000D01*
X6967000Y4800000D01*
X7333000D01*
X7967740Y4165260D01*
X8564440D01*
X8913000Y3816700D01*
Y3770000D01*
G01X448000Y5772000D02*
X559000D01*
X647000Y5684000D01*
Y3830000D01*
X741000Y3736000D01*
X842000D01*
X938000Y3640000D01*
X1965900D01*
X2743000Y4417100D01*
Y4661000D01*
X2991000Y4909000D01*
X6780000D01*
X6859000Y4988000D01*
X7299000D01*
X7646000Y4641000D01*
X8837700D01*
X8924000Y4554700D01*
Y4508000D01*
G01X406700Y8537000D02*
X498000D01*
G01X604590Y1512260D02*
Y1589750D01*
G01D02*
Y1667240D01*
G01X548690Y1589750D02*
X604590D01*
G01D02*
X660490D01*
G01X604590Y1702760D02*
Y1780250D01*
G01D02*
Y1857740D01*
G01X548690Y1780250D02*
X604590D01*
G01D02*
X660490D01*
G01X562700Y6052000D02*
X654000D01*
G01X584190Y6400000D02*
X653000D01*
G01X580190Y6664000D02*
X649000D01*
G01X577190Y6920000D02*
X646000D01*
G01X569190Y7212000D02*
X638000D01*
G01X574190Y7474000D02*
X643000D01*
G01X569190Y7755000D02*
X638000D01*
G01X567190Y8032000D02*
X636000D01*
G01X553190Y8314000D02*
X622000D01*
G01X498000Y8468190D02*
Y8537000D01*
G01D02*
Y8605810D01*
G01Y8537000D02*
X589300D01*
G01X1204090Y5325020D02*
X1149290D01*
X1133770Y5309500D01*
X851550D01*
X841050Y5320000D01*
X705000D01*
G01X654000Y5983190D02*
Y6052000D01*
G01D02*
Y6120810D01*
G01Y6052000D02*
X745300D01*
G01X653000Y6308700D02*
Y6400000D01*
G01D02*
Y6491300D01*
G01Y6400000D02*
X721810D01*
G01X649000Y6572700D02*
Y6664000D01*
G01D02*
Y6755300D01*
G01Y6664000D02*
X717810D01*
G01X646000Y6828700D02*
Y6920000D01*
G01D02*
Y7011300D01*
G01Y6920000D02*
X714810D01*
G01X638000Y7120700D02*
Y7212000D01*
G01D02*
Y7303300D01*
G01Y7212000D02*
X706810D01*
G01X643000Y7382700D02*
Y7474000D01*
G01D02*
Y7565300D01*
G01Y7474000D02*
X711810D01*
G01X638000Y7663700D02*
Y7755000D01*
G01D02*
Y7846300D01*
G01Y7755000D02*
X706810D01*
G01X636000Y7940700D02*
Y8032000D01*
G01D02*
Y8123300D01*
G01Y8032000D02*
X704810D01*
G01X622000Y8222700D02*
Y8314000D01*
G01D02*
Y8405300D01*
G01Y8314000D02*
X690810D01*
G01X1870000Y11603000D02*
Y11608000D01*
X1828190Y11649810D01*
X1823190D01*
X1581000Y11892000D01*
X941000D01*
X644000Y11595000D01*
Y9007160D01*
X892000Y8759160D01*
Y6533000D01*
X985000Y6440000D01*
X1992000D01*
X2473000Y5959000D01*
X5190000D01*
X5235000Y6004000D01*
X5250000D01*
X5269000Y6023000D01*
Y6038000D01*
X5322000Y6091000D01*
Y6313000D01*
X5363000Y6354000D01*
Y7052000D01*
X5424000Y7113000D01*
X5518000D01*
G01X818000Y9617000D02*
Y8878000D01*
G01X860000Y12992000D02*
X797000Y13055000D01*
Y13255000D01*
G01X960000Y5997200D02*
Y6065000D01*
G01D02*
Y6132800D01*
G01X869690Y6065000D02*
X960000D01*
G01D02*
X1050310D01*
G01X925000Y8619000D02*
Y7417000D01*
G01X4530000Y9828000D02*
X4615000Y9913000D01*
Y10861000D01*
X4506000Y10970000D01*
X2444000D01*
X2208000Y11206000D01*
Y11572000D01*
X947000Y12833000D01*
Y13321000D01*
G01X1609000Y9831000D02*
Y9210000D01*
X1524000Y9125000D01*
X1250000D01*
X997000Y8872000D01*
Y6559000D01*
X1068000Y6488000D01*
X2058000D01*
X2468000Y6078000D01*
X5176000D01*
G01X1037000Y7514000D02*
Y8780000D01*
X1217000Y8960000D01*
X1753000D01*
G01X1148700Y4341000D02*
X1240000D01*
G01X1190000Y6000190D02*
Y6069000D01*
G01D02*
Y6137810D01*
G01X1098700Y6069000D02*
X1190000D01*
G01D02*
X1281300D01*
G01X1870000Y9827000D02*
Y8889000D01*
X1228000Y8247000D01*
Y7943000D01*
X1097000Y7812000D01*
Y6923000D01*
X1368000Y6652000D01*
X2072000D01*
X2612000Y6112000D01*
X4979000D01*
X5308580Y6441580D01*
Y6456580D01*
X5331000Y6479000D01*
G01X1169000Y7527000D02*
Y7800000D01*
X1211000Y7842000D01*
X1528010D01*
X1647000Y7960990D01*
Y8485000D01*
X2128000Y8966000D01*
X2487000D01*
G01X1317000Y8722000D02*
X1172000D01*
X1112000Y8782000D01*
G01X4210000Y12422000D02*
X4164000Y12376000D01*
X1868000D01*
X1094000Y13150000D01*
Y13264000D01*
G01X1240000Y4272190D02*
Y4341000D01*
G01D02*
Y4409810D01*
G01Y4341000D02*
X1331300D01*
G01X1328700Y6069000D02*
X1420000D01*
G01X1243000Y13328000D02*
Y13156000D01*
X1662000Y12737000D01*
G01X1436000Y2984200D02*
Y3023000D01*
G01D02*
Y3061800D01*
G01X1395200Y3023000D02*
X1436000D01*
G01X1437000Y3080200D02*
Y3119000D01*
G01D02*
Y3157800D01*
G01X1396200Y3119000D02*
X1437000D01*
G01X1436000Y3164200D02*
Y3203000D01*
G01D02*
Y3241800D01*
G01X1395200Y3203000D02*
X1436000D01*
G01X1439000Y3248200D02*
Y3287000D01*
G01D02*
Y3325800D01*
G01X1398200Y3287000D02*
X1439000D01*
G01X1430000Y4272190D02*
Y4341000D01*
G01D02*
Y4409810D01*
G01X1338700Y4341000D02*
X1430000D01*
G01D02*
X1521300D01*
G01X1440000Y4477200D02*
Y4555000D01*
G01X1349690D02*
X1440000D01*
G01D02*
X1530310D01*
G01X1440000Y4647200D02*
Y4725000D01*
G01D02*
Y4802800D01*
G01X1349690Y4725000D02*
X1440000D01*
G01D02*
X1530310D01*
G01X1420000Y5637200D02*
Y5715000D01*
G01D02*
Y5792800D01*
G01X1329690Y5715000D02*
X1420000D01*
G01D02*
X1510310D01*
G01X1420000Y5885000D02*
Y5962800D01*
G01X1329690Y5885000D02*
X1420000D01*
G01Y6000190D02*
Y6069000D01*
G01D02*
Y6137810D01*
G01Y6069000D02*
X1511300D01*
G01X3451000Y9189000D02*
X3405000Y9235000D01*
Y10251000D01*
X2794000Y10862000D01*
X2286000D01*
X2024000Y11124000D01*
Y11612000D01*
X1389000Y12247000D01*
G01Y13266000D02*
Y13093000D01*
G01X2329000Y5878000D02*
X2293000Y5914000D01*
Y6105000D01*
X2165000Y6233000D01*
X2069110D01*
X1988110Y6152000D01*
X1561000D01*
X1523000Y6190000D01*
Y6280000D01*
X1632000Y6389000D01*
X1686000D01*
G01X1560000Y6867190D02*
Y6917000D01*
G01D02*
Y6966810D01*
G01Y6917000D02*
X1610300D01*
G01X1560000Y6967190D02*
Y7017000D01*
G01D02*
Y7066810D01*
G01Y7017000D02*
X1610300D01*
G01X1560000Y7067190D02*
Y7117000D01*
G01D02*
Y7166810D01*
G01Y7117000D02*
X1610300D01*
G01X1560000Y7167190D02*
Y7217000D01*
G01D02*
Y7266810D01*
G01Y7217000D02*
X1610300D01*
G01X1560000Y7367190D02*
Y7417000D01*
G01Y7267190D02*
Y7317000D01*
G01D02*
Y7366810D01*
G01Y7317000D02*
X1610300D01*
G01X1560000Y7417000D02*
Y7466810D01*
G01Y7417000D02*
X1610300D01*
G01X1560000Y7467190D02*
Y7517000D01*
G01D02*
Y7566810D01*
G01Y7517000D02*
X1610300D01*
G01X1560000Y7567190D02*
Y7617000D01*
G01D02*
Y7666810D01*
G01Y7617000D02*
X1610300D01*
G01X1553000Y13335000D02*
Y13023000D01*
G01X1614000Y2962000D02*
Y2862990D01*
X1625030Y2851960D01*
G01X1575000Y3083000D02*
Y2851980D01*
X1575020Y2851960D01*
G01X1651200Y2990000D02*
X1692000D01*
G01X1651200Y3072000D02*
X1692000D01*
G01X1646200Y3180000D02*
X1687000D01*
G01X1645000Y7649200D02*
Y7682000D01*
G01X1612200D02*
X1645000D01*
G01D02*
X1677800D01*
G01X1645000Y7732000D02*
X1916000D01*
X2156000Y7492000D01*
X3337000D01*
X3371000Y7458000D01*
Y7406700D01*
X3363160Y7398860D01*
Y7367160D01*
G01X1692000Y2951200D02*
Y2990000D01*
G01D02*
Y3028800D01*
G01Y3033200D02*
Y3072000D01*
G01D02*
Y3110800D01*
G01X1687000Y3141200D02*
Y3180000D01*
G01D02*
Y3218800D01*
G01X1787200Y5770000D02*
X1865000D01*
G01X1724000Y8355000D02*
X1847000Y8478000D01*
X2286000D01*
X2362000Y8402000D01*
X3728000D01*
G01X1753000Y9070000D02*
Y9278260D01*
X1754000Y9279260D01*
Y9362000D01*
G01X1762000Y12232000D02*
X1928000D01*
X2242000Y11918000D01*
G01X5907000Y13028000D02*
X5751000D01*
X5428000Y12705000D01*
X5314000D01*
X5059000Y12450000D01*
X4226840D01*
X4223140Y12453700D01*
X4196860D01*
X4193160Y12450000D01*
X2259000D01*
X1690000Y13019000D01*
Y13279000D01*
G01X1885000Y4679690D02*
Y4770000D01*
G01D02*
Y4860310D01*
G01X1807200Y4770000D02*
X1885000D01*
G01D02*
X1962800D01*
G01X1865000Y5679690D02*
Y5770000D01*
G01D02*
Y5860310D01*
G01X5319000Y12764000D02*
X5210000D01*
X4948000Y12502000D01*
X2502000D01*
X1831000Y13173000D01*
Y13270300D01*
X1840000Y13279300D01*
Y13331000D01*
G01X2035000Y5679690D02*
Y5770000D01*
G01D02*
Y5860310D01*
G01X2008700Y5959000D02*
X2100000D01*
G01X2170000Y8410000D02*
X2041000D01*
X2027000Y8396000D01*
G01X2089000Y1723000D02*
Y1815000D01*
X2094000Y1820000D01*
G01X2068500Y3069700D02*
Y3105000D01*
G01X2066500Y3170700D02*
Y3206000D01*
G01D02*
Y3241300D01*
G01Y3206000D02*
X2096800D01*
G01X2068500Y3105000D02*
Y3140300D01*
G01Y3105000D02*
X2098800D01*
G01X2067500Y3295700D02*
Y3331000D01*
G01D02*
Y3366300D01*
G01Y3331000D02*
X2097800D01*
G01X2155700Y3438500D02*
X2191000D01*
G01X2150190Y4600000D02*
X2219000D01*
G01X2055000Y4679690D02*
Y4770000D01*
G01D02*
Y4860310D01*
G01Y4770000D02*
X2132800D01*
G01X2150190Y4800000D02*
X2219000D01*
G01X2147200Y4990000D02*
X2215000D01*
G01X2155000Y5679690D02*
Y5770000D01*
G01D02*
Y5860310D01*
G01Y5770000D02*
X2222800D01*
G01X2100000Y5890190D02*
Y5959000D01*
G01D02*
Y6027810D01*
G01Y5959000D02*
X2191300D01*
G01X2216190Y3095000D02*
X2285000D01*
G01X2280000Y3229700D02*
Y3321000D01*
G01X2211190D02*
X2280000D01*
G01D02*
X2348810D01*
G01X2274700Y3437500D02*
X2310000D01*
G01X2191000Y3408200D02*
Y3438500D01*
G01D02*
X2226300D01*
G01X2191000Y3493500D02*
Y3519000D01*
X2202000Y3530000D01*
G01X2219000Y4508700D02*
Y4600000D01*
G01D02*
Y4691300D01*
G01Y4600000D02*
X2287810D01*
G01X2219000Y4708700D02*
Y4800000D01*
G01D02*
Y4891300D01*
G01Y4800000D02*
X2287810D01*
G01X2215000Y4899690D02*
Y4990000D01*
G01D02*
Y5080310D01*
G01Y4990000D02*
X2282800D01*
G01X2498840Y7287160D02*
X2433160D01*
X2262000Y7116000D01*
Y6702000D01*
X2402000Y6562000D01*
X3795120D01*
Y6637000D01*
X3815820D01*
Y6562000D01*
X3836520D01*
Y6637000D01*
X3857220D01*
Y6562000D01*
X3877920D01*
Y6637000D01*
X3898620D01*
Y6562000D01*
X3919320D01*
Y6637000D01*
X3940020D01*
Y6562000D01*
X3960720D01*
Y6637000D01*
X3981420D01*
Y6562000D01*
X4002120D01*
Y6637000D01*
X4022820D01*
Y6562000D01*
X4043520D01*
Y6637000D01*
X4064220D01*
Y6562000D01*
X4162000D01*
X4382910Y6782910D01*
Y7187910D01*
G01X3381000Y7527000D02*
X2417000D01*
X2235000Y7709000D01*
Y8210000D01*
G01D02*
Y8273300D01*
X2230000Y8278300D01*
Y8310000D01*
G01Y8410000D02*
Y8310000D01*
G01X2327000Y2095000D02*
X2540000D01*
X2552000Y2083000D01*
G01X2285000Y3003700D02*
Y3095000D01*
G01D02*
Y3186300D01*
G01Y3095000D02*
X2353810D01*
G01X2310000Y3437500D02*
X2345300D01*
G01X2310000Y3492500D02*
Y3519000D01*
X2321000Y3530000D01*
G01X2375000Y5142200D02*
Y5190000D01*
G01D02*
Y5237800D01*
G01X2371000Y5256200D02*
Y5304000D01*
G01D02*
Y5351800D01*
G01X2318200Y5304000D02*
X2371000D01*
G01D02*
X2423800D01*
G01X2372000Y5364200D02*
Y5412000D01*
G01D02*
Y5459800D01*
G01X2319200Y5412000D02*
X2372000D01*
G01D02*
X2424800D01*
G01X2370000Y5467200D02*
Y5515000D01*
G01D02*
Y5562800D01*
G01X2317200Y5515000D02*
X2370000D01*
G01D02*
X2422800D01*
G01X8924000Y5218000D02*
X8919000D01*
X8877190Y5259810D01*
Y5264810D01*
X8798000Y5344000D01*
X7087000D01*
X6698000Y4955000D01*
X4011000D01*
X3265490Y5700510D01*
X2575490D01*
X2376000Y5900000D01*
Y5945000D01*
G01X2327000Y6531000D02*
X2513000Y6345000D01*
X4709000D01*
X4934000Y6570000D01*
Y6853750D01*
X4903000D01*
Y6874450D01*
X4934000D01*
Y6895150D01*
X4903000D01*
Y6915850D01*
X4934000D01*
Y6978060D01*
X4910000D01*
Y6998760D01*
X4934000D01*
Y7077000D01*
G01X7018000Y7098000D02*
X7356000Y7436000D01*
Y10197000D01*
X7214000Y10339000D01*
X6465000D01*
X6348000Y10456000D01*
Y10491000D01*
X6164000Y10675000D01*
X5458000D01*
X5336000Y10553000D01*
Y10291000D01*
X3897000Y8852000D01*
X3191000D01*
X3067000Y8976000D01*
Y9332000D01*
X2732000Y9667000D01*
X2413000D01*
X2390000Y9690000D01*
Y9827000D01*
G01X2424000Y2135000D02*
X2524000D01*
X2552000Y2163000D01*
G01X2494000Y5860000D02*
X2632790Y5721210D01*
X3330790D01*
X4069000Y4983000D01*
X6557000D01*
X7628000Y6054000D01*
X8798000D01*
X8877190Y5974810D01*
Y5969810D01*
X8919000Y5928000D01*
X8924000D01*
G01X2531000Y6775000D02*
X2498840Y6742840D01*
G01X2531000Y6855000D02*
X2498840Y6822840D01*
G01X2531000Y6935000D02*
X2498840Y6902840D01*
G01X2531000Y7335000D02*
X2498840Y7367160D01*
G01X2531000Y7255000D02*
X2498840Y7287160D01*
G01X2531000Y7415000D02*
X2498840Y7447160D01*
G01X2547000Y7973000D02*
Y8033000D01*
X2415000Y8165000D01*
G01X2532000Y1905000D02*
Y1983000D01*
X2552000Y2003000D01*
G01X2609200D02*
X2662000D01*
G01X2609200Y2083000D02*
X2662000D01*
G01X2609200Y2163000D02*
X2662000D01*
G01X2609200Y2243000D02*
X2662000D01*
G01X2609200Y2323000D02*
X2662000D01*
G01X2609200Y2403000D02*
X2662000D01*
G01X2588500Y5850500D02*
X2681000Y5758000D01*
X3401000D01*
X4148000Y5011000D01*
X6325000D01*
X7702000Y6388000D01*
Y6536000D01*
X7922000Y6756000D01*
X8881000D01*
X8934000Y6703000D01*
Y6628000D01*
G01X2611000Y6775000D02*
X2578840Y6742840D01*
G01X2611000Y6935000D02*
X2578840Y6902840D01*
G01X2611000Y6855000D02*
X2578840Y6822840D01*
G01X2611000Y7335000D02*
X2578840Y7367160D01*
G01X2611000Y7415000D02*
X2578840Y7447160D01*
G01X7045000Y6654000D02*
X7516000Y7125000D01*
Y10508000D01*
X5674000Y12350000D01*
X2869000D01*
X2626000Y12107000D01*
Y11596000D01*
G01X2662000Y1955200D02*
Y2003000D01*
G01D02*
X2714800D01*
G01X2662000Y2083000D02*
X2714800D01*
G01X2662000Y2163000D02*
X2714800D01*
G01X2662000Y2243000D02*
X2714800D01*
G01X2662000Y2323000D02*
X2714800D01*
G01X2662000Y2403000D02*
Y2450800D01*
G01Y2403000D02*
X2714800D01*
G01X8954000Y7348000D02*
X8949000D01*
X8817000Y7480000D01*
X8011000D01*
X7613000Y7082000D01*
Y6437000D01*
X6220000Y5044000D01*
X4216000D01*
X3431000Y5829000D01*
X2729000D01*
X2699000Y5859000D01*
G01X2771000Y6775000D02*
X2738840Y6742840D01*
G01X2691000Y6775000D02*
X2658840Y6742840D01*
G01X2771000Y6855000D02*
X2738840Y6822840D01*
G01X2771000Y6935000D02*
X2738840Y6902840D01*
G01X2691000Y6935000D02*
X2658840Y6902840D01*
G01X2691000Y6855000D02*
X2658840Y6822840D01*
G01X2771000Y7335000D02*
X2738840Y7367160D01*
G01X2691000Y7335000D02*
X2658840Y7367160D01*
G01X2771000Y7255000D02*
X2738840Y7287160D01*
G01X2771000Y7415000D02*
X2738840Y7447160D01*
G01X2691000Y7415000D02*
X2658840Y7447160D01*
G01X4286000Y7899000D02*
X2753000D01*
X2702000Y7848000D01*
Y7566000D01*
G01X2824190Y4194000D02*
X2893000D01*
G01X2851000Y6775000D02*
X2818840Y6742840D01*
G01X2851000Y6855000D02*
X2818840Y6822840D01*
G01X2851000Y6935000D02*
X2818840Y6902840D01*
G01X2851000Y7255000D02*
X2818840Y7287160D01*
G01X2851000Y7335000D02*
X2818840Y7367160D01*
G01X2851000Y7415000D02*
X2818840Y7447160D01*
G01X2780000Y7573000D02*
Y7648000D01*
X2800000Y7668000D01*
X3527840D01*
Y7726000D01*
X3548540D01*
Y7668000D01*
X3569240D01*
Y7726000D01*
X3589940D01*
Y7668000D01*
X3610640D01*
Y7726000D01*
X3631340D01*
Y7668000D01*
X3652040D01*
Y7726000D01*
X3672740D01*
Y7668000D01*
X3693440D01*
Y7726000D01*
X3714140D01*
Y7668000D01*
X3734840D01*
Y7726000D01*
X3755540D01*
Y7668000D01*
X3839000D01*
X3863230Y7692230D01*
X3794730Y7760730D01*
X3809370Y7775370D01*
X3877870Y7706870D01*
X3892510Y7721510D01*
X3824010Y7790010D01*
X3838650Y7804650D01*
X3907150Y7736150D01*
X3921790Y7750790D01*
X3853290Y7819290D01*
X3867930Y7833930D01*
X3936430Y7765430D01*
X3951070Y7780070D01*
X3882570Y7848570D01*
X3897210Y7863210D01*
X3965710Y7794710D01*
X4006000Y7835000D01*
G01X2873000Y9834000D02*
Y9696000D01*
X3145000Y9424000D01*
Y9141000D01*
X3250000Y9036000D01*
X3938000D01*
X5209000Y10307000D01*
Y10579000D01*
X5557000Y10927000D01*
X6578000D01*
X6926000Y10579000D01*
X7109000D01*
X7413000Y10275000D01*
Y7384000D01*
X6961000Y6932000D01*
X6878000D01*
X6636000Y7174000D01*
G01X2993200Y3158000D02*
X3096000D01*
G01X2996750Y3696500D02*
X3090800D01*
G01X2996750Y4077500D02*
X3090800D01*
G01X2893000Y4102700D02*
Y4194000D01*
G01D02*
Y4285300D01*
G01Y4194000D02*
X2961810D01*
G01X8774000Y8173000D02*
X7992000D01*
X7580000Y7761000D01*
Y6570000D01*
X6085000Y5075000D01*
X4255000D01*
X3444000Y5886000D01*
X2921000D01*
G01X3011000Y6775000D02*
X2978840Y6742840D01*
G01X2931000Y6775000D02*
X2898840Y6742840D01*
G01X2931000Y6855000D02*
X2898840Y6822840D01*
G01X3011000Y6855000D02*
X2978840Y6822840D01*
G01X2931000Y7255000D02*
X2898840Y7287160D01*
G01X3011000Y7335000D02*
X2978840Y7367160D01*
G01X3011000Y7255000D02*
X2978840Y7287160D01*
G01X2931000Y7335000D02*
X2898840Y7367160D01*
G01X2931000Y7415000D02*
X2898840Y7447160D01*
G01X3011000Y7415000D02*
X2978840Y7447160D01*
G01X2978000Y7572000D02*
X3083740D01*
Y7610000D01*
X3104440D01*
Y7572000D01*
X3125140D01*
Y7610000D01*
X3145840D01*
Y7572000D01*
X3166540D01*
Y7610000D01*
X3187240D01*
Y7572000D01*
X3207940D01*
Y7610000D01*
X3228640D01*
Y7572000D01*
X3249340D01*
Y7610000D01*
X3270040D01*
Y7572000D01*
X3290740D01*
Y7610000D01*
X3311440D01*
Y7572000D01*
X3332140D01*
Y7610000D01*
X3352840D01*
Y7572000D01*
X3373540D01*
Y7610000D01*
X3394240D01*
Y7572000D01*
X3414940D01*
Y7610000D01*
X3435640D01*
Y7572000D01*
X3456340D01*
Y7610000D01*
X3477040D01*
Y7572000D01*
X3497740D01*
Y7610000D01*
X3518440D01*
Y7572000D01*
X3539140D01*
Y7610000D01*
X3559840D01*
Y7572000D01*
X3580540D01*
Y7610000D01*
X3601240D01*
Y7572000D01*
X3621940D01*
Y7610000D01*
X3642640D01*
Y7572000D01*
X3663340D01*
Y7610000D01*
X3684040D01*
Y7572000D01*
X3704740D01*
Y7610000D01*
X3725440D01*
Y7572000D01*
X3746140D01*
Y7610000D01*
X3766840D01*
Y7572000D01*
X3787540D01*
Y7610000D01*
X3808240D01*
Y7572000D01*
X3875000D01*
X3905890Y7602890D01*
X3880890Y7627890D01*
X3895530Y7642530D01*
X3920530Y7617530D01*
X3935170Y7632170D01*
X3910170Y7657170D01*
X3924810Y7671810D01*
X3949810Y7646810D01*
X3964450Y7661450D01*
X3939450Y7686450D01*
X3954090Y7701090D01*
X3979090Y7676090D01*
X3993730Y7690730D01*
X3968730Y7715730D01*
X3983370Y7730370D01*
X4008370Y7705370D01*
X4023010Y7720010D01*
X3998010Y7745010D01*
X4012650Y7759650D01*
X4037650Y7734650D01*
X4080000Y7777000D01*
G01X3096000Y3075200D02*
Y3158000D01*
G01D02*
Y3240800D01*
G01Y3158000D02*
X3198800D01*
G01X3056190Y3382000D02*
X3125000D01*
G01X3111200Y3532000D02*
X3164000D01*
G01X3090800Y3646200D02*
Y3696500D01*
G01D02*
Y3746800D01*
G01Y3696500D02*
X3184850D01*
G01X3090800Y4027200D02*
Y4077500D01*
G01D02*
Y4127800D01*
G01Y4077500D02*
X3184850D01*
G01X3064200Y4303000D02*
X3117000D01*
G01X3091000Y6775000D02*
X3058840Y6742840D01*
G01X3091000Y6855000D02*
X3058840Y6822840D01*
G01X3091000Y6935000D02*
X3058840Y6902840D01*
G01X3091000Y7255000D02*
X3058840Y7287160D01*
G01X3091000Y7335000D02*
X3058840Y7367160D01*
G01X3091000Y7415000D02*
X3058840Y7447160D01*
G01X3125000Y3290700D02*
Y3382000D01*
G01D02*
Y3473300D01*
G01Y3382000D02*
X3193810D01*
G01X3164000Y3484200D02*
Y3532000D01*
G01D02*
Y3579800D01*
G01X3117000Y4255200D02*
Y4303000D01*
G01X3227000Y4255200D02*
Y4303000D01*
G01X3117000D02*
Y4350800D01*
G01X3227000Y4303000D02*
Y4350800D01*
G01Y4303000D02*
X3279800D01*
G01X3171000Y6855000D02*
X3203160Y6822840D01*
G01X3171000Y6935000D02*
X3203160Y6902840D01*
G01X3171000Y7335000D02*
X3203160Y7367160D01*
G01X6527000Y6842000D02*
X7028000D01*
X7495300Y7309300D01*
Y7703310D01*
X7463000Y7735610D01*
Y10428000D01*
X7171000Y10720000D01*
X7003000D01*
X6680000Y11043000D01*
X5448000D01*
X5095000Y10690000D01*
Y10304000D01*
X3948000Y9157000D01*
X3404000D01*
X3290000Y9271000D01*
Y9454000D01*
X3135000Y9609000D01*
Y9828000D01*
G01X3339000Y4268200D02*
Y4321000D01*
G01X3291200D02*
X3339000D01*
G01D02*
X3386800D01*
G01X3340000Y5428000D02*
Y5297000D01*
X3342000Y5295000D01*
G01X3251000Y6775000D02*
X3283160Y6742840D01*
G01X3251000Y6935000D02*
X3283160Y6902840D01*
G01X3251000Y6855000D02*
X3283160Y6822840D01*
G01X3331000Y6855000D02*
X3363160Y6822840D01*
G01X3331000Y6935000D02*
X3363160Y6902840D01*
G01X3331000Y7255000D02*
X3363160Y7287160D01*
G01X3251000Y7335000D02*
X3283160Y7367160D01*
G01X3331000Y7335000D02*
X3363160Y7367160D01*
G01X3251000Y7415000D02*
X3283160Y7447160D01*
G01X4478000Y12282000D02*
X4007000D01*
X3540000Y11815000D01*
X3308000D01*
G01X3444000Y4268200D02*
Y4307000D01*
G01D02*
Y4345800D01*
G01X3403200Y4307000D02*
X3444000D01*
G01X3411000Y6775000D02*
X3443160Y6742840D01*
G01X3411000Y6935000D02*
X3443160Y6902840D01*
G01X3411000Y6855000D02*
X3443160Y6822840D01*
G01X3538000Y7134000D02*
X3506000D01*
X3471000Y7099000D01*
Y7025000D01*
G01X3411000Y7335000D02*
X3443160Y7367160D01*
G01X3411000Y7415000D02*
X3443160Y7447160D01*
G01X3454000Y10501000D02*
Y10560000D01*
X3758000Y10864000D01*
G01X3571000Y6775000D02*
X3603160Y6742840D01*
G01X3491000Y6775000D02*
Y6729000D01*
X3490000Y6728000D01*
G01X3523160Y6822840D02*
Y6767840D01*
X3608000Y6683000D01*
X3748160D01*
X3913770Y6848610D01*
X3882700Y6879680D01*
X3897340Y6894320D01*
X3928410Y6863250D01*
X3943050Y6877890D01*
X3911980Y6908960D01*
X3926620Y6923600D01*
X3957690Y6892530D01*
X3972330Y6907170D01*
X3941260Y6938240D01*
X3955900Y6952880D01*
X3986970Y6921810D01*
X4001610Y6936450D01*
X3970540Y6967520D01*
X3985180Y6982160D01*
X4016250Y6951090D01*
X4030890Y6965730D01*
X3999820Y6996800D01*
X4014460Y7011440D01*
X4045530Y6980370D01*
X4060170Y6995010D01*
X4029100Y7026080D01*
X4043740Y7040720D01*
X4074810Y7009650D01*
X4089450Y7024290D01*
X4058380Y7055360D01*
X4073020Y7070000D01*
X4104090Y7038930D01*
X4118730Y7053570D01*
X4087660Y7084640D01*
X4102300Y7099280D01*
X4133370Y7068210D01*
X4148010Y7082850D01*
X4116940Y7113920D01*
X4131580Y7128560D01*
X4162650Y7097490D01*
X4177290Y7112130D01*
X4146220Y7143200D01*
X4160860Y7157840D01*
X4191930Y7126770D01*
X4353000Y7287840D01*
Y7318000D01*
X4382910Y7347910D01*
G01X3491000Y6935000D02*
X3523160Y6902840D01*
G01D02*
X3525480Y6905160D01*
Y6976480D01*
X3592000Y7043000D01*
X3999000D01*
X4000740Y7044740D01*
X3977740Y7067740D01*
X3992380Y7082380D01*
X4015380Y7059380D01*
X4030020Y7074020D01*
X4007020Y7097020D01*
X4021660Y7111660D01*
X4044660Y7088660D01*
X4059300Y7103300D01*
X4036300Y7126300D01*
X4050940Y7140940D01*
X4073940Y7117940D01*
X4088580Y7132580D01*
X4065580Y7155580D01*
X4080220Y7170220D01*
X4103220Y7147220D01*
X4117860Y7161860D01*
X4094860Y7184860D01*
X4109500Y7199500D01*
X4132500Y7176500D01*
X4147140Y7191140D01*
X4124140Y7214140D01*
X4138780Y7228780D01*
X4161780Y7205780D01*
X4176420Y7220420D01*
X4153420Y7243420D01*
X4168060Y7258060D01*
X4191060Y7235060D01*
X4205700Y7249700D01*
X4182700Y7272700D01*
X4197340Y7287340D01*
X4220340Y7264340D01*
X4234980Y7278980D01*
X4211980Y7301980D01*
X4226620Y7316620D01*
X4249620Y7293620D01*
X4264260Y7308260D01*
X4241260Y7331260D01*
X4255900Y7345900D01*
X4278900Y7322900D01*
X4293540Y7337540D01*
X4270540Y7360540D01*
X4285180Y7375180D01*
X4308180Y7352180D01*
X4322820Y7366820D01*
X4299820Y7389820D01*
X4314460Y7404460D01*
X4337460Y7381460D01*
X4352100Y7396100D01*
X4329100Y7419100D01*
X4343740Y7433740D01*
X4366740Y7410740D01*
X4383910Y7427910D01*
X4462910D01*
G01X3571000Y6855000D02*
X3603160Y6822840D01*
G01X3491000Y6855000D02*
X3523160Y6822840D01*
G01X3571000Y6935000D02*
X3603160Y6902840D01*
G01X3571000Y7255000D02*
X3603160Y7287160D01*
G01X3491000Y7255000D02*
X3523160Y7287160D01*
G01X3571000Y7335000D02*
X3603160Y7367160D01*
G01X3491000Y7335000D02*
X3523160Y7367160D01*
G01X3571000Y7415000D02*
X3603160Y7447160D01*
G01X3491000Y7415000D02*
X3523160Y7447160D01*
G01X3656000Y7983000D02*
X3583000Y8056000D01*
Y8195000D01*
X3654000Y8266000D01*
X3717000D01*
X3777000Y8326000D01*
Y8446000D01*
G01X3651000Y6775000D02*
X3683160Y6742840D01*
G01X3651000Y6855000D02*
X3683160Y6822840D01*
G01X3651000Y6935000D02*
X3683160Y6902840D01*
G01X3651000Y7255000D02*
X3683160Y7287160D01*
G01X3651000Y7335000D02*
X3683160Y7367160D01*
G01X3651000Y7415000D02*
X3683160Y7447160D01*
G01X3603000Y8614000D02*
X3810000D01*
X4253000Y8171000D01*
G01X4896000Y10322000D02*
X4810000Y10408000D01*
Y11255000D01*
X4636000Y11429000D01*
X4208000D01*
X4039000Y11598000D01*
X3652000D01*
G01X3731000Y6775000D02*
X3763160Y6742840D01*
G01X3731000Y6855000D02*
X3763160Y6822840D01*
G01X3731000Y6935000D02*
X3763160Y6902840D01*
G01X3731000Y7335000D02*
X3763160Y7367160D01*
G01X3731000Y7415000D02*
X3763160Y7447160D01*
G01X3832000Y8776000D02*
Y8738000D01*
X4142000Y8428000D01*
G01X5604000Y12236000D02*
X5562000Y12278000D01*
X5495000D01*
X5256000Y12039000D01*
X3884000D01*
X3758000Y11913000D01*
Y11818000D01*
G01X3931000Y9348000D02*
Y9282000D01*
X3971000Y9242000D01*
G01X4017000Y3999000D02*
X4193000D01*
X4198000Y4004000D01*
G01X4069200Y4168000D02*
X4108000D01*
G01X4019190Y4309000D02*
X4088000D01*
G01X4064200Y4454000D02*
X4103000D01*
G01X4185000Y7683000D02*
X4137000Y7635000D01*
Y7607000D01*
X4175670Y7568330D01*
X4248670Y7641330D01*
X4263310Y7626690D01*
X4190310Y7553690D01*
X4204950Y7539050D01*
X4277950Y7612050D01*
X4292590Y7597410D01*
X4219590Y7524410D01*
X4286000Y7458000D01*
Y7415000D01*
X4159690Y7288690D01*
X4045690Y7402690D01*
X4031050Y7388050D01*
X4145050Y7274050D01*
X4130410Y7259410D01*
X4016410Y7373410D01*
X4001770Y7358770D01*
X4115770Y7244770D01*
X4101130Y7230130D01*
X3987130Y7344130D01*
X3972490Y7329490D01*
X4086490Y7215490D01*
X4068000Y7197000D01*
X3994000D01*
G01X4299000Y3834000D02*
X4290000Y3843000D01*
X4134000D01*
X4114000Y3823000D01*
Y3758000D01*
G01X4175200Y4166000D02*
X4214000D01*
G01X4108000Y4168000D02*
Y4208800D01*
G01Y4168000D02*
X4146800D01*
G01X4088000Y4217700D02*
Y4309000D01*
G01D02*
Y4400300D01*
G01Y4309000D02*
X4156810D01*
G01X4168200Y4443000D02*
X4207000D01*
G01X4103000Y4413200D02*
Y4454000D01*
G01D02*
X4141800D01*
G01X4086000Y5332000D02*
X4087000Y5333000D01*
Y5700000D01*
X4208000Y5821000D01*
X4323000D01*
X4424000Y5922000D01*
X5034000D01*
X5085000Y5871000D01*
X5193000D01*
X5215000Y5893000D01*
Y5931000D01*
G01X4180000Y5566000D02*
X4202420Y5588420D01*
X4280880D01*
X4306300Y5563000D01*
X4358000D01*
G01X4080000Y7731000D02*
Y7430000D01*
X4135000Y7375000D01*
X4169000D01*
G01X4382910Y7667910D02*
X4333760D01*
Y7697000D01*
X4313060D01*
Y7667910D01*
X4288090D01*
X4263960Y7692040D01*
X4288960Y7717040D01*
X4274320Y7731680D01*
X4249320Y7706680D01*
X4234680Y7721320D01*
X4259680Y7746320D01*
X4245040Y7760960D01*
X4220040Y7735960D01*
X4198000Y7758000D01*
X4158000D01*
G01X4291000Y8066000D02*
X4247000D01*
X4184000Y8129000D01*
G01X4203000Y997000D02*
X4421000Y779000D01*
X8144000D01*
X9260000Y1895000D01*
Y2707000D01*
X8918000Y3049000D01*
X8913000D01*
G01X4220000Y1141000D02*
X4270000D01*
X4580000Y831000D01*
X8096000D01*
X8971000Y1706000D01*
Y2124390D01*
X8963390Y2132000D01*
X8891080D01*
X8881300Y2141780D01*
Y2235920D01*
X8891080Y2245700D01*
X8913000D01*
Y2264200D01*
G01X4214000Y4166000D02*
Y4206800D01*
G01Y4166000D02*
X4252800D01*
G01X4271200Y4168000D02*
X4310000D01*
G01X4235200Y4309000D02*
X4313000D01*
G01X4207000Y4402200D02*
Y4443000D01*
G01X4295000Y4402200D02*
Y4443000D01*
G01X4207000D02*
X4245800D01*
G01X4256200D02*
X4295000D01*
G01D02*
X4333800D01*
G01X4296000Y4632000D02*
Y4721000D01*
X4331000Y4756000D01*
Y4803000D01*
G01X4263000Y5632080D02*
X4511370D01*
X4570790Y5691500D01*
X4593650D01*
G01X4313000Y4218690D02*
Y4309000D01*
G01X4310000Y4168000D02*
Y4208800D01*
G01Y4168000D02*
X4348800D01*
G01X4313000Y4309000D02*
Y4399310D01*
G01Y4309000D02*
X4390800D01*
G01X4362000Y5257000D02*
X4339000Y5280000D01*
Y5378300D01*
X4359000Y5398300D01*
Y5445000D01*
G01X4417000Y7222000D02*
X4382910Y7187910D01*
G01X4417000Y7302000D02*
X4382910Y7267910D01*
G01X4417000Y7382000D02*
X4382910Y7347910D01*
G01X4417000Y7462000D02*
X4415000Y7460000D01*
X4362000D01*
G01X4417000Y7542000D02*
X4382910Y7507910D01*
G01X4417000Y7702000D02*
X4382910Y7667910D01*
G01X4417000Y7862000D02*
X4382910Y7827910D01*
G01X4417000Y7782000D02*
X4382910Y7747910D01*
G01X4417000Y7942000D02*
X4382910Y7976090D01*
G01X4417000Y8342000D02*
Y8336000D01*
X4458000Y8295000D01*
G01X4417000Y8262000D02*
X4382910Y8296090D01*
G01X4878000Y4136000D02*
X4831300D01*
X4826300Y4141000D01*
X4720000D01*
X4608000Y4029000D01*
Y3974000D01*
X4678000Y3904000D01*
Y3837000D01*
X4589000Y3748000D01*
X4450000D01*
G01X4484000Y4101000D02*
X4508000Y4077000D01*
X4603000D01*
X4763000Y4237000D01*
X4830300D01*
X4831300Y4236000D01*
X4878000D01*
G01X4484000Y4101000D02*
X4440000Y4057000D01*
G01X4493000Y4218690D02*
Y4309000D01*
G01D02*
Y4399310D01*
G01Y4309000D02*
X4570800D01*
G01X4516000Y4404200D02*
Y4445000D01*
G01X4477200D02*
X4516000D01*
G01X4452000Y4734000D02*
X4867000D01*
X4939000Y4662000D01*
G01X4577000Y7222000D02*
X4542910Y7187910D01*
G01X4497000Y7382000D02*
X4462910Y7347910D01*
G01X4577000Y7302000D02*
X4542910Y7267910D01*
G01X4577000Y7382000D02*
X4542910Y7347910D01*
G01X4497000Y7462000D02*
X4462910Y7427910D01*
G01X4577000Y7462000D02*
X4542910Y7427910D01*
G01X4497000Y7542000D02*
X4462910Y7507910D01*
G01X4577000Y7622000D02*
X4542910Y7587910D01*
G01X4577000Y7542000D02*
X4542910Y7507910D01*
G01X4577000Y7702000D02*
X4542910Y7667910D01*
G01X4497000Y7702000D02*
X4462910Y7667910D01*
G01X4497000Y7782000D02*
X4462910Y7747910D01*
G01X4497000Y7862000D02*
X4462910Y7827910D01*
G01X4577000Y7862000D02*
X4542910Y7827910D01*
G01X4577000Y7782000D02*
X4542910Y7747910D01*
G01X4577000Y7942000D02*
X4542910Y7976090D01*
G01X4497000Y7942000D02*
X4462910Y7976090D01*
G01X4577000Y8022000D02*
X4542910Y8056090D01*
G01X4497000Y8182000D02*
X4462910Y8216090D01*
G01X4577000Y8102000D02*
X4542910Y8136090D01*
G01X4577000Y8262000D02*
X4542910Y8296090D01*
G01X4497000Y8422000D02*
X4462910Y8456090D01*
G01X4497000Y8582000D02*
X4462910Y8616090D01*
G01X4519000Y8684700D02*
Y8776000D01*
G01D02*
Y8867300D01*
G01X4450190Y8776000D02*
X4519000D01*
G01D02*
X4587810D01*
G01X4471500Y8891700D02*
Y8927000D01*
G01D02*
Y8962300D01*
G01Y8927000D02*
X4501800D01*
G01X4468500Y8972700D02*
Y9008000D01*
G01D02*
Y9043300D01*
G01Y9008000D02*
X4498800D01*
G01X4465500Y9167700D02*
Y9203000D01*
G01X4467500Y9064700D02*
Y9100000D01*
G01D02*
Y9135300D01*
G01Y9100000D02*
X4497800D01*
G01X4465500Y9203000D02*
Y9238300D01*
G01Y9203000D02*
X4495800D01*
G01X4518700Y9296500D02*
X4554000D01*
G01X5321000Y2726000D02*
X4699000D01*
X4607000Y2818000D01*
G01X4653000Y3985000D02*
X4830300D01*
X4831300Y3986000D01*
X4878000D01*
G01X4657000Y7222000D02*
X4622910Y7187910D01*
G01X4657000Y7302000D02*
X4622910Y7267910D01*
G01X4657000Y7462000D02*
X4622910Y7427910D01*
G01X4657000Y7622000D02*
X4622910Y7587910D01*
G01X4657000Y7542000D02*
X4622910Y7507910D01*
G01X4657000Y7702000D02*
X4622910Y7667910D01*
G01X4657000Y7862000D02*
X4622910Y7827910D01*
G01X4657000Y7782000D02*
X4622910Y7747910D01*
G01X4657000Y7942000D02*
X4622910Y7976090D01*
G01X4657000Y8022000D02*
X4622910Y8056090D01*
G01X4657000Y8102000D02*
X4622910Y8136090D01*
G01X4657000Y8262000D02*
X4622910Y8296090D01*
G01X4616000Y8377000D02*
X4591000Y8402000D01*
Y8407000D01*
X4577000Y8421000D01*
Y8422000D01*
G01X4554000Y9266200D02*
Y9296500D01*
G01X4642000Y9265200D02*
Y9295500D01*
G01X4554000Y9296500D02*
X4589300D01*
G01X4606700Y9295500D02*
X4642000D01*
G01D02*
X4677300D01*
G01X4687000Y4031000D02*
X4826300D01*
X4831300Y4036000D01*
X4878000D01*
G01X4775000Y4078000D02*
X4870000D01*
X4878000Y4086000D01*
G01X4766000Y4184000D02*
X4829300D01*
X4831300Y4186000D01*
X4878000D01*
G01X4730000Y4348190D02*
Y4417000D01*
G01D02*
X4821300D01*
G01X4702910Y7187910D02*
Y7156210D01*
X4787000Y7072120D01*
Y6935940D01*
X4872000D01*
Y6915240D01*
X4787000D01*
Y6894540D01*
X4872000D01*
Y6873840D01*
X4787000D01*
Y6853140D01*
X4872000D01*
Y6832440D01*
X4787000D01*
Y6811740D01*
X4872000D01*
Y6791040D01*
X4787000D01*
Y6770340D01*
X4872000D01*
Y6749640D01*
X4787000D01*
Y6586000D01*
X4710000Y6509000D01*
G01X4817000Y7222000D02*
X4782910Y7187910D01*
G01X4737000Y7222000D02*
X4702910Y7187910D01*
G01X4737000Y7302000D02*
X4702910Y7267910D01*
G01X4737000Y7382000D02*
X4702910Y7347910D01*
G01X4817000Y7302000D02*
X4782910Y7267910D01*
G01X4817000Y7382000D02*
X4782910Y7347910D01*
G01X4737000Y7462000D02*
X4702910Y7427910D01*
G01X4817000Y7462000D02*
X4782910Y7427910D01*
G01X4817000Y7542000D02*
X4782910Y7507910D01*
G01X4817000Y7622000D02*
X4782910Y7587910D01*
G01X4737000Y7542000D02*
X4702910Y7507910D01*
G01X4737000Y7622000D02*
X4702910Y7587910D01*
G01X4737000Y7702000D02*
X4702910Y7667910D01*
G01X4817000Y7702000D02*
X4782910Y7667910D01*
G01X4817000Y7862000D02*
X4782910Y7827910D01*
G01X4737000Y7862000D02*
X4702910Y7827910D01*
G01X4817000Y7782000D02*
X4782910Y7747910D01*
G01X4817000Y7942000D02*
X4782910Y7976090D01*
G01X4737000Y7942000D02*
X4702910Y7976090D01*
G01X4737000Y8022000D02*
X4702910Y8056090D01*
G01X4817000Y8022000D02*
X4782910Y8056090D01*
G01X4817000Y8182000D02*
X4782910Y8216090D01*
G01X4817000Y8102000D02*
X4782910Y8136090D01*
G01X4737000Y8102000D02*
X4702910Y8136090D01*
G01X4817000Y8342000D02*
X4782910Y8376090D01*
G01X4737000Y8502000D02*
X4765000Y8474000D01*
X4766000D01*
X4780000Y8460000D01*
G01X4753190Y8796000D02*
X4822000D01*
G01X4754190Y9008000D02*
X4823000D01*
G01X4729000Y9269200D02*
Y9299500D01*
G01X4693700D02*
X4729000D01*
G01D02*
X4764300D01*
G01X4688000Y11979000D02*
X4985000D01*
G01X4724510Y13800000D02*
Y13854800D01*
G01D02*
Y13965810D01*
X4732000Y13973300D01*
Y14025000D01*
G01X5453490Y13800000D02*
Y13854800D01*
X5327290Y13981000D01*
X4850710D01*
X4724510Y13854800D01*
G01X4732000Y14135000D02*
Y14232000D01*
X4734000Y14234000D01*
G01D02*
X4815000D01*
X4818000Y14231000D01*
G01X4878000Y4286000D02*
Y4316300D01*
G01X4830200Y4286000D02*
X4878000D01*
G01X4993000Y4351000D02*
Y4403000D01*
X4951000Y4445000D01*
X4926000D01*
X4883000Y4488000D01*
Y4609000D01*
G01X4787000Y7125000D02*
X4809420Y7147420D01*
X5236580D01*
X5323000Y7061000D01*
G01X4897000Y7222000D02*
X4862910Y7187910D01*
G01X4897000Y7382000D02*
X4862910Y7347910D01*
G01X4897000Y7302000D02*
X4862910Y7267910D01*
G01X4897000Y7462000D02*
X4862910Y7427910D01*
G01X4897000Y7542000D02*
X4862910Y7507910D01*
G01X4897000Y7622000D02*
X4862910Y7587910D01*
G01X4897000Y7702000D02*
X4862910Y7667910D01*
G01X4897000Y7862000D02*
X4862910Y7827910D01*
G01X4897000Y7782000D02*
X4862910Y7747910D01*
G01X4897000Y7942000D02*
X4862910Y7976090D01*
G01X4897000Y8022000D02*
X4862910Y8056090D01*
G01X4897000Y8182000D02*
X4862910Y8216090D01*
G01X4897000Y8102000D02*
X4862910Y8136090D01*
G01X4897000Y8582000D02*
X4862910Y8616090D01*
G01X4822000Y8704700D02*
Y8796000D01*
G01D02*
Y8887300D01*
G01Y8796000D02*
X4890810D01*
G01X4823000Y8916700D02*
Y9008000D01*
G01D02*
Y9099300D01*
G01Y9008000D02*
X4891810D01*
G01X4879500Y9107700D02*
Y9143000D01*
G01D02*
Y9178300D01*
G01X4849200Y9143000D02*
X4879500D01*
G01X4821000Y9269200D02*
Y9299500D01*
G01X4880500Y9179700D02*
Y9215000D01*
G01D02*
Y9250300D01*
G01X4850200Y9215000D02*
X4880500D01*
G01X4785700Y9299500D02*
X4821000D01*
G01D02*
X4856300D01*
G01X5571000Y11786000D02*
X5370000Y11585000D01*
X5090000D01*
X4896000Y11391000D01*
Y10322000D01*
G01X4962350Y4478350D02*
X5043000Y4397700D01*
Y4351000D01*
G01X5088000Y4466000D02*
X5041300D01*
X5037300Y4470000D01*
X5015000D01*
X5012000Y4473000D01*
Y4501000D01*
G01X5128000Y4666000D02*
X5081300D01*
X5075300Y4660000D01*
X5021000D01*
X4980000Y4701000D01*
Y4744000D01*
G01X5004000Y6335000D02*
Y6223000D01*
X4984000Y6203000D01*
G01X4977000Y7222000D02*
X4942910Y7187910D01*
G01X5057000Y7382000D02*
X5022910Y7347910D01*
G01X4977000Y7302000D02*
X4942910Y7267910D01*
G01X4977000Y7382000D02*
X4942910Y7347910D01*
G01X5057000Y7462000D02*
X5022910Y7427910D01*
G01X4977000Y7462000D02*
X4942910Y7427910D01*
G01X4977000Y7622000D02*
X4942910Y7587910D01*
G01X5057000Y7542000D02*
X5022910Y7507910D01*
G01X4977000Y7542000D02*
X4942910Y7507910D01*
G01X5057000Y7622000D02*
X5022910Y7587910D01*
G01X5057000Y7702000D02*
X5022910Y7667910D01*
G01X4977000Y7702000D02*
X4942910Y7667910D01*
G01X4977000Y7782000D02*
X4942910Y7747910D01*
G01X5057000Y7782000D02*
X5022910Y7747910D01*
G01X4977000Y7862000D02*
X4942910Y7827910D01*
G01X4977000Y7942000D02*
X4942910Y7976090D01*
G01X5057000Y7942000D02*
X5022000Y7977000D01*
G01X5057000Y8022000D02*
X5022910Y8056090D01*
G01X4977000Y8022000D02*
X4942910Y8056090D01*
G01X4977000Y8102000D02*
X4942910Y8136090D01*
G01X5057000Y8182000D02*
X5022910Y8216090D01*
G01X5057000Y8102000D02*
X5022910Y8136090D01*
G01X4977000Y8182000D02*
X4942910Y8216090D01*
G01X5057000Y8262000D02*
X5022910Y8296090D01*
G01X4977000Y8262000D02*
X4942910Y8296090D01*
G01X4977000Y8422000D02*
X4942910Y8456090D01*
G01X5057000Y8342000D02*
X5022910Y8376090D01*
G01X5057000Y8422000D02*
X5022910Y8456090D01*
G01X5057000Y8502000D02*
X5022910Y8536090D01*
G01X4977000Y8502000D02*
X4942910Y8536090D01*
G01X4977000Y8582000D02*
X4942910Y8616090D01*
G01X5057000Y8582000D02*
X5022910Y8616090D01*
G01X4986000Y9304000D02*
X4916000Y9374000D01*
Y9482000D01*
G01X4928000Y14231000D02*
X5003000D01*
X5158000Y14076000D01*
G01X5252000Y7063000D02*
X5078000D01*
X5032000Y7109000D01*
G01X5137000Y7302000D02*
X5171090Y7267910D01*
G01X5137000Y7382000D02*
X5171090Y7347910D01*
G01X5137000Y7462000D02*
X5171090Y7427910D01*
G01X5137000Y7622000D02*
X5171090Y7587910D01*
G01X5137000Y7542000D02*
X5171090Y7507910D01*
G01X5137000Y7702000D02*
X5171090Y7667910D01*
G01X5137000Y7782000D02*
X5171090Y7747910D01*
G01X5137000Y7862000D02*
X5171090Y7827910D01*
G01X5137000Y8022000D02*
X5172000Y8057000D01*
G01X5137000Y8102000D02*
X5171090Y8136090D01*
G01X5137000Y8182000D02*
X5171090Y8216090D01*
G01X5137000Y8262000D02*
X5171090Y8296090D01*
G01X5137000Y8422000D02*
X5171090Y8456090D01*
G01X5137000Y8342000D02*
X5171090Y8376090D01*
G01X5137000Y8502000D02*
X5171090Y8536090D01*
G01X5137000Y8582000D02*
X5171090Y8616090D01*
G01X5052000Y9530000D02*
Y8742700D01*
X5092000Y8702700D01*
Y8671000D01*
G01X5118000Y8792000D02*
X5207000Y8881000D01*
X5338000D01*
X5370000Y8849000D01*
Y8772000D01*
G01X5363000Y9205000D02*
Y9046000D01*
X5355000Y9038000D01*
X5179000D01*
X5099000Y8958000D01*
Y8817840D01*
X5086300Y8805140D01*
Y8778860D01*
X5134160Y8731000D01*
X5166000D01*
G01X5238000Y4666000D02*
X5328000D01*
X5340000Y4678000D01*
G01X5238000Y6317000D02*
Y6037000D01*
X5237000Y6036000D01*
G01X5191000Y6806000D02*
Y6731700D01*
X5193000Y6729700D01*
Y6678000D01*
G01X5217000Y7382000D02*
X5251090Y7347910D01*
G01Y7427910D02*
X5255000Y7424000D01*
Y7351820D01*
X5251090Y7347910D01*
G01X5217000Y7302000D02*
X5251090Y7267910D01*
G01X5217000Y7462000D02*
X5251090Y7427910D01*
G01X5217000Y7542000D02*
X5251090Y7507910D01*
G01X5217000Y7622000D02*
X5251090Y7587910D01*
G01X5217000Y7702000D02*
X5251090Y7667910D01*
G01X5217000Y7862000D02*
X5251090Y7827910D01*
G01X5217000Y7782000D02*
X5251090Y7747910D01*
G01X5217000Y7942000D02*
X5251090Y7976090D01*
G01X5217000Y8022000D02*
X5251090Y8056090D01*
G01X5217000Y8182000D02*
X5251090Y8216090D01*
G01X5217000Y8102000D02*
X5251090Y8136090D01*
G01X5217000Y8262000D02*
X5251090Y8296090D01*
G01X5217000Y8342000D02*
X5251090Y8376090D01*
G01X5217000Y8422000D02*
X5251090Y8456090D01*
G01X5217000Y8502000D02*
X5251090Y8536090D01*
G01X5268000Y8689000D02*
X5187000D01*
X5180000Y8682000D01*
G01X5217000Y8582000D02*
X5251090Y8616090D01*
G01X5181000Y12395000D02*
X5202000Y12416000D01*
X5553000D01*
X5784000Y12647000D01*
X8552000D01*
X9367000Y11832000D01*
Y11252000D01*
X9552000Y11067000D01*
Y10275000D01*
G01X5343000Y4351000D02*
X5342000Y4352000D01*
Y4429000D01*
X5377000Y4464000D01*
X5389000D01*
X5397000Y4472000D01*
Y4509000D01*
G01X5465000Y4454000D02*
Y4531000D01*
X5442310Y4553690D01*
X5359690D01*
X5339810Y4533810D01*
Y4512810D01*
X5298000Y4471000D01*
Y4466000D01*
G01X5369000Y6150000D02*
X5620000D01*
X5654000Y6116000D01*
G01X5340000Y7263000D02*
Y7259000D01*
X5377000Y7222000D01*
G01X5297000Y7382000D02*
X5331090Y7347910D01*
G01X5377000Y7462000D02*
X5411090Y7427910D01*
G01X5297000Y7622000D02*
X5331090Y7587910D01*
G01X5297000Y7542000D02*
X5331090Y7507910D01*
G01X5377000Y7542000D02*
X5411090Y7507910D01*
G01X5377000Y7622000D02*
X5411090Y7587910D01*
G01X5377000Y7702000D02*
X5411090Y7667910D01*
G01X5297000Y7702000D02*
X5331090Y7667910D01*
G01X5297000Y7782000D02*
X5331090Y7747910D01*
G01X5377000Y7782000D02*
X5411090Y7747910D01*
G01X5297000Y7862000D02*
X5331090Y7827910D01*
G01D02*
Y7821090D01*
X5325000Y7815000D01*
G01X5377000Y7862000D02*
X5411090Y7827910D01*
G01X5297000Y7942000D02*
X5331090Y7976090D01*
G01X5377000Y7942000D02*
X5411090Y7976090D01*
G01X5377000Y8022000D02*
X5411090Y8056090D01*
G01X5297000Y8022000D02*
X5331090Y8056090D01*
G01X5297000Y8102000D02*
X5331090Y8136090D01*
G01X5297000Y8182000D02*
X5331090Y8216090D01*
G01X5377000Y8102000D02*
X5411090Y8136090D01*
G01X5377000Y8262000D02*
X5411090Y8296090D01*
G01X5297000Y8262000D02*
X5331090Y8296090D01*
G01X5377000Y8422000D02*
X5411090Y8456090D01*
G01X5297000Y8422000D02*
X5331090Y8456090D01*
G01Y8536090D02*
X5335000Y8532180D01*
Y8460000D01*
X5331090Y8456090D01*
G01X5297000Y8342000D02*
X5331090Y8376090D01*
G01X5377000Y8342000D02*
X5411090Y8376090D01*
G01X5297000Y8502000D02*
X5331090Y8536090D01*
G01X5297000Y8582000D02*
X5331090Y8616090D01*
G01X5797000Y8687000D02*
X5327000D01*
X5275500Y8738500D01*
Y8782500D01*
G01X5325000Y12506000D02*
X5438000D01*
X5716000Y12784000D01*
X8672000D01*
X9494000Y11962000D01*
X9558000D01*
G01X5277000Y12458000D02*
X5494000D01*
X5768000Y12732000D01*
X8563000D01*
X9558000Y11737000D01*
Y11166000D01*
G01X5941500Y4041500D02*
X5909800D01*
X5893300Y4025000D01*
X5515700D01*
X5504700Y4036000D01*
X5458000D01*
G01Y4086000D02*
X5511000D01*
G01X5458000Y4286000D02*
X5439000D01*
G01X6451000Y4605000D02*
X6409000Y4647000D01*
X5548000D01*
X5502000Y4601000D01*
Y4428000D01*
X5466810Y4392810D01*
X5417310D01*
X5393000Y4368500D01*
Y4351000D01*
G01X6556000Y4783000D02*
X5489000D01*
X5417000Y4711000D01*
G01X5492000Y5432000D02*
X5546000Y5486000D01*
Y5599000D01*
X5580000Y5633000D01*
Y5702000D01*
X5550000Y5732000D01*
Y6110000D01*
X5552000Y6112000D01*
G01X5408000Y6256000D02*
X5499000D01*
X5552000Y6203000D01*
G01X5764000Y6197000D02*
X5733000D01*
X5671000Y6259000D01*
X5670000D01*
X5576000Y6353000D01*
X5525000D01*
X5490000Y6388000D01*
Y6472000D01*
X5514000Y6496000D01*
Y6973000D01*
X5544000Y7003000D01*
Y7029000D01*
G01X5603000Y5829000D02*
X5669000D01*
X5769000Y5929000D01*
Y6129000D01*
X5566000Y6332000D01*
X5512000D01*
X5415000Y6429000D01*
Y7056000D01*
G01X5501000Y7346000D02*
X5537000Y7310000D01*
Y7302000D01*
G01X5457000Y7462000D02*
X5491090Y7427910D01*
G01X5457000Y7622000D02*
X5491090Y7587910D01*
G01X5457000Y7542000D02*
X5491090Y7507910D01*
G01X5457000Y7702000D02*
X5491090Y7667910D01*
G01X5457000Y7782000D02*
X5491090Y7747910D01*
G01X5457000Y7862000D02*
X5491090Y7827910D01*
G01X5457000Y7942000D02*
X5491090Y7976090D01*
G01X5457000Y8022000D02*
X5491090Y8056090D01*
G01X5457000Y8102000D02*
X5491090Y8136090D01*
G01X5457000Y8262000D02*
X5491090Y8296090D01*
G01X5420000Y12610000D02*
X5678000Y12868000D01*
X9554000D01*
G01X5642000Y3924000D02*
X5593300D01*
X5583000Y3934300D01*
Y3981000D01*
G01X5691000Y5307000D02*
X5654700D01*
X5653700Y5308000D01*
X5602000D01*
G01Y5432000D02*
X6215000D01*
X6469000Y5686000D01*
Y7559000D01*
X6373000Y7655000D01*
X6138000D01*
X6036000Y7757000D01*
Y7804000D01*
X5956420Y7883580D01*
X5912420D01*
X5890000Y7906000D01*
G01X5602000Y5563000D02*
Y5731000D01*
G01X5552000Y6112000D02*
X5583700D01*
X5602000Y6093700D01*
Y6047000D01*
G01X5569000Y6390000D02*
Y6395000D01*
X5632000Y6458000D01*
Y7100000D01*
G01X5549000Y6942000D02*
Y6432000D01*
X5532000Y6415000D01*
G01X5617000Y7222000D02*
X5651090Y7187910D01*
G01X5617000Y7302000D02*
X5651090Y7267910D01*
G01X5537000Y7462000D02*
X5571090Y7427910D01*
G01X5617000Y7542000D02*
X5651090Y7507910D01*
G01X5537000Y7542000D02*
X5571090Y7507910D01*
G01X5617000Y7622000D02*
X5651090Y7587910D01*
G01X5537000Y7702000D02*
X5571090Y7667910D01*
G01X5617000Y7782000D02*
X5651090Y7747910D01*
G01X5537000Y7782000D02*
X5571090Y7747910D01*
G01X5537000Y7862000D02*
X5571090Y7827910D01*
G01X5617000Y7862000D02*
X5651090Y7827910D01*
G01X5537000Y7942000D02*
X5571090Y7976090D01*
G01X5537000Y8022000D02*
X5571090Y8056090D01*
G01X5617000Y8022000D02*
X5651090Y8056090D01*
G01X5537000Y8102000D02*
X5571090Y8136090D01*
G01X5617000Y8102000D02*
X5651090Y8136090D01*
G01X5537000Y8182000D02*
X5571090Y8216090D01*
G01X5617000Y8182000D02*
X5651090Y8216090D01*
G01X5537000Y8262000D02*
X5571090Y8296090D01*
G01X5617000Y8262000D02*
X5651090Y8296090D01*
G01X5676920Y8461720D02*
X5676200Y8461000D01*
X5656000D01*
X5617000Y8422000D01*
G01Y8342000D02*
X5656000Y8381000D01*
X5675710D01*
X5675900Y8381190D01*
G01X5537000Y8342000D02*
X5571090Y8376090D01*
G01X5537000Y8422000D02*
X5571090Y8456090D01*
G01X5537000Y8502000D02*
X5571090Y8536090D01*
G01X5592190Y8877000D02*
X5661000D01*
G01X5594190Y9102000D02*
X5663000D01*
G01X5598190Y9323000D02*
X5667000D01*
G01X5601190Y9541000D02*
X5670000D01*
G01X5599190Y9791000D02*
X5668000D01*
G01X5613500Y9899700D02*
Y9935000D01*
G01D02*
Y9970300D01*
G01Y9935000D02*
X5643800D01*
G01X5615500Y9988700D02*
Y10024000D01*
G01X5617500Y10066700D02*
Y10102000D01*
G01D02*
Y10137300D01*
G01Y10102000D02*
X5647800D01*
G01X5615500Y10024000D02*
Y10059300D01*
G01Y10024000D02*
X5645800D01*
G01X5524000Y12208000D02*
X5620000Y12112000D01*
Y12027000D01*
X6106000Y11541000D01*
Y11388000D01*
G01X5707000Y3680000D02*
X5859000Y3528000D01*
Y3424000D01*
X6273000Y3010000D01*
X6904000D01*
X7198000Y3304000D01*
Y3802000D01*
G01X5736000Y3817000D02*
Y3894420D01*
X5733710Y3896710D01*
G01X5683000Y5910000D02*
X5716000Y5943000D01*
Y5967000D01*
X5711000Y5972000D01*
G01X5657000Y7428000D02*
X5697000Y7388000D01*
Y7382000D01*
G01Y7302000D02*
X5731090Y7267910D01*
G01D02*
X5894910D01*
X5926000Y7299000D01*
Y7642000D01*
G01X5697000Y7622000D02*
X5731090Y7587910D01*
G01X5697000Y7862000D02*
X5731090Y7827910D01*
G01X5697000Y7782000D02*
X5731090Y7747910D01*
G01X5697000Y7942000D02*
X5731090Y7976090D01*
G01X5697000Y8022000D02*
X5731090Y8056090D01*
G01X5697000Y8182000D02*
X5731090Y8216090D01*
G01X5697000Y8102000D02*
X5731090Y8136090D01*
G01X5697000Y8262000D02*
X5731090Y8296090D01*
G01X5697000Y8422000D02*
X5731090Y8456090D01*
G01X5697000Y8342000D02*
X5731090Y8376090D01*
G01X5697000Y8582000D02*
X5731090Y8616090D01*
G01X5661000Y8785700D02*
Y8877000D01*
G01D02*
Y8968300D01*
G01Y8877000D02*
X5729810D01*
G01X5663000Y9010700D02*
Y9102000D01*
G01D02*
Y9193300D01*
G01Y9102000D02*
X5731810D01*
G01X5667000Y9231700D02*
Y9323000D01*
G01D02*
Y9414300D01*
G01Y9323000D02*
X5735810D01*
G01X5670000Y9449700D02*
Y9541000D01*
G01D02*
Y9632300D01*
G01Y9541000D02*
X5738810D01*
G01X5668000Y9699700D02*
Y9791000D01*
G01D02*
Y9882300D01*
G01Y9791000D02*
X5736810D01*
G01X5620500Y10153700D02*
Y10189000D01*
G01D02*
Y10224300D01*
G01Y10189000D02*
X5650800D01*
G01X5721000Y10269200D02*
Y10299500D01*
G01X5685700D02*
X5721000D01*
G01D02*
X5756300D01*
G01X6366000Y4520000D02*
X5841000D01*
X5837000Y4524000D01*
G01X6017000Y5487000D02*
X6019000Y5489000D01*
Y5742000D01*
X5939000Y5822000D01*
X5773000D01*
G01X5822500Y6233700D02*
Y6269000D01*
G01D02*
Y6304300D01*
G01Y6269000D02*
X5852800D01*
G01X5806190Y6427000D02*
X5875000D01*
G01X5806190Y6687000D02*
X5875000D01*
G01X5815190Y6946000D02*
X5884000D01*
G01X5847700Y7125500D02*
X5883000D01*
G01X5777000Y7222000D02*
X5811090Y7187910D01*
G01X5777000Y7382000D02*
X5811090Y7347910D01*
G01X5777000Y7622000D02*
X5811090Y7587910D01*
G01X5777000Y7542000D02*
X5811090Y7507910D01*
G01X5777000Y7862000D02*
X5811090Y7827910D01*
G01X6168000Y5552000D02*
X6381000Y5765000D01*
Y7143000D01*
X6263000Y7261000D01*
X6175000D01*
X5960000Y7476000D01*
Y7679000D01*
X5811090Y7827910D01*
G01X5777000Y7942000D02*
X5811090Y7976090D01*
G01X5777000Y8022000D02*
X5811090Y8056090D01*
G01X5777000Y8102000D02*
X5811090Y8136090D01*
G01X6513000Y5645000D02*
X6491000Y5667000D01*
Y7320000D01*
X6507000Y7336000D01*
Y7582000D01*
X6481000Y7608000D01*
X6480000D01*
X6140000Y7948000D01*
X6070000D01*
X6063000Y7955000D01*
X6037000D01*
X6030000Y7948000D01*
X5956000D01*
X5955000Y7949000D01*
X5938000D01*
X5918000Y7969000D01*
Y8081000D01*
X5862910Y8136090D01*
X5811090D01*
G01X5777000Y8262000D02*
X5811090Y8296090D01*
G01X6403000Y8286000D02*
X6365000Y8324000D01*
X6064000D01*
X6036090Y8296090D01*
X5811090D01*
G01X5777000Y8422000D02*
X5811090Y8456090D01*
G01X5777000Y8342000D02*
X5811090Y8376090D01*
G01D02*
X5886000Y8451000D01*
G01X5777000Y8502000D02*
X5811090Y8536090D01*
G01Y8616090D02*
X5918180Y8509000D01*
X6169000D01*
X6198000Y8538000D01*
X6270000D01*
G01X5777000Y8582000D02*
X5811090Y8616090D01*
G01X5809000Y10269200D02*
Y10299500D01*
G01X5773700D02*
X5809000D01*
G01D02*
X5844300D01*
G01X5749000Y11140000D02*
X5997000D01*
X6023000Y11114000D01*
G01X5898000Y6162500D02*
Y6192800D01*
G01X5862700Y6162500D02*
X5898000D01*
G01D02*
X5933300D01*
G01X5966700Y6163500D02*
X6002000D01*
G01X5875000Y6335700D02*
Y6427000D01*
G01D02*
Y6518300D01*
G01Y6427000D02*
X5943810D01*
G01X5875000Y6595700D02*
Y6687000D01*
G01D02*
Y6778300D01*
G01Y6687000D02*
X5943810D01*
G01X5884000Y6854700D02*
Y6946000D01*
G01D02*
Y7037300D01*
G01Y6946000D02*
X5952810D01*
G01X5973000Y7101200D02*
Y7131500D01*
G01X5937700D02*
X5973000D01*
G01D02*
X6008300D01*
G01X5883000Y7095200D02*
Y7125500D01*
G01D02*
X5918300D01*
G01X6104000Y5529000D02*
X6144000Y5489000D01*
X6196000D01*
X6427000Y5720000D01*
Y7176000D01*
X6391000Y7212000D01*
Y7239000D01*
X6440000Y7288000D01*
Y7481000D01*
X6342000Y7579000D01*
X6134000D01*
X5998000Y7715000D01*
Y7771000D01*
X5956000Y7813000D01*
G01X5942000Y7917000D02*
X5976000D01*
X6133000Y7760000D01*
G01X5962000Y7990000D02*
Y8122000D01*
G01X7297000Y8375000D02*
X7166000Y8244000D01*
X7047000D01*
X6934000Y8131000D01*
X6724000D01*
X6623000Y8030000D01*
X6270000D01*
X6178000Y8122000D01*
X5962000D01*
G01X5901000Y8264000D02*
X5948390D01*
X6009390Y8203000D01*
X6157000D01*
X6180000Y8226000D01*
X6761000D01*
G01X5902000Y8603000D02*
X6066610D01*
X6077610Y8614000D01*
X6650000D01*
X6701190Y8665190D01*
Y8670190D01*
X6743000Y8712000D01*
X6748000D01*
G01X5953700Y8736500D02*
X5989000D01*
G01X5956000Y10111200D02*
Y10214000D01*
G01D02*
Y10316800D01*
G01X5873200Y10214000D02*
X5956000D01*
G01D02*
X6038800D01*
G01X5968000Y13763000D02*
X6046000D01*
X6326000Y13483000D01*
Y13354000D01*
X6243000Y13271000D01*
Y13221000D01*
G01X6079000Y3699000D02*
Y3552000D01*
X5999000Y3472000D01*
G01X6281000Y4436000D02*
X6122000D01*
X6090000Y4468000D01*
G01X6081000Y5470000D02*
X6060000Y5491000D01*
Y5548000D01*
X6075000Y5563000D01*
Y5901000D01*
G01X6002000Y6163500D02*
Y6193800D01*
G01Y6163500D02*
X6037300D01*
G01X6050190Y6276000D02*
X6119000D01*
G01X6055190Y6524000D02*
X6124000D01*
G01X6048190Y6741000D02*
X6117000D01*
G01X6045190Y6959000D02*
X6114000D01*
G01X6050000Y7100200D02*
Y7130500D01*
G01X6014700D02*
X6050000D01*
G01D02*
X6085300D01*
G01X6085700D02*
X6121000D01*
G01X6038000Y7466000D02*
X6122300D01*
X6135300Y7453000D01*
X6187000D01*
G01X6030000Y7543000D02*
X6116300D01*
X6135300Y7524000D01*
X6187000D01*
G01X6317000Y7697000D02*
X6276000D01*
X6050000Y7923000D01*
G01X6044000Y8364000D02*
X6055000Y8375000D01*
X6113000D01*
G01X5989000Y8736500D02*
Y8766800D01*
G01Y8736500D02*
X6024300D01*
G01X6092190Y8870000D02*
X6161000D01*
G01X6090190Y9156000D02*
X6159000D01*
G01X6096190Y9418000D02*
X6165000D01*
G01X6094190Y9662000D02*
X6163000D01*
G01X6093190Y9911000D02*
X6162000D01*
G01X6089190Y10157000D02*
X6158000D01*
G01X6075700Y10302500D02*
X6111000D01*
G01X6119000Y6184700D02*
Y6276000D01*
G01D02*
Y6367300D01*
G01Y6276000D02*
X6187810D01*
G01X6124000Y6432700D02*
Y6524000D01*
G01D02*
Y6615300D01*
G01X6117000Y6649700D02*
Y6741000D01*
G01D02*
Y6832300D01*
G01Y6741000D02*
X6185810D01*
G01X6114000Y6867700D02*
Y6959000D01*
G01D02*
Y7050300D01*
G01Y6959000D02*
X6182810D01*
G01X6121000Y7100200D02*
Y7130500D01*
G01D02*
X6156300D01*
G01X6110000Y7381000D02*
X6186000D01*
X6187000Y7380000D01*
G01X6408000Y7301000D02*
X6219300D01*
X6187000Y7333300D01*
Y7380000D01*
G01X6883000Y6996000D02*
X6879000Y7000000D01*
Y7107000D01*
X7040000Y7268000D01*
Y7912000D01*
X6900000Y8052000D01*
X6703000D01*
X6641000Y7990000D01*
X6148000D01*
G01X6182000Y8177000D02*
X6237000D01*
X6345000Y8069000D01*
G01X6161000Y8778700D02*
Y8870000D01*
G01D02*
Y8961300D01*
G01Y8870000D02*
X6229810D01*
G01X6159000Y9064700D02*
Y9156000D01*
G01D02*
Y9247300D01*
G01Y9156000D02*
X6227810D01*
G01X6165000Y9326700D02*
Y9418000D01*
G01D02*
Y9509300D01*
G01Y9418000D02*
X6233810D01*
G01X6163000Y9570700D02*
Y9662000D01*
G01D02*
Y9753300D01*
G01Y9662000D02*
X6231810D01*
G01X6162000Y9819700D02*
Y9911000D01*
G01D02*
Y10002300D01*
G01Y9911000D02*
X6230810D01*
G01X6158000Y10065700D02*
Y10157000D01*
G01D02*
Y10248300D01*
G01Y10157000D02*
X6226810D01*
G01X6111000Y10272200D02*
Y10302500D01*
G01D02*
X6146300D01*
G01X6187000Y10275200D02*
Y10305500D01*
G01X6151700D02*
X6187000D01*
G01D02*
X6222300D01*
G01X6177000Y12155000D02*
X6760000D01*
X6927000Y12322000D01*
G01X6233000Y8414000D02*
X6484000D01*
X6612000Y8542000D01*
G01X6364000Y8700000D02*
X6460420Y8796420D01*
Y9207120D01*
X6702300Y9449000D01*
X6754000D01*
G01X6561000Y4724000D02*
X6590000Y4695000D01*
Y4596000D01*
G01X6532000Y6707000D02*
Y6131000D01*
X6557000Y6106000D01*
G01X6528000Y7301000D02*
X6693000D01*
X6776000Y7384000D01*
G01X6927000Y7935000D02*
X6928000Y7934000D01*
Y7569000D01*
X6863000Y7504000D01*
X6702000D01*
X6659000Y7461000D01*
X6556000D01*
G01X6495000Y8377000D02*
X6564000D01*
X6644000Y8297000D01*
G01X6557000Y8754000D02*
Y8817000D01*
X6523000Y8851000D01*
Y9099000D01*
X6619000Y9195000D01*
X6746000D01*
G01X6594000Y11483000D02*
X7577000Y10500000D01*
Y8966000D01*
X7643000Y8900000D01*
X8868000D01*
X8944000Y8824000D01*
Y8758000D01*
G01X6761000Y8226000D02*
Y8174000D01*
G01X6748000Y8712000D02*
Y8617000D01*
X6792000Y8573000D01*
G01X7240000Y9155000D02*
X7191000Y9204000D01*
X6949000D01*
X6912000Y9241000D01*
X6792000D01*
X6746000Y9195000D01*
G01X6946000Y9703000D02*
X6942000Y9699000D01*
X6867000D01*
X6754000Y9586000D01*
Y9449000D01*
G01X6766000Y13438000D02*
Y13629400D01*
X6752000Y13643400D01*
G01X6813000Y7162000D02*
X6855000Y7204000D01*
X6908000D01*
X6981000Y7277000D01*
Y7659000D01*
G01X7664000Y11228000D02*
X6901000D01*
G01X6981000Y6471000D02*
Y6195000D01*
X6986000Y6190000D01*
G01X6969000Y10305000D02*
X7025000Y10249000D01*
X7106000D01*
X7329000Y10026000D01*
Y8239000D01*
X7237000Y8147000D01*
X7143000D01*
X7108000Y8112000D01*
Y8051000D01*
X7091000Y8034000D01*
X7074000D01*
G01X8449000Y13559000D02*
X8537000Y13471000D01*
Y13123000D01*
X8418000Y13004000D01*
X7043000D01*
G01X7165000Y7606000D02*
X7278000D01*
X7323000Y7561000D01*
G01X7144000Y8052000D02*
X7284000Y7912000D01*
G01X10380000Y14003000D02*
Y13801000D01*
X10310000Y13731000D01*
X7974000D01*
X7732000Y13489000D01*
X7186000D01*
X7085000Y13590000D01*
Y14010000D01*
X7078000Y14017000D01*
G01Y14083000D02*
Y14197300D01*
X7075000Y14200300D01*
Y14292000D01*
G01X7215000Y10914000D02*
X8493000D01*
X8954000Y10453000D01*
Y10178000D01*
G01X7347000Y13994220D02*
Y14182300D01*
X7329000Y14200300D01*
Y14292000D01*
G01X7482000Y11973000D02*
X7597300D01*
X7612300Y11988000D01*
X7664000D01*
G01X7578000Y2893000D02*
X7686000D01*
X7701190Y2908190D01*
Y2915690D01*
X7733000Y2947500D01*
X7740500D01*
G01X7621000Y3016000D02*
X7677300D01*
X7681300Y3020000D01*
X7733000D01*
G01X7593000Y13668000D02*
Y14282000D01*
X7583000Y14292000D01*
G01X7688000Y9485000D02*
X8117000D01*
X8222000Y9590000D01*
X8837000D01*
X8939000Y9488000D01*
X8944000D01*
G01X7814000Y2834000D02*
Y2886000D01*
X7836190Y2908190D01*
Y2915690D01*
X7868000Y2947500D01*
X7875500D01*
G01X7848000Y13770000D02*
Y14281000D01*
X7837000Y14292000D01*
G01X8102000Y13943000D02*
Y14281000D01*
X8091000Y14292000D01*
G01X8164410Y8318000D02*
X8509000D01*
G01X8949000Y9233000D02*
X8606740D01*
X8591740Y9218000D01*
X8509000D01*
G01X8830000Y13242190D02*
Y13311000D01*
G01X8738700D02*
X8830000D01*
G01D02*
X8921300D01*
G01X8778200Y13446000D02*
X8856000D01*
G01X8916000Y2841000D02*
X9008000D01*
X9036000Y2813000D01*
G01X9123000Y3502000D02*
X8938000D01*
X8921000Y3519000D01*
G01X8929000Y4253000D02*
X8995000Y4319000D01*
Y4374000D01*
X9013000Y4392000D01*
Y4878000D01*
X8938000Y4953000D01*
X8929000D01*
G01X8949000Y9233000D02*
X9092000Y9090000D01*
Y8596000D01*
X9029000Y8533000D01*
X8949000D01*
G01Y9933000D02*
X9048000Y9834000D01*
Y9310000D01*
X8971000Y9233000D01*
X8949000D01*
G01X8944000Y9488000D02*
Y9399700D01*
X8949000Y9394700D01*
Y9343000D01*
G01X8948200Y13446000D02*
X9026000D01*
G01X8856000D02*
Y13536310D01*
G01X9011700Y13219000D02*
X9103000D01*
G01X9026000Y13355690D02*
Y13446000D01*
G01D02*
X9103800D01*
G01X9103000Y13150190D02*
Y13219000D01*
G01D02*
Y13287810D01*
G01Y13219000D02*
X9194300D01*
G01X9276000Y13279200D02*
Y13318000D01*
G01D02*
Y13356800D01*
G01X9235200Y13318000D02*
X9276000D01*
G01X9271000Y13405200D02*
Y13444000D01*
G01D02*
Y13482800D01*
G01X9230200Y13444000D02*
X9271000D01*
G01X10174000Y6128000D02*
X9360000D01*
G01X10154000Y7318000D02*
X9348000D01*
G01X10114000Y8458000D02*
X9434000D01*
G01X9447500Y9649500D02*
X10132500D01*
X10134000Y9648000D01*
G01X10377000Y14292000D02*
Y14072000D01*
X10380000Y14069000D01*
G54D59*
X5160000Y564000D03*
X5363000D03*
X5566000D03*
X5769000D03*
X5972000D03*
G54D68*
X7075000Y14292000D03*
X7329000D03*
X7583000D03*
X7837000D03*
X8091000D03*
X8345000D03*
X8599000D03*
X8853000D03*
X9107000D03*
X9361000D03*
X9615000D03*
X9869000D03*
X10123000D03*
X10377000D03*
X10631000D03*
G54D69*
X7252000Y13746570D03*
X7442000D03*
M02*
